<?xml version="1.0" encoding="UTF-8"?>
<!DOCTYPE svg PUBLIC "-//W3C//DTD SVG 1.1//EN" "http://www.w3.org/Graphics/SVG/1.1/DTD/svg11.dtd">
<!-- Creator: CorelDRAW -->
<svg xmlns="http://www.w3.org/2000/svg" xml:space="preserve" width="4.41031in" height="4.41031in" version="1.1" style="shape-rendering:geometricPrecision; text-rendering:geometricPrecision; image-rendering:optimizeQuality; fill-rule:evenodd; clip-rule:evenodd"
viewBox="0 0 1554.25 1554.25"
 xmlns:xlink="http://www.w3.org/1999/xlink"
 xmlns:xodm="http://www.corel.com/coreldraw/odm/2003">
 <defs>
  <style type="text/css">
   <![CDATA[
    .fil5 {fill:#7464EE}
    .fil1 {fill:#8276F8}
    .fil8 {fill:#88FCC1}
    .fil2 {fill:#A9A9FC}
    .fil7 {fill:#B2B1FF}
    .fil4 {fill:#E074BC}
    .fil6 {fill:#FF87DC}
    .fil3 {fill:#FFB600}
    .fil0 {fill:#FFE0DD}
   ]]>
  </style>
 </defs>
 <g id="Layer_x0020_1">
  <metadata id="CorelCorpID_0Corel-Layer"/>
  <path class="fil0" d="M864.46 909.47c9,-4.31 233.55,-3.88 271.05,-2.7 42.31,1.33 34.94,38.58 16.59,44.96l-271.99 2.15c-35.16,-1.25 -36.82,-34.26 -15.65,-44.41zm398.37 -115.1c14.9,0 52.65,-2.64 64.2,3.54 15.44,8.26 14.52,33.77 -2.42,40.92 -12.45,5.25 -232.15,2.36 -265.17,2.36 -21.68,0 -184.38,3.93 -197.16,-3.59 -14.48,-8.51 -14.57,-33.06 1.72,-40.7 11.68,-5.48 339.56,-2.53 398.83,-2.53zm-570.31 11.77l0.14 430.69 -429.91 -0.2c-14.02,4.81 -11.59,10.68 -21.66,18.38 -8.81,6.73 -22.42,7.38 -31.23,-1.71 -20.4,-21.06 9.84,-41.7 16.5,-52.11l0.37 -430.28 431.06 -0.55c9.17,-6.62 32.78,-38.13 52.84,-14.78 18.99,22.11 -12.8,37.57 -18.12,50.56zm-631.81 -211.91c0,25.62 -3.17,682.27 0.36,716.81 3.43,33.48 20.68,58.66 43.83,74.56 31.44,21.58 55.32,16.88 104.55,16.88 319.79,0 639.58,0 959.38,0l1.46 -194.39 -296.22 0.6 -0.57 -156.35 441.5 0 0 156.35 -65.53 0.04c9.55,15.8 73.47,73.34 91.75,91.07l69.27 67.33c9.98,11.44 12.77,18.11 25.36,24.2 62.22,-24.29 54.64,-104.59 54.64,-155.82l0 -638.44c-30.22,7.77 -70.33,31.65 -126.84,0.09 -55.75,-31.13 -55.47,-70.31 -67.44,-86.48l-3.68 -0.69c-30.9,141.66 -227.72,133.51 -254.33,-3.04l-4.2 0c-28.37,111.65 -139.54,133.93 -214.04,72.44 -32.72,-27 -32.56,-59.13 -42.81,-71.65 -4.98,7.54 -11.02,29.93 -17.8,42.11 -54.61,98.19 -215.87,79.52 -239.13,-42.9l-4.84 0c-15.69,97.27 -134.99,141.39 -213.68,71.68 -38.5,-34.11 -32.81,-61.22 -43.73,-74.59 -12.06,49.3 -31.65,75.67 -68.71,95.05 -49.36,25.82 -84.12,12.58 -128.57,-4.87z"/>
  <path class="fil1" d="M339.65 86.85c54.01,-20.55 82.81,60.66 30.51,80 -55.34,20.47 -81.4,-60.65 -30.51,-80zm-163.84 -86.85l1105.25 0c23.13,12.17 37.75,11.22 54.94,30.03 9.99,10.93 23.2,33.51 26.06,55.84 5.51,43.05 0.96,119.68 0.96,166.25l-112.84 0.17 -237.91 0.33 -235.11 -0.54 -240.3 0.17 -238.11 0.32 -238.04 -0.17c0,-95.76 -19.8,-192.63 43.73,-235.98 21.28,-14.52 37.87,-16.35 71.36,-16.41zm0.39 87.09c56.57,-22.1 81.22,62.79 30.33,80.05 -53.64,18.19 -82.31,-59.74 -30.33,-80.05zm326.85 -0.58c56.36,-19.7 80.59,60.22 30.81,80.14 -54.92,21.98 -82.7,-62.01 -30.81,-80.14z"/>
  <path class="fil1" d="M262.76 1236.62l429.91 0.2 -0.14 -430.69c-16.05,7.84 -204.51,201.26 -216.51,213.25 -36.16,36.16 -70.09,70.09 -106.25,106.25 -18.45,18.45 -34.67,34.68 -53.12,53.12 -12.07,12.07 -47.65,42.92 -53.88,57.86z"/>
  <polygon class="fil1" points="226.37,1201.18 657.8,770.36 226.74,770.9 "/>
  <path class="fil2" d="M1293.38 460.56l2.92 43.35 -0.08 6.76c11.97,16.17 11.69,55.35 67.44,86.48 56.51,31.56 96.62,7.68 126.84,-0.09 25.87,-16.59 39.72,-30.96 53.68,-60.72 5.59,-11.92 8.78,-24.23 10.06,-36.6l0 -26.88c-1.23,-12.61 -4.08,-25.02 -8,-36.85l-55.75 -181.74c-15.5,-6.16 -102.41,-2.24 -127.48,-2.17l-112.84 0.17 43.19 208.29z"/>
  <path class="fil2" d="M258.65 464.2l-0.65 39.84c10.91,13.37 5.23,40.49 43.73,74.59 78.69,69.71 197.98,25.6 213.68,-71.68l3.66 -3.04 -1.12 -39.72 18.93 -211.96 -238.11 0.32 -40.11 211.64z"/>
  <path class="fil2" d="M777.14 464.2l0.02 43.55c10.25,12.51 10.09,44.65 42.81,71.65 74.49,61.49 185.67,39.2 214.04,-72.44l1.07 -3.04 0.58 -40.66 -23.39 -210.65 -235.11 -0.54 -0.02 212.13z"/>
  <path class="fil3" d="M1170.3 1208.08l0.54 -73.42c16.32,8.08 27.76,23.9 40.91,36.58 12.52,12.08 24.07,30.01 37.72,37.48l65.53 -0.04 0 -156.35 -441.5 0 0.57 156.35 296.22 -0.6z"/>
  <polygon class="fil4" points="517.94,464.2 777.14,464.2 777.17,252.07 536.86,252.24 "/>
  <path class="fil4" d="M-0 463.99l258.65 0.21 40.11 -211.64 -238.04 -0.17c-8.7,34.78 -20.54,70.55 -30.72,105.46 -4.89,16.79 -9.85,34.34 -15.19,51.59 -3.55,11.45 -13.78,43 -14.8,54.55z"/>
  <path class="fil4" d="M1035.66 463.26l245.76 1.11c10.98,-0.72 9.27,2.38 11.95,-3.81l-43.19 -208.29 -237.91 0.33 23.39 210.65z"/>
  <path class="fil1" d="M1170.3 1208.08l-1.46 194.39c-0.36,25.22 -0.22,50.7 -0.07,75.93 0.15,26.02 -3.08,46.56 -3.08,75.85 13.63,-9.13 77.29,-89.64 89.33,-104.96 10.59,-13.48 21.14,-22.75 29.06,-37.72l141.81 13.01c9.81,1.24 35.51,4.96 46.4,5.21l-36.43 -38.46c-12.59,-6.09 -15.39,-12.76 -25.36,-24.2l-69.27 -67.33c-18.28,-17.73 -82.2,-75.27 -91.75,-91.07 -13.65,-7.47 -25.2,-25.4 -37.72,-37.48 -13.15,-12.68 -24.59,-28.5 -40.91,-36.58l-0.54 73.42z"/>
  <path class="fil5" d="M657.8 770.36l-431.43 430.82c-6.67,10.41 -36.9,31.05 -16.5,52.11 8.8,9.09 22.42,8.45 31.23,1.71 10.07,-7.7 7.64,-13.57 21.66,-18.38 6.24,-14.94 41.82,-45.79 53.88,-57.86 18.45,-18.45 34.67,-34.68 53.12,-53.12 36.16,-36.16 70.09,-70.09 106.25,-106.25 11.99,-11.99 200.46,-205.41 216.51,-213.25 5.32,-12.99 37.11,-28.45 18.12,-50.56 -20.05,-23.35 -43.67,8.16 -52.84,14.78z"/>
  <path class="fil5" d="M1363.02 252.11c25.08,-0.07 111.99,-3.99 127.48,2.17 0,-38.21 -0.01,-76.43 0,-114.64 0.01,-45.55 0.01,-67.93 -18.71,-96.64 -18.16,-27.85 -43.76,-38.99 -74.16,-43l-116.58 0c23.13,12.17 37.75,11.22 54.94,30.03 9.99,10.93 23.2,33.51 26.06,55.84 5.51,43.05 0.96,119.68 0.96,166.25z"/>
  <path class="fil6" d="M1035.66 463.26l-0.58 40.66 3.13 3.04c26.62,136.54 223.43,144.69 254.33,3.04l3.75 -6.07 -2.92 -43.35c-2.69,6.19 -0.97,3.09 -11.95,3.81l-245.76 -1.11z"/>
  <path class="fil6" d="M60.71 594.23c44.45,17.44 79.21,30.69 128.57,4.87 37.06,-19.39 56.65,-45.76 68.71,-95.05l0.65 -39.84 -258.65 -0.21 0 18.67c0.13,26.89 1.58,37.29 14.07,61.83 12.02,23.62 26.36,35.8 46.64,49.74z"/>
  <path class="fil6" d="M519.06 503.92l1.18 3.04c23.26,122.42 184.52,141.09 239.13,42.9 6.77,-12.17 12.82,-34.57 17.8,-42.11l-0.02 -43.55 -259.21 0 1.12 39.72z"/>
  <path class="fil7" d="M864 796.9c-16.29,7.64 -16.2,32.19 -1.72,40.7 12.79,7.51 175.48,3.59 197.16,3.59 33.02,0 252.72,2.89 265.17,-2.36 16.94,-7.15 17.86,-32.66 2.42,-40.92 -11.55,-6.18 -49.3,-3.54 -64.2,-3.54 -59.27,0 -387.15,-2.95 -398.83,2.53z"/>
  <path class="fil7" d="M864.46 909.47c-21.17,10.15 -19.5,43.16 15.65,44.41l271.99 -2.15c18.35,-6.38 25.72,-43.64 -16.59,-44.96 -37.5,-1.17 -262.05,-1.61 -271.05,2.7z"/>
  <path class="fil6" d="M503.04 86.51c-51.89,18.13 -24.11,102.13 30.81,80.14 49.79,-19.93 25.56,-99.84 -30.81,-80.14z"/>
  <path class="fil3" d="M339.65 86.85c-50.89,19.36 -24.83,100.47 30.51,80 52.3,-19.35 23.5,-100.55 -30.51,-80z"/>
  <path class="fil8" d="M176.2 87.09c-51.97,20.31 -23.31,98.23 30.33,80.05 50.89,-17.25 26.24,-102.15 -30.33,-80.05z"/>
 </g>
</svg>
