<?xml version="1.0" encoding="UTF-8"?>
<!DOCTYPE svg PUBLIC "-//W3C//DTD SVG 1.1//EN" "http://www.w3.org/Graphics/SVG/1.1/DTD/svg11.dtd">
<!-- Creator: CorelDRAW X7 -->
<svg xmlns="http://www.w3.org/2000/svg" xml:space="preserve" width="6.24536in" height="6.5205in" version="1.1" shape-rendering="geometricPrecision" text-rendering="geometricPrecision" image-rendering="optimizeQuality" fill-rule="evenodd" clip-rule="evenodd"
viewBox="0 0 1104 1152"
 xmlns:xlink="http://www.w3.org/1999/xlink">
 <defs>
   <clipPath id="id0">
    <path d="M278 768c1,0 1,-1 1,-1 0,1 1,-1 1,-1l5 -9c2,-4 3,-7 6,-12 5,-8 9,-15 13,-22l80 -139c5,-14 103,-177 127,-220 6,-11 11,-23 20,-33 -60,15 -122,14 -172,44 -37,23 -66,88 -83,130 -12,27 -114,275 -35,280 23,2 26,-15 37,-17zm368 -219c42,13 140,152 53,157 -50,2 -106,9 -146,-6l-49 -8c-48,-9 -77,-5 -123,1 -24,11 -39,14 -54,32 -11,14 -25,46 0,57 15,9 34,16 51,23l44 19c1,0 3,2 4,2l3 2 39 16c5,4 2,2 4,4l22 10c32,15 50,31 90,40 39,8 77,11 118,14 100,8 119,-10 205,60 15,-4 71,-69 86,-90 35,-46 62,-96 81,-153 3,-10 12,-33 13,-44 -15,-9 -34,-23 -50,-34 -17,-12 -35,-21 -46,-37 -24,-33 -45,-66 -70,-97 -31,-41 -46,-56 -75,-91 -32,-38 -84,-78 -85,-78 -11,10 -58,102 -72,126l-43 75z"/>
   </clipPath>
   <clipPath id="id1">
    <path d="M583 238l45 25c29,16 60,35 91,52l44 27c42,10 63,-16 44,-52 18,-1 31,-4 37,-20 9,-25 -5,-31 -12,-43 -14,-3 -75,-42 -93,-52 -15,-8 -83,-46 -90,-53 -52,-11 -58,32 -42,52 -9,4 -30,-2 -38,23 -7,22 6,30 14,41z"/>
   </clipPath>
    <clipPath id="id2">
     <path d="M644 270l45 25c27,15 56,32 85,49 34,3 50,-21 33,-54 18,-1 31,-4 37,-20 9,-25 -5,-31 -12,-43 -14,-3 -75,-42 -93,-52 -6,-4 -23,-13 -40,-23 -42,-2 -46,36 -31,54 -8,4 -30,-1 -38,23 -7,23 6,30 14,41z"/>
    </clipPath>
    <clipPath id="id3">
     <path d="M583 238l45 25c29,16 60,35 91,52l44 27c42,10 63,-16 44,-52 18,-1 31,-4 37,-20 9,-25 -5,-31 -12,-43 -14,-3 -75,-42 -93,-52 -15,-8 -83,-46 -90,-53 -52,-11 -58,32 -42,52 -9,4 -30,-2 -38,23 -7,22 6,30 14,41z"/>
    </clipPath>
   <clipPath id="id4">
    <path d="M590 642c-2,8 -12,23 -16,30 -9,16 -12,26 -21,28 40,15 96,8 146,6 87,-5 -11,-144 -53,-157 -8,9 -20,34 -27,47 -9,15 -19,35 -29,46z"/>
   </clipPath>
   <clipPath id="id5">
    <path d="M413 949c12,3 29,22 47,30 22,9 45,3 56,-11 24,-33 -9,-83 -22,-110l-22 -10c-15,21 -39,76 -57,98l-2 3z"/>
   </clipPath>
 </defs>
 <g id="Layer_x0020_1">
  <metadata id="CorelCorpID_0Corel-Layer"/>
  <path fill="#663399" d="M413 949c-1,11 -11,24 -17,34 -6,9 -14,25 -20,32 -10,20 -42,31 -47,43l68 24c81,23 174,28 254,12 53,-10 100,-25 143,-46 23,-12 101,-57 113,-76 -86,-70 -105,-52 -205,-60 -41,-3 -79,-6 -118,-14 -40,-9 -58,-25 -90,-40 13,27 46,77 22,110 -11,14 -34,20 -56,11 -18,-8 -35,-27 -47,-30zm419 -722c7,12 21,18 12,43 -6,16 -19,19 -37,20 19,36 -2,62 -44,52l-2 6c1,0 53,40 85,78 29,35 44,50 75,91 25,31 46,64 70,97 11,16 29,25 46,37 16,11 35,25 50,34 27,-124 23,-228 -28,-351 -34,-82 -87,-148 -154,-206 -8,-7 -20,-18 -30,-22 3,29 -1,47 -14,69 -8,15 -23,37 -29,52zm-647 737c0,-1 0,-2 0,-2 2,5 3,-38 11,-49l82 -145c-11,2 -14,19 -37,17 -79,-5 23,-253 35,-280 17,-42 46,-107 83,-130 50,-30 112,-29 172,-44l52 -93c-8,-11 -21,-19 -14,-41 8,-25 29,-19 38,-23 -16,-20 -10,-63 42,-52 11,-18 20,-37 31,-54 6,-9 13,-19 19,-24 6,-6 16,-11 23,-17 -7,-4 -35,-11 -45,-13 -34,-7 -69,-12 -104,-14l-57 0c-35,2 -69,7 -103,17 -30,8 -63,18 -88,31 -7,4 -13,6 -20,10 -43,24 -87,48 -123,83 -87,84 -150,183 -172,303 -14,73 -13,148 1,218 26,128 93,228 174,302z"/>
  <path fill="#F9B98D" d="M278 768c1,0 1,-1 1,-1 0,1 1,-1 1,-1l5 -9c2,-4 3,-7 6,-12 5,-8 9,-15 13,-22l80 -139c5,-14 103,-177 127,-220 6,-11 11,-23 20,-33 -60,15 -122,14 -172,44 -37,23 -66,88 -83,130 -12,27 -114,275 -35,280 23,2 26,-15 37,-17zm368 -219c42,13 140,152 53,157 -50,2 -106,9 -146,-6l-49 -8c-48,-9 -77,-5 -123,1 -24,11 -39,14 -54,32 -11,14 -25,46 0,57 15,9 34,16 51,23l44 19c1,0 3,2 4,2l3 2 39 16c5,4 2,2 4,4l22 10c32,15 50,31 90,40 39,8 77,11 118,14 100,8 119,-10 205,60 15,-4 71,-69 86,-90 35,-46 62,-96 81,-153 3,-10 12,-33 13,-44 -15,-9 -34,-23 -50,-34 -17,-12 -35,-21 -46,-37 -24,-33 -45,-66 -70,-97 -31,-41 -46,-56 -75,-91 -32,-38 -84,-78 -85,-78 -11,10 -58,102 -72,126l-43 75z"/>
  <g clip-path="url(#id0)">
   <g id="_1700454344192">
    <path id="1" fill="#F9A561" d="M196 826c0,0 116,-316 165,-344 49,-28 328,-8 328,-8 217,234 29,308 -314,165l-95 154 -84 33z"/>
    <path fill="#F7A478" d="M261 691c0,0 212,74 319,125 74,36 217,36 298,33 41,-1 45,-11 83,11l160 92 -327 182 -566 -353 33 -90z"/>
   </g>
  </g>
  <path fill="none" d="M278 768c1,0 1,-1 1,-1 0,1 1,-1 1,-1l5 -9c2,-4 3,-7 6,-12 5,-8 9,-15 13,-22l80 -139c5,-14 103,-177 127,-220 6,-11 11,-23 20,-33 -60,15 -122,14 -172,44 -37,23 -66,88 -83,130 -12,27 -114,275 -35,280 23,2 26,-15 37,-17zm368 -219c42,13 140,152 53,157 -50,2 -106,9 -146,-6l-49 -8c-48,-9 -77,-5 -123,1 -24,11 -39,14 -54,32 -11,14 -25,46 0,57 15,9 34,16 51,23l44 19c1,0 3,2 4,2l3 2 39 16c5,4 2,2 4,4l22 10c32,15 50,31 90,40 39,8 77,11 118,14 100,8 119,-10 205,60 15,-4 71,-69 86,-90 35,-46 62,-96 81,-153 3,-10 12,-33 13,-44 -15,-9 -34,-23 -50,-34 -17,-12 -35,-21 -46,-37 -24,-33 -45,-66 -70,-97 -31,-41 -46,-56 -75,-91 -32,-38 -84,-78 -85,-78 -11,10 -58,102 -72,126l-43 75z"/>
  <path fill="#FFB332" d="M531 331c-9,10 -14,22 -20,33 -24,43 -122,206 -127,220 12,26 16,23 46,23 -6,13 -16,29 -24,42 -8,15 -17,28 -25,44 46,-6 75,-10 123,-1l34 -63c11,4 10,11 21,14 13,3 19,-2 31,-1 10,-11 20,-31 29,-46 7,-13 19,-38 27,-47l43 -75c14,-24 61,-116 72,-126l2 -6 -44 -27c-4,5 -34,58 -35,63 16,17 6,38 -20,32 -4,12 -97,168 -111,192 -10,20 -7,23 -32,29 -17,4 -37,6 -54,1 -14,-5 -20,-10 -28,-19 -1,-1 -3,-3 -4,-4 -2,-3 -1,-1 -2,-4l106 -186c11,-19 25,-42 35,-61 -15,-15 -11,-35 17,-34 8,-3 16,-21 20,-28 6,-11 14,-22 17,-33l-45 -25 -52 93z"/>
  <path fill="#D3DCFB" d="M583 238l45 25c29,16 60,35 91,52l44 27c42,10 63,-16 44,-52 18,-1 31,-4 37,-20 9,-25 -5,-31 -12,-43 -14,-3 -75,-42 -93,-52 -15,-8 -83,-46 -90,-53 -52,-11 -58,32 -42,52 -9,4 -30,-2 -38,23 -7,22 6,30 14,41z"/>
  <g clip-path="url(#id1)">
   <g id="_1700454344576">
    <path id="1" fill="#ECF1FB" d="M644 270l45 25c29,17 60,35 91,52l44 27c42,10 63,-16 44,-51 18,-2 31,-5 37,-21 9,-25 -5,-31 -12,-43 -14,-3 -75,-42 -93,-52 -14,-8 -83,-46 -90,-53 -52,-10 -58,32 -42,52 -8,4 -30,-1 -38,23 -7,23 6,30 14,41z"/>
   </g>
   <g clip-path="url(#id2)">
    <g>
     <path id="2" fill="#E8E8ED" d="M589 314l45 26c29,16 116,66 146,83l45 27c41,10 62,-16 43,-51 18,-1 32,-4 38,-21 9,-25 -5,-30 -13,-43 -4,-1 -227,-126 -238,-137 -52,-10 -58,32 -42,52 -9,5 -30,-1 -38,24 -7,22 6,29 14,40z"/>
    </g>
   </g>
   <g clip-path="url(#id3)">
    <path fill="none" d="M644 270l45 25c29,17 60,35 91,52l44 27c42,10 63,-16 44,-51 18,-2 31,-5 37,-21 9,-25 -5,-31 -12,-43 -14,-3 -75,-42 -93,-52 -14,-8 -83,-46 -90,-53 -52,-10 -58,32 -42,52 -8,4 -30,-1 -38,23 -7,23 6,30 14,41z"/>
   </g>
  </g>
  <path fill="none" d="M583 238l45 25c29,16 60,35 91,52l44 27c42,10 63,-16 44,-52 18,-1 31,-4 37,-20 9,-25 -5,-31 -12,-43 -14,-3 -75,-42 -93,-52 -15,-8 -83,-46 -90,-53 -52,-11 -58,32 -42,52 -9,4 -30,-2 -38,23 -7,22 6,30 14,41z"/>
  <path fill="#FFDD40" d="M664 410l-90 -52c-10,19 -24,42 -35,61l-106 186c1,3 0,1 2,4 1,1 3,3 4,4 8,9 14,14 28,19 17,5 37,3 54,-1 25,-6 22,-9 32,-29 14,-24 107,-180 111,-192z"/>
  <path fill="#FF6600" d="M794 58c49,-18 75,60 25,77 -48,16 -80,-56 -25,-77zm-72 -31c-7,6 -17,11 -23,17 -6,5 -13,15 -19,24 -11,17 -20,36 -31,54 7,7 75,45 90,53 18,10 79,49 93,52 6,-15 21,-37 29,-52 13,-22 17,-40 14,-69 0,-15 -11,-36 -17,-45 -10,-13 -18,-22 -33,-31 -33,-20 -68,-18 -103,-3z"/>
  <path fill="#FFB332" d="M254 914c6,6 6,17 11,28 6,12 13,14 18,22 10,2 17,8 32,8 15,0 21,-9 32,-4 1,-11 47,-87 58,-106 6,-10 13,-30 24,-34l-3 -2c-1,0 -3,-2 -4,-2l-44 -19c-17,-7 -36,-14 -51,-23 -1,11 -13,27 -18,36 -6,11 -11,20 -18,31 -12,21 -27,44 -37,65z"/>
  <path fill="#F69A69" d="M590 642c-2,8 -12,23 -16,30 -9,16 -12,26 -21,28 40,15 96,8 146,6 87,-5 -11,-144 -53,-157 -8,9 -20,34 -27,47 -9,15 -19,35 -29,46z"/>
  <g clip-path="url(#id4)">
   <g id="_1700454346528">
    <path id="1" fill="#F48345" d="M736 640c0,0 -67,48 -157,-1 -89,-49 -73,92 -73,92l339 5 -109 -96z"/>
   </g>
  </g>
  <path fill="none" d="M590 642c-2,8 -12,23 -16,30 -9,16 -12,26 -21,28 40,15 96,8 146,6 87,-5 -11,-144 -53,-157 -8,9 -20,34 -27,47 -9,15 -19,35 -29,46z"/>
  <path fill="#FF9100" d="M278 768l-82 145c11,3 15,7 29,7 13,0 19,-5 29,-6 10,-21 25,-44 37,-65 7,-11 12,-20 18,-31 5,-9 17,-25 18,-36 -25,-11 -11,-43 0,-57 15,-18 30,-21 54,-32 8,-16 17,-29 25,-44 8,-13 18,-29 24,-42 -30,0 -34,3 -46,-23l-80 139c-4,7 -8,14 -13,22 -3,5 -4,8 -6,12l-5 9c0,0 -1,2 -1,1 0,0 0,1 -1,1z"/>
  <path fill="#FCF9EA" d="M227 1061c6,6 16,11 23,17 7,5 16,13 20,20 10,-6 19,-14 29,-20 6,-4 9,-7 15,-11 5,-4 9,-8 15,-9 5,-12 37,-23 47,-43 -18,-8 -24,-22 -29,-47 -11,-5 -17,4 -32,4 -15,0 -22,-6 -32,-8 -43,-15 -50,64 -56,97z"/>
  <path fill="#FF9100" d="M347 968c5,25 11,39 29,47 6,-7 14,-23 20,-32 6,-10 16,-23 17,-34l2 -3c18,-22 42,-77 57,-98 -2,-2 1,0 -4,-4l-39 -16c-11,4 -18,24 -24,34 -11,19 -57,95 -58,106z"/>
  <path fill="#F48345" d="M413 949c12,3 29,22 47,30 22,9 45,3 56,-11 24,-33 -9,-83 -22,-110l-22 -10c-15,21 -39,76 -57,98l-2 3z"/>
  <g clip-path="url(#id5)">
   <g id="_1700454347456">
    <path id="1" fill="#F9B98D" d="M643 973c-351,0 -266,-478 0,0z"/>
   </g>
  </g>
  <path fill="none" d="M413 949c12,3 29,22 47,30 22,9 45,3 56,-11 24,-33 -9,-83 -22,-110l-22 -10c-15,21 -39,76 -57,98l-2 3z"/>
  <path fill="#FBECA9" d="M185 964c0,15 -1,25 -3,39 -1,11 -4,29 -4,41 21,2 34,11 49,17 6,-33 13,-112 56,-97 -5,-8 -12,-10 -18,-22 -5,-11 -5,-22 -11,-28 -10,1 -16,6 -29,6 -14,0 -18,-4 -29,-7 -8,11 -9,54 -11,49 0,0 0,1 0,2z"/>
  <path fill="#FFDD40" d="M591 324c4,3 85,51 93,54 1,-5 31,-58 35,-63 -31,-17 -62,-36 -91,-52 -3,11 -11,22 -17,33 -4,7 -12,25 -20,28z"/>
  <path fill="#47477F" d="M270 1098c-4,-7 -13,-15 -20,-20 -7,-6 -17,-11 -23,-17 -15,-6 -28,-15 -49,-17l-7 61c-1,20 -8,45 14,47l4 0c18,-3 65,-43 81,-54z"/>
  <path fill="#FF8F46" d="M794 58c-56,21 -23,94 25,77 51,-17 25,-96 -25,-77z"/>
  <path fill="#FBECA9" d="M574 358l90 52c26,6 36,-15 20,-32 -8,-3 -89,-51 -93,-54 -28,-1 -32,19 -17,34z"/>
  <path fill="#FF9100" d="M504 692l49 8c9,-2 12,-12 21,-28 4,-7 14,-22 16,-30 -12,-1 -18,4 -31,1 -11,-3 -10,-10 -21,-14l-34 63z"/>
 </g>
</svg>
