<?xml version="1.0" encoding="UTF-8"?>
<!DOCTYPE svg PUBLIC "-//W3C//DTD SVG 1.1//EN" "http://www.w3.org/Graphics/SVG/1.1/DTD/svg11.dtd">
<!-- Creator: CorelDRAW X7 -->
<svg xmlns="http://www.w3.org/2000/svg" xml:space="preserve" width="4.73565in" height="5.33382in" version="1.1" shape-rendering="geometricPrecision" text-rendering="geometricPrecision" image-rendering="optimizeQuality" fill-rule="evenodd" clip-rule="evenodd"
viewBox="0 0 4049 4561"
 xmlns:xlink="http://www.w3.org/1999/xlink">
 <defs>
   <clipPath id="id0">
    <path d="M3755 1769l143 2c29,2 60,4 90,2 37,-1 44,-9 61,-27 -10,-39 -66,-72 -108,-106 -8,-6 -11,-8 -19,-16l-24 -22c-26,-10 -125,-93 -141,-114l-484 -382c-81,-65 -155,-126 -236,-191l-208 -167c-42,-20 -9,0 -45,0 -15,67 98,715 111,798l107 704c8,54 0,54 32,84 49,-12 57,-57 98,-124l249 -437 374 -4z"/>
   </clipPath>
   <clipPath id="id1">
    <path d="M3028 2864l-375 4 0 206 -396 0c-49,0 -99,0 -148,0l-375 0 0 -232c-1,-77 0,-167 0,-254l0 -699c0,-94 -1,-193 0,-278l0 -251 225 0c0,-136 0,-271 0,-407l-968 0 0 414 218 2 -12 2224 910 6c303,0 606,0 909,0l12 -735z"/>
   </clipPath>
 </defs>
 <g id="Layer_x0020_1">
  <metadata id="CorelCorpID_0Corel-Layer"/>
  <path fill="#FFAD00" d="M1252 963c154,2 157,216 272,242 3,4 132,1324 132,1503 0,141 -65,587 -40,669 121,38 1426,21 1686,24l4 -795 -403 -1 0 212 -894 -11c-21,-91 -9,-685 -9,-828 0,-280 1,-559 1,-838l1 -25 205 -2 -2 -391 -944 0c-15,65 -9,162 -9,241z"/>
  <path fill="#AFD1F1" d="M3755 1769l143 2c29,2 60,4 90,2 37,-1 44,-9 61,-27 -10,-39 -66,-72 -108,-106 -8,-6 -11,-8 -19,-16l-24 -22c-26,-10 -125,-93 -141,-114l-484 -382c-81,-65 -155,-126 -236,-191l-208 -167c-42,-20 -9,0 -45,0 -15,67 98,715 111,798l107 704c8,54 0,54 32,84 49,-12 57,-57 98,-124l249 -437 374 -4z"/>
  <g clip-path="url(#id0)">
   <g id="_1700586377088">
    <path id="1" fill="#BBDEFF" d="M4272 2046l142 1c30,3 61,4 90,3 38,-2 44,-9 62,-28 -11,-39 -66,-72 -108,-105 -9,-7 -11,-9 -20,-16l-24 -23c-26,-10 -125,-92 -140,-114l-766 -791c-81,-64 -155,-125 -237,-191l-207 -167c-42,-20 -10,0 -45,0 -16,67 97,716 111,798l107 704c8,54 0,54 31,84 50,-11 58,-56 99,-124l531 -28 374 -3z"/>
   </g>
  </g>
  <path fill="none" d="M3755 1769l143 2c29,2 60,4 90,2 37,-1 44,-9 61,-27 -10,-39 -66,-72 -108,-106 -8,-6 -11,-8 -19,-16l-24 -22c-26,-10 -125,-93 -141,-114l-484 -382c-81,-65 -155,-126 -236,-191l-208 -167c-42,-20 -9,0 -45,0 -15,67 98,715 111,798l107 704c8,54 0,54 32,84 49,-12 57,-57 98,-124l249 -437 374 -4z"/>
  <polygon fill="#799EC9" points="3755,4168 3802,4169 3898,4169 3898,2477 3828,2477 3755,2477 "/>
  <polygon fill="#799EC9" points="139,4168 211,4169 272,4169 272,2477 211,2477 139,2477 "/>
  <polygon fill="#799EC9" points="139,2084 211,2084 272,2084 272,392 211,392 139,393 "/>
  <polygon fill="#799EC9" points="404,267 1911,267 1910,125 404,125 "/>
  <polygon fill="#799EC9" points="404,4436 1910,4436 1911,4294 404,4294 "/>
  <polygon fill="#799EC9" points="2310,267 3623,267 3622,125 2311,125 "/>
  <path fill="#799EC9" d="M2311 4436l1284 -4c13,-25 12,-111 0,-135l-1285 -3 1 142z"/>
  <path fill="#799EC9" d="M3757 1488c16,21 115,104 141,114l0 -1210 -70 0 -73 1 2 1095z"/>
  <path fill="#A1C6F7" d="M3801 4561l213 0c18,-81 18,-312 0,-392l-116 0 -96 0c-26,41 -27,350 -1,392z"/>
  <path fill="#A1C6F7" d="M211 2477l61 0 125 -1c19,-80 19,-311 0,-392l-125 0 -61 0c-26,43 -26,350 0,393z"/>
  <path fill="#A1C6F7" d="M3828 2477l70 0 116 -1c18,-80 18,-311 0,-392l-116 0 -70 0c-26,43 -26,350 0,393z"/>
  <path fill="#A1C6F7" d="M3828 392l70 0 116 0c18,-81 18,-311 0,-392l-187 0c-25,42 -25,350 1,392z"/>
  <path fill="#A1C6F7" d="M2116 392l187 0c10,-42 13,-71 7,-125l1 -142c4,-55 2,-82 -8,-125l-187 0c-25,42 -25,350 0,392z"/>
  <path fill="#A1C6F7" d="M2116 4561l187 0c10,-43 12,-70 8,-125l-1 -142c6,-55 3,-83 -7,-125l-187 0c-25,42 -25,350 0,392z"/>
  <path fill="#A1C6F7" d="M210 4561l187 0c10,-43 11,-70 7,-125l0 -142c5,-55 3,-83 -7,-125l-125 0 -61 0c-26,40 -26,350 -1,392z"/>
  <path fill="#A1C6F7" d="M211 392l61 0 125 0c10,-42 12,-71 7,-125l0 -142c4,-55 3,-82 -7,-125l-187 0c-26,42 -25,351 1,392z"/>
  <path fill="#8DB3DF" d="M3755 2477l73 0c-26,-43 -26,-350 0,-393l-73 0c-44,1 -94,-5 -124,9 -20,41 -20,334 0,374 30,15 80,9 124,10z"/>
  <path fill="#8DB3DF" d="M139 2477l72 0c-26,-43 -26,-350 0,-393l-72 0 -125 0c-19,81 -19,312 0,392l125 1z"/>
  <path fill="#8DB3DF" d="M139 393l72 -1c-26,-41 -27,-350 -1,-392l-196 0c-12,54 -22,337 0,383 31,15 80,8 125,10z"/>
  <path fill="#8DB3DF" d="M210 4561c-25,-42 -25,-352 1,-392l-72 -1c-45,2 -94,-5 -125,10 -22,46 -12,329 0,383l196 0z"/>
  <path fill="#8DB3DF" d="M3622 125l1 142c-2,43 -6,87 8,116 30,15 80,8 124,10l73 -1c-26,-42 -26,-350 -1,-392l-196 0c-11,45 -9,69 -9,125z"/>
  <path fill="#8DB3DF" d="M1911 4294l-1 142c3,55 0,79 10,125l196 0c-25,-42 -25,-350 0,-392l-196 0c-10,45 -8,69 -9,125z"/>
  <path fill="#8DB3DF" d="M1910 125l1 142c1,56 -1,80 9,125l196 0c-25,-42 -25,-350 0,-392l-196 0c-10,46 -7,70 -10,125z"/>
  <path fill="#8DB3DF" d="M3595 4297c12,24 13,110 0,135 0,44 -5,90 9,120 9,4 19,7 31,9l166 0c-26,-42 -25,-351 1,-392l-47 -1c-160,5 -160,-37 -160,129z"/>
  <polygon fill="#799EC9" points="3755,2084 3828,2084 3898,2084 3898,1771 3755,1769 "/>
  <path fill="#028BFC" d="M3028 2864l-375 4 0 206 -396 0c-49,0 -99,0 -148,0l-375 0 0 -232c-1,-77 0,-167 0,-254l0 -699c0,-94 -1,-193 0,-278l0 -251 225 0c0,-136 0,-271 0,-407l-968 0 0 414 218 2 -12 2224 910 6c303,0 606,0 909,0l12 -735z"/>
  <g clip-path="url(#id1)">
   <g id="_1700586402592">
    <path id="1" fill="#027DE3" d="M3755 3697c-29,-54 11,-387 -14,-482 -45,-16 -345,-27 -377,5 -34,35 -10,141 -25,189 -63,21 -1842,21 -1907,1 -25,-83 -9,-887 -9,-1028 0,-64 -6,-680 -5,-1184l-526 0 0 2199c0,136 -16,438 9,544 92,21 1770,9 1919,9 303,0 606,0 909,0 42,-64 26,-133 26,-253z"/>
   </g>
  </g>
  <path fill="none" d="M3028 2864l-375 4 0 206 -396 0c-49,0 -99,0 -148,0l-375 0 0 -232c-1,-77 0,-167 0,-254l0 -699c0,-94 -1,-193 0,-278l0 -251 225 0c0,-136 0,-271 0,-407l-968 0 0 414 218 2 -12 2224 910 6c303,0 606,0 909,0l12 -735z"/>
 </g>
</svg>
