<?xml version="1.0" encoding="UTF-8"?>
<!DOCTYPE svg PUBLIC "-//W3C//DTD SVG 1.1//EN" "http://www.w3.org/Graphics/SVG/1.1/DTD/svg11.dtd">
<!-- Creator: CorelDRAW X7 -->
<svg xmlns="http://www.w3.org/2000/svg" xml:space="preserve" width="5.68938in" height="5.45196in" version="1.1" shape-rendering="geometricPrecision" text-rendering="geometricPrecision" image-rendering="optimizeQuality" fill-rule="evenodd" clip-rule="evenodd"
viewBox="0 0 5689 5452"
 xmlns:xlink="http://www.w3.org/1999/xlink">
 <g id="Layer_x0020_1">
  <metadata id="CorelCorpID_0Corel-Layer"/>
  <g id="_1665809009312">
   <path fill="#EDF6FF" d="M3434 3135c2,-61 -3,-67 17,-112 61,-15 165,-8 238,-9l1148 -3c0,-243 17,-2188 -12,-2242 -20,-26 6,-16 -40,-26 -15,-3 -55,-2 -73,-2 -1387,10 -2800,0 -4190,0l-219 1c-47,7 -31,5 -47,32 -24,37 -12,1503 -12,1751 0,138 -15,488 9,594 95,41 1357,16 1580,16 534,0 1067,0 1601,0z"/>
   <path fill="#445EA0" d="M0 3380l221 0 3213 0 0 -245c-534,0 -1067,0 -1601,0 -223,0 -1485,25 -1580,-16 -24,-106 -9,-456 -9,-594 0,-248 -12,-1714 12,-1751 16,-27 0,-25 47,-32l219 -1c1390,0 2803,10 4190,0 18,0 58,-1 73,2 46,10 20,0 40,26 29,54 12,1999 12,2242l244 2c0,-197 -15,-1796 8,-1838 0,-154 35,-567 -41,-642 -58,-58 -193,-41 -303,-41 -93,0 -261,-10 -345,5l-3111 0c-87,-16 -885,-5 -1045,-5 -215,0 -241,27 -244,169l0 109 0 2610z"/>
   <path fill="#293D7C" d="M316 4114l184 -1 1438 0 0 490 -304 0c-49,41 -34,82 -34,167 0,85 -15,126 34,167l1555 0c94,0 447,20 500,-23 23,-43 23,-245 0,-289 -55,-44 -181,-22 -255,-22 -97,0 -198,-3 -293,2l-986 -2 0 -487 986 -5 292 2 1 -733 -3213 0c0,141 0,282 0,423 0,59 -6,156 2,210 10,73 39,72 93,101z"/>
   <path fill="#73C500" d="M4989 4414l0 -13 -1300 1c-82,2 -188,10 -245,-18 -18,-65 -8,-190 -11,-271l-292 -2 0 494c95,-5 196,-2 293,-2 74,0 200,-22 255,22 23,44 23,246 0,289 -53,43 -406,23 -500,23l-1555 0c-261,-1 -256,39 -256,-167 0,-206 -5,-167 256,-167l304 0 0 -490 -1438 0c38,78 116,182 170,254 761,1020 2200,1390 3360,810 312,-156 504,-290 751,-538 35,-35 73,-67 104,-107 21,-27 83,-103 104,-118z"/>
   <path fill="#5CC0D7" d="M3689 4402l1300 -1c-30,-99 -156,-386 -158,-463l481 169c0,-72 -14,-185 11,-237 -45,-92 27,-741 -22,-834 -50,-41 -152,-20 -220,-23l-244 -2 -1148 3c-46,40 -33,74 -33,156l0 911c0,129 -20,267 33,321z"/>
   <path fill="#FFAE11" d="M3001 2232c264,-16 1513,19 1612,-16 24,-67 24,-826 0,-892 -98,-35 -1350,-1 -1612,-16 -55,104 -26,321 -26,462 0,142 -28,355 26,462z"/>
   <path fill="#5CC0D7" d="M821 2425c38,21 1031,5 1235,6 28,0 61,1 88,0 52,-1 48,0 68,-31 22,-34 22,-971 0,-1005 -29,-44 -43,-31 -145,-31 -204,1 -1209,-15 -1245,7l202 0c-48,78 -24,406 -24,532 0,125 -24,443 24,523l-203 -1z"/>
   <path fill="#73C500" d="M1289 497l3111 0c-2,-2 -5,-9 -6,-7l-25 -23c-66,-51 -214,-131 -287,-168 -668,-333 -1394,-393 -2117,-153 -139,46 -234,91 -357,153 -60,30 -248,131 -301,179 -15,13 -5,3 -18,19z"/>
   <path fill="#73C500" d="M5081 3013c68,3 170,-18 220,23 49,93 -23,742 22,834l60 -151c22,-55 35,-98 55,-156 191,-571 174,-1265 -55,-1831 -49,-123 -140,-309 -209,-424 -24,-39 -72,-98 -85,-133 -23,42 -8,1641 -8,1838z"/>
   <polygon fill="#445EA0" points="3141,4605 3141,4111 2155,4116 2155,4603 "/>
   <path fill="#293D7C" d="M4989 4401l0 13c24,46 52,129 71,185 22,63 42,135 74,182 83,-44 127,-129 200,-178 81,22 152,179 233,200 27,0 122,-95 122,-122 -13,-50 -62,-79 -97,-114 -43,-43 -74,-65 -103,-119 61,-91 172,-136 178,-211l-355 -130 -481 -169c2,77 128,364 158,463z"/>
   <path fill="#28A5A5" d="M3434 3135l0 245 -1 733c3,81 -7,206 11,271 57,28 163,20 245,18 -53,-54 -33,-192 -33,-321l0 -911c0,-82 -13,-116 33,-156 -73,1 -177,-6 -238,9 -20,45 -15,51 -17,112z"/>
   <path fill="#28A5A5" d="M821 2425l203 1c-48,-80 -24,-398 -24,-523 0,-126 -24,-454 24,-532l-202 0c-68,17 -43,156 -43,232l0 578c0,125 -22,222 42,244z"/>
   <path fill="#FF6600" d="M3001 2232c-54,-107 -26,-320 -26,-462 0,-141 -29,-358 26,-462 -75,0 -175,-9 -234,16 -23,61 -23,830 -1,892 60,25 159,16 235,16z"/>
   <path fill="#1A2B63" d="M316 4114c-54,-29 -83,-28 -93,-101 -8,-54 -2,-151 -2,-210 0,-141 0,-282 0,-423l-221 0 3 654c29,122 216,80 313,80z"/>
   <path fill="#C2DCF4" d="M2878 2802l411 0c63,0 114,-12 117,-78 4,-68 -52,-88 -117,-88l-412 0c-155,0 -153,166 1,166z"/>
   <path fill="#C2DCF4" d="M2878 2549l411 0c159,0 164,-166 0,-166l-414 0c-148,0 -156,166 3,166z"/>
   <path fill="#C2DCF4" d="M4108 2386c-55,12 -88,61 -56,121 26,50 100,42 159,42 149,-1 529,53 435,-124 -27,-50 -90,-43 -157,-43 -82,1 -320,-10 -381,4z"/>
   <path fill="#C2DCF4" d="M4156 2802l388 0c153,0 155,-166 1,-166l-389 0c-61,0 -111,11 -114,78 -4,73 45,88 114,88z"/>
   <path fill="#C2DCF4" d="M3525 2389c-72,27 -117,159 75,160 138,0 437,43 379,-113 -19,-52 -64,-53 -123,-54 -60,0 -292,-7 -331,7z"/>
   <path fill="#C2DCF4" d="M3578 2802c185,0 401,36 406,-78 6,-126 -224,-88 -407,-88 -154,0 -151,166 1,166z"/>
   <path fill="#50BAEE" d="M565 2836c72,-2 127,7 183,-17 12,-53 22,-255 -3,-305 -41,-38 -120,-23 -179,-25 -45,49 -31,93 -31,181 0,86 -14,112 30,166z"/>
   <path fill="#50BAEE" d="M2409 2836c73,-2 128,7 183,-17 13,-53 22,-255 -2,-305 -41,-38 -120,-23 -179,-25 -46,49 -32,93 -32,181 0,86 -13,112 30,166z"/>
   <path fill="#445EA0" d="M2479 3612c-192,91 -56,353 121,280 176,-73 75,-373 -121,-280z"/>
   <path fill="#50BAEE" d="M2413 1281c58,-1 133,13 176,-22 23,-45 23,-256 0,-301 -43,-35 -117,-21 -176,-22 -47,46 -34,80 -34,167 0,88 -14,131 34,178z"/>
   <path fill="#50BAEE" d="M568 1303c58,0 134,13 176,-22 24,-45 24,-256 0,-300 -43,-35 -117,-22 -175,-23 -48,46 -34,80 -34,167 0,88 -15,131 33,178z"/>
   <path fill="#1A2B63" d="M1634 4937c-49,-41 -34,-82 -34,-167 0,-85 -15,-126 34,-167 -261,0 -256,-39 -256,167 0,206 -5,166 256,167z"/>
   <path fill="#FF6600" d="M4382 1025c0,149 -5,146 141,146 103,0 93,-39 93,-146 0,-99 -56,-88 -149,-88 -70,0 -85,20 -85,88z"/>
   <path fill="#FF6600" d="M3760 1025c0,61 -5,82 16,134 49,15 73,12 124,12 104,0 93,-39 93,-146 0,-99 -55,-88 -148,-88 -69,0 -85,21 -85,88z"/>
   <path fill="#FF6600" d="M4071 1025c0,61 -4,82 16,134 49,15 73,12 124,12 104,0 94,-39 94,-146 0,-99 -56,-88 -149,-88 -69,0 -85,21 -85,88z"/>
   <path fill="#1E99D6" d="M565 2836c-44,-54 -30,-80 -30,-166 0,-88 -14,-132 31,-181 -48,1 -95,-6 -133,14 -39,48 -27,257 -12,315 51,26 74,17 144,18z"/>
   <path fill="#1E99D6" d="M2409 2836c-43,-54 -30,-80 -30,-166 0,-88 -14,-132 32,-181 -49,1 -96,-6 -133,14 -39,48 -27,257 -12,315 51,26 73,17 143,18z"/>
   <path fill="#1E99D6" d="M568 1303c-48,-47 -33,-90 -33,-178 0,-87 -14,-121 34,-167 -50,1 -98,-7 -136,13 -35,45 -35,275 0,320 38,19 86,12 135,12z"/>
   <path fill="#1E99D6" d="M2413 1281c-48,-47 -34,-90 -34,-178 0,-87 -13,-121 34,-167 -50,1 -97,-7 -135,13 -35,45 -35,274 0,319 37,20 86,12 135,13z"/>
   <path fill="#69CDFE" d="M2430 1374c-68,15 -70,76 -67,152 2,71 28,130 109,105 95,-29 86,-285 -42,-257z"/>
   <path fill="#69CDFE" d="M541 1374c-68,15 -71,76 -68,152 3,71 29,130 110,105 95,-29 86,-285 -42,-257z"/>
   <path fill="#69CDFE" d="M2430 2130c-68,15 -70,76 -67,151 2,71 28,130 109,106 95,-30 86,-285 -42,-257z"/>
   <path fill="#69CDFE" d="M541 2130c-68,15 -71,76 -68,151 3,71 29,130 110,106 95,-30 86,-285 -42,-257z"/>
   <path fill="#69CDFE" d="M2430 1752c-101,23 -103,285 33,259 101,-19 99,-288 -33,-259z"/>
   <path fill="#69CDFE" d="M541 1752c-101,23 -103,285 33,259 101,-19 99,-288 -33,-259z"/>
   <path fill="#69CDFE" d="M1300 2736c69,0 142,5 146,-78 4,-92 -76,-88 -146,-88 -158,0 -158,166 0,166z"/>
   <path fill="#69CDFE" d="M1678 2736c69,0 142,5 146,-78 4,-92 -76,-88 -146,-88 -158,0 -158,166 0,166z"/>
   <path fill="#69CDFE" d="M922 2736c69,0 143,5 146,-78 5,-92 -75,-88 -146,-88 -158,0 -158,166 0,166z"/>
   <path fill="#69CDFE" d="M2056 2736c69,0 142,5 146,-78 4,-92 -76,-88 -146,-88 -158,0 -159,166 0,166z"/>
   <path fill="#69CDFE" d="M1300 1225c206,0 206,-166 0,-166 -158,0 -158,166 0,166z"/>
   <path fill="#69CDFE" d="M1678 1225c206,0 205,-166 0,-166 -158,0 -159,166 0,166z"/>
   <path fill="#69CDFE" d="M922 1225c206,0 206,-166 0,-166 -158,0 -158,166 0,166z"/>
   <path fill="#69CDFE" d="M2056 1225c206,0 205,-166 0,-166 -158,0 -159,166 0,166z"/>
  </g>
 </g>
</svg>
