<?xml version="1.0" encoding="UTF-8"?>
<!DOCTYPE svg PUBLIC "-//W3C//DTD SVG 1.1//EN" "http://www.w3.org/Graphics/SVG/1.1/DTD/svg11.dtd">
<!-- Creator: CorelDRAW X7 -->
<svg xmlns="http://www.w3.org/2000/svg" xml:space="preserve" width="1.36083in" height="0.391189in" version="1.1" style="shape-rendering:geometricPrecision; text-rendering:geometricPrecision; image-rendering:optimizeQuality; fill-rule:evenodd; clip-rule:evenodd"
viewBox="0 0 743 214"
 xmlns:xlink="http://www.w3.org/1999/xlink">
 <defs>
  <style type="text/css">
   <![CDATA[
    .fil0 {fill:#94D869}
    .fil2 {fill:#FF6600}
    .fil4 {fill:#3B3663;fill-rule:nonzero}
    .fil3 {fill:white;fill-rule:nonzero}
    .fil1 {fill:url(#id0);fill-rule:nonzero}
   ]]>
  </style>
  <linearGradient id="id0" gradientUnits="userSpaceOnUse" x1="31.7556" y1="39.989" x2="149.794" y2="39.989">
   <stop offset="0" style="stop-opacity:1; stop-color:#61A83E"/>
   <stop offset="0.360784" style="stop-opacity:1; stop-color:#7AC053"/>
   <stop offset="0.290196" style="stop-opacity:1; stop-color:#86CB5D"/>
   <stop offset="0.619608" style="stop-opacity:1; stop-color:#8ED264"/>
   <stop offset="0.768627" style="stop-opacity:1; stop-color:#91D567"/>
   <stop offset="1" style="stop-opacity:1; stop-color:#94D869"/>
  </linearGradient>
 </defs>
 <g id="Layer_x0020_1">
  <metadata id="CorelCorpID_0Corel-Layer"/>
  <g id="_2128850208704">
   <path class="fil0" d="M70 39l36 0c37,0 66,30 66,66l0 43c0,36 -29,66 -66,66l-40 0c-36,0 -66,-30 -66,-66l0 -27 0 -16 0 -89 0 0 0 -1 0 0c0,-3 1,-6 3,-9l0 0c3,-3 7,-5 10,-6l0 0 1 0 0 0 0 0 0 0 1 0 0 0 0 0 0 0 0 0 1 0 0 0 0 0 0 0 0 0 0 0 0 0 1 0 0 0 0 0 0 0c0,0 0,0 1,0l0 0c2,0 5,1 8,3l44 36 0 0zm35 32c20,0 36,16 36,36l0 39c0,20 -16,35 -36,35l-38 0c-19,0 -35,-15 -35,-35 0,-32 0,-65 0,-97l29 23 44 -1 0 0z"/>
   <path class="fil1" d="M60 72l12 0 33 -1c1,0 2,0 2,0l43 -15c-12,-11 -27,-17 -44,-17l-36 0 -38 -31 0 41 28 23z"/>
  </g>
  <rect class="fil2" x="630" y="129" width="112.92" height="49.2715" rx="25" ry="25"/>
  <path class="fil3" d="M661 144c1,0 2,0 3,0 1,1 2,2 3,2 1,1 1,2 2,3 0,1 0,2 0,3 0,1 0,1 0,2 0,0 0,0 0,1 0,1 0,2 0,3 -1,1 -1,2 -2,3 -1,1 -2,1 -3,2 -1,0 -2,0 -3,0 -1,0 -1,0 -2,0 -1,0 -1,0 -2,0 0,-1 0,-1 -1,-1 0,0 0,-1 0,-1l0 1c0,0 -1,1 -1,1 0,0 0,0 0,0l-3 0c0,0 -1,0 -1,0 0,0 0,-1 0,-1l0 -24c0,0 0,0 0,-1 0,0 1,0 1,0l3 0c0,0 0,0 0,0 0,1 1,1 1,1l0 8c0,0 0,-1 0,-1 1,0 1,0 1,-1 1,0 1,0 2,0 1,0 1,0 2,0zm3 9c0,-2 0,-3 -1,-4 -1,-1 -2,-1 -3,-1 -1,0 -2,0 -3,1 -1,1 -1,2 -1,3 0,1 0,1 0,2 0,0 0,1 0,1 0,1 0,2 1,3 1,1 2,1 3,1 1,0 2,0 3,-1 1,-1 1,-2 1,-3 1,-1 1,-2 0,-2z"/>
  <path id="1" class="fil3" d="M678 162c0,0 0,1 0,1 0,0 -1,0 -1,0l-3 0c0,0 0,0 0,0 -1,0 -1,-1 -1,-1l0 -24c0,0 0,0 1,-1 0,0 0,0 0,0l3 0c0,0 1,0 1,0 0,1 0,1 0,1l0 24z"/>
  <path id="2" class="fil3" d="M691 144c2,0 3,0 4,0 1,1 2,1 3,2 1,1 1,2 2,3 0,1 1,2 1,3 0,0 0,0 0,1 0,0 0,0 0,1 0,0 0,0 0,1 0,0 0,0 0,0 0,2 -1,3 -1,4 -1,1 -1,1 -2,2 -1,1 -2,1 -3,2 -1,0 -2,0 -4,0 -1,0 -2,0 -3,0 -1,-1 -2,-1 -3,-2 -1,-1 -1,-1 -2,-2 0,-1 -1,-2 -1,-4 0,0 0,0 0,0 0,-1 0,-1 0,-1 0,-1 0,-1 0,-1 0,-1 0,-1 0,-1 0,-1 1,-2 1,-3 1,-1 1,-2 2,-3 1,-1 2,-1 3,-2 1,0 2,0 3,0zm5 8c0,-1 0,-1 -1,-2 0,0 0,-1 -1,-1 0,0 -1,-1 -1,-1 0,0 -1,0 -2,0 0,0 -1,0 -1,0 0,0 -1,1 -1,1 -1,0 -1,1 -1,1 -1,1 -1,1 -1,2 0,0 0,0 0,1 0,0 0,0 0,1 0,0 0,0 0,0 0,1 0,1 0,1 0,1 0,2 1,2 0,1 0,1 1,1 0,1 1,1 1,1 0,0 1,0 1,0 1,0 2,0 2,0 0,0 1,0 1,-1 1,0 1,0 1,-1 1,0 1,-1 1,-2 0,0 0,0 0,-1 0,0 0,0 0,0 0,-1 0,-1 0,-1 0,-1 0,-1 0,-1z"/>
  <path id="3" class="fil3" d="M713 167c1,0 1,0 2,-1 0,0 1,0 1,0 1,-1 1,-1 1,-2 0,0 1,-1 1,-1l0 -2c-1,0 -1,1 -1,1 0,0 -1,0 -1,1 -1,0 -1,0 -2,0 0,0 -1,0 -2,0 -1,0 -2,0 -3,0 -1,-1 -2,-1 -3,-2 0,-1 -1,-2 -1,-3 -1,-1 -1,-2 -1,-3 0,-1 0,-1 0,-1 0,-1 0,-1 0,-2 0,-1 0,-2 1,-3 0,-1 1,-2 1,-3 1,0 2,-1 3,-2 1,0 2,0 3,0 1,0 2,0 2,0 1,0 1,0 2,0 0,1 1,1 1,1 0,0 0,1 1,1l0 -1c0,0 0,0 0,-1 0,0 0,0 1,0l2 0c1,0 1,0 1,0 0,1 0,1 0,1l0 17c0,3 0,5 -2,7 -2,1 -4,2 -7,2 -1,0 -2,0 -3,0 -1,-1 -2,-1 -3,-2 -1,0 -1,-1 -2,-2 0,0 -1,-1 -1,-2 0,0 0,0 1,0 0,-1 0,-1 0,-1l3 0c0,0 0,0 1,1 0,0 0,0 0,0 1,1 1,1 2,1 0,1 1,1 2,1zm-4 -14c0,0 0,1 0,2 0,1 0,2 1,3 1,1 2,1 3,1 1,0 2,0 3,-1 1,-1 1,-2 2,-3 0,0 0,-1 0,-1 0,-1 0,-1 0,-2 -1,-1 -1,-2 -2,-3 -1,-1 -2,-1 -3,-1 -1,0 -2,0 -3,1 -1,1 -1,2 -1,4z"/>
  <path class="fil4" d="M274 143c2,0 3,0 4,-1 1,-1 1,-2 0,-3 2,-4 3,-7 4,-10 0,-4 -2,-7 -6,-9 -3,-3 -7,-4 -10,-4 -4,-1 -8,-1 -10,-1 -2,0 -4,0 -4,0 -1,-1 -2,-1 -2,-1 -1,0 -1,0 -2,1 0,0 -1,0 -1,0 -6,1 -13,2 -20,4 -7,2 -13,5 -18,9 -3,3 -4,6 -4,8 1,3 4,4 8,5 1,0 1,-1 2,-1 0,-1 0,-1 0,-2 0,-1 0,-2 -1,-2 -1,0 -1,0 -1,0 -1,0 -2,-1 -2,-1 -1,-1 -1,-1 0,-2 2,-2 5,-4 9,-6 4,-2 8,-3 12,-4 4,-1 8,-2 11,-2 0,0 0,0 0,0 0,0 -1,0 -1,0 -6,8 -11,17 -16,25 0,1 -1,1 -2,2 -3,1 -7,3 -11,5 -4,2 -7,4 -11,7 -3,2 -6,5 -7,8 -1,4 0,7 3,8 4,1 8,2 11,1 1,0 1,0 1,0l-1 3c0,1 0,2 0,2 1,1 2,1 2,1 1,0 2,-1 3,-2 0,-1 0,-1 1,-2 0,-1 0,-2 0,-3 1,0 1,-1 2,-1 10,-3 20,-7 30,-13 11,-6 20,-12 27,-19l0 0c0,0 0,0 0,0zm-74 28c-1,-1 0,-3 2,-5 3,-2 6,-4 9,-7 4,-2 7,-4 10,-5 -1,4 -3,7 -5,11 -1,2 -2,4 -3,6 -1,0 -1,1 -2,1 -6,1 -10,1 -11,-1zm19 -1c0,-1 0,-2 1,-4 1,-1 2,-3 3,-5 2,-2 3,-4 4,-6l1 -3c1,-1 1,-1 2,-1 12,-5 25,-8 39,-9 -3,3 -8,6 -14,10 -6,4 -13,8 -20,11 -7,4 -12,6 -16,7zm14 -25c0,-2 2,-4 4,-8 3,-4 5,-7 8,-11 2,-3 4,-5 5,-6 0,0 2,0 5,0 3,0 6,0 9,0 4,1 7,2 9,3 2,2 4,4 3,7 0,2 -1,5 -3,7 -7,0 -14,1 -21,3 -3,0 -5,1 -7,1 -2,1 -4,1 -6,2 -2,0 -4,1 -6,2zm76 17c1,-2 1,-4 1,-6 0,-3 0,-5 0,-8 0,0 0,-1 1,-1 1,-1 2,-2 3,-3 1,-2 2,-3 2,-3 0,-2 0,-3 -2,-3 -2,0 -4,1 -6,3 -1,1 -2,2 -3,3 0,1 -1,2 -1,3 -1,1 -3,3 -7,6 -3,3 -6,5 -9,7 -4,2 -6,3 -7,2 0,-1 0,-1 0,-2 0,-1 0,-2 1,-3 0,0 1,-1 2,-1 0,-1 1,-1 2,-2 2,-1 5,-2 7,-4 2,-1 3,-3 4,-5 1,-2 0,-3 -1,-4 -1,0 -3,0 -5,1 -3,1 -6,3 -8,7 -3,2 -5,5 -6,8 -1,2 -1,4 -1,5 0,2 1,4 3,4 2,1 5,1 8,-1 3,-1 5,-2 8,-4l0 0c0,0 0,0 0,0l0 0c0,1 1,2 2,3 1,1 3,2 4,3 1,0 3,0 5,-1 1,-1 3,-2 3,-4zm-10 -4c0,0 0,-1 0,-1l0 0c2,-1 4,-3 6,-4 0,1 0,2 0,3 0,2 0,3 -1,4 0,2 0,2 -1,2 0,1 -1,0 -1,-1 -1,-1 -2,-2 -3,-3zm25 -13c-1,2 -2,4 -4,7 -2,3 -3,6 -3,9 1,4 3,5 6,5 3,0 6,-1 9,-3 4,-2 7,-4 11,-7 3,-2 5,-4 6,-5 0,-1 1,-1 1,-2 -1,0 -1,-1 -1,-1 -1,0 -2,0 -2,0 0,1 0,1 -1,1 -1,1 -2,2 -5,4 -2,2 -5,4 -8,5 -3,2 -6,3 -9,3 -1,1 -2,0 -2,-1 0,-2 1,-4 3,-6 1,-2 2,-4 4,-6 0,-1 0,-1 0,-2 -1,-1 -1,-1 -2,-1 -1,-1 -2,-1 -3,0zm5 -4c-1,1 -1,2 0,2 0,0 1,0 3,-1 1,-1 2,-2 4,-3 1,-2 1,-3 2,-4 0,0 0,-1 -1,-1 -1,0 -2,-1 -2,-1 -1,0 -2,1 -2,1 -1,1 -2,2 -3,3 -1,1 -1,3 -1,4zm3 61c2,-4 5,-8 8,-12 2,-3 4,-6 5,-7l4 -4c9,-9 19,-18 32,-28 1,-1 1,-2 1,-2 0,-1 0,-2 -1,-3 0,0 -1,0 -2,0 -7,6 -13,11 -18,16 -3,3 -6,5 -8,7 1,-1 2,-3 4,-7 2,-3 3,-7 4,-10 1,-4 1,-6 1,-8 -1,-1 -1,-1 -2,-1 -1,0 -1,0 -2,1l-1 1c0,0 0,0 0,0 -1,-1 -1,-1 -1,-1 -1,-1 -1,-1 -2,-2 0,0 0,0 -1,0 -1,0 -3,1 -6,3 -2,2 -5,5 -7,7 -2,3 -4,5 -5,7 -1,2 -2,4 -1,6 0,1 1,2 3,1 1,0 3,-1 5,-3 2,-2 4,-4 7,-6 3,-3 6,-6 8,-7 -1,4 -3,8 -5,12 -2,3 -4,7 -7,10 0,1 0,2 -1,2 -2,3 -4,5 -7,8 -3,4 -7,7 -10,11 -1,2 -1,4 -1,5 0,2 1,3 2,4 1,1 3,1 4,0zm49 -57c-3,5 -6,10 -8,15 -1,1 -1,2 0,3 0,0 1,1 2,1 1,0 1,0 2,0 1,-1 2,-2 4,-4l5 -5c1,-2 3,-3 4,-4 1,-1 1,-1 1,-1 0,1 0,1 0,2 -1,2 -2,4 -3,6 0,2 0,4 2,4 2,1 5,1 9,-1 4,-2 7,-4 10,-7 1,-1 2,-1 2,-2 -1,-1 -1,-1 -1,-1 -1,-1 -2,-1 -2,0 0,0 -1,0 -1,0 0,0 -2,1 -3,3 -2,1 -4,2 -6,3 -2,1 -3,1 -4,1 -1,0 -1,-1 0,-2 0,-1 1,-2 2,-4l1 -3c1,-1 1,-1 1,-2 0,-1 0,-1 0,-2 -1,-1 -1,-1 -2,-2 -1,0 -2,0 -2,0 -1,0 -2,1 -4,3 -2,1 -3,2 -5,4 -2,1 -3,2 -3,3 0,0 0,-1 0,-1 1,-1 1,-2 2,-2 0,-1 1,-2 1,-2 1,-1 0,-2 0,-3 -1,0 -1,-1 -2,-1 -1,0 -2,0 -2,1zm85 3c1,-1 3,-1 4,-1 2,0 3,0 5,0 1,0 2,0 2,-1 1,-1 1,-2 0,-2 0,-1 0,-2 -1,-2 -1,0 -1,0 -3,0l-3 0c-1,0 -2,1 -2,1 2,-4 4,-8 7,-13 3,-4 6,-8 8,-11 1,-1 1,-2 1,-3 0,-1 -1,-1 -1,-2 -1,0 -2,0 -3,0 0,0 0,1 -1,1 -1,1 -1,2 -2,2 0,1 0,1 0,1 0,0 0,0 -1,0 0,-1 0,-2 -1,-2 0,-1 -1,-1 -2,0 -5,4 -10,8 -15,14 -5,5 -10,10 -13,15l-1 0c0,1 -1,1 -1,1 -3,1 -6,1 -8,2 -3,0 -5,1 -7,1 -1,0 -1,1 -2,2 0,1 0,1 0,2 0,1 1,1 2,2 2,0 3,1 3,2 0,1 0,3 -1,5 -1,2 -1,3 -1,5 0,1 0,3 1,3 1,1 2,1 3,1 0,-1 1,-2 1,-2 0,0 1,-1 1,-1 3,-5 7,-11 11,-16 0,-1 1,-1 1,-1 1,0 2,-1 4,-1 2,0 3,0 5,-1 1,0 2,0 3,0 -1,2 -2,5 -4,10 -2,5 -4,10 -5,15 -1,4 -1,8 1,10 1,1 2,1 2,0 1,0 2,-1 2,-2 1,-1 1,-2 0,-3 -1,-1 -1,-4 0,-7 1,-4 3,-7 5,-11 1,-4 3,-8 4,-10 0,-1 1,-2 1,-2l0 -1c0,0 0,0 0,0 0,0 1,0 1,0zm-32 5c1,0 1,0 1,0 1,0 1,0 2,0 1,-1 1,-1 2,-1 0,0 0,0 0,0 0,1 -1,2 -2,3l-2 3c0,-1 0,-2 0,-3 0,-1 0,-2 -1,-2zm17 -8c3,-4 7,-8 11,-12 4,-5 8,-8 11,-11 0,0 1,0 1,0 0,0 0,0 0,1 -4,6 -8,13 -12,19 0,1 0,1 -1,1l-10 2zm17 57c3,-4 6,-8 8,-12 3,-3 5,-6 6,-7l4 -4c8,-9 19,-18 32,-28 0,-1 1,-2 1,-2 0,-1 0,-2 -1,-3 -1,0 -1,0 -2,0 -7,6 -13,11 -18,16 -3,3 -6,5 -8,7 1,-1 2,-3 4,-7 1,-3 3,-7 4,-10 1,-4 1,-6 0,-8 0,-1 -1,-1 -1,-1 -1,0 -2,0 -2,1l-1 1c0,0 0,0 -1,0 0,-1 0,-1 -1,-1 0,-1 0,-1 -1,-2 0,0 -1,0 -1,0 -2,0 -4,1 -6,3 -3,2 -5,5 -7,7 -2,3 -4,5 -5,7 -1,2 -2,4 -2,6 1,1 2,2 3,1 2,0 3,-1 6,-3 2,-2 4,-4 6,-6 4,-3 6,-6 9,-7 -2,4 -3,8 -5,12 -2,3 -4,7 -7,10 0,1 -1,2 -1,2 -2,3 -4,5 -7,8 -4,4 -7,7 -11,11 -1,2 -1,4 0,5 0,2 1,3 2,4 1,1 2,1 3,0zm39 -36c2,0 6,0 11,-2 4,-2 9,-4 14,-6 5,-3 8,-5 11,-6 1,-1 2,-2 2,-3 0,-1 -1,-2 -1,-2 -1,-1 -2,-1 -3,0 -4,3 -9,6 -16,9 -7,3 -12,5 -15,5 -1,0 -1,0 -1,0 0,-1 0,-1 0,-2 1,-1 1,-2 2,-2 1,-1 1,-1 2,-2 1,0 2,-1 3,-1 2,-1 4,-2 7,-3 2,-2 4,-3 5,-5 0,-3 0,-4 -2,-5 -2,-1 -5,0 -9,3 -4,3 -8,7 -11,12 -1,2 -2,4 -2,6 -1,2 0,3 3,4zm36 -21c-3,5 -6,10 -8,15 0,1 0,2 0,3 1,0 1,1 2,1 1,0 2,0 2,0 1,-1 2,-2 4,-4l5 -5c2,-2 3,-3 4,-4 1,-1 2,-1 2,-1 0,1 -1,1 -1,2 -1,2 -2,4 -2,6 -1,2 0,4 1,4 2,1 5,1 9,-1 4,-2 8,-4 11,-7 1,-1 1,-1 1,-2 0,-1 0,-1 -1,-1 -1,-1 -1,-1 -2,0 0,0 0,0 0,0 -1,0 -2,1 -4,3 -2,1 -4,2 -6,3 -2,1 -3,1 -4,1 0,0 0,-1 0,-2 1,-1 1,-2 2,-4l2 -3c0,-1 0,-1 0,-2 1,-1 0,-1 0,-2 -1,-1 -1,-1 -2,-2 -1,0 -1,0 -2,0 -1,0 -2,1 -4,3 -1,1 -3,2 -5,4 -1,1 -2,2 -3,3 0,0 0,-1 1,-1 0,-1 0,-2 1,-2 0,-1 1,-2 1,-2 1,-1 1,-2 0,-3 0,0 -1,-1 -2,-1 -1,0 -1,0 -2,1zm58 3c0,0 -1,1 -1,1 -2,1 -5,3 -10,5 -4,2 -8,3 -12,5 -4,1 -6,1 -7,0 0,-1 1,-3 3,-5 2,-2 4,-4 6,-5 1,0 1,0 1,0 0,0 1,0 1,0 0,0 0,0 1,0 0,0 0,0 1,0 1,-1 2,-2 2,-3 0,-1 0,-2 -1,-2 0,-1 -1,-1 -3,-1 -6,2 -10,6 -14,11 -2,2 -3,4 -2,6 0,2 1,4 4,4 5,0 10,-1 17,-4 6,-2 12,-5 16,-8 1,0 2,-1 2,-2 0,-1 -1,-1 -1,-2 -1,0 -2,0 -3,0zm15 11c-2,3 -5,6 -7,8 -4,4 -8,9 -13,16 -1,2 -2,3 -1,4 1,1 2,2 4,2 1,0 3,0 4,-2 2,-3 5,-6 8,-11 3,-4 5,-7 6,-9 1,-2 3,-3 6,-6 3,-2 6,-4 10,-6 3,-1 6,-2 8,-3 1,0 1,0 2,-1 0,-1 0,-1 0,-2 -1,0 -1,-1 -2,-1 -2,1 -5,1 -9,3 -3,1 -6,3 -8,4 2,-3 3,-6 3,-7 1,-3 0,-5 -2,-6 -2,-1 -4,-1 -7,1 -2,1 -4,3 -7,5 -2,2 -5,4 -6,6l-1 0c-1,2 -2,2 -2,2 0,1 0,-1 1,-3 1,-1 2,-2 3,-4 1,-1 2,-2 3,-3 0,-1 0,-1 0,-2 0,0 -1,-1 -2,-1 0,0 -1,0 -2,0 -2,3 -4,6 -6,9 -1,3 -2,5 -3,6 -1,2 0,3 0,4 1,1 2,1 3,2 1,0 2,0 3,-1l4 -4c3,-3 5,-5 8,-8 3,-3 6,-4 8,-5 1,0 1,1 0,3 0,1 -1,3 -2,5 -1,2 -3,4 -4,5z"/>
 </g>
 <g id="Layer_x0020_1_0">
  <metadata id="CorelCorpID_1Corel-Layer"/>
  <path class="fil4" d="M220 85l0 -14 5 0c2,0 3,0 5,0 1,0 2,1 3,1 1,1 2,1 2,2 1,1 1,3 1,4 0,1 0,3 -1,4 0,1 -1,1 -2,2 -1,0 -3,1 -4,1 -1,0 -3,0 -4,0l-5 0 0 0zm0 23l0 -16 5 0c4,0 7,0 9,2 2,1 3,3 3,6 0,1 0,3 0,4 -1,1 -2,1 -3,2 -1,1 -2,1 -3,1 -2,0 -4,1 -6,1l-5 0 0 0zm-5 8l17 0c3,0 6,0 8,-1 3,-1 5,-2 6,-4 2,-1 3,-3 4,-4 0,-2 1,-4 1,-6 0,-3 -1,-6 -4,-9 -2,-2 -5,-3 -8,-4l0 0c3,-1 5,-2 7,-4 2,-3 3,-5 3,-8 0,-2 0,-3 -1,-4 0,-1 0,-2 -1,-3 0,-1 -1,-2 -2,-3 -1,0 -1,-1 -2,-1 -1,-1 -2,-1 -3,-2 -1,0 -2,0 -3,0 -1,0 -2,-1 -3,-1 -2,0 -3,0 -4,0 0,0 -2,0 -3,0 -1,0 -1,0 -1,0l-11 0c-2,0 -4,1 -6,2 -1,1 -2,3 -2,5l0 37c0,2 0,4 0,5 1,1 1,3 2,3 1,1 2,1 3,2 1,0 2,0 3,0zm49 0c2,0 4,-1 5,-2 1,-1 1,-3 1,-6l0 -12c0,-3 1,-5 3,-6 2,-2 4,-2 6,-2 1,0 2,0 3,-1 0,0 1,-1 1,-1 0,-1 1,-1 1,-2 0,-1 0,-1 0,-2 0,-1 0,-1 -1,-2 0,-1 -1,-1 -1,-1 -1,-1 -2,-1 -3,-1 -1,0 -2,0 -3,1 -1,0 -2,1 -3,2 -1,1 -1,1 -2,2 0,1 -1,2 -1,3l0 -1c0,-2 0,-3 -1,-4 -1,-1 -2,-2 -3,-2 -1,0 -2,0 -4,0 -1,0 -2,1 -3,2 0,1 -1,2 -1,4l0 23c0,5 2,8 6,8zm37 -6c-1,0 -2,-1 -3,-2 -1,-1 -1,-2 -1,-3 0,-1 0,-2 0,-2 0,-1 0,-1 1,-2 0,0 1,0 1,-1 1,0 2,0 2,0 1,0 2,-1 3,-1 1,0 2,0 3,0 1,0 2,0 3,0l0 2c0,2 -1,5 -3,6 -1,2 -4,3 -6,3l0 0zm-2 6c6,0 10,-2 12,-7l0 1c0,1 0,3 1,4 1,1 1,2 3,2 1,0 1,0 3,0 1,0 1,-1 2,-2 1,-1 1,-2 1,-4l0 -16c0,-3 0,-5 -1,-7 -1,-3 -2,-4 -3,-5 -2,-2 -3,-2 -5,-3 -2,-1 -4,-1 -7,-1 -2,0 -5,0 -7,1 -3,1 -5,1 -7,2 -1,1 -2,2 -2,3 0,2 0,3 1,4 1,1 2,1 4,1 4,-2 7,-3 10,-3 4,0 6,2 6,6l0 2c-8,0 -14,1 -18,3 -3,1 -5,4 -5,9 0,3 1,5 3,7 3,2 5,3 9,3l0 0zm37 0c2,0 3,-1 4,-2 1,-1 2,-3 2,-6l0 -14c0,-2 0,-4 2,-6 1,-1 3,-2 5,-2 2,0 3,0 5,2 1,1 1,2 1,5l0 15c0,3 1,5 2,6 0,1 2,2 4,2 2,0 4,-1 5,-2 0,-1 1,-3 1,-6l0 -16c0,-4 -1,-8 -3,-10 -3,-3 -6,-4 -9,-4 -7,0 -11,3 -13,7l0 0c0,-4 -2,-6 -6,-6 -2,0 -4,0 -5,1 -1,1 -1,3 -1,5l0 23c0,3 0,5 1,6 1,1 3,2 5,2l0 0zm57 -7c-1,0 -2,0 -4,-1 -1,0 -1,-1 -2,-2 -1,-2 -1,-3 -1,-4 -1,-1 -1,-3 -1,-4 0,-4 1,-7 2,-9 2,-2 4,-3 7,-3 2,0 4,1 6,3 1,2 2,5 2,9 0,8 -3,11 -9,11l0 0zm-3 8c6,0 10,-3 12,-7l0 0c0,2 1,3 2,4 1,2 2,2 4,2 2,0 3,-1 4,-2 1,-2 2,-4 2,-6l0 -38c0,-3 -1,-5 -1,-6 -1,-1 -3,-2 -5,-2 -2,0 -3,1 -4,2 -1,1 -2,3 -2,6l0 15c-1,-2 -2,-4 -4,-5 -2,-1 -5,-2 -8,-2 -2,0 -4,1 -6,2 -2,0 -4,2 -5,3 -2,2 -3,4 -4,6 -1,2 -1,5 -1,8 0,7 1,11 4,15 3,3 7,5 12,5l0 0zm39 -46c2,0 4,0 5,-1 1,-1 1,-3 1,-5 0,-1 0,-3 -1,-4 -1,-1 -3,-1 -5,-1 -2,0 -3,0 -5,1 -1,1 -1,3 -1,4 0,2 0,4 1,5 2,1 3,1 5,1zm0 45c2,0 4,-1 5,-2 0,-1 1,-3 1,-6l0 -21c0,-3 -1,-5 -2,-6 0,-2 -2,-2 -4,-2 -2,0 -4,0 -4,2 -1,1 -2,3 -2,6l0 21c0,3 1,5 2,6 1,1 2,2 4,2zm29 0c4,0 7,0 9,0 0,-1 1,-1 1,-2 0,0 1,-1 1,-2 0,0 0,-1 -1,-2 0,0 0,-1 -1,-1 0,-1 -1,-1 -1,-1l-3 0c-2,0 -3,0 -4,-2 0,-1 -1,-3 -1,-6l0 -13 5 0c1,0 2,-1 3,-1 0,-1 1,-2 1,-3 0,-3 -2,-4 -4,-4l-5 0 0 -7c0,-5 -1,-7 -4,-7 -4,0 -6,2 -6,6l-1 8 -3 0c-3,0 -4,1 -4,3 0,2 0,3 1,4 1,0 2,1 3,1l2 0 0 15c0,5 1,9 3,11 2,2 5,3 9,3l0 0zm27 -22c0,-3 1,-5 2,-7 1,-1 3,-2 6,-2 2,0 4,1 5,2 1,2 2,4 2,7l-15 0zm8 22c2,0 4,0 5,0 2,0 3,-1 5,-2 1,0 2,-1 3,-1 0,-1 1,-1 2,-2 1,-1 1,-2 1,-4 -1,-1 -1,-2 -2,-2 -1,-1 -2,-1 -3,0 -2,1 -3,2 -5,2 -1,1 -3,1 -5,1 -6,0 -9,-3 -9,-9l21 0c3,0 4,-1 4,-3 0,-2 -1,-5 -1,-7 -1,-2 -2,-4 -3,-5 -2,-2 -3,-3 -6,-4 -2,-1 -4,-2 -8,-2 -3,0 -7,1 -10,3 -3,1 -5,4 -7,7 -1,2 -2,6 -2,9 0,4 1,8 3,11 1,3 4,5 7,6 3,2 6,2 10,2l0 0zm42 0c2,0 5,0 7,0 2,-1 4,-2 5,-3 1,0 1,-1 2,-2 0,-1 0,-2 0,-3 0,-1 -1,-1 -1,-2 -1,-1 -1,-1 -2,-1 -1,0 -2,0 -3,0 -2,1 -4,2 -7,2 -2,0 -3,0 -5,-1 -1,-1 -2,-3 -2,-4 -1,-1 -1,-3 -1,-5 0,-3 0,-5 2,-7 2,-2 4,-2 6,-3 2,0 5,1 7,2 1,1 2,1 3,1 0,0 1,-1 2,-1 0,-1 0,-2 1,-3 0,0 0,-1 0,-2 -1,-1 -1,-2 -2,-2 -1,-1 -3,-2 -5,-3 -2,-1 -4,-1 -7,-1 -3,0 -7,1 -10,2 -3,2 -5,4 -7,7 -2,3 -2,7 -2,10 0,3 0,6 1,9 1,2 3,4 5,6 1,1 3,3 6,3 2,1 4,1 7,1l0 0zm26 0c2,0 4,-1 5,-2 1,-1 1,-3 1,-6l0 -14c0,-2 1,-4 2,-6 2,-1 4,-2 6,-2 2,0 3,0 4,2 1,1 2,2 2,5l0 15c0,5 2,8 6,8 2,0 3,-1 4,-2 1,-1 2,-3 2,-6l0 -16c0,-2 -1,-4 -1,-6 -1,-2 -2,-3 -3,-4 -1,-1 -3,-2 -4,-3 -1,-1 -3,-1 -5,-1 -6,0 -10,2 -13,6l0 -14c0,-5 -2,-8 -6,-8 -2,0 -3,1 -4,2 -1,2 -2,4 -2,6l1 38c0,5 1,8 5,8zm54 0c4,0 7,0 9,0 1,-1 1,-1 2,-2 0,0 0,-1 0,-2 0,0 0,-1 0,-2 0,0 -1,-1 -1,-1 -1,-1 -1,-1 -2,-1l-2 0c-2,0 -3,0 -4,-2 -1,-1 -1,-3 -1,-6l0 -13 4 0c1,0 2,-1 3,-1 1,-1 1,-2 1,-3 0,-3 -1,-4 -4,-4l-4 0 0 -7c0,-5 -2,-7 -5,-7 -3,0 -5,2 -6,6l0 8 -4 0c-2,0 -3,1 -3,3 0,2 0,3 1,4 0,0 1,1 3,1l2 0 0 15c0,5 1,9 3,11 2,2 5,3 8,3l0 0zm30 0c3,0 5,0 7,-1 2,-2 4,-3 5,-6l0 1c0,4 2,6 6,6 2,0 3,-1 4,-2 1,-1 2,-2 2,-4l0 -23c0,-3 -1,-5 -2,-6 -1,-2 -2,-2 -4,-2 -2,0 -4,0 -5,2 -1,1 -1,3 -1,6l0 13c0,3 -1,5 -2,6 -2,2 -4,3 -6,3 -2,0 -3,-1 -4,-2 -1,-1 -2,-3 -2,-5l0 -15c0,-3 0,-5 -1,-6 -1,-2 -2,-2 -4,-2 -3,0 -4,0 -5,2 -1,1 -1,3 -1,6l0 15c0,5 1,8 3,11 3,2 6,3 10,3l0 0zm38 0c2,0 4,-1 5,-2 1,-1 1,-3 1,-6l0 -12c0,-3 1,-5 3,-6 2,-2 4,-2 6,-2 1,0 2,0 3,-1 0,0 1,-1 1,-1 0,-1 1,-1 1,-2 0,-1 0,-1 0,-2 0,-1 0,-1 -1,-2 0,-1 -1,-1 -1,-1 -1,-1 -2,-1 -3,-1 -1,0 -2,0 -3,1 -1,0 -2,1 -3,2 -1,1 -1,1 -2,2 0,1 -1,2 -1,3l0 -1c0,-2 0,-3 -1,-4 -1,-1 -2,-2 -3,-2 -1,0 -2,0 -4,0 -1,0 -2,1 -3,2 0,1 -1,2 -1,4l0 23c0,5 2,8 6,8l0 0zm35 -22c0,-3 1,-5 2,-7 2,-1 3,-2 6,-2 2,0 4,1 5,2 1,2 2,4 2,7l-15 0 0 0zm8 22c2,0 4,0 6,0 1,0 3,-1 4,-2 1,0 2,-1 3,-1 1,-1 1,-1 2,-2 1,-1 2,-2 1,-4 0,-1 -1,-2 -2,-2 -1,-1 -2,-1 -3,0 -1,1 -3,2 -4,2 -2,1 -4,1 -5,1 -7,0 -10,-3 -10,-9l21 0c3,0 4,-1 4,-3 0,-2 0,-5 -1,-7 -1,-2 -2,-4 -3,-5 -1,-2 -3,-3 -5,-4 -3,-1 -5,-2 -8,-2 -4,0 -7,1 -10,3 -3,1 -6,4 -7,7 -2,2 -3,6 -3,9 0,4 1,8 3,11 2,3 4,5 7,6 3,2 6,2 10,2l0 0z"/>
 </g>
</svg>
