<svg xmlns="http://www.w3.org/2000/svg" xmlns:xlink="http://www.w3.org/1999/xlink" xml:space="preserve" width="2.15797in" height="0.629362in" style="shape-rendering:geometricPrecision; text-rendering:geometricPrecision; image-rendering:optimizeQuality; fill-rule:evenodd; clip-rule:evenodd" viewBox="0 0 2194 640">
 <defs>
  <style type="text/css">
   <![CDATA[
    .fil0 {fill:#F9F9F9}
    .fil2 {fill:#F1F1F1;fill-rule:nonzero}
    .fil1 {fill:#F9F9F9;fill-rule:nonzero}
   ]]>
  </style>
 </defs>
 <g id="Layer_x0020_1">
  <metadata id="CorelCorpID_0Corel-Layer"></metadata>
  <g id="_2602198335568">
   <polygon class="fil0" points="78,371 205,450 426,2 576,2 255,640 0,478 "></polygon>
   <path class="fil1" d="M624 0l1251 0c88,0 168,36 225,94 58,57 94,137 94,225 0,87 -36,167 -94,225 -57,57 -137,93 -225,93l-1566 0 28 -56 1538 0c72,0 138,-30 185,-77 48,-48 77,-113 77,-185 0,-72 -29,-138 -77,-186 -47,-47 -113,-77 -185,-77l-1279 0 28 -56z"></path>
   <path class="fil2" d="M1871 148c30,0 58,7 85,22 27,14 48,35 63,63 16,27 23,56 23,86 0,29 -7,58 -22,85 -15,27 -36,48 -63,63 -27,15 -56,23 -86,23 -29,0 -58,-8 -85,-23 -27,-15 -48,-36 -63,-63 -15,-27 -23,-56 -23,-85 0,-30 8,-59 24,-86 15,-28 36,-49 63,-63 27,-15 55,-22 84,-22zm0 33c-23,0 -46,6 -67,18 -22,12 -39,29 -51,51 -13,21 -19,44 -19,69 0,23 6,46 18,68 13,22 30,38 51,51 22,12 45,18 68,18 24,0 47,-6 69,-18 21,-13 38,-29 50,-51 13,-22 19,-45 19,-68 0,-24 -7,-47 -19,-69 -12,-22 -29,-39 -51,-51 -22,-12 -44,-18 -68,-18zm42 163l36 12c-6,19 -15,33 -28,44 -13,10 -29,15 -47,15 -25,0 -46,-9 -62,-25 -16,-17 -24,-40 -24,-70 0,-19 3,-36 10,-51 8,-15 18,-26 31,-34 14,-7 29,-11 45,-11 19,0 34,4 46,13 12,9 22,23 29,41l-36 9c-5,-11 -10,-19 -16,-24 -7,-5 -15,-7 -24,-7 -13,0 -24,5 -33,15 -9,10 -13,26 -13,48 0,22 4,38 13,48 8,11 18,16 30,16 10,0 19,-3 26,-9 7,-6 13,-16 17,-30z"></path>
   <path class="fil1" d="M619 157l50 0c12,0 20,1 26,3 8,2 15,6 21,12 6,6 10,14 13,22 3,9 4,20 4,33 0,11 -1,21 -4,29 -3,10 -8,18 -14,24 -5,5 -12,8 -20,11 -6,2 -14,3 -24,3l-52 0 0 -137zm28 23l0 91 20 0c8,0 14,-1 17,-2 4,-1 8,-3 11,-5 3,-3 5,-7 7,-14 2,-6 3,-14 3,-25 0,-10 -1,-18 -3,-24 -2,-6 -4,-10 -8,-13 -3,-3 -7,-5 -12,-7 -4,0 -12,-1 -23,-1l-12 0z"></path>
   <polygon id="1" class="fil1" points="757,294 757,157 798,157 822,250 847,157 888,157 888,294 863,294 862,186 836,294 809,294 782,186 782,294 "></polygon>
   <path id="2" class="fil1" d="M1003 243l27 9c-4,15 -11,26 -21,33 -9,7 -21,11 -36,11 -18,0 -33,-6 -45,-19 -11,-12 -17,-29 -17,-51 0,-22 6,-40 17,-53 12,-12 28,-18 47,-18 16,0 30,5 40,14 7,6 11,15 14,26l-27 6c-1,-7 -5,-13 -10,-17 -5,-4 -11,-6 -19,-6 -10,0 -18,4 -24,11 -7,7 -10,19 -10,35 0,18 3,30 10,37 6,8 14,11 24,11 7,0 13,-2 19,-7 5,-4 9,-12 11,-22z"></path>
   <path id="3" class="fil1" d="M1177 294l-30 0 -12 -31 -55 0 -11 31 -29 0 53 -137 29 0 55 137zm-51 -55l-19 -50 -18 50 37 0z"></path>
   <polygon id="4" class="fil1" points="1191,294 1191,268 1217,268 1217,294 "></polygon>
   <path id="5" class="fil1" d="M1330 224l-25 5c-1,-6 -3,-9 -6,-12 -3,-3 -7,-4 -12,-4 -7,0 -12,2 -16,7 -4,4 -6,12 -6,23 0,11 2,20 6,24 4,5 9,8 16,8 5,0 9,-2 12,-4 3,-3 6,-8 7,-15l26 4c-3,12 -8,21 -16,27 -7,6 -17,9 -30,9 -15,0 -26,-4 -35,-14 -8,-9 -13,-21 -13,-38 0,-16 5,-29 13,-38 9,-9 21,-13 35,-13 12,0 22,2 29,7 7,6 12,13 15,24z"></path>
   <path id="6" class="fil1" d="M1344 243c0,-9 2,-17 6,-25 5,-8 11,-15 19,-19 8,-4 16,-6 26,-6 15,0 27,4 37,14 9,10 14,22 14,37 0,15 -5,27 -14,37 -10,10 -22,15 -37,15 -9,0 -18,-2 -26,-6 -8,-4 -14,-10 -19,-18 -4,-8 -6,-18 -6,-29zm27 1c0,10 2,18 7,23 5,5 10,8 17,8 7,0 13,-3 17,-8 5,-5 7,-13 7,-23 0,-10 -2,-17 -7,-22 -4,-5 -10,-8 -17,-8 -7,0 -12,3 -17,8 -5,5 -7,13 -7,22z"></path>
   <path id="7" class="fil1" d="M1465 195l24 0 0 13c8,-10 19,-15 31,-15 6,0 11,1 16,3 5,3 9,7 11,12 5,-5 10,-9 15,-12 5,-2 10,-3 16,-3 7,0 13,1 18,4 5,3 9,7 11,13 2,4 3,11 3,20l0 64 -26 0 0 -57c0,-10 -1,-16 -3,-19 -2,-4 -6,-5 -11,-5 -4,0 -7,1 -10,3 -4,2 -6,5 -7,10 -2,4 -2,11 -2,20l0 48 -27 0 0 -55c0,-9 0,-15 -1,-18 -1,-3 -2,-5 -4,-6 -2,-2 -5,-2 -8,-2 -4,0 -8,1 -11,3 -3,2 -6,5 -7,9 -1,4 -2,11 -2,21l0 48 -26 0 0 -99z"></path>
   <path class="fil1" d="M582 444l26 9c-4,15 -11,26 -20,33 -10,7 -22,11 -36,11 -19,0 -33,-6 -45,-19 -12,-12 -18,-29 -18,-50 0,-23 6,-41 18,-53 12,-13 27,-19 46,-19 17,0 31,5 41,15 6,5 11,14 14,25l-27 6c-2,-7 -5,-12 -10,-16 -6,-5 -12,-7 -19,-7 -10,0 -18,4 -25,11 -6,8 -9,19 -9,36 0,17 3,29 9,36 6,8 14,11 24,11 8,0 14,-2 19,-7 6,-4 9,-12 12,-22z"></path>
   <path id="1" class="fil1" d="M626 427c0,-14 2,-25 7,-35 3,-7 7,-13 12,-19 6,-5 12,-9 18,-12 8,-3 18,-5 29,-5 21,0 37,6 49,18 12,13 18,30 18,53 0,22 -6,39 -18,52 -12,12 -28,18 -48,18 -21,0 -37,-6 -49,-18 -12,-13 -18,-30 -18,-52zm29 -1c0,16 3,28 10,36 8,8 17,12 28,12 11,0 20,-4 27,-12 7,-8 10,-20 10,-36 0,-16 -3,-27 -10,-35 -7,-8 -16,-12 -27,-12 -12,0 -21,4 -28,12 -7,8 -10,20 -10,35z"></path>
   <polygon id="2" class="fil1" points="780,495 780,358 821,358 846,451 870,358 912,358 912,495 886,495 886,387 859,495 832,495 806,387 806,495 "></polygon>
   <path id="3" class="fil1" d="M939 495l0 -137 44 0c17,0 28,1 33,2 8,2 15,7 20,14 5,6 8,15 8,26 0,9 -2,16 -5,21 -3,6 -7,11 -11,14 -5,3 -10,5 -15,6 -6,2 -16,2 -28,2l-18 0 0 52 -28 0zm28 -114l0 39 15 0c11,0 18,-1 22,-2 3,-1 6,-4 8,-7 2,-3 3,-6 3,-10 0,-5 -1,-9 -4,-13 -3,-3 -7,-5 -11,-6 -3,0 -10,-1 -20,-1l-13 0z"></path>
   <polygon id="4" class="fil1" points="1067,495 1067,359 1095,359 1095,472 1163,472 1163,495 "></polygon>
   <polygon id="5" class="fil1" points="1182,495 1182,358 1210,358 1210,495 "></polygon>
   <path id="6" class="fil1" d="M1359 495l-30 0 -12 -31 -54 0 -12 31 -29 0 53 -137 29 0 55 137zm-51 -54l-19 -51 -18 51 37 0z"></path>
   <polygon id="7" class="fil1" points="1374,495 1374,358 1400,358 1457,450 1457,358 1482,358 1482,495 1455,495 1399,405 1399,495 "></polygon>
   <polygon id="8" class="fil1" points="1542,495 1542,381 1502,381 1502,358 1610,358 1610,381 1570,381 1570,495 "></polygon>
  </g>
 </g>
</svg>