<svg xmlns="http://www.w3.org/2000/svg" xmlns:xlink="http://www.w3.org/1999/xlink" xml:space="preserve" width="12.519in" height="1.8623in" style="shape-rendering:geometricPrecision; text-rendering:geometricPrecision; image-rendering:optimizeQuality; fill-rule:evenodd; clip-rule:evenodd" viewBox="0 0 14179.89 2109.37">
 <defs>
  <style type="text/css">
   <![CDATA[
    .fil1 {fill:#FDFDFD}
    .fil0 {fill:#76B50A;fill-rule:nonzero}
   ]]>
  </style>
 </defs>
 <g id="Layer_x0020_1">
  <metadata id="CorelCorpID_0Corel-Layer"></metadata>
  <g id="_2071140951024">
   <g>
    <path class="fil0" d="M86.16 1448.91l200.99 352.87 0 0 20.78 36.48 3.57 66.06 -311.5 148.65 9604.1 0 0 -208.81 -117.99 0 0 1.16 0 -110.92 57.83 -134.52 -22.43 0 -15.37 -14.13 15.37 -27.17 -42.46 4.73c-12.96,-9.47 -27.17,-18.86 -42.46,-27.17l15.29 -29.5 -49.53 11.8c-23.59,-11.8 -47.19,-23.59 -70.79,-31.82l7.06 -30.66 -42.46 17.7c-43.7,-15.37 -88.49,-27.17 -132.19,-35.4l0 -35.39 -38.89 27.09c-62.56,-11.79 -121.56,-20.02 -171.08,-23.59l0 -25.93 -14.21 0 -14.13 23.6c-53.09,-4.74 -90.82,-5.9 -106.19,-5.9l-5.9 0 -106.19 4.74 -14.13 -23.6 -14.2 0 0 25.93c-49.53,4.74 -108.52,11.8 -171.08,23.59l-36.56 -24.76 0 35.39c-44.87,8.23 -89.65,21.27 -133.36,35.4l-42.46 -17.7 8.31 30.66c-24.53,8.98 -48.55,19.24 -72.04,30.66l-49.52 -11.8 15.37 30.74 -42.54 27.09 -42.46 -4.73 15.37 27.17 -15.37 14.13 -21.19 0 58.99 134.52 -34.23 245.44 -16.53 -240.71 -49.53 -116.82 -64.89 0 0 -377.56 47.2 0 0 -153.38 -47.2 0 0 -160.45c0,-23.59 -37.8,-24.76 -44.87,-40.13l0 -14.13c3.57,0 7.06,0 9.47,-2.41 8.23,-3.49 11.8,-10.56 7.06,-16.45 2.33,4.66 0,9.39 -5.9,11.8 -5.9,3.49 -15.37,2.33 -20.11,-2.41 -3.49,-4.74 -2.33,-10.63 4.74,-14.13 5.9,-2.4 12.96,-1.16 17.7,1.16 -5.9,-3.57 -16.54,-4.73 -24.76,-1.16 -8.23,3.5 -11.8,11.8 -4.74,17.7 2.41,3.49 5.9,4.74 10.64,5.9l0 14.13c-8.23,14.21 -42.46,17.7 -42.46,40.13l0 162.85 -53.1 0 0 150.98 53.1 0 0 377.56 -176.98 0 0 -316.16 48.36 0 0 -151.06 -47.2 0 0 -161.61c0,-23.59 -38.97,-26 -44.87,-40.13l0 -14.21c2.41,0 5.9,0 8.31,-2.33 8.23,-3.57 11.79,-11.8 7.06,-16.53 2.33,3.57 0,9.47 -4.74,11.79 -7.06,3.57 -15.29,2.41 -20.03,-2.33 -4.74,-4.74 -2.41,-10.64 3.49,-14.2 5.9,-2.33 14.21,-2.33 18.94,1.24 -7.14,-4.73 -16.53,-5.9 -24.84,-1.24 -8.23,3.57 -11.8,11.8 -5.9,17.69 3.57,3.57 7.14,4.74 11.8,4.74l0 16.54c-8.23,14.13 -43.62,17.7 -43.62,40.13l0 160.45 -51.93 0 0 153.38 51.93 0 0 279.6 -160.45 0c-10.64,-149.81 -176.98,-195.84 -176.98,-195.84 0,0 -14.2,-4.74 -17.7,-12.96 10.64,-3.57 16.54,-9.47 16.54,-17.7 0,-7.06 -5.9,-14.13 -16.54,-16.53l0 -53.1c4.74,-2.33 7.06,-5.9 7.06,-9.39 0,-3.57 -2.33,-7.14 -7.06,-9.47l0 -15.37c17.7,-3.49 30.66,-14.13 30.66,-27.09 0,-15.37 -16.54,-27.17 -37.73,-28.33 16.46,1.16 29.5,11.79 29.5,23.59 0,11.8 -15.37,21.27 -33.07,21.27 -18.86,0 -33.07,-10.64 -33.07,-22.43 0,-11.8 11.8,-21.27 29.5,-22.43 -21.19,1.16 -37.73,12.96 -37.73,28.33 0,12.96 12.96,23.6 30.66,27.09l0 14.2c-4.74,2.33 -7.06,5.9 -7.06,11.8 0,3.49 3.57,7.06 7.06,9.39l0 51.93c-9.39,2.4 -16.54,9.47 -16.54,16.53 0,8.23 7.14,14.13 16.54,17.7 -4.74,8.23 -17.7,11.8 -17.7,11.8 0,0 -167.51,47.19 -176.98,197l-153.38 0 0 -279.6 48.36 0 0 -153.38 -47.19 0 0 -160.45c0,-23.59 -38.89,-26 -44.79,-41.29l0 -14.21 9.39 -1.16c7.14,-3.49 10.64,-11.8 5.9,-16.53 2.41,3.57 1.24,8.3 -4.66,11.79 -7.14,2.41 -15.37,1.24 -20.1,-3.49 -4.74,-4.74 -2.33,-9.47 3.57,-12.96 5.9,-3.57 14.13,-2.4 18.86,0 -7.06,-3.57 -16.54,-4.73 -24.76,0 -8.3,3.5 -11.79,11.8 -5.9,17.7l11.79 4.66 0 14.21c-8.3,14.13 -43.7,17.7 -43.7,41.29l0 160.45 -51.85 0 0 151.06 51.85 0 0 317.32 -188.78 0 0 -378.72 47.19 0 0 -149.81 -47.19 0 0 -161.69c0,-23.59 -37.73,-25.92 -44.79,-40.05l0 -14.21c3.49,0 7.06,0 9.39,-2.33 7.14,-3.57 11.8,-11.8 7.14,-16.54 2.33,3.57 0,8.23 -5.9,11.8 -5.9,2.33 -15.37,1.16 -20.1,-3.57 -3.5,-3.49 -2.33,-9.39 4.73,-12.96 5.9,-3.49 12.96,-2.33 17.7,0 -5.9,-3.49 -16.54,-4.73 -24.76,0 -8.3,3.57 -11.79,11.8 -4.73,17.7 2.33,2.41 5.9,4.74 10.63,4.74l0 15.37c-8.3,12.96 -42.46,16.45 -42.46,40.05l0 161.69 -53.09 0 0 150.98 53.09 0 0 378.8 -200.58 0 -30.74 353.96 -18.86 -834.21 9.47 0 0 -4.73 -21.27 -7.06 -1.16 -1.16 0 -117.99 -51.93 0 0 31.83 -1.16 -2.33 -172.25 -73.12 0 -33.07 -31.9 -23.59 -23.6 0 0 57.83 -267.8 109.68 0 11.8 18.86 -9.39 0 47.19 -18.86 8.23 0 5.9 -23.6 836.54 -33.07 -1100.85 0 -60.16 -21.19 0 0 35.39 -30.66 0 0 -35.39 -17.7 0 0 35.39 -38.97 0 0 -35.39 -20.03 0 0 35.39 -8.31 0 0 -91.98 -424.75 0 0 93.15 -14.13 0 0 -36.56 -21.27 0 0 35.39 -38.89 0 0 -35.39 -21.27 0 0 35.39 -37.73 0 0 -35.39 -24.84 0 0 60.16 -32.99 1109.08 -28.33 -1347.38 0 -326.79 -247.77 0 0 18.86 -41.3 0 0 -18.86 -176.98 0 0 8.23 -294.97 0 0 105.02 21.27 0 -38.97 1559.75 -33.07 -1333.25 -103.78 0 0 -38.89 62.49 0 0 -59 -15.29 0 0 -22.43c8.23,0 15.29,-7.06 15.29,-16.54 0,-9.47 -7.06,-16.54 -16.46,-16.54 -7.14,0 -13.04,4.74 -15.37,11.8l-30.66 0 0 -22.43 62.49 0 0 -16.45 -15.29 0 0 -4.74 7.06 0c14.12,0 23.59,-8.31 23.59,-21.27 0,-11.8 -10.64,-22.43 -23.59,-22.43 -12.96,0 -23.6,9.47 -23.6,22.43l0 2.41 -29.5 0 0 -20.11 -34.23 0 0 -407.05 -24.76 0 0 -24.76 -46.03 0 0 23.6 -25.93 0 0 408.22 -42.46 0 0 20.11 -27.17 0c-4.67,-5.54 -11.67,-8.54 -18.86,-8.31 -11.8,0 -21.27,7.06 -21.27,16.54 0,5.9 4.74,11.8 10.64,14.13l-2.33 0 0 17.7 59 0 0 22.43 -31.91 0c-2.33,-12.96 -14.13,-23.59 -27.09,-23.59 -15.37,0 -28.33,11.79 -28.33,27.17 0,15.29 12.96,27.09 28.33,27.09 8.23,0 15.29,-3.49 20.03,-9.39l0 21.19 -20.03 0 0 58.99 59 0 0 38.97 -424.75 0 -35.4 1323.78 -27.17 -914.39 -176.98 0 0 -42.46 -106.19 0 0 -67.22 -61.32 -55.5 -31.9 -193.44 -14.13 -14.2 -3.57 -74.28 -9.39 0 -4.74 75.45 -16.53 15.37 -33.07 191.11 -55.42 56.66 0 67.22 -112.09 0 0 42.54 -155.71 0 -26 914.39 -25.93 -580.54 7.06 0 0 -42.46 2.33 0 0 -4.74 -2.33 0 0 -29.49 -23.59 0 0 10.64 -11.8 -14.13 -17.7 21.19 -67.22 0 -14.21 -21.19 -15.29 21.19 -127.46 0 0 -8.23 5.9 -7.06 -5.9 0 0 -4.74 5.9 -8.31 -5.9 0 0 -35.39 -37.72 0 0 -28.25 7.06 0 -14.21 -23.6 0 -5.9 3.57 0 0 -2.41 -3.57 0 0 -4.73 -4.66 0 0 4.73 -2.41 0 0 2.41 2.41 0 0 5.9 -16.54 23.6 7.06 0 0 28.25 -41.29 0 0 -41.3 5.9 0 0 -8.23 -14.12 0 0 -92.06 8.23 0 0 -7.06 -8.23 0 0 -34.23 8.23 0 0 -4.66 -5.9 0 0 -27.17 5.9 0 0 -30.66 2.33 0 0 -4.74 -2.33 0 -12.96 -25.93 0 -4.74 2.33 0 -2.33 0 0 -2.4 -3.57 0 0 1.24 -2.33 0 0 1.16 2.33 0 0 3.5 -14.13 27.17 -2.41 0 0 4.74 2.41 0 0 4.74 -11.8 0 0 -7.14 -18.86 0 0 7.14 -9.47 0 0 -7.14 -17.7 0 0 7.14 -8.23 0 0 -7.14 -18.94 0 0 7.14 -11.79 0 0 -7.14 -15.29 0 0 7.14 -9.47 0 0 -7.14 -16.54 0 0 7.14 -9.39 0 0 -7.14 -20.1 0 0 7.14 -11.8 0 0 -4.74 2.4 0 0 -4.74 -2.4 0 -15.29 -27.17 0 -3.5 3.49 0 -3.49 0 0 -2.4 -2.41 0 0 1.24 -2.33 0 0 1.16 2.33 0 0 4.74 -12.96 25.93 -2.33 0 0 4.74 2.33 0 0 30.66 5.9 0 0 25.92 -5.9 0 0 5.9 8.31 0 0 34.23 -8.31 0 0 7.06 8.31 0 0 90.89 -14.21 0 0 8.23 5.9 0 0 42.46 -40.13 0 0 -29.5 5.9 0 -16.45 -23.6 0 -4.66 3.49 0 0 -3.57 -3.49 0 0 -3.57 -4.74 0 0 3.57 -2.41 0 0 3.57 2.41 0 0 5.9 -14.21 23.6 7.14 0 0 28.25 -36.64 0 0 35.39 -5.9 0 5.9 7.14 0 4.66 -5.9 0 5.9 7.14 0 8.23 -127.38 0 -16.54 -20.03 -14.13 20.03 -66.13 0 -17.7 -20.03 -11.8 12.96 0 -9.47 -23.6 0 0 29.49 -2.33 0 0 4.74 2.33 0 0 40.13 7.14 0 0 12.96 2.33 0 -2.33 20.02 0 21.27 90.82 0c12.96,-1.16 169.91,-47.19 202.9,-61.32l-363.35 578.13 276.1 -520.39c0,0 -82.59,37.8 -114.49,37.8l-132.11 0c-7.06,-4.73 -11.8,-8.3 -18.86,-10.63l5.9 -29.5 -20.11 0 -11.8 5.9 -1.16 9.47c-60.6,-26.18 -123.88,-45.61 -188.78,-57.83 -94.39,-18.86 -205.31,-29.5 -322.13,-29.5 -172.92,-2.15 -344.8,27.04 -507.34,86.08l-1.16 -8.23 -11.8 -5.9 -20.03 0 4.74 28.33 -23.6 11.79c-55.5,1.17 -101.53,2.33 -127.46,1.17 -31.82,0 -114.41,-37.73 -114.41,-37.73zm1244.76 -2.41l-53.09 14.21 -4.74 0 -37.8 -41.3c35.39,8.23 66.14,16.45 94.39,27.09l1.24 0zm2.33 5.9l-27.17 11.8 -14.13 -1.16 41.29 -11.8 0 1.16zm-99.12 1.16l-35.4 -4.66 1.16 -8.31 23.6 -18.86 10.64 31.83zm-25.93 -40.05l-68.46 30.66 -1.16 0 -35.39 -48.36 106.19 17.69 -1.16 0zm-80.26 29.5l-7.06 0 -9.47 -23.6 16.53 23.6zm-17.69 -1.24l-57.83 -4.66 37.81 -41.29 20.03 45.95zm-68.39 -4.66l-22.43 -1.24 50.68 -30.66 -28.25 31.9zm36.56 -44.87l-70.79 42.46 -1.16 0 -46.03 -50.68c41.29,1.16 80.18,3.49 117.98,8.23zm-82.59 42.46l-14.21 0 -16.45 -34.23 30.66 34.23zm-23.6 0l-47.19 -2.33 24.76 -42.46 22.43 43.62 0 1.16zm-58.99 -2.33l-26 0 53.09 -42.46 -25.93 42.46 -1.16 0zm-27.17 -50.77l50.77 0 -61.4 50.77 -7.06 0 -46.03 -49.6 63.73 0 0 -1.16zm-28.33 50.77l-2.33 0 -5.9 -8.3 8.23 8.3zm-11.8 0l-49.52 2.33 20.03 -44.79 29.49 43.62 0 -1.16zm-58.99 2.33l-40.05 1.16 62.49 -49.52 -23.6 47.19 1.16 1.16zm13.04 -50.68l-64.89 53.09 -1.24 0 -49.53 -43.7c36.56,-4.74 75.53,-7.06 115.66,-9.39zm-77.94 53.09l-2.33 0 -11.8 -11.8 14.13 11.8zm-11.8 0l-50.68 4.66 11.8 -42.46 38.89 38.97 0 -1.16zm-61.32 4.66l-42.46 3.57 54.26 -42.46 -11.8 38.89zm-106.19 -12.96l0 -5.9 35.4 26.01 -43.63 5.9 7.06 -26.01 1.16 0zm-130.95 47.2l-27.17 5.9 -2.33 -8.23 27.09 -15.37 10.63 -4.74 -8.23 22.43zm9.39 -2.33c0,-3.57 2.41,-5.9 3.57,-9.47l3.57 -9.39 18.86 12.96 -20.11 4.74 -5.9 1.16zm9.47 9.39l30.66 -5.9 4.74 2.41 3.57 3.49 -38.97 0zm3.57 -34.15c30.96,-10.89 62.48,-20.34 94.39,-28.33l-49.61 41.3 -9.39 2.33 -35.39 -15.29zm82.59 32.99l-35.4 0 -10.64 -7.06 50.69 -8.23c0,5.9 -2.33,10.56 -4.66,15.29zm-23.6 -21.19l40.05 -33.07 -7.06 28.33 -32.99 4.74zm34.15 21.19l4.74 -16.54 47.19 -5.9 2.41 21.27 -54.34 0 0 1.16zm69.63 -41.3l-18.86 0 -30.66 -23.59 20.03 -4.74c29.5,-5.9 58.99,-11.8 90.9,-15.29l-58.99 46.03 -3.57 -2.41 1.16 0zm11.8 40.13l-1.16 -7.06 8.23 7.06 -7.06 0zm28.33 0l-9.47 0 -23.59 -18.86 0 -4.74 42.54 -3.57 -9.47 26.01 0 1.16zm10.64 0l8.23 -28.33 63.73 -4.74 29.5 30.74 -101.45 1.17 0 1.16zm113.25 -2.33l-30.66 -30.74 50.68 -2.33 -14.13 33.07 -5.9 0zm49.53 -1.24l-35.4 0 15.37 -31.83 20.03 0 0 31.83zm24.84 0l-3.57 -28.25 -2.33 -4.74 23.6 0 21.19 31.83 -38.89 0 0 1.16zm47.2 -1.16l-20.11 -31.83 44.87 0 -20.1 31.83 -4.66 0zm62.48 -25.93l-3.49 27.09 -43.7 0 18.86 -32.99 30.74 0 -2.41 5.9zm21.27 27.09l0 -32.99 10.64 1.16 16.45 31.83 -27.09 0zm35.4 0l-15.37 -31.83 47.2 1.16 -29.5 30.66 -2.33 0zm12.96 0l28.33 -29.5 73.12 4.74 11.8 27.17 -113.25 -1.17 0 -1.24zm122.72 2.41l-11.8 -26.01 42.46 3.57 -30.66 23.6 0 -1.16zm29.5 0l-17.7 0 21.19 -15.37 -3.49 16.54 0 -1.16zm14.13 -38.97l-5.9 5.9 -2.33 0 -17.7 -1.16 64.89 -29.49 1.16 0 -31.83 23.59 -8.3 0 0 1.16zm14.2 40.13l2.33 -20.03 40.13 4.66 4.73 16.54 -47.19 0 0 -1.16zm41.3 -49.53l23.59 27.09 -16.53 -2.33 -7.06 -23.6 0 -1.16zm14.12 50.69l-4.73 -15.29 43.7 7.06 -16.54 8.23 -23.6 0 1.16 0zm36.56 0l14.21 -7.06c13.81,2.33 27.58,5.1 41.29,8.23l-56.66 0 1.16 -1.16zm30.66 -14.13l29.49 -15.37 24.84 26 -54.34 -11.79 0 1.16zm74.36 15.29l-4.73 0 -22.43 -23.6 29.5 11.8 -2.33 11.8z"></path>
    <g>
     <path class="fil0" d="M13836.25 1841.62l-1511.79 1.4 -1361.24 -721.78c5.72,-49.29 17.35,-97.14 34.69,-149.28l-60.81 0c0,0 -18.88,8.68 -18.88,14.48l-7.25 55.1 -41.94 28.98 -30.5 -17.44 -8.68 -68.06c0,-4.38 -18.78,-14.48 -18.78,-14.48l-60.91 0c18.88,55 28.98,105.71 36.22,156.42l-1037.41 717.22 -144.89 0 0 82.64 964.96 0c-26.02,60.45 -51.08,121.34 -75.3,182.55l118.77 0 60.92 -182.55 401.31 0 60.82 182.55 118.86 0 -75.4 -182.55 2657.22 5.92 0 -91.12zm-2907.82 -384.27c11.53,49.28 28.97,105.81 50.71,175.3l-82.65 -153.57 14.49 -43.47 17.45 21.73zm-44.9 -202.85l-10.2 -7.25 18.88 -18.87 5.82 4.39 0 20.3 -14.49 0 0 1.43zm10.1 43.47l-2.86 1.43 -2.96 -2.86 5.81 0 0 1.43zm-2.86 -75.3l-13.06 -8.77 18.78 0 0 2.96 -5.72 5.81zm7.25 0l0 4.29 -1.53 -1.43 0 -1.43 1.53 -1.43zm-10.2 2.86l-17.35 17.35 -18.87 -14.49 17.44 -14.49 18.78 11.63zm-36.22 -2.86l0 -8.77 10.2 0 -10.2 8.77zm-1.43 -49.28l0 -8.68 14.48 8.68 -14.48 0zm1.43 62.25l14.49 11.63 -7.25 7.25 -7.25 0 0 -18.87zm18.87 14.49l5.81 4.38 -11.63 0 4.39 -4.38 1.43 0zm28.98 46.42c2.86,4.29 2.86,8.68 2.86,13.06l-7.25 -5.81 5.82 -7.25 -1.43 0zm0 -140.6l0 -1.43 2.86 -2.86 -1.43 4.29 -1.43 0zm0 4.38l0 13.06 -26.12 0 20.31 -15.92 5.81 2.86zm-30.41 10.1l-20.3 -11.54 20.3 -15.92 20.21 11.54 -20.21 15.92zm-11.63 126.11l-5.82 5.82 -2.86 -2.96 0 -2.86 8.68 0zm7.24 0l14.49 0 8.68 7.25 -14.49 20.3 -17.34 -17.44 8.67 -10.1zm8.67 34.79l2.96 5.72 -7.24 0 4.29 -5.72zm2.96 44.9l26.02 0 -8.67 23.16 -14.49 -20.3 -2.86 -2.86zm12.96 26.02l-14.48 28.98 -15.92 -28.98 14.48 -21.73 15.92 21.73zm7.25 -65.2l-12.96 0 -7.25 -10.1 15.92 -18.88 10.1 8.77 1.43 8.67 -7.25 11.54zm8.77 -2.86l0 2.86 -2.96 0 2.96 -2.86zm-4.38 -249.17l5.81 -4.39 0 7.25 -5.81 -2.86zm4.38 7.25l-14.49 0 5.72 -4.39 8.77 4.39zm-2.96 39.08l0 14.49 -8.67 4.38 -20.31 -11.63 10.2 -7.25 18.78 0zm-33.27 5.81l-7.25 -4.38 11.53 0 -4.29 4.38zm-4.39 2.86l-17.34 11.63 -1.53 -20.3 5.81 0 13.06 8.67zm-14.48 166.63l-2.86 0 2.86 0zm1.43 2.96l17.44 17.35 -7.25 10.1 -14.48 0 -2.96 -4.29 1.43 -15.92 5.81 -7.24zm17.44 66.63l-14.49 21.73 -10.19 -21.73 24.69 0zm0 62.24l-17.44 33.36 -11.53 -40.61 14.48 -21.73 14.49 28.98zm4.29 5.81l17.45 31.94 -20.31 57.95 -14.48 -53.67 17.34 -36.22zm2.96 -5.81l17.35 -30.4 14.49 20.3 -14.49 40.61 -17.35 -30.51zm43.47 -23.16l7.24 26.12 -10.2 -14.49 2.96 -11.63zm-2.96 -10.1l-5.81 17.34 -14.49 -20.3 13.06 -24.59 2.96 0 4.29 27.55zm-4.29 -359.37l-2.96 28.97 -13.06 8.67 -21.73 -11.53 37.75 -26.11zm-42.04 28.97l21.73 11.63 -8.67 5.81 -33.36 0 -4.39 -1.53 23.26 -15.92 1.43 0zm-4.38 -2.86l-23.17 15.92 -2.86 -28.98 26.02 14.49 0 -1.43zm-28.98 304.28l14.49 26.02 -13.06 20.3 -5.72 -20.3 4.29 -26.02zm-7.25 39.08l2.96 14.48 -10.2 17.45 7.24 -31.93zm-11.53 47.85l17.35 -26.12 11.63 43.47 -75.4 142.03 46.42 -159.38zm-1060.67 379.58l1030.17 -711.4 2.95 28.98 -938.94 682.42 -94.18 0zm101.42 0l933.12 -675.18 0 28.98 -840.37 647.63 -92.75 0 0 -1.43zm101.43 0l831.7 -638.96 0 31.84 -738.95 608.55 -92.75 0 0 -1.43zm101.42 0l730.27 -599.87c0,11.63 0,24.69 -2.86,36.22l-634.66 565.08 -92.75 0 0 -1.43zm101.43 0l625.99 -557.84 -4.38 43.47 -528.86 514.37 -94.18 0 1.43 0zm101.42 0l517.33 -507.12 -10.2 53.67 -414.37 454.88 -92.75 0 0 -1.43zm98.57 0l405.7 -443.35c-4.39,26.12 -11.63,52.14 -20.31,78.26l-291.21 365.09 -94.18 0zm241.93 0l-42.04 0 113.06 -168.05 -72.45 168.05 1.43 0zm-49.28 0l-92.65 0 279.58 -350.6c-15.92,50.71 -34.8,101.42 -57.95,156.42l-128.98 194.18zm144.9 0l62.34 -191.22 86.93 -165.2 14.48 55.1 -111.52 301.32 -52.24 0zm57.95 0l110.19 -289.79 82.55 289.79 -192.74 0zm199.99 0l-86.93 -301.32 21.73 -57.95 94.18 178.15 57.95 181.12 -86.93 0zm185.5 0c-34.79,-82.55 -68.16,-157.95 -94.18,-227.44l169.48 227.44 -75.3 0zm82.55 0l-183.97 -246.32c-18.87,-46.32 -33.36,-91.22 -46.42,-133.26l360.8 379.58 -130.4 0zm136.22 0l-370.91 -391.21 -17.44 -69.49 515.8 460.7 -127.44 0zm136.21 0l-526 -469.47 -8.67 -49.19 663.55 517.23 -128.88 0 0 1.43zm137.65 0l-673.75 -525.9 -4.39 -40.61 807.01 566.51 -130.4 0 1.53 0zm137.65 0l-815.79 -572.32 -2.86 -36.22 947.52 608.55 -130.4 0 1.53 0zm137.65 0l-954.86 -615.79 0 -30.41 1085.27 647.63 -130.4 0 0 1.52 0 -2.95zm139.08 0l-1093.94 -653.44 1.43 -31.84 1222.91 685.28 -130.4 0zm139.07 0l-1231.58 -689.67 4.39 -28.98 1357.6 718.64 -130.41 0z"></path>
    </g>
    <polygon class="fil0" points="9563,1917.49 13836.25,1917.49 13836.25,2052.97 9563,2052.97 "></polygon>
   </g>
   <g id="_2071140951824">
    <path class="fil0" d="M14179.89 2049.17l-343.64 3.8 -49.52 -0.1 -1479.96 -67.12 0 -127.43c64.85,-3.96 161.74,10.79 207.52,-24.41 -21.27,-130.63 21.11,-196.08 7.73,-248.84 -14.25,-56.2 2.12,-40.29 9.45,-83.33 8.11,-47.66 -1.11,-132.26 4.7,-189.28 3.28,-32.08 7.42,-62.07 9.45,-94.23 2.74,-42.91 21.1,-46.27 15.7,-80.53 -20.48,36.63 -19.01,58.54 -71.89,62.31 -21.93,-19.5 -37.85,-36.67 -30.4,-79.92 2.51,-14.6 8.62,-31.78 11.91,-48.53 4.08,-20.87 2.17,-34.11 5.56,-56.13 13.33,-86.38 82.92,-60.6 139.57,-104.03 16.02,-32.39 -21.72,-52.12 -23.31,-88.62 -2.49,-9.48 -9.6,-20.27 -12.68,-27.17 -8.74,-19.51 -14.87,-29.01 -22.44,-53.8 30.27,-26.68 34.19,-41.04 83.18,-56.56 182.67,-57.91 102.5,41.78 96.36,70.46 -10.83,50.62 31.45,33.02 -21.46,83.2 -2.06,57.01 -1.32,51.44 43.93,53.69 26.37,1.31 47.3,14.68 73.45,28.51 31.16,16.48 25.16,25.92 38.08,63.43 11.08,32.14 27.16,42.96 28.77,70.95 -36.15,41.65 -30.43,1.34 -37.39,74.38 -2.71,28.49 -1.85,26.75 -15.36,46.45 -10.9,15.91 -4.58,-0.04 -10.67,16.78l-18.26 130.84c-2.87,32.05 -14.6,67.26 -19.47,102.84 -12.44,91.22 7.85,191.93 5.55,215.52 -2.51,25.71 -4.04,26.3 -3.45,56.39 0.88,44.99 -2.89,20.64 -10.51,50.24 -7.01,27.19 0.6,78.27 10.26,102.35 252.92,14.05 195.89,22.56 199.28,-200.2 0.51,-34.04 5.91,-67.07 6.39,-94.45 0.49,-28.96 -5.04,-27.35 -6.83,-54.43l7.76 -140.27c13.55,-56.41 -21.66,-32.21 -4.86,-84.11 17.18,-53.07 45.46,-108.71 31.34,-177.78 -42.19,15.98 -37.12,22.89 -62.39,51.63 -79.82,90.81 -152.13,-4.78 -45.65,-99.64 24.58,-21.9 27.3,-12.8 46.54,-48.06 48.45,-88.82 173.09,-33.19 157.04,-115.76 -4.57,-23.58 -9.56,-11.23 -14.88,-31.86 -8.71,-33.82 2.5,-18.2 2.66,-38.89 0.29,-37.85 -28.19,-15.63 -17.83,-73.8 57.93,-43.16 146.28,-46.56 204.18,4.46 -3.25,40.51 -8.37,18.51 -18.8,47.64 -10.64,29.73 2.4,27.32 -4.11,63.44 -19.95,30.33 -35.91,6.99 -29.16,57.16 29.67,7.88 21.75,-5.72 49.88,10.67 19.33,11.26 5.11,15.81 38.43,19.34 -7.09,-39.56 -11.03,-80.52 -21.18,-118 -8.91,-32.95 -21.55,-93.89 -6.73,-127.86 125.42,-45.98 72.62,103.78 75.55,124.42 2.63,18.61 31.46,65.83 42.53,82.36l110.04 -31.58c-0.39,-31.2 -63.84,-179.02 -81.04,-219.56 42.23,-38.91 149.58,-65.62 225.17,-50.53 -7.76,54.19 -35.09,46.24 -18.85,114.21 17.47,73.24 -41.55,45.49 -5.29,104.13 43.63,15.71 83.86,-12.43 140.92,36.29 11.43,9.76 68.35,103.15 72.97,119.82 -13.3,15.06 -14.11,16.21 -32.59,26.32 -2.04,35.61 3.29,78.97 -3.95,111.4 -10.45,46.75 -28.92,31.54 -23.57,93.15 7.41,85.38 -16.65,146.11 -1.59,228.25 11.11,60.62 2.22,52.92 5.75,96.54 1.26,15.56 37.16,113.73 13.11,198.16 -12.29,43.11 -9.43,63.27 5.24,98.81l0.13 0c107.24,49.67 317.65,92.27 343.64,216.43zm-801.27 -1043.94c34.64,36.91 72.34,16.12 95.42,40.03 16.74,17.34 9.77,25.63 17.75,49.8 8.23,24.9 14.51,24.7 31.09,41.67 -5.71,37.98 -19.53,27.91 -14.8,70.13 3.96,35.25 2.02,57.43 1.82,92.59 -0.24,41.81 10.77,52.78 11.54,87.47 0.74,33.79 2.46,65.35 3.25,95.5 0.82,31.23 -11.49,54.81 -6.76,86.74 6.41,43.37 16.71,22.52 8.82,84.63 -7.88,62.04 -2.85,125.69 -10.01,184.55l-208.71 1.93c-27.78,-59.13 -28,-89.17 -3.56,-145.82 14.36,-33.29 6.11,-39.65 7.64,-73.34 1.18,-25.98 -2.8,-6.65 13.11,-26.91 48.4,-61.63 10.82,-117.81 5.93,-189.22 -2.87,-41.86 23.22,-34.71 20.6,-143.4 117.79,10.84 21.66,-137.42 26.88,-256.36z"></path>
    <path class="fil1" d="M13474.04 1045.26c-23.08,-23.92 -60.78,-3.13 -95.42,-40.03 -5.21,118.94 90.92,267.2 -26.88,256.36 2.62,108.69 -23.47,101.55 -20.6,143.4 4.89,71.41 42.48,127.59 -5.93,189.22 -15.91,20.25 -11.93,0.92 -13.11,26.91 -1.53,33.69 6.72,40.05 -7.64,73.34 -24.43,56.65 -24.22,86.69 3.56,145.82l208.71 -1.93c7.16,-58.86 2.12,-122.51 10.01,-184.55 7.89,-62.11 -2.41,-41.26 -8.82,-84.63 -4.73,-31.93 7.58,-55.51 6.76,-86.74 -0.79,-30.15 -2.5,-61.7 -3.25,-95.5 -0.77,-34.69 -11.78,-45.66 -11.54,-87.47 0.2,-35.16 2.14,-57.35 -1.82,-92.59 -4.73,-42.22 9.09,-32.15 14.8,-70.13 -16.58,-16.97 -22.85,-16.77 -31.09,-41.67 -7.98,-24.17 -1.01,-32.46 -17.75,-49.8z"></path>
   </g>
  </g>
 </g>
</svg>