<?xml version="1.0" encoding="UTF-8"?>
<!DOCTYPE svg PUBLIC "-//W3C//DTD SVG 1.1//EN" "http://www.w3.org/Graphics/SVG/1.1/DTD/svg11.dtd">
<!-- Creator: CorelDRAW 2021 (64-Bit) -->
<svg xmlns="http://www.w3.org/2000/svg" xml:space="preserve" width="5.35821in" height="5.33334in" version="1.1" style="shape-rendering:geometricPrecision; text-rendering:geometricPrecision; image-rendering:optimizeQuality; fill-rule:evenodd; clip-rule:evenodd"
viewBox="0 0 2527.28 2515.54"
 xmlns:xlink="http://www.w3.org/1999/xlink"
 xmlns:xodm="http://www.corel.com/coreldraw/odm/2003">
 <defs>
  <style type="text/css">
   <![CDATA[
    .fil1 {fill:#FD907E;fill-rule:nonzero}
    .fil2 {fill:#FF6600;fill-rule:nonzero}
    .fil3 {fill:#FF6600;fill-rule:nonzero}
    .fil0 {fill:#FFD1B2;fill-rule:nonzero}
   ]]>
  </style>
 </defs>
 <g id="Layer_x0020_1">
  <metadata id="CorelCorpID_0Corel-Layer"/>
  <path class="fil0" d="M2055.61 2515.54l-2030.52 0c-8.42,0 -16.78,-0.23 -25.09,-0.66l0 -2514.21c8.31,-0.43 16.67,-0.66 25.09,-0.66l2030.52 0c260.52,0 471.66,211.15 471.66,471.66 0,524.07 0,1048.14 0,1572.21 0,260.52 -211.15,471.66 -471.66,471.66l0 -0z"/>
  <g id="_2948301907968">
   <polygon class="fil1" points="1078.78,946.19 1518.36,652.96 1576.52,740.15 1136.94,1033.38 "/>
   <polygon class="fil1" points="1108.32,1273.56 1150.34,1177.57 1653.96,1398.04 1611.94,1494.03 "/>
   <path class="fil2" d="M915.76 1402c-151.72,0 -275.14,-123.42 -275.14,-275.14 0,-151.72 123.42,-275.14 275.14,-275.14 151.72,0 275.14,123.42 275.14,275.14 0,151.72 -123.42,275.14 -275.14,275.14z"/>
   <path class="fil2" d="M1741.17 1650.96c-86.71,0 -157.22,-70.51 -157.22,-157.22 0,-86.71 70.51,-157.22 157.22,-157.22 86.71,0 157.22,70.51 157.22,157.22 0,86.71 -70.51,157.22 -157.22,157.22z"/>
   <path class="fil2" d="M1688.74 812.42c-115.56,0 -209.65,-94.02 -209.65,-209.65 0,-115.64 94.1,-209.58 209.65,-209.58 115.64,0 209.65,94.02 209.65,209.65 0,115.64 -94.02,209.58 -209.65,209.58z"/>
  </g>
  <path class="fil3" d="M653.43 1978.27c64.49,21.92 107.94,41.78 130.45,59.67 20.55,16.32 30.77,35.88 30.77,58.69 0,6.19 -0.79,12.58 -2.26,19.37 -7.87,34.31 -34.8,67.93 -80.61,100.76 -48.86,34.8 -103.81,56.72 -165.05,65.96 -17.1,2.46 -33.91,3.74 -50.43,3.74 -47.19,0 -92.01,-10.42 -134.48,-31.36 -59.38,-29.39 -89.26,-68.91 -89.85,-118.36l0 -2.95c0,-43.16 13.47,-69.21 40.31,-78.05 5.01,-1.48 9.93,-2.26 14.65,-2.26 5.01,0 9.93,0.88 14.75,2.56 9.24,3.44 14.55,8.55 16.12,15.24 0.2,1.38 0.3,3.05 0.3,4.92 0,3.44 -0.39,7.86 -1.18,13.27 -1.87,10.91 -2.85,18.68 -2.85,23l0 2.66c0,19.37 8.06,35.39 24.18,48.07 33.62,26.34 73.34,39.42 119.24,39.42 11.11,0 22.51,-0.69 34.21,-2.26 62.03,-8.26 115.61,-35.49 160.73,-81.79 5.6,-5.8 8.36,-11.11 8.36,-16.12 0,-3.64 -1.38,-7.08 -4.33,-10.42 -6.29,-6.69 -20.25,-13.67 -41.78,-20.94 -10.91,-3.74 -36.27,-11.01 -75.99,-21.92 -39.52,-11.11 -72.35,-21.04 -98.5,-29.69 -88.67,-29.98 -148.74,-54.36 -180,-73.14 -45.91,-27.82 -69.3,-61.54 -70.29,-101.06l0 -1.48c0,-37.26 28.41,-66.26 85.23,-87 40.01,-14.35 86.31,-22.91 139.1,-25.56 5.6,-0.39 11.21,-0.59 16.71,-0.59 36.18,0 72.25,6.39 108.33,19.27 43.55,15.53 65.37,34.8 65.37,57.9 0,2.26 -0.2,4.62 -0.59,6.88 -2.85,15.53 -6.78,26.05 -11.8,31.46 -3.24,3.64 -7.77,5.41 -13.56,5.41 -1.67,0 -3.64,-0.2 -5.7,-0.59 -4.62,-0.79 -14.84,-3.93 -30.57,-9.44 -16.91,-6.19 -31.85,-10.62 -44.93,-13.27 -19.37,-4.23 -40.89,-6.39 -64.49,-6.39 -18.28,0 -37.65,1.28 -58.19,3.74 -46.5,5.41 -70.49,13.37 -71.96,23.99 -0.2,1.28 -0.3,2.65 -0.3,4.03 0,23.4 32.15,45.81 96.44,67.34 18.97,6.39 51.32,15.73 96.73,28.21 44.43,12.48 76.97,22.22 97.72,29.1zm458.79 271.02l0 2.36c-1.38,21.23 -11.4,31.95 -30.28,31.95 -21.33,0 -42.27,-9.24 -63.01,-27.72 -19.07,-22.02 -33.82,-61.93 -44.43,-119.73 -1.67,-9.24 -2.65,-14.55 -2.85,-15.83 -4.62,8.55 -12.09,26.35 -22.41,53.28 -14.06,36.47 -25.07,61.83 -33.13,76.29 -13.86,24.38 -27.53,36.57 -40.9,36.57 -14.06,0 -25.95,-5.41 -35.78,-16.12 -14.55,-16.12 -21.82,-36.27 -21.82,-60.46 0,-3.83 0.2,-7.77 0.59,-11.8 2.26,-25.36 3.44,-63.7 3.44,-114.92 0.19,-18.09 0.29,-32.34 0.29,-42.96 0.79,-55.64 3.74,-107.55 8.95,-155.52 9.73,-88.67 24.87,-133.01 45.42,-133.01 3.73,0 7.27,1.18 10.71,3.73 13.76,6.29 20.94,27.92 21.33,64.78l0 1.97c0,25.36 -3.54,63.9 -10.42,115.51 -2.46,18.97 -3.83,31.06 -4.03,35.98 -2.26,38.63 -3.44,73.83 -3.44,105.78 0,14.16 0.2,27.62 0.59,40.31 10.91,-11.21 21.53,-31.95 31.66,-62.23 7.08,-21.92 13.66,-37.65 19.56,-47.28 9.83,-16.32 23.3,-28.02 40.4,-35.09 3.83,-1.77 7.57,-2.56 11.21,-2.56 16.71,0 30.18,16.12 40.6,48.37 7.47,23.4 14.06,58.59 19.86,105.68 0.98,7.67 1.57,12.29 1.77,13.86 12.98,51.22 31.16,87 54.36,107.35l1.77 1.47zm204.96 -184.62c-1.08,-0.79 -2.46,-1.18 -4.03,-1.18 -6.29,0 -15.04,6.09 -26.15,18.19 -14.25,15.73 -28.41,36.77 -42.66,63.11 -13.07,24.58 -20.64,43.06 -22.71,55.54 19.76,-5.6 40.5,-24.18 62.13,-55.84 21.33,-30.96 32.54,-57.51 33.42,-79.82zm143.43 137.14c13.86,19.17 20.74,35 20.74,47.48 -1.67,9.44 -7.67,17.79 -17.79,25.07 -10.03,7.27 -20.55,10.91 -31.75,10.91 -9.14,0 -16.91,-2.85 -23,-8.65 -12.68,-11.5 -24.28,-33.92 -34.9,-67.34 -8.06,-26.15 -15.93,-44.04 -23.59,-53.87 -1.67,2.65 -4.33,6.68 -7.77,12.09 -20.74,32.83 -37.75,56.53 -50.92,71.17 -22.91,24.97 -46.79,40.11 -71.76,45.51 -7.28,1.47 -14.25,2.26 -21.04,2.26 -19.56,0 -35.39,-6.19 -47.48,-18.68 -12.29,-12.49 -19.07,-29.49 -20.15,-51.02 0,-43.35 27.53,-96.63 82.67,-159.84 70.58,-57.41 123.96,-86.12 160.04,-86.12l2.95 0c14.55,0 25.95,13.86 34.21,41.49 4.82,15.53 9.34,40.11 13.56,73.73 1.38,11.7 2.36,18.87 2.85,21.63 0.59,2.06 1.67,7.08 3.24,14.94 5.11,26.35 10.32,45.22 15.53,56.72 2.26,5.01 7.08,12.48 14.35,22.51zm282.23 -231.31c10.72,0 21.73,4.13 32.83,12.39 10.03,7.47 14.94,15.43 14.94,23.89 0,2.16 -0.3,4.32 -1.08,6.69 -39.62,20.15 -72.65,47.68 -99.09,82.57 -29.2,38.24 -49.35,82.87 -60.46,133.99 -8.06,37.45 -19.66,56.13 -34.9,56.13 -6.49,0 -13.66,-3.54 -21.63,-10.62 -19.37,-17.69 -34.51,-51.81 -45.42,-102.24 -8.85,-40.4 -13.27,-79.63 -13.27,-117.87 3.64,-15.53 9.44,-26.15 17.5,-31.95 3.93,-2.46 7.86,-3.74 11.9,-3.74 4.42,0 8.75,1.38 13.17,4.03 21.14,13.07 33.23,43.45 36.37,91.33 7.86,-29 25.95,-59.28 54.36,-90.74 32.44,-35.88 63.9,-53.87 94.18,-53.87l0.59 0zm146.87 164.76c12.29,0 22.41,-4.32 30.28,-12.98 7.28,-7.86 11.5,-17.69 12.68,-29.39 0.19,-1.87 0.29,-3.83 0.29,-5.7 0,-9.24 -2.36,-17.4 -6.88,-24.48 -6.19,-9.63 -15.24,-15.24 -27.13,-16.71 -1.48,-0.2 -2.95,-0.3 -4.33,-0.3 -7.67,0 -13.56,3.15 -17.79,9.44 -4.42,6.59 -6.69,15.63 -6.69,27.13 0,25.76 6.59,43.35 19.56,52.99zm229.25 -23.89c14.06,-10.42 24.57,-15.63 31.75,-15.63 7.08,0 10.62,5.41 10.62,16.22 -4.62,32.44 -22.71,66.45 -54.46,102.24 -30.87,34.5 -62.23,57.41 -94.17,68.52 -11.5,2.46 -22.91,3.74 -34.21,3.74 -56.33,0 -108.14,-31.85 -155.52,-95.65 -16.12,-21.63 -24.18,-51.41 -24.18,-89.26 0,-15.93 1.38,-33.42 4.32,-52.4 5.11,-34.21 32.44,-56.72 81.79,-67.73 6.69,-1.47 13.27,-2.26 19.86,-2.26 17.79,0 34.5,5.8 50.14,17.3 17.6,13.07 32.73,32.54 45.12,58.49 3.34,11.7 4.92,22.61 4.92,32.74 0,30.18 -14.06,54.46 -42.27,72.94 -4.62,3.05 -10.81,5.9 -18.48,8.65 -8.65,3.05 -13.76,4.92 -15.53,5.7 -4.03,2.16 -6.09,4.82 -6.09,8.06l0 0.59c0.39,4.03 3.83,9.54 10.13,16.42 13.47,14.65 28.9,21.92 46.4,21.92 4.92,0 10.12,-0.59 15.53,-1.77 22.41,-5.01 44.93,-20.74 67.34,-47.18 30.18,-35.19 49.15,-55.74 57.02,-61.64zm106.27 110c16.91,0 30.57,4.72 40.9,14.06 9.24,8.26 13.86,18.38 13.86,30.28 0,11.5 -4.52,21.14 -13.56,28.8 -9.83,8.06 -22.91,12.09 -39.42,12.09 -5.41,0 -11.21,-0.39 -17.3,-1.18 -9.83,-1.87 -17.5,-7.27 -23.1,-16.12 -4.23,-7.08 -6.29,-14.75 -6.29,-23l0 -3.15c0.59,-10.42 4.23,-19.36 10.91,-26.84 8.06,-8.85 19.46,-13.76 34.01,-14.94zm55.05 -535.66c5.9,7.47 8.85,19.27 8.85,35.39 0,13.07 -1.87,28.7 -5.7,46.99 -1.77,8.26 -2.85,13.86 -3.44,16.91 -6,36.18 -8.94,74.71 -8.94,115.8l0 15.24c0.2,12.29 0.3,23.1 0.3,32.24 0,9.24 -0.1,17.01 -0.3,23.4 -0.2,9.24 -0.3,17.79 -0.3,25.85 0,18.09 0.69,33.03 1.97,45.02l1.47 14.65c2.46,20.74 3.74,38.44 3.74,52.99 0,10.22 -0.59,18.87 -1.67,26.25 -5.41,28.41 -17.5,42.57 -36.37,42.57 -9.73,0 -18.87,-2.85 -27.33,-8.65 -9.04,-6.49 -15.24,-15.73 -18.68,-27.62 -4.42,-15.14 -6.69,-35.88 -6.69,-62.23 0,-13.76 0.69,-29.3 2.06,-46.3l1.38 3.15c1.18,-19.37 1.77,-42.27 1.77,-68.52 0,-14.84 -0.2,-30.57 -0.59,-47.29l-0.59 -28.8c0,-4.62 -0.69,-15.14 -1.97,-31.65 -3.24,-38.63 -4.92,-66.95 -4.92,-84.93 0,-3.83 0.2,-7.28 0.59,-10.13 1.87,-35.09 10.72,-61.24 26.44,-78.35 9.04,-9.44 19.96,-14.06 32.54,-14.06l3.54 0c15.93,0.49 26.84,4.52 32.83,12.09z"/>
 </g>
</svg>
