<?xml version="1.0" encoding="UTF-8"?>
<!DOCTYPE svg PUBLIC "-//W3C//DTD SVG 1.1//EN" "http://www.w3.org/Graphics/SVG/1.1/DTD/svg11.dtd">
<!-- Creator: CorelDRAW 2021 (64-Bit) -->
<svg xmlns="http://www.w3.org/2000/svg" xml:space="preserve" width="4.01251in" height="1.08086in" version="1.1" style="shape-rendering:geometricPrecision; text-rendering:geometricPrecision; image-rendering:optimizeQuality; fill-rule:evenodd; clip-rule:evenodd"
viewBox="0 0 6469.11 1742.6"
 xmlns:xlink="http://www.w3.org/1999/xlink"
 xmlns:xodm="http://www.corel.com/coreldraw/odm/2003">
 <defs>
  <style type="text/css">
   <![CDATA[
    .str0 {stroke:#4D4D4D;stroke-width:11.2;stroke-linecap:round;stroke-linejoin:round;stroke-miterlimit:2.61313}
    .fil2 {fill:none}
    .fil0 {fill:#94D869}
    .fil1 {fill:#4D4D4D;fill-rule:nonzero}
   ]]>
  </style>
 </defs>
 <g id="Layer_x0020_1">
  <metadata id="CorelCorpID_0Corel-Layer"/>
  <g id="_2701212637120">
   <path class="fil0" d="M571.42 317.98l293.6 0c295.37,0 537.03,241.66 537.03,537.03l0 344.95c0,295.37 -241.66,537.03 -537.03,537.03l-327.98 0c-295.37,0 -537.03,-241.66 -537.03,-537.03l0 -215.42 0 -129.53 0 -725.84 0.01 -0.63 0.03 -2.64 0 -0.06c0.63,-27.36 9.86,-54.7 28.19,-77.58l0 0c21.01,-26.22 50.37,-42.05 81.34,-46.76l0.09 -0.01 2.66 -0.37 2.18 -0.27 0.52 -0.06 2.69 -0.26 0.46 -0.04 2.61 -0.2 0.56 -0.03 2.32 -0.12 1.02 -0.04 2.35 -0.06 0.56 -0.01 1.58 -0.02 0 0 0.9 0.01 0.93 0.01 2.13 0.05 1.48 0.05 1.56 0.07 1.97 0.13 1.2 0.08c0.97,0.08 1.94,0.15 2.91,0.25l0.11 0.01c23.92,2.41 47.4,11.5 67.46,27.57l361.6 289.75zm283.95 261.49c158.57,-2.22 288.32,129.74 288.32,288.32l0 319.41c0,158.58 -129.74,288.32 -288.32,288.32l-308.69 0c-158.58,0 -288.32,-129.74 -288.32,-288.32 0,-263.58 0,-527.14 0,-790.72l234.73 188.05 362.28 -5.05z"/>
   <g>
    <image x="258.36" y="67.13" width="959.81" height="516.09" xlink:href="Branditechture Support_Images\Branditechture Support_ImgID1.png"/>
   </g>
  </g>
  <path class="fil1" d="M2343.33 626.57c-155.83,0 -280.98,92.02 -280.98,241.71 0,128.84 95.71,188.96 223.31,238.04l44.17 15.95c93.25,36.81 127.61,66.26 127.61,121.47 0,77.3 -76.07,95.71 -127.61,95.71 -35.58,0 -88.34,-11.04 -131.29,-58.89 -19.63,-25.77 -46.63,-51.53 -87.12,-51.53 -50.31,0 -74.85,39.26 -74.85,77.3 0,41.72 25.77,74.85 39.26,90.8 63.8,69.94 161.97,105.52 255.22,105.52 142.33,0 315.34,-84.66 315.34,-258.9 0,-114.11 -71.17,-188.96 -273.62,-263.8l-40.49 -14.72c-71.17,-27 -84.66,-62.58 -84.66,-94.48 0,-46.63 35.58,-82.21 103.07,-82.21 45.4,0 68.71,13.5 103.07,44.18 17.18,18.4 45.4,34.35 72.39,34.35 42.95,0 76.07,-31.9 76.07,-72.39 0,-28.22 -13.5,-51.53 -40.49,-82.21 -50.31,-50.3 -112.89,-85.89 -218.41,-85.89z"/>
  <path id="_1" class="fil1" d="M2949.17 1501.42c130.06,0 200,-96.93 204.91,-142.33l0 49.08c0,50.3 40.49,90.79 89.57,90.79 49.08,0 89.57,-40.49 89.57,-90.79l0 -468.72c0,-49.08 -40.49,-88.34 -89.57,-88.34 -49.08,0 -89.57,39.26 -89.57,88.34l0 283.44c-2.46,23.31 -31.9,126.38 -137.42,126.38 -67.49,0 -117.79,-44.17 -117.79,-146.02l0 -263.8c0,-49.08 -41.72,-88.34 -89.57,-88.34 -49.08,0 -89.57,39.26 -89.57,88.34l0 263.8c0,213.5 104.3,298.16 229.45,298.16z"/>
  <path id="_2" class="fil1" d="M3781.99 848.66c-84.66,0 -149.69,46.62 -170.55,96.93l0 -4.91c0,-47.85 -40.5,-88.35 -89.57,-88.35 -47.85,0 -90.8,40.5 -90.8,88.35l0 706.74c0,49.08 40.5,89.57 89.57,89.57 49.08,0 92.02,-40.49 92.02,-89.57l0 -230.67c17.18,35.58 74.85,85.89 169.32,85.89 134.97,0 295.71,-104.29 295.71,-327.61 0,-218.4 -161.96,-326.38 -295.71,-326.38zm-33.13 500.61c-61.35,0 -144.78,-44.17 -144.78,-174.24 0,-128.83 83.44,-173 144.78,-173 74.85,0 149.69,58.9 149.69,173 0,115.34 -74.84,174.24 -149.69,174.24z"/>
  <path id="_3" class="fil1" d="M4501.93 848.66c-84.66,0 -149.69,46.62 -170.55,96.93l0 -4.91c0,-47.85 -40.5,-88.35 -89.57,-88.35 -47.85,0 -90.8,40.5 -90.8,88.35l0 706.74c0,49.08 40.5,89.57 89.57,89.57 49.08,0 92.02,-40.49 92.02,-89.57l0 -230.67c17.18,35.58 74.85,85.89 169.32,85.89 134.97,0 295.71,-104.29 295.71,-327.61 0,-218.4 -161.96,-326.38 -295.71,-326.38zm-33.13 500.61c-61.35,0 -144.78,-44.17 -144.78,-174.24 0,-128.83 83.44,-173 144.78,-173 74.85,0 149.69,58.9 149.69,173 0,115.34 -74.84,174.24 -149.69,174.24z"/>
  <path id="_4" class="fil1" d="M5167.88 848.66c-141.1,0 -330.06,110.43 -330.06,328.83 0,219.63 188.96,325.15 330.06,325.15 139.88,0 330.06,-105.52 330.06,-325.15 0,-218.41 -190.18,-328.83 -330.06,-328.83zm0 155.83c80.98,0 152.15,66.25 152.15,173 0,103.07 -71.17,169.32 -152.15,169.32 -82.21,0 -153.38,-66.25 -153.38,-169.32 0,-106.75 71.17,-173 153.38,-173z"/>
  <path id="_5" class="fil1" d="M5933.22 849.88c-103.07,0 -177.92,96.93 -182.82,142.33l0 -49.08c0,-50.3 -40.49,-90.8 -89.57,-90.8 -49.08,0 -89.57,40.5 -89.57,90.8l0 468.71c0,47.85 40.5,88.35 89.57,88.35 49.08,0 89.57,-40.5 89.57,-88.35l0 -283.43c3.68,-42.95 60.12,-112.89 152.15,-112.89 76.07,0 114.11,-34.35 114.11,-83.44 0,-44.17 -28.22,-82.2 -83.44,-82.2z"/>
  <path id="_6" class="fil1" d="M6405.31 1341.91c-13.49,-1.23 -34.35,3.68 -46.62,3.68 -25.77,0 -36.81,-18.41 -36.81,-53.99l0 -295.71 76.07 0c44.18,0 71.17,-29.45 71.17,-69.94 0,-40.49 -26.99,-69.94 -71.17,-69.94l-76.07 0 0 -77.3c0,-49.08 -40.49,-89.57 -89.57,-89.57 -47.85,0 -89.57,40.49 -89.57,89.57l0 77.3 -29.45 0c-44.17,0 -72.39,29.45 -72.39,69.94 0,40.49 28.22,69.94 72.39,69.94l29.45 0 0 289.57c0,186.5 92.02,214.73 180.37,214.73 92.02,0 146.01,-33.13 146.01,-94.48 0,-40.49 -24.54,-65.03 -63.8,-63.8z"/>
  <line class="fil2 str0" x1="1719.32" y1="694.47" x2="1719.32" y2= "1737" />
 </g>
</svg>
