<svg xmlns="http://www.w3.org/2000/svg" xmlns:xlink="http://www.w3.org/1999/xlink" xml:space="preserve" width="3.62277in" height="3.90272in" style="shape-rendering:geometricPrecision; text-rendering:geometricPrecision; image-rendering:optimizeQuality; fill-rule:evenodd; clip-rule:evenodd" viewBox="0 0 3928 4232">
 <defs>
  <style type="text/css">
   <![CDATA[
    .fil1 {fill:#FEFEFE;fill-rule:nonzero}
    .fil4 {fill:#F2746A;fill-rule:nonzero}
    .fil5 {fill:#F16454;fill-rule:nonzero}
    .fil6 {fill:#F9FCFE;fill-rule:nonzero}
    .fil0 {fill:#E2E3E3;fill-rule:nonzero}
    .fil7 {fill:#D45749;fill-rule:nonzero}
    .fil11 {fill:#BA8C7D;fill-rule:nonzero}
    .fil8 {fill:#ADB2B3;fill-rule:nonzero}
    .fil14 {fill:#A6A7A8;fill-rule:nonzero}
    .fil13 {fill:#949A9A;fill-rule:nonzero}
    .fil9 {fill:#29292A;fill-rule:nonzero}
    .fil10 {fill:#292E2F;fill-rule:nonzero}
    .fil3 {fill:#385B65;fill-rule:nonzero}
    .fil2 {fill:#283337;fill-rule:nonzero}
    .fil12 {fill:#283F45;fill-rule:nonzero}
   ]]>
  </style>
 </defs>
 <g id="Layer_x0020_1">
  <metadata id="CorelCorpID_0Corel-Layer"></metadata>
  <g id="_2407509139824">
   <path class="fil0" d="M733 3296c4,-62 4,-128 0,-191 0,-2 -4,-2 -4,0 -3,63 -4,129 1,191 0,2 3,2 3,0z"></path>
   <path class="fil0" d="M1121 3201c0,10 -9,19 -20,19 -11,0 -20,-9 -20,-19 0,-11 9,-20 20,-20 11,0 20,9 20,20z"></path>
   <path class="fil0" d="M987 3062c-2,0 -3,-32 -3,-72 0,-41 1,-73 3,-73 1,0 2,32 2,73 0,40 -1,72 -2,72z"></path>
   <path class="fil0" d="M1008 3062c-1,0 -2,-32 -2,-72 0,-41 1,-73 2,-73 2,0 3,32 3,73 0,40 -1,72 -3,72z"></path>
   <path class="fil0" d="M650 3062c-2,0 -3,-32 -3,-72 0,-41 1,-73 3,-73 1,0 2,32 2,73 0,40 -1,72 -2,72z"></path>
   <path class="fil0" d="M671 3062c-1,0 -2,-32 -2,-72 0,-41 1,-73 2,-73 2,0 3,32 3,73 0,40 -1,72 -3,72z"></path>
   <path class="fil0" d="M1188 2905c-17,0 -30,-13 -30,-30 0,-17 13,-30 30,-30 16,0 30,13 30,30 0,17 -14,30 -30,30z"></path>
   <path class="fil1" d="M866 1216c34,54 74,104 119,149l-119 -149z"></path>
   <path class="fil0" d="M985 1365c0,0 -9,-7 -21,-19 -12,-13 -28,-30 -45,-51 -16,-21 -30,-40 -39,-55 -10,-15 -15,-24 -14,-24 0,-1 7,8 17,22 10,14 24,33 40,54 17,21 32,39 44,51 11,13 19,21 18,22z"></path>
   <polygon class="fil2" points="2961,3755 3607,3755 3607,3666 2961,3666 "></polygon>
   <path class="fil2" d="M3605 3667l-643 0 0 86 643 0 0 -86zm-645 -2l648 0 0 91 -648 0 0 -91z"></path>
   <polygon class="fil2" points="3547,3725 3454,4183 3110,4183 3020,3755 "></polygon>
   <polygon class="fil3" points="3547,4140 3497,4208 3079,4208 3020,4140 "></polygon>
   <path class="fil2" d="M3308 3738c1,0 3,-212 4,-474 1,-262 0,-474 -1,-474 -1,0 -3,212 -4,474 -1,262 0,474 1,474z"></path>
   <path class="fil2" d="M3164 3207c0,0 1,2 2,5 2,4 4,8 6,14 1,3 3,6 4,10 1,3 3,7 4,12 2,4 4,9 5,13 2,5 3,11 5,16 7,22 13,49 18,79 5,30 8,64 10,99 3,71 -1,135 -5,181 -2,23 -4,41 -6,54 0,6 -1,11 -1,15 -1,3 -1,5 -1,5 1,0 1,-2 2,-5 0,-4 1,-9 2,-15 2,-12 5,-31 7,-54 5,-46 10,-110 7,-181 -2,-36 -6,-69 -11,-99 -5,-31 -11,-58 -19,-80 -2,-5 -3,-11 -5,-15 -2,-5 -4,-10 -5,-14 -2,-5 -3,-8 -5,-12 -2,-4 -3,-7 -5,-10 -2,-5 -4,-10 -6,-13 -2,-3 -3,-5 -3,-5z"></path>
   <path class="fil2" d="M3181 3035c0,0 0,3 2,7 2,5 4,12 7,20 1,4 3,9 5,14 1,6 3,11 5,17 4,13 8,27 12,42 2,8 4,16 6,25 2,9 4,18 6,27 5,18 8,38 12,59 7,42 14,89 18,138 4,49 6,97 6,139 1,43 0,82 -2,114 0,16 -1,31 -2,44 -1,12 -2,23 -3,32 0,9 -1,16 -1,21 0,5 -1,8 0,8 0,0 0,-3 1,-8 0,-5 1,-12 2,-20 1,-9 2,-20 3,-33 1,-13 3,-28 3,-44 3,-32 4,-71 4,-114 -1,-43 -2,-90 -6,-139 -5,-49 -11,-96 -19,-138 -4,-21 -7,-42 -12,-60 -2,-9 -4,-18 -6,-27 -3,-8 -5,-17 -7,-24 -4,-16 -9,-30 -13,-42 -2,-6 -4,-12 -5,-17 -2,-6 -4,-10 -6,-15 -3,-8 -5,-14 -7,-19 -2,-4 -3,-7 -3,-7z"></path>
   <path class="fil2" d="M3349 3776c0,0 0,-1 0,-3 0,-1 1,-4 1,-7 0,-7 1,-16 2,-28 1,-25 4,-60 6,-103 6,-88 14,-208 29,-341 7,-66 16,-129 25,-186 5,-29 9,-56 14,-81 5,-26 10,-49 14,-70 4,-22 9,-41 13,-58 4,-17 7,-31 10,-43 3,-12 5,-21 7,-28 1,-3 1,-5 2,-7 0,-1 0,-2 0,-2 0,0 0,0 -1,2 0,2 -1,4 -2,7 -2,7 -4,16 -8,27 -3,12 -7,26 -11,43 -4,17 -9,36 -13,58 -5,21 -10,45 -15,70 -5,25 -9,52 -14,81 -10,57 -18,120 -26,187 -15,132 -22,253 -27,340 -2,44 -4,79 -5,104 0,12 -1,21 -1,28 0,3 0,6 0,7 0,2 0,3 0,3z"></path>
   <path class="fil4" d="M3313 2892c3,-30 34,-53 64,-53 30,0 58,18 77,42 18,24 28,53 37,82 20,71 31,145 22,218 -8,74 -38,146 -91,197 -8,9 -19,17 -31,15 -6,-2 -12,-6 -16,-11 -104,-93 -163,-232 -159,-371 1,-28 4,-57 20,-80 15,-24 51,-48 77,-39z"></path>
   <path class="fil4" d="M3539 2651c14,26 28,51 43,77 1,2 2,4 4,4 2,0 4,-2 5,-4 38,-57 75,-115 112,-172l-25 -15 -139 110z"></path>
   <path class="fil5" d="M3586 2732c0,0 0,0 0,0 -2,0 -3,-2 -4,-4 -15,-26 -29,-51 -43,-77l139 -110 25 15c-37,57 -74,115 -112,172 -1,2 -3,4 -5,4z"></path>
   <path class="fil4" d="M3311 2790c128,-76 256,-151 384,-226 3,-3 8,-6 9,-10 1,-6 -3,-11 -7,-15 -53,-55 -129,-86 -205,-81 -76,6 -148,49 -185,115 -37,67 -39,154 4,217z"></path>
   <path class="fil2" d="M3639 2491c0,0 -2,0 -5,0 -3,-1 -8,-1 -14,-1 -13,0 -31,0 -54,4 -22,4 -48,11 -75,23 -28,12 -56,30 -82,53 -25,23 -46,50 -60,76 -15,26 -25,51 -31,73 -6,22 -8,40 -9,52 -1,7 -1,8 -1,12 0,3 3,8 3,8 0,0 -2,-7 -1,-19 2,-13 5,-31 11,-52 12,-43 40,-101 91,-147 51,-46 111,-68 155,-76 22,-4 40,-5 53,-5 12,-1 19,0 19,-1z"></path>
   <path class="fil2" d="M3363 2634c0,0 7,4 19,8 12,5 29,11 49,18 19,6 36,10 49,14 13,3 21,4 21,4 0,-1 -8,-4 -20,-8 -14,-4 -31,-9 -49,-15 -18,-6 -35,-11 -49,-16 -12,-4 -20,-6 -20,-5z"></path>
   <path class="fil2" d="M3423 2471c-1,0 -4,19 -4,43 -1,24 1,43 2,43 1,0 2,-19 2,-43 1,-23 1,-43 0,-43z"></path>
   <path class="fil2" d="M3698 2559c0,0 -11,-4 -28,-10 -17,-5 -42,-12 -69,-18 -27,-7 -52,-12 -70,-15 -18,-3 -29,-5 -29,-4 0,1 11,3 29,7 18,4 42,10 69,16 27,7 51,13 69,18 18,4 29,7 29,6z"></path>
   <path class="fil4" d="M3473 2827c33,-25 68,-30 109,-29 41,2 82,15 120,31 64,29 125,70 164,130 38,59 52,137 23,201 -3,7 -7,13 -13,16 -7,3 -15,1 -22,-1 -73,-24 -148,-49 -215,-86 -68,-38 -129,-90 -166,-158 -9,-17 -16,-34 -17,-53 -2,-18 3,-38 17,-51z"></path>
   <path class="fil2" d="M3472 2819c0,0 2,1 5,2 4,2 9,3 16,5 3,2 7,3 11,4 4,2 8,3 13,5 9,4 20,8 31,13 6,3 12,6 18,9 7,2 13,6 20,9 13,7 26,15 41,24 28,18 58,39 87,64 29,26 54,53 75,79 10,13 20,25 29,37 4,7 8,12 12,18 3,6 7,12 10,17 7,11 12,21 17,30 3,4 5,8 7,12 2,4 3,7 5,11 3,6 5,10 7,14 2,3 3,5 3,5 0,0 0,-2 -2,-5 -2,-4 -4,-9 -6,-15 -2,-4 -3,-7 -5,-11 -2,-4 -4,-8 -7,-13 -4,-8 -9,-19 -16,-30 -3,-5 -7,-11 -10,-17 -4,-6 -8,-11 -12,-18 -8,-12 -18,-25 -29,-38 -21,-26 -46,-53 -75,-79 -29,-26 -59,-47 -88,-65 -15,-8 -28,-17 -42,-23 -6,-3 -13,-7 -19,-10 -6,-2 -12,-5 -18,-8 -12,-5 -23,-9 -32,-12 -5,-2 -9,-4 -13,-5 -4,-1 -8,-2 -12,-3 -6,-2 -11,-4 -15,-5 -4,-1 -6,-1 -6,-1z"></path>
   <path class="fil2" d="M3730 2959c-1,1 35,12 80,25 45,14 81,23 82,22 0,-1 -36,-13 -81,-26 -44,-13 -81,-23 -81,-21z"></path>
   <path class="fil2" d="M3733 3136c1,0 1,-10 2,-25 0,-16 0,-37 0,-61 -1,-23 -2,-45 -3,-60 -2,-15 -3,-25 -4,-25 0,0 0,10 0,25 1,17 1,38 2,60 1,23 1,44 2,61 0,15 0,25 1,25z"></path>
   <path class="fil2" d="M3581 3058c2,1 6,-43 9,-97 4,-53 6,-97 5,-97 -1,0 -5,43 -9,97 -4,54 -6,97 -5,97z"></path>
   <path class="fil2" d="M3770 2860c0,-1 -10,-1 -25,-1 -16,0 -38,1 -62,1 -25,1 -46,2 -62,3 -16,1 -26,2 -26,3 0,0 10,1 26,0 16,0 38,0 62,-1 24,-1 46,-2 62,-3 16,-1 25,-1 25,-2z"></path>
   <path class="fil2" d="M3406 3388c0,0 0,-1 1,-5 0,-4 0,-8 0,-14 1,-13 1,-32 0,-55 0,-23 -2,-50 -4,-80 -3,-31 -8,-64 -14,-98 -6,-35 -14,-67 -22,-97 -8,-29 -16,-55 -24,-77 -7,-21 -14,-39 -19,-51 -2,-5 -4,-10 -6,-13 -1,-3 -2,-5 -2,-5 0,0 0,2 1,5 2,4 3,8 5,14 5,12 11,30 18,51 8,22 15,48 23,77 8,30 15,62 22,97 6,34 10,67 14,97 2,30 4,57 5,80 1,23 1,42 1,55 1,6 1,10 1,14 0,4 0,5 0,5z"></path>
   <path class="fil2" d="M3386 3137c-1,1 5,7 15,17 10,10 24,23 40,37 16,14 31,27 42,35 12,9 19,14 19,13 0,0 -6,-6 -17,-15 -11,-11 -25,-23 -41,-36 -15,-14 -29,-26 -41,-36 -10,-10 -17,-15 -17,-15z"></path>
   <path class="fil2" d="M3264 3235c1,0 7,-8 17,-23 10,-15 23,-34 38,-55 14,-21 28,-40 38,-55 10,-14 16,-22 16,-23 -1,0 -8,8 -18,21 -11,14 -25,33 -40,54 -15,22 -28,42 -37,57 -9,14 -14,24 -14,24z"></path>
   <path class="fil2" d="M3328 2927c-1,1 40,29 90,61 51,32 92,58 93,57 0,-1 -40,-28 -90,-61 -51,-32 -92,-58 -93,-57z"></path>
   <path class="fil2" d="M3214 3050c1,1 28,-24 61,-56 33,-32 59,-59 58,-60 -1,-1 -28,24 -61,56 -33,32 -59,59 -58,60z"></path>
   <path class="fil4" d="M3186 3048l-35 -3c-25,-2 -49,-10 -70,-22 -11,-6 -21,-11 -33,-16 -42,-17 -90,-14 -136,-16 -76,-4 -150,-23 -218,-56 -4,-2 -7,-5 -9,-9 -7,-13 6,-24 17,-31 59,-36 118,-72 184,-90 66,-18 141,-15 198,24 66,45 90,139 102,219z"></path>
   <path class="fil2" d="M2684 2922c0,0 2,-1 6,-3 4,-2 9,-5 16,-8 15,-8 35,-19 61,-31 26,-12 57,-26 94,-36 36,-10 78,-16 121,-10 44,5 83,22 111,47 29,26 46,56 58,82 12,26 20,48 25,63 3,7 5,13 6,17 2,4 3,6 3,6 0,0 -1,-2 -2,-6 -1,-5 -3,-11 -5,-18 -5,-15 -12,-37 -24,-64 -12,-26 -29,-57 -58,-83 -28,-26 -69,-43 -113,-49 -44,-5 -87,0 -123,11 -37,10 -69,24 -94,37 -26,13 -47,24 -61,32 -6,4 -12,7 -16,10 -3,2 -5,3 -5,3z"></path>
   <path class="fil2" d="M2767 2967c1,1 46,-28 101,-66 56,-37 100,-68 99,-69 -1,-1 -46,28 -101,66 -55,37 -100,68 -99,69z"></path>
   <path class="fil2" d="M2816 2830c-1,1 14,4 32,6 19,1 34,0 34,-1 0,-1 -15,-2 -33,-3 -18,-2 -33,-3 -33,-2z"></path>
   <path class="fil2" d="M3014 2804c-1,0 5,11 15,23 9,12 17,22 18,21 2,0 -5,-10 -14,-23 -10,-12 -18,-22 -19,-21z"></path>
   <path class="fil2" d="M2973 2994c1,0 9,-4 22,-12 13,-8 31,-20 50,-34 19,-13 35,-26 47,-36 12,-9 19,-15 19,-16 0,0 -8,5 -21,14 -13,9 -30,21 -48,35 -19,13 -36,25 -49,34 -12,9 -20,14 -20,15z"></path>
   <path class="fil4" d="M3135 3195c33,-9 72,23 79,57 7,33 -6,67 -21,98 -32,69 -77,132 -136,179 -59,47 -134,77 -209,77 14,-65 -4,-133 4,-199 7,-57 34,-112 75,-153 41,-41 96,-67 154,-73 21,-2 45,-6 54,14z"></path>
   <path class="fil2" d="M2848 3606c0,0 2,-1 5,-2 3,-2 7,-5 12,-9 10,-7 22,-23 33,-43 5,-10 11,-22 16,-34 6,-12 12,-25 18,-39 7,-14 13,-28 22,-42 9,-14 19,-28 30,-41 23,-27 47,-50 68,-71 21,-22 39,-43 52,-63 13,-19 21,-36 25,-48 2,-6 4,-11 5,-14 0,-3 1,-5 1,-5 -1,0 -3,7 -8,18 -4,12 -13,29 -26,48 -13,18 -31,39 -52,61 -21,21 -46,44 -68,71 -12,13 -22,27 -31,42 -9,14 -15,28 -22,42 -6,14 -12,27 -17,40 -6,12 -11,23 -16,33 -10,21 -21,36 -31,44 -10,8 -16,11 -16,12z"></path>
   <path class="fil2" d="M3019 3552c0,0 -1,-9 -3,-22 -3,-14 -7,-33 -13,-53 -6,-20 -12,-38 -17,-51 -5,-13 -8,-21 -9,-21 0,0 2,9 6,22 4,13 10,31 16,51 5,21 10,39 13,52 4,14 6,22 7,22z"></path>
   <path class="fil2" d="M2854 3393c0,0 9,-2 23,-6 15,-3 34,-8 56,-13 22,-5 42,-9 56,-12 15,-3 24,-4 24,-5 0,-1 -9,0 -24,2 -15,2 -35,5 -57,10 -22,5 -41,11 -56,15 -14,5 -22,8 -22,9z"></path>
   <path class="fil2" d="M3141 3439c1,0 0,-10 -3,-26 -3,-15 -8,-37 -14,-61 -6,-24 -13,-45 -18,-60 -5,-15 -9,-24 -9,-24 -1,0 2,10 6,25 4,15 10,37 17,60 6,24 11,45 15,61 3,16 6,25 6,25z"></path>
   <path class="fil2" d="M2930 3254c0,1 41,-2 92,-7 51,-6 92,-11 92,-12 -1,-2 -42,2 -92,7 -51,5 -92,11 -92,12z"></path>
   <path class="fil3" d="M2960 3754c0,1 145,2 324,2 179,0 324,-1 324,-2 0,-1 -145,-2 -324,-2 -179,0 -324,1 -324,2z"></path>
   <path class="fil3" d="M3061 3941c0,1 98,2 218,2 121,0 218,-1 218,-2 0,-2 -97,-3 -218,-3 -120,0 -218,1 -218,3z"></path>
   <path class="fil3" d="M3065 3967c0,2 96,3 214,3 119,0 214,-1 214,-3 0,-1 -95,-2 -214,-2 -118,0 -214,1 -214,2z"></path>
   <path class="fil3" d="M3057 3919c0,1 101,2 226,2 124,0 225,-1 225,-2 0,-2 -101,-3 -225,-3 -125,0 -226,1 -226,3z"></path>
   <path class="fil2" d="M2619 3197l-1087 -1c-130,0 -236,-106 -236,-236l0 -2723c0,-131 106,-237 237,-237l1086 1c131,0 237,106 237,236l-1 2723c0,131 -106,237 -236,237z"></path>
   <path class="fil1" d="M2618 97l-210 0c-29,0 -52,24 -51,53l-1 38c0,30 -22,54 -51,54l-410 0c-28,0 -51,-24 -51,-54l0 -38c0,-30 -23,-54 -51,-54l-74 0 -185 0c-91,0 -166,74 -166,166l0 2658c0,91 74,166 166,166l1084 0c91,0 165,-74 165,-165l1 -2658c0,-92 -74,-166 -166,-166z"></path>
   <path class="fil2" d="M1975 2970c0,12 -9,21 -20,21 -12,0 -21,-9 -21,-20 -1,-12 9,-21 20,-21 12,0 21,9 21,20z"></path>
   <path class="fil0" d="M2092 2969c0,12 -9,21 -21,21 -11,0 -21,-9 -21,-20 0,-12 9,-21 21,-21 11,0 21,9 21,20z"></path>
   <path class="fil0" d="M2208 2968c0,12 -9,21 -20,21 -12,0 -21,-9 -21,-20 0,-12 9,-21 20,-21 12,0 21,9 21,20z"></path>
   <path class="fil2" d="M1512 464c0,0 1,0 2,-1 2,0 5,0 7,0 7,0 16,0 27,0l-1 0c0,-5 0,-12 -1,-19 0,-3 0,-6 0,-10 1,-5 5,-8 9,-9 5,0 8,0 13,0 5,1 9,5 9,11 0,8 0,18 0,27l-2 -1c11,0 22,0 33,-1l-1 2c0,-13 0,-27 0,-41 0,-4 0,-7 0,-11 0,-3 -2,-5 -5,-7 -5,-5 -10,-10 -14,-15 -5,-4 -10,-9 -14,-13 -3,-2 -5,-5 -7,-7 -2,-2 -4,-4 -7,-5 -2,-1 -5,0 -7,1 -2,2 -4,5 -6,7 -4,4 -8,8 -12,11 -8,8 -15,15 -21,22 -2,3 -1,8 -2,12 0,4 0,8 0,12 0,7 0,13 0,18 0,5 0,9 0,12 0,3 0,5 0,5 0,0 0,-2 0,-4 -1,-4 -1,-7 -1,-12 0,-5 0,-12 0,-19 0,-4 0,-8 -1,-12 0,-2 0,-4 0,-6 0,-3 1,-5 2,-7 6,-8 14,-14 21,-22 4,-4 8,-8 12,-12 2,-2 4,-4 6,-7 3,-2 7,-2 10,-2 3,1 6,4 8,6 2,2 4,5 7,7 4,4 9,9 14,13 4,5 9,10 14,15 2,2 6,5 5,9 0,4 1,7 1,11 0,14 0,28 0,41l0 1 -2 0c-11,0 -22,0 -33,1l-1 0 0 -2c0,-9 0,-19 0,-27 0,-4 -3,-8 -7,-8 -3,-1 -8,0 -11,0 -4,0 -7,3 -7,6 -1,3 -1,7 -1,10 0,7 0,14 0,19l0 1 0 0c-11,0 -20,0 -27,0 -3,0 -5,0 -7,0 -1,0 -2,0 -2,0z"></path>
   <path class="fil6" d="M2715 2949l-1 0c-10,0 -17,-8 -17,-17l0 -2318c0,-9 7,-16 17,-16l1 0c9,0 17,7 17,16l0 2318c0,9 -8,17 -17,17z"></path>
   <path class="fil0" d="M2715 895l-1 0c-7,0 -12,-6 -12,-12l0 -166c0,-7 5,-12 12,-12l1 0c6,0 11,5 11,12l0 166c0,6 -5,12 -11,12z"></path>
   <path class="fil1" d="M2620 1093l-1099 0c-23,0 -41,-18 -41,-41l0 -425c0,-23 18,-42 41,-42l1099 0c23,0 42,19 42,42l0 425c0,23 -19,41 -42,41z"></path>
   <path class="fil4" d="M2081 1093l-564 0c-20,0 -37,-17 -37,-37l0 -433c0,-20 17,-37 37,-37l564 0 0 507z"></path>
   <path class="fil7" d="M1942 1054c0,0 0,0 0,0 -96,0 -191,0 -287,0 -9,0 -20,-1 -24,-9 -4,-7 -1,-16 1,-23 20,-53 25,-112 14,-168 -7,4 -15,6 -23,6 -9,0 -18,-3 -26,-8 -13,-11 -20,-29 -16,-46l286 -102c39,10 78,23 114,39 10,5 21,10 26,20 7,12 2,28 -2,42 -7,20 -15,43 -34,55 -6,4 -14,7 -17,14 -3,6 -1,13 0,20 10,35 19,71 28,107 4,14 7,30 -2,42 -8,10 -24,11 -38,11z"></path>
   <path class="fil1" d="M1934 1000c-2,-4 -27,-95 -27,-95l5 -98 4 -134 -65 -12c-48,28 -123,39 -171,17 0,0 -26,1 -39,13 -4,4 3,43 11,82 7,41 28,142 28,142 0,0 -36,87 -43,112 0,0 220,-40 293,0 0,0 16,-2 4,-27z"></path>
   <path class="fil1" d="M1561 740l82 -50 22 112 -42 36c0,0 -64,-33 -62,-98z"></path>
   <path class="fil1" d="M1916 673l84 36c0,0 -28,104 -44,116l-42 -18 -10 33 -1 -131 13 -36z"></path>
   <path class="fil0" d="M1630 828c0,0 -1,-1 -4,-2 -2,-2 -6,-4 -10,-7 -9,-6 -20,-17 -29,-30 -4,-7 -7,-14 -10,-21 -2,-7 -4,-13 -4,-18 -1,-5 -1,-10 -1,-13 0,-3 0,-4 0,-4 1,0 1,6 3,16 1,6 2,12 5,18 2,6 6,13 10,20 8,13 19,24 27,30 8,7 14,10 13,11z"></path>
   <path class="fil0" d="M1654 786c0,1 -1,0 -3,-1 -2,-1 -5,-4 -8,-6 -5,-6 -12,-15 -19,-25 -7,-10 -13,-20 -16,-27 -4,-7 -6,-12 -5,-12 0,0 2,5 6,11 4,7 10,16 17,26 7,10 14,19 19,25 2,3 5,5 6,7 2,1 3,2 3,2z"></path>
   <path class="fil0" d="M1907 680c0,1 -4,1 -10,3 -7,2 -16,4 -28,8 -11,3 -25,7 -40,12 -15,5 -32,9 -50,12 -37,5 -70,-1 -93,-9 -11,-4 -20,-8 -26,-12 -3,-1 -5,-3 -7,-4 -1,0 -2,-1 -2,-1 0,0 4,1 10,4 6,3 15,7 26,11 22,7 56,13 92,8 18,-3 34,-7 50,-11 15,-5 28,-9 40,-12 11,-4 21,-6 27,-7 4,-1 6,-1 8,-1 2,-1 3,-1 3,-1z"></path>
   <path class="fil0" d="M1916 756c0,0 -1,1 -3,1 -2,0 -5,1 -8,1 -6,1 -16,3 -28,4 -24,2 -57,4 -94,4 -37,0 -70,-1 -94,-2 -12,-1 -22,-2 -29,-2 -3,0 -6,0 -8,-1 -1,0 -2,0 -2,0 0,0 1,0 2,0 2,0 5,0 8,0 7,0 17,0 29,1 24,0 57,1 94,1 36,0 70,-1 94,-3 12,-1 21,-2 28,-3 3,0 6,0 8,-1 2,0 3,0 3,0z"></path>
   <path class="fil0" d="M1912 807c0,1 -4,2 -10,3 -3,1 -7,2 -11,3 -4,1 -10,2 -15,3 -23,4 -54,7 -89,8 -35,1 -66,0 -89,-2 -12,-1 -21,-2 -27,-3 -6,0 -10,-1 -10,-1 0,-1 4,0 10,0 6,1 16,1 27,2 23,1 54,2 89,1 35,-1 66,-4 89,-7 5,-1 10,-2 15,-2 4,-1 8,-2 11,-3 6,-1 10,-2 10,-2z"></path>
   <path class="fil0" d="M1905 877c0,0 -4,0 -10,1 -5,1 -14,2 -24,2 -21,2 -50,4 -83,4 -32,1 -61,-1 -82,-3 -10,-1 -19,-2 -25,-3 -5,0 -9,-1 -9,-1 0,0 4,0 10,0 5,1 14,2 24,2 21,2 50,3 82,2 33,0 62,-2 83,-3 10,0 18,-1 24,-1 6,0 10,0 10,0z"></path>
   <path class="fil0" d="M1918 945c0,0 -3,0 -10,0 -7,-1 -16,-1 -27,-2 -22,-2 -54,-3 -89,-3 -34,0 -66,1 -89,3 -11,1 -20,1 -26,2 -7,0 -10,0 -10,0 0,0 3,-1 9,-1 7,-1 16,-2 27,-3 23,-2 55,-4 89,-4 35,0 67,2 89,4 12,1 21,2 27,3 7,0 10,1 10,1z"></path>
   <path class="fil0" d="M1944 702c1,0 -3,11 -10,23 -8,13 -16,21 -17,20 -1,0 7,-9 14,-21 8,-12 13,-23 13,-22z"></path>
   <path class="fil2" d="M1644 733c1,0 1,2 2,7 1,5 3,11 4,19 4,17 9,40 14,65 5,25 10,47 13,64 1,8 2,15 3,20 0,4 1,7 0,7 0,0 0,-3 -1,-7 -1,-5 -3,-12 -4,-20 -4,-17 -9,-39 -14,-64 -5,-25 -10,-48 -13,-64 -1,-9 -2,-15 -3,-20 0,-5 -1,-7 -1,-7z"></path>
   <path class="fil2" d="M1917 763c0,0 0,2 0,5 0,4 0,9 0,15 -1,13 -2,31 -3,51 -2,19 -3,37 -4,50 -1,6 -2,11 -2,15 0,4 -1,6 -1,6 0,0 0,-2 0,-6 0,-4 0,-9 0,-15 1,-13 2,-31 4,-51 1,-19 2,-37 4,-50 0,-6 1,-11 1,-15 1,-3 1,-5 1,-5z"></path>
   <path class="fil0" d="M1977 700c1,1 -2,7 -7,17 -4,10 -9,24 -15,40 -5,16 -8,31 -11,42 -2,11 -3,18 -4,17 0,0 0,-1 0,-4 1,-3 1,-8 2,-13 2,-11 6,-26 11,-42 5,-17 11,-31 16,-41 2,-5 4,-9 6,-12 1,-2 2,-4 2,-4z"></path>
   <path class="fil0" d="M1934 1003c0,1 -1,0 -3,0 -2,-1 -5,-1 -9,-2 -3,-1 -8,-2 -13,-3 -5,-1 -11,-3 -18,-4 -7,-1 -14,-2 -22,-3 -8,-1 -17,-2 -26,-3 -18,-1 -38,-1 -58,0 -21,2 -41,5 -59,8 -8,2 -17,4 -25,6 -7,2 -15,4 -21,6 -7,2 -12,4 -18,6 -5,2 -9,4 -13,5 -3,1 -6,2 -8,3 -2,1 -3,1 -3,1 0,0 1,0 3,-1 2,-1 5,-2 8,-4 3,-2 8,-3 13,-5 5,-2 11,-5 17,-7 7,-2 14,-4 22,-6 8,-3 16,-4 25,-6 18,-4 37,-7 58,-8 21,-2 41,-1 59,0 9,1 18,1 26,3 8,1 15,2 22,3 7,1 13,3 18,4 6,1 10,3 14,4 3,1 6,2 8,2 2,1 3,1 3,1z"></path>
   <path class="fil4" d="M2082 1097c-1,0 -2,-113 -2,-252 0,-140 1,-253 2,-253 1,0 2,113 2,253 0,139 -1,252 -2,252z"></path>
   <path class="fil4" d="M2620 1093c0,0 3,0 9,-1 5,-1 14,-4 21,-12 4,-4 7,-9 9,-16 3,-6 2,-13 2,-21 0,-17 0,-35 0,-56 0,-84 0,-205 -1,-355 0,-4 0,-9 -1,-13 -1,-5 -2,-9 -5,-13 -4,-8 -12,-14 -21,-17 -9,-3 -19,-2 -29,-2 -10,0 -20,0 -30,0 -41,0 -84,0 -128,0 -88,0 -182,0 -281,0 -198,0 -415,0 -644,0 -13,0 -26,8 -33,19 -4,6 -5,13 -6,19l0 21c0,29 0,57 0,84 0,56 0,111 0,165 0,54 0,106 0,158 1,13 7,24 17,31 5,3 11,6 17,6 6,1 12,1 19,1 25,0 50,0 75,0 198,0 376,0 526,0 149,1 271,1 354,1 42,0 75,1 97,1 11,0 19,0 25,0 6,0 8,0 8,0 0,0 -2,0 -8,0 -6,1 -14,1 -25,1 -22,0 -55,0 -97,0 -83,0 -205,1 -354,1 -150,0 -328,0 -526,0 -25,0 -50,0 -75,0 -7,0 -13,1 -20,0 -6,-1 -13,-3 -18,-7 -12,-8 -19,-21 -19,-35 0,-51 -1,-104 -1,-158 0,-54 0,-109 0,-165 0,-27 0,-55 0,-84l0 -21c1,-7 3,-15 7,-21 7,-13 22,-21 37,-21 229,0 446,0 644,0 99,0 193,0 281,0 44,0 87,0 128,0 10,0 20,0 30,0 5,0 10,0 15,0 5,0 10,1 15,3 10,3 18,10 23,18 3,4 5,9 6,14 1,5 1,10 1,14 -1,150 -1,271 -1,355 0,21 0,39 0,56 0,7 0,15 -3,22 -2,6 -5,12 -9,16 -8,8 -17,10 -22,12 -6,1 -9,0 -9,0z"></path>
   <path class="fil4" d="M2343 702c0,1 -48,2 -108,2 -60,0 -108,-1 -108,-2 0,-2 48,-3 108,-3 60,0 108,1 108,3z"></path>
   <path class="fil4" d="M2552 768c0,2 -96,3 -214,3 -118,0 -213,-1 -213,-3 0,-1 95,-2 213,-2 118,0 214,1 214,2z"></path>
   <path class="fil4" d="M2552 807c0,2 -96,3 -214,3 -118,0 -213,-1 -213,-3 0,-1 95,-2 213,-2 118,0 214,1 214,2z"></path>
   <path class="fil4" d="M2507 1000c0,-4 -2,-8 -5,-12 -3,-3 -7,-6 -11,-7 -4,-1 -9,0 -13,2 -2,2 -4,4 -6,6 -1,-2 -3,-4 -5,-5 -3,-3 -8,-4 -13,-3 -4,1 -8,3 -11,6 -3,3 -5,7 -6,12 -1,5 0,11 3,16 3,5 8,10 13,13 8,5 19,12 19,12 0,0 10,-7 18,-12 5,-3 10,-7 13,-12 3,-4 5,-10 4,-16z"></path>
   <path class="fil2" d="M2457 982c-1,0 -2,0 -3,0 -3,1 -7,3 -10,6 -3,3 -5,7 -6,11 0,6 1,11 3,16 3,4 7,8 12,12 7,4 16,10 19,11 2,-1 10,-7 18,-11 5,-3 10,-7 12,-11 3,-5 4,-10 4,-16 0,-4 -2,-8 -5,-11 -2,-2 -5,-6 -10,-7 -4,-1 -9,0 -13,2 -2,2 -3,4 -5,6l-1 2 -1 -2c-1,-2 -2,-4 -4,-5 -3,-2 -6,-3 -10,-3zm15 59l-1 0c0,0 -11,-7 -19,-12 -6,-4 -10,-8 -13,-13 -3,-5 -4,-11 -3,-17 1,-5 3,-9 6,-13 3,-2 7,-5 12,-6 5,-1 10,0 14,3 2,1 3,2 4,4 2,-2 3,-3 5,-5 4,-2 10,-3 14,-2 6,1 10,5 12,7 3,4 5,9 5,13 1,6 -1,12 -4,17 -3,5 -7,9 -13,12 -9,5 -18,12 -18,12l-1 0z"></path>
   <path class="fil2" d="M2606 1028l-1 0c-1,0 -2,0 -3,0 -3,0 -6,0 -10,0 -9,0 -21,0 -35,0l0 0 0 0c0,-2 -1,-4 -1,-6 -2,-17 -4,-32 -5,-42l0 1c-4,0 -7,0 -9,-1 -1,0 -2,0 -3,0l0 0 0 0c1,0 2,0 3,0 2,0 5,0 9,0l0 0 0 0c2,10 4,25 6,42 0,2 0,4 0,6l0 -1c14,1 26,1 35,1 4,0 7,0 10,0 1,0 2,0 3,0l1 0z"></path>
   <path class="fil2" d="M2592 1029l-35 0 -1 -1 -1 -6 -5 -41 -11 0c-1,0 -1,0 -1,-1 0,0 0,0 1,0l12 0 1 0 0 0 6 43c0,1 0,3 0,4l47 0c1,0 1,0 1,1 0,1 0,1 -1,1l-3 0 -10 0z"></path>
   <path class="fil2" d="M2556 1018l0 0 1 0c0,0 1,0 3,0 2,0 6,0 10,0 9,0 21,0 36,0l0 0c1,-6 2,-12 3,-19 1,-4 1,-7 2,-10l0 0c-16,0 -31,0 -42,0 -5,-1 -9,-1 -12,-1 -2,0 -3,0 -4,0l-1 0 0 0 0 0 1 0c1,0 2,0 4,0 3,0 7,0 12,0 11,0 26,0 42,0l1 0 0 1c-1,3 -2,6 -2,10 -2,7 -3,13 -4,19l0 0 0 0c-15,0 -27,0 -36,0 -4,0 -8,0 -10,0 -2,0 -3,0 -3,0l-1 0 0 0z"></path>
   <path class="fil2" d="M2606 1019l0 0 -50 -1 -1 0 0 -1 1 0 4 0 10 0 35 0 5 -27 -58 -1 -1 -1 1 -1 5 0 12 0 43 1 0 0 0 1 -2 10c0,4 -1,9 -2,13l-1 7 -1 0z"></path>
   <path class="fil2" d="M2569 1041l0 -1c0,-1 -1,-2 -2,-3 -1,-1 -3,-1 -4,0 -2,0 -3,2 -3,4 0,2 1,4 3,4 1,1 3,0 4,0 1,-1 2,-2 2,-3l0 -1 0 1c0,1 0,2 -2,3 -1,1 -3,1 -4,1 -2,-1 -4,-3 -4,-5 0,-2 2,-4 4,-5 1,-1 3,0 4,1 2,1 2,2 2,3l0 1z"></path>
   <path class="fil2" d="M2564 1037l-1 0c-1,1 -2,2 -2,4 -1,2 1,3 2,4 1,0 3,0 4,-1 1,-1 1,-2 1,-2l0 -1 0 0 0 0 0 -1c0,0 0,-1 -1,-2 -1,-1 -2,-1 -3,-1zm0 10l-2 -1c-2,0 -4,-2 -4,-5 0,-3 2,-5 4,-6 3,0 5,0 6,1 1,2 2,3 2,4l0 1 0 1c0,1 -1,2 -2,4 -1,0 -2,1 -4,1z"></path>
   <path class="fil2" d="M2600 1041l0 -1c0,-1 -1,-2 -2,-2 -1,-1 -2,-2 -4,-1 -2,0 -3,2 -3,4 0,2 1,4 3,5 2,0 3,0 4,-1 1,-1 2,-2 2,-3l0 -1 0 2c0,0 0,1 -1,2 -1,1 -3,2 -5,1 -2,-1 -4,-3 -4,-5 0,-2 2,-4 4,-5 2,0 4,0 5,1 1,1 1,2 1,3l0 1z"></path>
   <path class="fil2" d="M2596 1037l-2 1c-1,0 -2,1 -2,3 0,2 1,3 2,4 2,0 3,0 4,-1 1,0 1,-1 1,-2l1 -1 0 0 0 0 -1 -1c0,0 0,-1 -1,-2 -1,0 -1,-1 -2,-1zm-1 10l-1 0c-2,-1 -4,-3 -4,-6 0,-3 2,-5 4,-5 2,-1 4,0 5,1 2,1 2,2 2,3l0 1 0 2c0,0 0,2 -2,3 -1,1 -2,1 -4,1z"></path>
   <path class="fil2" d="M2623 984c-1,8 -7,14 -14,14 -8,0 -14,-7 -14,-14 0,-8 6,-14 14,-14 7,0 14,6 14,14z"></path>
   <path class="fil1" d="M2609 991l0 1 0 0c0,-1 0,-4 0,-7 0,-4 0,-8 0,-8 1,0 1,4 1,8 0,3 -1,6 -1,7l0 0 0 -1z"></path>
   <path class="fil1" d="M2617 985c0,0 -4,0 -8,0 -4,0 -7,0 -7,-1 0,0 3,0 7,0 4,0 8,1 8,1z"></path>
   <path class="fil4" d="M2336 1016c0,2 -44,3 -99,3 -54,0 -98,-1 -98,-3 0,-1 44,-2 98,-2 55,0 99,1 99,2z"></path>
   <path class="fil6" d="M2620 1681l-1099 0c-23,0 -41,-19 -41,-42l0 -425c0,-23 18,-42 41,-42l1099 0c23,0 42,19 42,42l0 425c0,23 -19,42 -42,42z"></path>
   <path class="fil1" d="M2081 1681l-564 0c-20,0 -37,-17 -37,-38l0 -432c0,-21 17,-38 37,-38l564 0 0 508z"></path>
   <path class="fil0" d="M2082 1685c-1,0 -2,-113 -2,-253 0,-139 1,-252 2,-252 1,0 2,113 2,252 0,140 -1,253 -2,253z"></path>
   <path class="fil0" d="M2620 1681c0,-1 3,0 9,-1 5,-2 14,-5 21,-13 4,-4 7,-9 9,-15 3,-7 2,-14 2,-22 0,-16 0,-35 0,-56 0,-84 0,-205 -1,-354 0,-5 0,-10 -1,-14 -1,-4 -2,-9 -5,-13 -4,-7 -12,-14 -21,-17 -9,-3 -19,-1 -29,-2 -10,0 -20,0 -30,0 -41,0 -84,0 -128,0 -88,1 -182,1 -281,1 -198,0 -415,0 -644,0 -13,0 -26,7 -33,19 -4,5 -5,12 -6,19l0 21c0,28 0,56 0,84 0,56 0,110 0,164 0,54 0,107 0,159 1,12 7,24 17,30 5,4 11,6 17,7 6,1 12,0 19,0 25,0 50,0 75,0 198,1 376,1 526,1 149,0 271,0 354,1 42,0 75,0 97,0 11,0 19,0 25,0 6,0 8,1 8,1 0,0 -2,0 -8,0 -6,0 -14,0 -25,0 -22,0 -55,0 -97,1 -83,0 -205,0 -354,0 -150,1 -328,1 -526,1 -25,0 -50,0 -75,0 -7,0 -13,0 -20,-1 -6,0 -13,-3 -18,-7 -12,-7 -19,-20 -19,-34 0,-52 -1,-105 -1,-159 0,-54 0,-108 0,-164 0,-28 0,-56 0,-84l0 -21c1,-8 3,-15 7,-22 7,-13 22,-21 37,-21 229,0 446,0 644,0 99,0 193,0 281,0 44,0 87,1 128,1 10,0 20,0 30,0 5,0 10,0 15,0 5,0 10,0 15,2 10,3 18,10 23,19 3,4 5,8 6,13 1,5 1,10 1,15 -1,149 -1,270 -1,354 0,21 0,40 0,56 0,8 0,16 -3,22 -2,7 -5,12 -9,16 -8,8 -17,11 -22,12 -6,1 -9,1 -9,1z"></path>
   <path class="fil2" d="M2343 1289c0,1 -48,2 -108,2 -60,0 -108,-1 -108,-2 0,-1 48,-2 108,-2 60,0 108,1 108,2z"></path>
   <path class="fil0" d="M2552 1356c0,1 -96,2 -214,2 -118,0 -213,-1 -213,-2 0,-2 95,-3 213,-3 118,0 214,1 214,3z"></path>
   <path class="fil0" d="M2552 1395c0,1 -96,2 -214,2 -118,0 -213,-1 -213,-2 0,-2 95,-3 213,-3 118,0 214,1 214,3z"></path>
   <path class="fil4" d="M2507 1588c0,-5 -2,-9 -5,-12 -3,-4 -7,-6 -11,-7 -4,-2 -9,-1 -13,2 -2,1 -4,3 -6,6 -1,-2 -3,-4 -5,-6 -3,-3 -8,-4 -13,-3 -4,1 -8,3 -11,7 -3,3 -5,7 -6,11 -1,6 0,12 3,17 3,5 8,9 13,12 8,5 19,12 19,12 0,0 10,-7 18,-11 5,-3 10,-7 13,-12 3,-5 5,-11 4,-16z"></path>
   <path class="fil2" d="M2457 1569c-1,0 -2,0 -3,0 -3,1 -7,3 -10,6 -3,4 -5,8 -6,11 0,6 1,12 3,16 3,4 7,9 12,12 7,5 16,10 19,12 2,-2 10,-7 18,-11 5,-4 10,-8 12,-12 3,-4 4,-10 4,-15 0,-4 -2,-8 -5,-12 -2,-2 -5,-5 -10,-6 -4,-1 -9,-1 -13,2 -2,1 -3,3 -5,5l-1 2 -1 -2c-1,-2 -2,-4 -4,-5 -3,-2 -6,-3 -10,-3zm15 60l-1 -1c0,0 -11,-7 -19,-12 -6,-4 -10,-8 -13,-13 -3,-5 -4,-11 -3,-17 1,-4 3,-9 6,-12 3,-3 7,-6 12,-7 5,-1 10,0 14,3 2,1 3,3 4,5 2,-2 3,-4 5,-5 4,-3 10,-4 14,-3 5,1 9,4 12,8 3,4 5,8 5,12 1,7 -1,13 -4,17 -3,5 -7,9 -13,13 -9,4 -18,11 -18,11l-1 1z"></path>
   <path class="fil2" d="M2606 1616l-1 0c-1,0 -2,0 -3,0 -3,0 -6,0 -10,0 -9,0 -21,0 -35,-1l0 0 0 0c0,-2 -1,-4 -1,-6 -2,-16 -4,-31 -5,-41l0 0c-4,0 -7,0 -9,0 -1,0 -2,0 -3,0l0 0 0 0c1,0 2,0 3,0 2,0 5,0 9,0l0 0 0 0c2,10 4,25 6,41 0,2 0,4 0,6l0 0c14,0 26,0 35,0 4,0 7,0 10,0 1,0 2,0 3,1l1 0z"></path>
   <path class="fil2" d="M2592 1616l-35 0 -1 0 -6 -47 -11 0c-1,0 -1,-1 -1,-1 0,-1 0,-1 1,-1l12 0 1 1 0 0 6 42c0,2 0,3 0,4l47 1c1,0 1,0 1,1 0,0 0,0 -1,0l-3 0 -10 0z"></path>
   <path class="fil2" d="M2556 1605l0 0 1 0c0,0 1,0 3,0 2,0 6,0 10,0 9,0 21,0 36,0l0 0c1,-6 2,-12 3,-19 1,-3 1,-7 2,-10l0 0c-16,0 -31,0 -42,0 -5,0 -9,0 -12,0 -2,0 -3,0 -4,0l-1 0 0 0 0 0 1 0c1,0 2,0 4,0 3,0 7,0 12,0 11,0 26,0 42,0l1 0 0 0c-1,3 -2,7 -2,10 -2,7 -3,14 -4,20l0 0 0 0c-15,0 -27,-1 -36,-1 -4,0 -8,0 -10,0 -2,0 -3,0 -3,0l-1 0 0 0z"></path>
   <path class="fil2" d="M2606 1607l0 0 0 0 -50 -1 -1 -1 0 0 1 -1 4 0 10 0 35 1 5 -28 -58 -1 -1 0 1 -1 5 0 12 0 43 0 0 0 0 1 -2 10c0,5 -1,9 -2,13l-1 7 -1 1z"></path>
   <path class="fil2" d="M2569 1628l0 -1c0,0 -1,-1 -2,-2 -1,-1 -3,-2 -4,-1 -2,1 -3,2 -3,4 0,2 1,4 3,5 1,0 3,0 4,-1 1,-1 2,-2 2,-2l0 -2 0 2c0,0 0,2 -2,2 -1,1 -3,2 -4,1 -2,0 -4,-2 -4,-5 0,-2 2,-4 4,-4 1,-1 3,-1 4,0 2,1 2,2 2,3l0 1z"></path>
   <path class="fil2" d="M2564 1624l-1 1c-1,0 -2,2 -2,3 -1,2 1,4 2,4 1,1 3,0 4,0 1,-1 1,-2 1,-3l0 0 0 -1 0 0 0 -1c0,0 0,-1 -1,-2 -1,0 -2,-1 -3,-1zm0 10l-2 0c-2,-1 -4,-3 -4,-6 0,-2 2,-5 4,-5 3,-1 5,0 6,1 1,1 2,2 2,3l0 1 0 2c0,0 -1,2 -2,3 -1,1 -2,1 -4,1z"></path>
   <path class="fil2" d="M2600 1629l0 -1c0,-1 -1,-2 -2,-3 -1,-1 -2,-1 -4,-1 -2,1 -3,3 -3,5 0,2 1,3 3,4 2,1 3,0 4,-1 1,0 2,-1 2,-2l0 -1 0 1c0,1 0,2 -1,3 -1,1 -3,1 -5,0 -2,0 -4,-2 -4,-4 0,-3 2,-5 4,-5 2,-1 4,0 5,1 1,1 1,2 1,2l0 2z"></path>
   <path class="fil2" d="M2596 1625l-2 0c-1,0 -2,2 -2,4 0,1 1,3 2,3 2,1 3,0 4,0 1,-1 1,-2 1,-2l1 -1 0 0 0 0 -1 -1c0,-1 0,-2 -1,-2 -1,-1 -1,-1 -2,-1zm-1 10l-1 -1c-2,-1 -4,-3 -4,-5 0,-3 2,-5 4,-6 2,-1 4,0 5,1 2,1 2,3 2,3l0 2 0 1c0,1 0,2 -2,3 -1,1 -2,2 -4,2z"></path>
   <path class="fil2" d="M2623 1571c-1,8 -7,14 -14,14 -8,0 -14,-6 -14,-14 0,-8 6,-14 14,-14 7,0 14,7 14,14z"></path>
   <path class="fil1" d="M2609 1579l0 0 0 0c0,-1 0,-4 0,-7 0,-4 0,-7 0,-7 1,0 1,3 1,7 0,3 -1,6 -1,7l0 0 0 0z"></path>
   <path class="fil1" d="M2617 1572c0,0 -4,0 -8,0 -4,0 -7,0 -7,0 0,0 3,-1 7,0 4,0 8,0 8,0z"></path>
   <path class="fil2" d="M2336 1604c0,1 -44,2 -99,2 -54,0 -98,-1 -98,-2 0,-2 44,-3 98,-3 55,0 99,1 99,3z"></path>
   <path class="fil6" d="M2620 2261l-1099 0c-23,0 -41,-19 -41,-42l0 -425c0,-23 18,-41 41,-41l1099 0c23,0 42,18 42,41l0 425c0,23 -19,42 -42,42z"></path>
   <path class="fil1" d="M2081 2261l-564 0c-20,0 -37,-17 -37,-38l0 -432c0,-21 17,-37 37,-37l564 0 0 507z"></path>
   <path class="fil0" d="M2082 2265c-1,0 -2,-113 -2,-253 0,-139 1,-252 2,-252 1,0 2,113 2,252 0,140 -1,253 -2,253z"></path>
   <path class="fil0" d="M2620 2261c0,0 3,0 9,-1 5,-2 14,-5 21,-12 4,-4 7,-10 9,-16 3,-6 2,-14 2,-22 0,-16 0,-35 0,-56 0,-83 0,-205 -1,-354 0,-5 0,-9 -1,-14 -1,-4 -2,-9 -5,-13 -4,-7 -12,-14 -21,-16 -6,-3 -13,-3 -21,-3 -2,0 -5,1 -8,0 -10,0 -20,0 -30,1 -41,0 -84,0 -128,0 -88,0 -182,0 -281,0 -198,0 -415,0 -644,0 -13,0 -26,7 -33,19 -4,6 -5,12 -6,19l0 21c0,28 0,56 0,84 0,56 0,110 0,164 0,54 0,107 0,159 1,12 7,24 17,31 5,3 11,5 17,6 4,1 8,1 13,0 2,0 4,0 6,0 25,0 50,1 75,1 198,0 376,0 526,0 149,0 271,1 354,1 42,0 75,0 97,0 11,0 19,0 25,1 6,0 8,0 8,0 0,0 -2,0 -8,0 -6,0 -14,0 -25,0 -22,0 -55,1 -97,1 -83,0 -205,0 -354,0 -150,1 -328,1 -526,1 -25,0 -50,0 -75,0 -2,0 -4,0 -6,0 -5,0 -9,0 -14,0 -6,-1 -13,-4 -18,-8 -12,-7 -19,-20 -19,-34 0,-52 -1,-105 -1,-159 0,-54 0,-108 0,-164 0,-28 0,-56 0,-84l0 -21c1,-8 3,-15 7,-22 7,-13 22,-21 37,-21 229,0 446,0 644,0 99,0 193,1 281,1 44,0 87,0 128,0 10,0 20,0 30,0 5,0 10,0 15,0 5,0 10,0 15,2 10,3 18,10 23,19 3,4 5,9 6,13 1,5 1,10 1,15 -1,149 -1,271 -1,354 0,21 0,40 0,56 0,8 0,16 -3,22 -2,7 -5,12 -9,16 -8,8 -17,11 -22,12 -6,1 -9,1 -9,1z"></path>
   <path class="fil2" d="M2343 1869c0,1 -48,3 -108,3 -60,0 -108,-2 -108,-3 0,-1 48,-2 108,-2 60,0 108,1 108,2z"></path>
   <path class="fil0" d="M2552 1936c0,1 -96,2 -214,2 -118,0 -213,-1 -213,-2 0,-2 95,-3 213,-3 118,0 214,1 214,3z"></path>
   <path class="fil0" d="M2552 1975c0,1 -96,2 -214,2 -118,0 -213,-1 -213,-2 0,-1 95,-2 213,-2 118,0 214,1 214,2z"></path>
   <path class="fil4" d="M2507 2168c0,-5 -2,-9 -5,-12 -3,-4 -7,-6 -11,-7 -4,-1 -9,-1 -13,2 -2,1 -4,3 -6,6 -1,-2 -3,-4 -5,-6 -3,-2 -8,-4 -13,-3 -4,1 -8,4 -11,7 -3,3 -5,7 -6,11 -1,6 0,12 3,17 3,5 8,9 13,12 8,6 19,12 19,12 0,0 10,-6 18,-11 5,-3 10,-7 13,-12 3,-5 5,-11 4,-16z"></path>
   <path class="fil2" d="M2457 2149c-1,0 -2,0 -3,0 -3,1 -7,3 -10,7 -3,3 -5,7 -6,11 0,5 1,11 3,15 3,5 7,9 12,12 7,5 16,10 19,12 2,-2 10,-7 18,-11 5,-4 10,-8 12,-12 3,-4 4,-10 4,-15 0,-4 -2,-8 -5,-12 -2,-2 -5,-5 -10,-6 -4,-1 -9,0 -13,2 -2,1 -3,3 -5,5l-1 2 -1 -2c-1,-2 -2,-3 -4,-5 -3,-2 -6,-3 -10,-3zm15 60l-1 -1c0,0 -11,-6 -19,-12 -6,-3 -10,-8 -13,-13 -3,-4 -4,-11 -3,-17 1,-4 3,-8 6,-12 3,-3 7,-6 12,-7 5,-1 10,0 14,3 2,1 3,3 4,5 2,-2 3,-4 5,-5 4,-3 10,-4 14,-2 6,1 10,4 12,7 3,4 5,8 5,13 1,6 -1,12 -4,17 -3,4 -7,8 -13,12 -9,4 -18,11 -18,11l-1 1z"></path>
   <path class="fil2" d="M2606 2196l-1 0c-1,0 -2,0 -3,0 -3,0 -6,0 -10,0 -9,0 -21,0 -35,0l0 0 0 -1c0,-2 -1,-3 -1,-5 -2,-17 -4,-32 -5,-42l0 0c-4,0 -7,0 -9,0 -1,0 -2,0 -3,0l0 0 0 0c1,0 2,0 3,0 2,0 5,0 9,0l0 0 0 0c2,10 4,25 6,42 0,1 0,3 0,5l0 0c14,0 26,0 35,0 4,0 7,1 10,1 1,0 2,0 3,0l1 0z"></path>
   <path class="fil2" d="M2592 2197l-35 -1 -1 0 -6 -47 -11 0c-1,0 -1,0 -1,-1 0,-1 0,-1 1,-1l3 0c2,0 5,0 9,0l1 1 0 0 6 43c0,1 0,2 0,3l47 1c1,0 1,0 1,1 0,0 0,0 -1,0l-3 1 -10 0z"></path>
   <path class="fil2" d="M2556 2185l0 0 1 0c0,0 1,0 3,0 2,0 6,0 10,0 9,0 21,0 36,0l0 1c1,-6 2,-13 3,-20 1,-3 1,-7 2,-10l0 1c-16,-1 -31,-1 -42,-1 -5,0 -9,0 -12,0 -2,0 -3,0 -4,0l-1 0 0 0 0 0 1 0c1,0 2,0 4,0 3,0 7,0 12,0 11,0 26,0 42,0l1 0 0 0c-1,4 -2,7 -2,10 -2,7 -3,14 -4,20l0 0 0 0c-15,0 -27,0 -36,0 -4,-1 -8,-1 -10,-1 -2,0 -3,0 -3,0l-1 0 0 0z"></path>
   <path class="fil2" d="M2606 2187l0 0c-15,0 -27,-1 -36,-1 -4,0 -8,0 -10,0l-4 0 -1 -1 0 0 1 -1 1 0 13 0 35 1 5 -28 -47 0c-2,0 -5,0 -6,0l-5 -1 -1 0 1 -1 1 0 0 0 4 0 24 0 31 0 0 1 0 0 -2 11 -3 19 -1 1z"></path>
   <path class="fil2" d="M2569 2209l0 -2c0,0 -1,-1 -2,-2 -1,-1 -3,-1 -4,-1 -2,1 -3,2 -3,4 0,2 1,4 3,5 1,0 3,0 4,-1 1,-1 2,-2 2,-2l0 -1 0 1c0,1 0,2 -2,3 -1,0 -3,1 -4,0 -2,0 -4,-2 -4,-5 0,-2 2,-4 4,-4 1,-1 3,0 4,1 2,0 2,2 2,2l0 2z"></path>
   <path class="fil2" d="M2564 2205l-1 0c-1,0 -2,2 -2,3 -1,2 1,4 2,4 1,1 3,0 4,0 1,-1 1,-2 1,-2l0 -1 0 0 0 -1 0 0c0,-1 0,-2 -1,-3 -1,0 -2,0 -3,0zm0 9l-2 0c-2,-1 -4,-3 -4,-6 0,-2 2,-4 4,-5 3,-1 5,0 6,1 1,1 2,3 2,3l0 2 0 1c0,0 -1,2 -2,3 -1,1 -2,1 -4,1z"></path>
   <path class="fil2" d="M2600 2209l0 -1c0,-1 -1,-2 -2,-3 -1,-1 -2,-1 -4,0 -2,0 -3,2 -3,4 0,2 1,3 3,4 2,1 3,0 4,0 1,-1 2,-2 2,-3l0 -1 0 1c0,1 0,2 -1,3 -1,1 -3,1 -5,1 -2,-1 -4,-3 -4,-5 0,-3 2,-4 4,-5 2,-1 4,0 5,1 1,1 1,2 1,3l0 1z"></path>
   <path class="fil2" d="M2596 2205l-2 0c-1,1 -2,2 -2,4 0,2 1,3 2,3 2,1 3,1 4,0 1,-1 1,-2 1,-2l1 -1 0 0 0 0 -1 -1c0,-1 0,-2 -1,-2 -1,-1 -1,-1 -2,-1zm-1 10l-1 -1c-2,0 -4,-2 -4,-5 0,-3 2,-5 4,-6 2,0 4,0 5,1 2,1 2,3 2,4l0 1 0 1c0,1 0,2 -2,3 -1,1 -2,2 -4,2z"></path>
   <path class="fil2" d="M2623 2151c-1,8 -7,14 -14,14 -8,0 -14,-6 -14,-14 0,-7 6,-14 14,-13 7,0 14,6 14,13z"></path>
   <path class="fil1" d="M2609 2159l0 0 0 0c0,-1 0,-3 0,-7 0,-4 0,-7 0,-7 1,0 1,3 1,7 0,4 -1,6 -1,7l0 0 0 0z"></path>
   <path class="fil1" d="M2617 2152c0,1 -4,1 -8,1 -4,-1 -7,-1 -7,-1 0,0 3,0 7,0 4,0 8,0 8,0z"></path>
   <path class="fil2" d="M2336 2184c0,1 -44,2 -99,2 -54,0 -98,-1 -98,-2 0,-2 44,-3 98,-3 55,0 99,1 99,3z"></path>
   <path class="fil6" d="M2620 2845l-1099 0c-23,0 -41,-19 -41,-42l0 -425c0,-23 18,-42 41,-42l1099 0c23,0 42,19 42,42l0 425c0,23 -19,42 -42,42z"></path>
   <path class="fil1" d="M2081 2845l-564 0c-20,0 -37,-17 -37,-38l0 -432c0,-21 17,-38 37,-38l564 0 0 508z"></path>
   <path class="fil0" d="M2082 2849c-1,0 -2,-114 -2,-253 0,-139 1,-252 2,-252 1,0 2,113 2,252 0,139 -1,253 -2,253z"></path>
   <path class="fil0" d="M2620 2845c0,-1 3,0 9,-2 5,-1 14,-4 21,-12 4,-4 7,-9 9,-15 3,-7 2,-14 2,-22 0,-16 0,-35 0,-56 0,-84 0,-205 -1,-354 0,-5 0,-10 -1,-14 -1,-5 -2,-9 -5,-13 -4,-8 -12,-14 -21,-17 -9,-3 -19,-1 -29,-2 -10,0 -20,0 -30,0 -41,0 -84,0 -128,0 -88,1 -182,1 -281,1 -198,0 -415,0 -644,0 -13,0 -26,7 -33,19 -4,5 -5,12 -6,19l0 21c0,28 0,56 0,84 0,55 0,110 0,164 0,54 0,107 0,159 1,12 7,24 17,30 5,4 11,6 17,7 6,1 12,0 19,0 25,0 50,0 75,0 198,1 376,1 526,1 149,0 271,0 354,1 42,0 75,0 97,0 11,0 19,0 25,0 6,0 8,1 8,1 0,0 -2,0 -8,0 -6,0 -14,0 -25,0 -22,0 -55,0 -97,1 -83,0 -205,0 -354,0 -150,0 -328,1 -526,1 -25,0 -50,0 -75,0 -7,0 -13,0 -20,-1 -6,-1 -13,-3 -18,-7 -12,-7 -19,-20 -19,-34 0,-52 -1,-105 -1,-159 0,-54 0,-109 0,-164 0,-28 0,-56 0,-84l0 -21c1,-8 3,-15 7,-22 7,-13 22,-21 37,-21 229,0 446,0 644,0 99,0 193,0 281,0 44,0 87,0 128,1 10,0 20,0 30,0 5,0 10,0 15,0 5,0 10,0 15,2 10,3 18,10 23,18 3,5 5,9 6,14 1,5 1,10 1,15 -1,149 -1,270 -1,354 0,21 0,40 0,56 0,8 0,16 -3,22 -2,7 -5,12 -9,16 -8,8 -17,11 -22,12 -6,1 -9,1 -9,1z"></path>
   <path class="fil2" d="M2343 2453c0,1 -48,2 -108,2 -60,0 -108,-1 -108,-2 0,-1 48,-3 108,-3 60,0 108,2 108,3z"></path>
   <path class="fil0" d="M2552 2520c0,1 -96,2 -214,2 -118,0 -213,-1 -213,-2 0,-2 95,-3 213,-3 118,0 214,1 214,3z"></path>
   <path class="fil0" d="M2552 2559c0,1 -96,2 -214,2 -118,0 -213,-1 -213,-2 0,-2 95,-3 213,-3 118,0 214,1 214,3z"></path>
   <path class="fil4" d="M2507 2751c0,-4 -2,-8 -5,-11 -3,-4 -7,-6 -11,-8 -4,-1 -9,0 -13,3 -2,1 -4,3 -6,6 -1,-3 -3,-4 -5,-6 -3,-3 -8,-4 -13,-3 -4,1 -8,3 -11,7 -3,3 -5,7 -6,11 -1,6 0,12 3,17 3,5 8,9 13,12 8,5 19,12 19,12 0,0 10,-7 18,-12 5,-2 10,-6 13,-11 3,-5 5,-11 4,-17z"></path>
   <path class="fil2" d="M2457 2733c-1,0 -2,0 -3,0 -3,1 -7,3 -10,6 -3,4 -5,7 -6,11 0,6 1,12 3,16 3,4 7,9 12,12 7,5 16,10 19,12 2,-2 10,-7 18,-12 5,-3 10,-7 12,-11 3,-4 4,-10 4,-15 0,-4 -2,-8 -5,-12 -2,-2 -5,-5 -10,-6 -4,-1 -9,-1 -13,2 -2,1 -3,3 -5,5l-1 2 -1 -2c-1,-2 -2,-4 -4,-5 -3,-2 -6,-3 -10,-3zm15 59l-1 0c0,0 -11,-7 -19,-12 -6,-4 -10,-8 -13,-13 -3,-5 -4,-11 -3,-17 1,-4 3,-9 6,-12 3,-3 7,-6 12,-7 5,-1 10,0 14,3 2,1 3,3 4,4 2,-1 3,-3 5,-4 4,-3 10,-4 14,-3 5,1 9,4 12,8 3,4 5,8 5,12 1,6 -1,13 -4,17 -3,5 -7,9 -13,12 -9,5 -18,12 -18,12l-1 0z"></path>
   <path class="fil2" d="M2606 2780l-1 0c-1,0 -2,0 -3,0 -3,0 -6,0 -10,0 -9,0 -21,-1 -35,-1l0 0 0 0c0,-2 -1,-4 -1,-6 -2,-16 -4,-31 -5,-41l0 0c-4,0 -7,0 -9,0 -1,0 -2,0 -3,0l0 0 0 0c1,0 2,0 3,0 2,0 5,0 9,0l0 0 0 0c2,10 4,25 6,41 0,2 0,4 0,6l0 0c14,0 26,0 35,0 4,0 7,0 10,0 1,0 2,0 3,0l1 1z"></path>
   <path class="fil2" d="M2592 2780l-35 0 -1 -1 -6 -46c-3,0 -6,0 -8,0l-3 -1c-1,0 -1,0 -1,0 0,-1 0,-1 1,-1l12 0 1 1 0 0 6 42c0,1 0,3 0,4l47 1c1,0 1,0 1,1 0,0 0,0 -1,0l-3 0 -10 0z"></path>
   <path class="fil2" d="M2556 2769l0 0 1 0c0,0 1,0 3,0 2,0 6,0 10,0 9,0 21,0 36,0l0 0c1,-6 2,-12 3,-19 1,-3 1,-7 2,-10l0 0c-16,0 -31,0 -42,0 -5,0 -9,0 -12,0 -2,0 -3,0 -4,0l-1 0 0 0 0 -1 1 0c1,0 2,0 4,0 3,0 7,0 12,0 11,1 26,1 42,1l1 0 0 0c-1,3 -2,7 -2,10 -2,7 -3,14 -4,20l0 0 0 0c-15,0 -27,-1 -36,-1 -4,0 -8,0 -10,0 -2,0 -3,0 -3,0l-1 0 0 0z"></path>
   <path class="fil2" d="M2606 2770l0 0 -50 0 -1 -1 0 -1 1 0 4 0c2,0 6,0 10,0l35 0 5 -27 -54 -1c-1,0 -2,0 -3,0l-1 0 -1 0 1 -1 5 0 12 0 43 0 0 0 0 1 -2 10c0,5 -1,9 -2,13l-1 7 -1 0z"></path>
   <path class="fil2" d="M2569 2792l0 -1c0,-1 -1,-2 -2,-2 -1,-1 -3,-2 -4,-1 -2,1 -3,2 -3,4 0,2 1,4 3,5 1,0 3,0 4,-1 1,-1 2,-2 2,-3l0 -1 0 2c0,0 0,1 -2,2 -1,1 -3,2 -4,1 -2,0 -4,-2 -4,-5 0,-2 2,-4 4,-5 1,0 3,0 4,1 2,1 2,2 2,3l0 1z"></path>
   <path class="fil2" d="M2564 2788l-1 1c-1,0 -2,1 -2,3 -1,2 1,3 2,4 1,0 3,0 4,-1 1,0 1,-1 1,-2l0 -1 0 0 0 0 0 -1c0,0 0,-1 -1,-2 -1,0 -2,-1 -3,-1zm0 10l-2 0c-2,-1 -4,-3 -4,-6 0,-3 2,-5 4,-5 3,-1 5,0 6,1 1,1 2,2 2,3l0 1 0 2c0,0 -1,2 -2,3 -1,1 -2,1 -4,1z"></path>
   <path class="fil2" d="M2600 2793l0 -2c0,0 -1,-1 -2,-2 -1,-1 -2,-1 -4,-1 -2,1 -3,3 -3,5 0,2 1,3 3,4 2,0 3,0 4,-1 1,0 2,-1 2,-2l0 -1 0 1c0,1 0,2 -1,3 -1,1 -3,1 -5,0 -2,0 -4,-2 -4,-4 0,-3 2,-5 4,-5 2,-1 4,0 5,1 1,1 1,2 1,2l0 2z"></path>
   <path class="fil2" d="M2596 2789l-2 0c-1,0 -2,2 -2,4 0,1 1,3 2,3 2,1 3,0 4,0 1,-1 1,-2 1,-2l1 -1 0 0 0 0 -1 -1c0,-1 0,-2 -1,-2 -1,-1 -1,-1 -2,-1zm-1 9l-1 0c-2,-1 -4,-3 -4,-5 0,-3 1,-5 4,-6 2,-1 4,0 5,1 2,1 2,3 2,3l0 2 0 1c0,1 0,2 -2,3 -1,1 -2,1 -4,1z"></path>
   <path class="fil2" d="M2623 2735c-1,8 -7,14 -14,14 -8,0 -14,-6 -14,-14 0,-8 6,-14 14,-14 7,0 14,7 14,14z"></path>
   <path class="fil1" d="M2609 2743l0 0 0 0c0,-1 0,-4 0,-7 0,-4 0,-7 0,-7 1,0 1,3 1,7 0,3 -1,6 -1,7l0 0 0 0z"></path>
   <path class="fil1" d="M2617 2736c0,0 -4,0 -8,0 -4,0 -7,0 -7,0 0,0 3,-1 7,0 4,0 8,0 8,0z"></path>
   <path class="fil2" d="M2336 2768c0,1 -44,2 -99,2 -54,0 -98,-1 -98,-2 0,-2 44,-3 98,-3 55,0 99,1 99,3z"></path>
   <path class="fil2" d="M1634 1300c0,0 -75,172 -71,266l194 59 34 -63 28 63c0,0 150,-37 191,-74 0,0 -40,-201 -71,-250 0,0 19,-41 4,-43 -15,-2 -39,2 -58,0 -18,-2 -24,3 -47,-1 -22,-3 -20,25 -47,19 -28,-6 -28,-12 -57,-19 -28,-7 -44,16 -62,10 -11,-4 -28,-7 -40,-9 -10,-2 -21,5 -23,15 -1,4 0,8 5,9 15,5 20,18 20,18z"></path>
   <path class="fil2" d="M1899 1261c1,0 1,10 -4,22 -6,11 -14,18 -14,17 -1,0 6,-7 11,-18 5,-11 6,-21 7,-21z"></path>
   <path class="fil1" d="M1788 1391c0,0 -1,-1 -3,-3 -2,-2 -5,-6 -8,-9 -7,-9 -16,-20 -28,-34l2 0c-11,14 -24,30 -37,47l0 -2 0 2c14,17 27,33 37,47l-2 0c12,-14 21,-26 28,-34 3,-4 6,-8 8,-10 2,-2 3,-4 3,-4 0,0 0,2 -2,4 -2,2 -5,6 -8,10 -6,9 -16,21 -27,36l-1 1 -1 -1c-10,-14 -23,-30 -37,-48l-1 -1 0 -1 0 -1c14,-17 27,-33 38,-46l1 -1 1 1c11,14 21,26 27,34 3,4 6,7 8,10 2,2 2,3 2,3z"></path>
   <path class="fil1" d="M1930 1361c0,0 -1,-1 -3,-3 -2,-2 -5,-6 -8,-9 -7,-9 -16,-20 -28,-34l2 0c-11,14 -24,30 -38,47l0 -1 1 1c14,17 26,34 37,48l-2 0c12,-15 21,-26 28,-35 3,-4 6,-7 8,-10 2,-2 3,-4 3,-4 0,0 -1,2 -2,4 -2,3 -5,6 -8,10 -6,9 -16,21 -27,36l-1 1 -1 -1c-11,-14 -23,-30 -37,-47l-1 -2 0 -1 0 0c14,-18 27,-34 38,-47l1 -1 1 1c11,14 21,26 27,34 3,4 6,8 8,10 1,2 2,3 2,3z"></path>
   <path class="fil1" d="M1826 1261c0,-1 11,12 24,28 -5,0 -2,0 -3,0l0 0 0 0 0 0 0 0 1 0 0 0 1 -1 1 -2c0,-1 1,-2 2,-2 1,-2 3,-4 4,-6 3,-3 6,-6 8,-9 4,-5 7,-9 7,-8 1,0 -2,3 -6,9 -2,3 -4,6 -7,10 -1,1 -2,3 -4,5 -1,1 -1,2 -2,3l-1 2 -1 0 0 1 0 0 0 0 0 0 0 0 0 0c-1,0 2,0 -3,0 -12,-16 -22,-30 -21,-30z"></path>
   <path class="fil1" d="M1687 1300c-1,1 -4,-3 -8,-8 -5,-6 -11,-14 -18,-22l-2 -2 2 0c-5,9 -10,17 -13,22 -4,6 -6,9 -7,9 0,0 2,-4 5,-10 3,-6 8,-14 13,-23l1 -2 1 2 2 2c7,9 13,17 17,22 5,6 7,10 7,10z"></path>
   <path class="fil1" d="M1883 1511c0,0 -1,-1 -3,-3 -2,-3 -5,-6 -8,-10 -7,-8 -16,-20 -28,-33l2 0c-11,13 -24,30 -38,47l0 -2 1 1c14,18 26,34 37,48l-2 0c12,-14 21,-26 28,-35 3,-4 6,-7 8,-10 2,-2 3,-3 3,-3 0,0 -1,1 -2,3 -2,3 -5,6 -8,10 -6,10 -16,22 -27,36l-1 2 -1 -2c-11,-13 -23,-30 -37,-47l-1 -1 0 -1 0 -1c14,-17 27,-33 38,-47l1 -1 1 1c11,14 21,26 27,35 3,4 6,7 8,9 1,3 2,4 2,4z"></path>
   <path class="fil1" d="M1717 1550c0,0 -1,-1 -3,-3 -2,-3 -5,-6 -8,-10 -7,-8 -17,-19 -28,-33l2 0c-11,14 -24,30 -38,47l0 -2 1 2c13,17 26,33 37,47l-2 0c11,-14 21,-26 28,-34 3,-4 6,-8 8,-10 2,-3 3,-4 3,-4 0,0 -1,1 -3,4 -2,2 -4,6 -7,10 -7,9 -16,21 -27,36l-1 1 -1 -1c-11,-14 -24,-30 -37,-48l-1 -1 -1 -1 1 -1c14,-17 27,-33 38,-46l1 -2 1 2c11,14 20,25 27,34 3,4 5,7 7,10 2,2 3,3 3,3z"></path>
   <path class="fil1" d="M1577 1467c0,0 1,-2 4,-4 2,-2 6,-5 11,-9 9,-7 23,-18 38,-29 1,-1 3,-3 5,-4l0 2c-8,-15 -16,-28 -21,-38 -5,-10 -7,-16 -7,-16 0,0 4,6 9,15 6,9 13,23 21,37l1 1 -1 1c-2,2 -4,3 -6,4 -15,12 -28,21 -38,29 -5,3 -9,6 -12,8 -2,2 -4,3 -4,3z"></path>
   <path class="fil1" d="M1999 1505c0,0 -1,-1 -4,-3 -2,-2 -6,-6 -10,-10 -9,-8 -21,-19 -35,-32l0 -1 0 0 0 -1c6,-17 12,-33 16,-44 2,-6 4,-10 5,-13 1,-3 2,-5 2,-5 0,0 0,2 -1,5 -1,3 -2,8 -4,14 -4,11 -9,27 -15,44l0 0 -1 -1c14,13 25,24 34,33 4,4 8,7 10,10 2,2 4,4 3,4z"></path>
   <path class="fil2" d="M1940 1299c0,0 -1,1 -3,1 -2,0 -5,1 -9,2 -7,1 -19,2 -33,1 -13,0 -30,-2 -48,-5 -18,-2 -38,-4 -59,-4 -21,0 -41,2 -60,4 -18,2 -34,3 -48,4 -14,0 -25,0 -33,-1 -4,0 -7,-1 -9,-1 -2,-1 -3,-1 -3,-1 0,0 1,0 3,0 2,0 5,1 9,1 8,0 19,0 33,0 13,-1 30,-3 48,-5 18,-1 38,-4 60,-4 21,0 41,2 59,5 18,2 35,4 49,5 13,1 24,0 32,0 8,-1 12,-2 12,-2z"></path>
   <path class="fil2" d="M1657 1440c0,0 0,-2 0,-6 1,-3 1,-9 2,-15 1,-13 4,-30 8,-50 5,-19 10,-36 14,-48 2,-7 3,-11 5,-15 1,-3 2,-5 2,-5 0,0 0,2 -1,6 -1,4 -3,8 -4,14 -4,13 -9,30 -13,49 -4,19 -7,37 -9,49 -1,6 -2,11 -3,15 0,4 -1,6 -1,6z"></path>
   <path class="fil2" d="M1685 1388c-1,0 2,-20 6,-44 4,-24 8,-43 9,-43 0,0 -2,20 -6,44 -4,24 -8,43 -9,43z"></path>
   <path class="fil3" d="M1915 1515c0,0 -1,-2 -3,-8 -3,-5 -6,-12 -9,-22 -7,-18 -15,-45 -21,-75 -6,-30 -9,-57 -10,-77 0,-10 -1,-18 -1,-24 0,-5 1,-8 1,-8 0,0 0,3 1,8 0,6 0,14 1,24 2,20 5,47 11,77 6,29 14,56 20,75 3,9 6,17 8,22 2,5 3,8 2,8z"></path>
   <path class="fil3" d="M1909 1381c0,0 -2,-4 -4,-11 -2,-7 -5,-17 -8,-27 -3,-11 -5,-21 -6,-28 -1,-7 -2,-12 -2,-12 1,0 2,4 4,11 2,9 4,18 7,28 2,10 5,19 7,27 2,7 3,12 2,12z"></path>
   <path class="fil3" d="M1768 1605c0,0 0,0 -2,0 -1,0 -3,0 -6,-1 -6,-1 -13,-3 -23,-6 -19,-6 -43,-19 -70,-32 -27,-13 -53,-22 -72,-26 -10,-2 -18,-3 -23,-3 -6,0 -9,0 -9,0 0,0 1,0 2,-1 2,0 4,0 7,0 5,0 13,1 23,2 20,3 46,13 73,26 27,13 51,25 70,32 9,3 17,6 22,7 5,1 8,2 8,2z"></path>
   <path class="fil3" d="M2004 1525c0,0 -2,2 -7,5 -4,3 -11,6 -19,11 -16,9 -40,21 -67,32 -26,11 -51,19 -70,24 -9,2 -16,4 -22,5 -5,1 -8,2 -8,1 0,0 3,-1 8,-2 5,-1 13,-4 22,-6 18,-6 43,-14 69,-25 27,-10 50,-22 67,-31 9,-4 15,-8 20,-10 5,-3 7,-4 7,-4z"></path>
   <path class="fil2" d="M1915 1278c1,0 -2,7 -8,14 -6,6 -12,10 -13,9 0,-1 6,-5 11,-11 6,-7 10,-13 10,-12z"></path>
   <path class="fil2" d="M1703 1263c1,0 2,8 5,18 3,9 8,16 8,16 -1,1 -7,-5 -11,-15 -3,-10 -2,-19 -2,-19z"></path>
   <path class="fil2" d="M1934 2738l-244 1c-13,0 -24,-11 -24,-24l0 -147c0,-13 11,-24 24,-24l243 0c13,0 24,10 24,23l0 148c0,13 -10,23 -23,23z"></path>
   <path class="fil2" d="M1878 2580c0,0 0,-1 0,-4 0,-3 0,-6 0,-10 1,-10 2,-23 0,-39 -2,-16 -7,-36 -22,-51 -8,-8 -18,-14 -29,-16 -11,-3 -24,-3 -36,-3 -25,0 -49,5 -66,18 -8,7 -14,16 -18,24 -4,9 -6,18 -7,26 -2,16 0,29 0,39 1,4 1,7 1,10 0,3 0,4 0,4 0,0 0,-1 0,-4 -1,-2 -1,-6 -2,-10 -1,-9 -3,-23 -1,-39 1,-9 3,-18 6,-27 4,-9 10,-18 19,-25 9,-7 19,-12 31,-15 12,-3 24,-5 37,-5 13,0 25,1 37,3 12,3 22,9 30,17 15,17 21,37 22,54 2,16 0,30 0,39 -1,4 -1,8 -2,10 0,3 0,4 0,4z"></path>
   <path class="fil3" d="M1897 2737l-244 1c-13,0 -23,-11 -23,-24l-1 -147c0,-13 11,-24 24,-24l244 0c13,0 23,10 23,23l0 148c0,13 -10,23 -23,23z"></path>
   <path class="fil2" d="M1897 2737c0,0 3,0 9,-2 3,-1 6,-3 9,-7 2,-3 5,-8 5,-14 -1,-24 -1,-58 -1,-100 0,-10 0,-21 0,-33 0,-5 0,-11 0,-17 -1,-6 -4,-11 -9,-15 -4,-3 -10,-5 -16,-5 -7,1 -13,1 -20,1 -13,0 -26,0 -40,0 -56,0 -117,0 -181,0 -8,0 -15,4 -19,11 -2,3 -3,6 -3,10 0,4 0,8 0,12 0,15 0,31 0,46 0,30 0,59 0,87 0,4 0,7 1,10 1,3 3,6 5,8 4,5 11,7 17,7 13,0 26,0 38,0 25,0 48,0 69,0 42,0 76,0 99,1 12,0 21,0 28,0 2,0 5,0 7,0 1,0 2,0 2,0 0,0 -1,0 -2,0 -2,0 -5,0 -7,0 -7,1 -16,1 -28,1 -23,0 -57,0 -99,1 -21,0 -44,0 -69,0 -12,0 -25,0 -38,0 -7,0 -14,-3 -19,-8 -3,-3 -5,-6 -6,-9 -1,-4 -1,-8 -1,-11 0,-28 0,-57 0,-87 0,-15 0,-31 0,-46 0,-4 0,-8 0,-12 0,-4 1,-9 3,-12 5,-8 13,-12 22,-12 64,0 125,0 181,0 14,0 27,0 40,0 7,0 13,0 20,0 6,-1 13,1 18,5 5,4 9,10 9,17 1,6 0,12 0,17 0,12 0,23 0,33 0,42 0,76 0,100 0,6 -3,11 -5,15 -3,3 -7,5 -10,7 -6,2 -9,1 -9,1z"></path>
   <path class="fil2" d="M1917 2641c0,1 -64,3 -143,3 -79,0 -143,-2 -143,-3 0,-1 64,-2 143,-2 79,0 143,1 143,2z"></path>
   <path class="fil0" d="M1775 2665c-2,0 -3,-10 -3,-23 0,-12 1,-23 3,-23 1,0 2,11 2,23 0,13 -1,23 -2,23z"></path>
   <path class="fil4" d="M1557 2068c0,0 73,-199 91,-211 18,-12 92,-33 92,-33l56 184 67 -187c0,0 70,21 90,53 20,31 72,195 72,195l-111 42 14 67 -280 -3 17 -58 -108 -49z"></path>
   <path class="fil8" d="M1652 1854c0,0 0,0 0,0l28 -11c0,0 0,0 0,0 -11,4 -21,8 -28,11z"></path>
   <path class="fil7" d="M1704 1973c-3,0 -5,0 -7,-2 -5,-2 -9,-7 -12,-12 -20,-31 -31,-68 -33,-105 7,-3 17,-7 28,-11 0,37 10,73 29,104 4,7 8,16 3,22 -2,3 -5,4 -8,4z"></path>
   <path class="fil7" d="M1732 2083c-6,0 -11,-3 -14,-8 -4,-5 -3,-13 0,-18 3,-4 8,-8 14,-8 0,0 1,0 2,0l0 0c4,1 8,3 10,7 2,4 2,9 1,14 0,3 -1,6 -3,8 -2,2 -5,4 -8,5 -1,0 -2,0 -2,0z"></path>
   <polygon class="fil8" points="1917,2123 1914,2111 1914,2111 "></polygon>
   <path class="fil7" d="M1855 2157c-8,0 -16,-1 -22,-5 -6,-4 -12,-9 -19,-9 0,0 -1,0 -2,0 -4,1 -8,4 -12,4 -1,0 -2,0 -3,-1 -3,-1 -5,-4 -6,-7 -1,-6 3,-12 9,-15 3,-2 8,-3 12,-3 2,0 4,0 5,0 7,1 12,3 19,4 2,0 4,0 6,0 23,0 49,-18 65,-36l14 -15 -7 36 0 1 0 0 3 12 0 1c-11,11 -23,21 -38,28 -8,3 -16,5 -24,5z"></path>
   <path class="fil2" d="M1934 2016c1,0 -3,22 -9,48 -5,26 -10,47 -11,47 -1,0 3,-21 9,-48 5,-26 10,-47 11,-47z"></path>
   <path class="fil1" d="M1930 1854c0,0 0,2 -1,5 -1,3 -2,7 -5,12 -5,10 -16,23 -31,31 -16,8 -32,10 -43,8 -6,0 -10,-2 -13,-3 -3,-1 -5,-1 -5,-1 0,-1 7,2 18,2 11,1 27,0 42,-8 15,-8 25,-20 30,-30 6,-9 8,-16 8,-16z"></path>
   <path class="fil1" d="M1951 1873c1,0 0,2 -2,5 -2,4 -4,8 -8,13 -9,11 -23,24 -42,31 -20,8 -39,7 -52,5 -7,-2 -12,-3 -15,-5 -4,-1 -6,-2 -6,-2 0,0 8,3 21,5 13,2 32,2 51,-5 19,-7 33,-20 41,-30 9,-10 12,-17 12,-17z"></path>
   <path class="fil1" d="M1786 1987c0,0 -2,1 -6,3 -4,1 -9,3 -16,6 -13,6 -31,14 -49,27 -18,12 -33,26 -43,36 -5,5 -9,10 -11,13 -3,3 -4,4 -4,4 -1,0 1,-2 3,-5 2,-3 6,-8 11,-13 10,-11 24,-25 43,-37 18,-13 36,-22 49,-27 7,-2 13,-4 17,-5 3,-2 6,-2 6,-2z"></path>
   <path class="fil1" d="M1783 1966c0,1 -2,1 -6,2 -4,2 -9,3 -16,6 -13,4 -31,11 -50,20 -20,9 -36,19 -48,27 -6,4 -11,7 -14,9 -3,2 -5,3 -5,3 0,0 1,-2 5,-4 3,-2 7,-6 13,-10 11,-8 28,-18 47,-27 20,-10 38,-16 52,-20 6,-2 12,-4 16,-5 4,0 6,-1 6,-1z"></path>
   <path class="fil1" d="M1983 2081c-1,1 -11,-11 -26,-20 -15,-9 -29,-13 -29,-14 0,0 4,0 9,2 6,2 14,5 22,10 7,5 14,10 18,14 4,5 6,8 6,8z"></path>
   <path class="fil1" d="M1597 2081c-1,1 -8,-12 -14,-29 -6,-17 -8,-32 -8,-32 1,0 5,14 11,31 6,17 12,30 11,30z"></path>
   <path class="fil1" d="M1714 2176c-1,0 -14,-5 -29,-14 -16,-8 -27,-17 -27,-18 1,0 13,7 28,16 15,9 28,15 28,16z"></path>
   <path class="fil2" d="M1786 2045c0,0 -1,-2 -3,-8 -2,-5 -5,-13 -8,-22 -7,-20 -16,-46 -25,-76 -10,-29 -18,-56 -23,-75 -3,-10 -5,-18 -7,-24 -1,-5 -2,-8 -2,-8 0,0 1,3 3,8 2,6 4,14 7,23 7,20 15,46 24,76 10,29 18,55 24,75 3,9 6,17 8,23 1,5 2,8 2,8z"></path>
   <path class="fil2" d="M1809 2046c0,1 -5,2 -12,2 -6,0 -11,-1 -11,-2 0,0 5,-1 11,-1 7,0 12,1 12,1z"></path>
   <path class="fil2" d="M1880 1827c1,-4 -14,46 -33,108 -20,62 -36,112 -37,111 -1,0 15,-50 34,-112 20,-61 36,-107 36,-107z"></path>
   <path class="fil2" d="M1665 2117c-1,0 -7,-24 -14,-54 -7,-29 -12,-54 -11,-54 0,0 7,24 14,54 7,30 12,54 11,54z"></path>
   <polygon class="fil9" points="1985,398 1966,455 1952,455 1940,416 1927,455 1913,455 1894,398 1908,398 1921,438 1934,398 1946,398 1959,438 1972,398 "></polygon>
   <polygon class="fil9" points="1992,455 2005,455 2005,398 1992,398 "></polygon>
   <path class="fil9" d="M2014 449l5 -10c4,4 12,6 18,6 8,0 11,-2 11,-6 0,-10 -33,-3 -33,-24 0,-10 8,-18 24,-18 7,0 15,2 20,5l-4 10c-5,-3 -11,-4 -16,-4 -8,0 -11,3 -11,6 0,11 33,3 33,24 0,10 -7,18 -24,18 -9,0 -18,-3 -23,-7z"></path>
   <polygon class="fil9" points="2122,398 2122,455 2109,455 2109,432 2083,432 2083,455 2070,455 2070,398 2083,398 2083,421 2109,421 2109,398 "></polygon>
   <polygon class="fil9" points="2145,398 2151,398 2141,450 2173,450 2172,455 2134,455 "></polygon>
   <polygon class="fil9" points="2193,398 2199,398 2188,455 2182,455 "></polygon>
   <path class="fil9" d="M2202 448l3 -5c4,4 11,7 18,7 10,0 17,-4 17,-11 0,-13 -30,-6 -30,-24 0,-11 10,-17 23,-17 7,0 13,1 18,5l-3 4c-4,-3 -9,-4 -15,-4 -10,0 -17,4 -17,11 0,13 30,7 30,24 0,11 -10,17 -23,17 -9,0 -17,-3 -21,-7z"></path>
   <polygon class="fil9" points="2276,403 2256,403 2257,398 2303,398 2302,403 2282,403 2272,455 2266,455 "></polygon>
   <path class="fil2" d="M2656 385c0,1 -28,2 -61,2 -34,1 -62,0 -62,-1 0,0 28,-1 62,-2 33,0 61,1 61,1z"></path>
   <path class="fil2" d="M2656 417c0,0 -27,1 -61,2 -34,0 -61,-1 -61,-1 0,-1 27,-2 61,-2 34,-1 61,0 61,1z"></path>
   <path class="fil2" d="M2656 448c0,1 -27,2 -61,2 -34,0 -61,0 -61,-1 0,-1 27,-2 61,-2 34,0 61,0 61,1z"></path>
   <polygon class="fil4" points="562,3896 520,4209 351,4190 392,3876 "></polygon>
   <path class="fil2" d="M438 4187c-2,0 7,-68 20,-153 12,-84 23,-152 25,-152 1,0 -8,69 -20,153 -13,85 -24,153 -25,152z"></path>
   <polygon class="fil2" points="523,4187 354,4167 351,4190 520,4209 "></polygon>
   <path class="fil2" d="M364 4089c0,0 1,-2 5,-6 4,-4 10,-9 17,-14 8,-5 18,-11 30,-14 12,-4 26,-6 41,-4 29,4 51,22 62,38 5,8 8,15 9,20 2,5 2,8 2,8 -1,0 -4,-12 -14,-26 -11,-15 -32,-31 -60,-35 -28,-4 -52,7 -68,16 -15,10 -23,18 -24,17z"></path>
   <path class="fil8" d="M541 4050l4 -28 1 1 -5 27zm-170 -15l0 0 2 -16 -2 16z"></path>
   <path class="fil7" d="M541 4050l-79 -7c0,-3 0,-5 1,-8 1,-7 2,-13 3,-20l79 7 -4 28 0 0zm-84 -7l-86 -8 2 -16 2 -12 86 8c-1,6 -2,13 -3,19 -1,3 -1,6 -1,9z"></path>
   <path class="fil10" d="M462 4043l-5 0c0,-3 0,-6 1,-9 1,-6 2,-13 3,-19l5 0c-1,7 -2,13 -3,20 -1,3 -1,5 -1,8z"></path>
   <polygon class="fil4" points="1103,3917 1084,4232 914,4225 933,3909 "></polygon>
   <path class="fil2" d="M1001 4217c-2,-1 2,-69 9,-154 6,-85 12,-154 14,-154 1,0 -3,69 -9,154 -7,85 -13,154 -14,154z"></path>
   <polygon class="fil2" points="1085,4210 915,4203 914,4225 1084,4232 "></polygon>
   <path class="fil2" d="M920 4124c0,0 1,-3 5,-7 3,-4 9,-9 16,-15 7,-6 17,-12 29,-16 11,-5 25,-8 40,-7 29,2 53,18 64,33 6,8 9,15 11,19 2,5 3,8 3,8 -1,1 -5,-11 -17,-24 -11,-14 -34,-29 -62,-31 -27,-2 -51,11 -66,21 -15,11 -22,20 -23,19z"></path>
   <polygon class="fil8" points="1094,4072 1096,4044 1097,4044 "></polygon>
   <path class="fil7" d="M1094 4072l-80 -1c0,-3 1,-5 1,-8 0,-7 1,-14 1,-20l80 1 -2 28 0 0zm-85 -1l-86 -2 2 -28 86 2c0,6 -1,13 -1,20 -1,2 -1,5 -1,8z"></path>
   <path class="fil10" d="M1014 4071l-5 0c0,-3 0,-6 1,-8 0,-7 1,-14 1,-20l5 0c0,6 -1,13 -1,20 0,3 -1,5 -1,8z"></path>
   <path class="fil2" d="M467 2446c-5,1 -20,208 -16,277 4,68 8,600 8,600 0,0 -36,25 -36,57 0,32 -65,621 -65,621l194 32c0,0 177,-641 181,-730 4,-88 129,-697 129,-697 0,0 40,576 40,665 0,89 -1,771 -1,771 0,0 144,21 213,4 0,0 59,-513 59,-682 0,-170 0,-274 0,-274 0,0 68,-319 100,-480 33,-161 0,-315 0,-315l-580 -76 -226 227z"></path>
   <path class="fil3" d="M616 3370c0,1 -33,-12 -74,-8 -41,4 -71,22 -71,21 -1,-1 6,-6 19,-12 12,-6 31,-12 52,-14 21,-1 40,1 53,5 14,3 21,7 21,8z"></path>
   <path class="fil3" d="M628 3320c0,2 -25,2 -55,1 -30,-1 -55,-3 -55,-4 0,-2 25,-2 55,-1 31,1 55,3 55,4z"></path>
   <path class="fil3" d="M1025 3441c0,0 -2,-2 -5,-5 -4,-3 -9,-8 -14,-15 -11,-13 -24,-33 -33,-58 -9,-24 -13,-48 -14,-65 0,-8 0,-15 0,-20 1,-5 1,-7 1,-7 1,0 1,10 2,27 2,17 6,40 15,64 10,23 22,43 32,57 10,13 17,21 16,22z"></path>
   <path class="fil3" d="M869 2582c0,1 -2,3 -5,8 -2,2 -5,5 -8,8 -3,2 -7,5 -11,8 -17,12 -44,25 -75,33 -30,9 -60,10 -81,7 -2,-1 -5,-1 -7,-1 -2,-1 -4,-2 -6,-2 -4,-1 -8,-3 -10,-4 -6,-3 -8,-4 -8,-5 0,-1 11,6 32,8 20,3 49,1 79,-8 31,-8 57,-20 74,-31 4,-2 8,-5 11,-7 3,-3 6,-5 8,-7 4,-4 6,-7 7,-7z"></path>
   <path class="fil11" d="M1573 969c0,0 -1,-41 18,-80 20,-39 79,-105 79,-105 0,0 80,-63 89,-58 8,4 11,13 0,23 -11,10 -55,60 -55,60 0,0 19,7 19,20 0,12 -5,18 -5,18 0,0 17,8 21,18 5,10 5,18 5,18 0,0 9,2 11,14 1,13 -2,24 -2,24 0,0 -30,35 -43,39 -13,4 -29,9 -29,9l-11 15 0 40 -97 -55z"></path>
   <path class="fil3" d="M334 1279c0,0 -293,517 -294,598 -2,144 407,260 407,260l58 -164 -209 -145 152 -329 -114 -220z"></path>
   <path class="fil3" d="M334 1279c0,0 52,-44 132,-54 79,-10 222,-12 222,-12 0,0 386,-85 415,-68 29,17 67,121 75,169 7,49 -33,508 -33,508 0,0 173,535 161,552 -6,8 -215,82 -426,98l-11 -156 -25 145c-196,15 -419,22 -419,22 0,0 153,-530 148,-545 -5,-14 -259,-607 -239,-659z"></path>
   <path class="fil3" d="M1103 1145c0,0 142,80 159,79 16,-2 33,-30 55,-8l125 -22 125 -227c0,0 72,26 125,76 0,0 -69,236 -112,272 -43,35 -207,158 -437,160l-28 -188 -12 -142z"></path>
   <path class="fil2" d="M1251 1423c-1,-1 6,-11 14,-28 4,-9 8,-20 12,-32 3,-12 5,-26 7,-41 1,-14 0,-28 -1,-41 -2,-13 -4,-24 -7,-33 -5,-19 -10,-30 -9,-30 0,0 1,2 4,7 2,5 6,12 9,22 3,9 5,20 7,33 2,13 2,28 1,43 -1,14 -4,29 -7,41 -4,12 -8,23 -13,32 -4,9 -8,16 -11,20 -4,5 -6,7 -6,7z"></path>
   <path class="fil2" d="M1494 1243c-1,1 -16,-7 -31,-21 -15,-13 -24,-27 -23,-28 1,-1 12,11 26,25 15,13 28,22 28,24z"></path>
   <path class="fil11" d="M451 2127c0,0 5,21 39,-2 0,0 47,-10 71,-33 24,-23 28,-37 45,-39 17,-1 66,-8 67,-7 1,0 13,-28 -2,-33 -15,-4 -83,2 -83,2l-20 1 -3 -27 3 -25c0,0 -41,16 -40,28 0,0 -30,-9 -34,11l-43 124z"></path>
   <path class="fil2" d="M474 1690c-1,1 -2,-3 -6,-9 -3,-7 -7,-17 -12,-28 -11,-24 -24,-57 -37,-95 -14,-37 -25,-71 -32,-96 -3,-12 -6,-22 -8,-29 -1,-7 -2,-11 -2,-12 0,0 2,4 4,11 3,8 6,18 10,29 8,25 19,59 32,96 13,37 26,70 36,94 4,12 8,21 11,29 3,7 4,10 4,10z"></path>
   <path class="fil2" d="M951 1959c0,0 -2,5 -7,12 -4,8 -11,18 -21,31 -19,25 -48,57 -85,88 -37,30 -75,53 -103,66 -14,7 -26,12 -34,16 -8,3 -13,4 -13,4 0,0 4,-3 12,-6 8,-4 20,-9 33,-17 28,-14 65,-37 102,-67 36,-30 66,-62 85,-87 10,-12 18,-22 23,-29 5,-7 8,-11 8,-11z"></path>
   <path class="fil2" d="M309 1828c0,1 -22,6 -48,15 -26,10 -46,22 -47,20 0,-1 18,-14 45,-24 27,-10 50,-12 50,-11z"></path>
   <path class="fil12" d="M419 1559c-31,-13 -59,-51 -65,-84 -5,-25 2,-51 7,-76 14,41 31,89 51,140 2,7 4,13 7,19 0,1 0,1 0,1z"></path>
   <path class="fil12" d="M412 1539c-20,-51 -37,-99 -51,-140 2,-9 4,-18 5,-26 3,16 7,32 12,49 -1,0 -1,-1 -1,-1 0,0 0,0 0,0 0,1 1,5 2,12 2,7 5,17 8,29 6,21 15,48 25,77z"></path>
   <path class="fil10" d="M421 1560c-1,0 -2,-1 -2,-1 0,0 0,0 0,-1 -3,-6 -5,-12 -7,-19 -10,-29 -19,-56 -25,-77 -3,-12 -6,-22 -8,-29 -1,-7 -2,-11 -2,-12 0,0 0,0 0,0 0,0 0,1 1,1 12,47 27,96 43,138z"></path>
   <path class="fil12" d="M779 2216c-21,0 -42,-3 -62,-10 85,-38 176,-96 253,-148 -10,55 -45,104 -92,132 -30,18 -64,26 -99,26z"></path>
   <path class="fil2" d="M1172 1252c1,0 2,4 3,10 1,7 3,16 4,28 3,24 6,57 5,93 -1,36 -5,69 -9,92 -2,12 -4,22 -6,28 -1,6 -2,10 -3,10 0,0 2,-15 6,-38 3,-24 6,-56 7,-92 1,-36 -1,-69 -3,-92 -2,-24 -4,-38 -4,-39z"></path>
   <path class="fil13" d="M975 1156l0 -15 35 -53c2,21 5,41 8,62 -13,2 -28,4 -43,6z"></path>
   <path class="fil14" d="M964 1158l11 -17 0 15c-3,1 -7,2 -11,2z"></path>
   <path class="fil12" d="M770 1838c-72,0 -146,-23 -211,-56l405 -624c4,0 8,-1 11,-2 15,-2 30,-4 43,-6 24,167 45,336 44,505 -1,45 -4,94 -32,131 -16,21 -45,34 -71,34 -18,0 -36,-6 -47,-21 -43,27 -92,39 -142,39z"></path>
   <path class="fil2" d="M828 597c-48,-8 -98,13 -134,46 -36,33 -60,78 -79,123 -38,87 -60,181 -82,274 -32,137 -64,275 -72,416 -9,140 33,223 94,350l214 -29 0 -41 29 41 83 -13 25 -217 40 207 69 -6c69,-274 -9,-454 30,-733 9,-67 24,-133 24,-200 0,-67 -18,-137 -64,-185 -46,-49 -126,-69 -183,-33l6 0z"></path>
   <path class="fil3" d="M881 1764c0,0 0,-1 -1,-3 0,-3 -1,-6 -2,-10 -1,-8 -3,-20 -6,-35 -5,-31 -13,-77 -19,-132 -7,-56 -12,-123 -11,-198 1,-37 3,-76 9,-117 5,-40 14,-81 25,-123 24,-83 57,-158 73,-231 8,-36 13,-71 13,-104 0,-33 -5,-63 -14,-90 -9,-26 -21,-49 -34,-67 -14,-18 -28,-31 -40,-41 -12,-9 -23,-15 -30,-19 -4,-1 -7,-3 -9,-4 -2,0 -3,-1 -3,-1 0,0 1,0 3,1 2,1 5,2 9,3 7,4 19,9 31,19 13,9 27,23 41,41 13,18 26,40 35,67 9,27 14,58 15,91 0,34 -5,69 -13,105 -16,74 -49,149 -72,232 -11,41 -20,82 -26,122 -5,40 -7,79 -8,116 -2,74 3,141 9,197 6,56 13,101 18,132 2,16 4,28 5,36 1,4 1,7 2,9 0,3 0,4 0,4z"></path>
   <path class="fil3" d="M579 1621c0,0 0,-1 0,-2 0,-2 -1,-5 -1,-8 -1,-7 -2,-17 -3,-30 -1,-6 -1,-13 -2,-21 -1,-8 -1,-16 -2,-25 -1,-19 -2,-39 -2,-62 -1,-12 -1,-24 -1,-37 0,-12 0,-25 1,-39 0,-27 2,-56 4,-86 4,-61 12,-128 26,-197 13,-69 30,-134 48,-192 10,-29 19,-57 29,-82 5,-13 9,-25 14,-37 5,-11 9,-22 14,-33 8,-21 18,-40 25,-57 4,-8 8,-16 11,-23 4,-7 7,-13 10,-19 6,-11 11,-20 14,-26 2,-3 3,-5 4,-7 1,-1 1,-2 1,-2 0,0 0,1 -1,2 -1,2 -2,5 -3,7 -3,7 -8,16 -13,27 -3,6 -6,12 -10,19 -3,7 -6,15 -10,23 -8,17 -17,36 -25,57 -4,11 -9,22 -14,34 -4,11 -9,24 -13,36 -10,26 -19,53 -28,82 -18,58 -35,123 -49,192 -13,69 -21,135 -26,196 -2,30 -4,59 -4,86 -1,14 -1,27 -1,39 0,13 0,25 0,36 0,23 1,44 2,63 0,9 1,17 1,25 1,8 1,15 2,21 1,13 2,23 2,30 0,3 0,6 0,8 1,1 1,2 0,2z"></path>
   <path class="fil3" d="M698 1786c0,0 0,-1 -1,-2 0,-2 -1,-5 -2,-8 -2,-7 -5,-17 -9,-30 -2,-6 -4,-13 -7,-21 -2,-8 -4,-17 -6,-26 -4,-19 -10,-40 -14,-64 -2,-12 -5,-24 -7,-37 -3,-13 -4,-27 -6,-41 -2,-14 -4,-28 -5,-44 -2,-15 -3,-30 -4,-46 -4,-64 -5,-134 1,-208 6,-74 18,-143 31,-206 4,-15 7,-30 11,-45 3,-15 7,-29 11,-43 7,-27 15,-52 23,-75 7,-23 15,-44 21,-62 6,-18 13,-33 18,-46 5,-12 9,-22 11,-29 2,-3 3,-5 4,-7 0,-2 1,-3 1,-3 0,0 0,1 -1,3 -1,2 -2,5 -3,8 -2,7 -6,16 -11,29 -4,12 -10,28 -16,46 -6,18 -14,39 -21,62 -7,23 -15,48 -22,76 -4,13 -8,27 -11,42 -3,15 -7,30 -10,45 -13,63 -25,132 -31,205 -6,74 -6,144 -2,208 1,15 3,31 4,46 1,15 3,30 5,44 2,14 3,27 6,40 2,13 4,26 6,37 4,24 10,45 14,64 2,9 4,18 6,26 2,8 4,15 6,22 3,13 6,23 8,30 1,3 1,6 2,8 0,1 0,2 0,2z"></path>
   <path class="fil3" d="M999 1654c0,0 0,-1 -1,-2 -1,-2 -2,-5 -4,-9 -2,-3 -4,-8 -6,-13 -2,-5 -5,-11 -8,-18 -11,-28 -26,-69 -36,-122 -10,-52 -16,-117 -11,-187 3,-36 9,-73 18,-110 9,-38 20,-76 32,-115 12,-39 24,-77 32,-115 9,-37 14,-74 15,-109 1,-35 -2,-69 -10,-99 -8,-31 -21,-57 -35,-79 -30,-45 -67,-70 -94,-82 -14,-5 -25,-9 -33,-10 -3,-1 -6,-2 -8,-2 -2,0 -3,-1 -3,-1 0,0 1,0 3,0 2,1 5,1 9,2 7,1 19,4 33,9 27,12 65,37 96,82 15,22 28,49 36,80 8,30 11,64 10,100 0,35 -6,73 -14,110 -8,38 -20,76 -32,115 -12,39 -24,77 -33,115 -9,37 -14,74 -17,109 -6,70 0,134 10,187 9,52 23,93 34,121 3,7 5,13 7,19 2,5 4,9 6,13 1,4 2,6 3,8 1,2 1,3 1,3z"></path>
   <path class="fil2" d="M3928 4209c0,1 -880,2 -1964,2 -1085,0 -1964,-1 -1964,-2 0,-2 879,-3 1964,-3 1084,0 1964,1 1964,3l0 0z"></path>
  </g>
 </g>
</svg>