<svg xmlns="http://www.w3.org/2000/svg" xmlns:xlink="http://www.w3.org/1999/xlink" xml:space="preserve" width="1.23699in" height="1.35048in" style="shape-rendering:geometricPrecision; text-rendering:geometricPrecision; image-rendering:optimizeQuality; fill-rule:evenodd; clip-rule:evenodd" viewBox="0 0 466 509">
 <defs>
  <style type="text/css">
   <![CDATA[
    .fil0 {fill:#F4A622}
   ]]>
  </style>
 </defs>
 <g id="Layer_x0020_1">
  <metadata id="CorelCorpID_0Corel-Layer"></metadata>
  <path class="fil0" d="M192 300c9,-1 25,-6 33,-9 11,-4 21,-8 30,-12 26,-13 31,-16 53,-32 8,2 22,20 28,26 10,10 26,34 33,45 15,24 45,90 -10,90 -44,0 -104,-43 -133,-72 -3,-3 -6,-5 -9,-8 -5,-7 -8,-9 -13,-14l-12 -14zm-192 -167l0 -3c0,-5 1,-10 4,-13 19,-17 43,26 50,38 3,5 28,46 29,52 2,-2 2,-4 3,-7 1,-3 2,-5 3,-8 2,-5 4,-9 6,-13 4,-10 9,-17 14,-25 10,-16 19,-26 30,-39l24 -23c9,-8 36,-28 44,-34 8,-5 16,-10 24,-15 33,-17 71,-36 115,-41 28,-3 60,-5 83,9 4,2 8,5 11,9 29,35 -13,100 -30,125 -4,7 -22,31 -29,38l-28 30c-2,1 -3,2 -5,4 3,4 12,10 16,14 1,1 3,3 4,4l20 20c11,11 27,31 35,42 27,41 68,121 22,160 -21,18 -52,18 -78,14 -8,-2 -15,-4 -22,-6 -41,-14 -90,-45 -121,-76 -5,-5 -9,-9 -14,-14l-20 -22c-3,-3 -4,-5 -6,-8 -7,-8 -28,-39 -30,-40 -3,-2 -8,-1 -13,-2 -3,0 -7,-1 -11,-2 -5,-1 -8,-2 -12,-2 3,5 10,30 11,38 11,43 23,110 18,157 -1,5 1,10 -2,15 0,-122 -52,-239 -122,-335 -9,-12 -23,-28 -23,-41zm180 46c16,0 36,6 47,11 8,4 34,17 37,22 -21,11 -83,35 -106,14 -23,-22 -8,-47 22,-47zm127 8c-21,-11 -23,-16 -52,-27 -23,-9 -40,-14 -69,-14 -5,0 -6,1 -11,1l28 -30 31 -27c14,-12 46,-33 63,-41 27,-13 45,-20 78,-20 14,0 29,8 29,21 0,20 -7,31 -16,47 -8,13 -16,23 -24,34l-6 7c-2,2 -2,2 -3,4 -8,9 -16,17 -25,26 -1,1 -2,2 -3,3 -2,2 -3,2 -4,3 -5,5 -11,10 -16,13z"></path>
 </g>
</svg>