<svg xmlns="http://www.w3.org/2000/svg" xmlns:xlink="http://www.w3.org/1999/xlink" xml:space="preserve" width="4.27041in" height="3.6219in" style="shape-rendering:geometricPrecision; text-rendering:geometricPrecision; image-rendering:optimizeQuality; fill-rule:evenodd; clip-rule:evenodd" viewBox="0 0 549 465">
 <defs>
  <style type="text/css">
   <![CDATA[
    .fil4 {fill:#054D6E}
    .fil5 {fill:#0672A4}
    .fil3 {fill:#0999DB}
    .fil0 {fill:#4AB9EC}
    .fil1 {fill:#FADE55}
    .fil2 {fill:#FBEDA9}
    .fil7 {fill:#FF7703}
    .fil6 {fill:#FF9900}
   ]]>
  </style>
 </defs>
 <g id="Layer_x0020_1">
  <metadata id="CorelCorpID_0Corel-Layer"></metadata>
  <g id="_2443567745952">
   <path class="fil0" d="M226 465c-4,-2 -11,-3 -16,-5 -30,-12 -50,-46 -62,-77 -16,-40 -23,-87 -25,-134l-123 -1c4,49 22,94 50,129 32,40 77,69 127,82 14,3 31,6 49,6z"></path>
   <path class="fil0" d="M0 217l123 -1c2,-47 9,-94 25,-134 8,-20 17,-37 29,-51 22,-28 36,-25 49,-31 -17,0 -35,3 -48,6 -36,9 -64,23 -93,46l-15 13c-40,39 -66,94 -70,152z"></path>
   <path class="fil1" d="M391 345l45 0c20,-1 40,0 60,0 18,0 31,-3 42,-18 9,-10 10,-18 11,-31l0 -18c0,-21 0,-41 0,-62l-158 0 0 129z"></path>
   <path class="fil2" d="M233 249l0 55c4,19 15,32 31,38 15,5 47,3 65,3l62 0 0 -129 -158 0 0 33z"></path>
   <path class="fil3" d="M226 465l7 0 0 -161 0 -55 -110 0c2,47 9,94 25,134 12,31 32,65 62,77 5,2 12,3 16,5z"></path>
   <path class="fil3" d="M123 216l110 0 0 -32 0 -23 0 -161 -7 0c-13,6 -27,3 -49,31 -12,14 -21,31 -29,51 -16,40 -23,87 -25,134z"></path>
   <path class="fil1" d="M391 184l158 0 0 -4c0,-22 -1,-37 -21,-52 -13,-10 -29,-8 -47,-8 -15,0 -30,0 -45,0l-45 0 0 64z"></path>
   <path class="fil2" d="M233 161l0 23 158 0 0 -64 -62 0c-18,0 -50,-2 -65,3 -17,6 -27,19 -31,38z"></path>
   <path class="fil4" d="M329 120l62 0 45 0c-3,-10 -25,-37 -31,-44 -7,-9 -30,-28 -40,-36 -27,-17 -79,-41 -112,-39l-2 2c2,0 3,1 5,1 20,9 33,25 45,43 8,14 26,54 28,73z"></path>
   <path class="fil4" d="M253 464c28,2 74,-17 100,-32l37 -28c2,-1 3,-3 5,-5 3,-3 7,-6 10,-9 3,-5 5,-6 8,-10 3,-4 5,-7 8,-11 3,-4 5,-7 8,-12 2,-3 6,-9 7,-12l-45 0 -62 0c-2,18 -20,59 -28,73 -11,16 -21,28 -37,38 -7,5 -15,7 -17,8l6 0z"></path>
   <path class="fil5" d="M233 465c4,0 17,1 20,-1l-6 0c2,-1 10,-3 17,-8 16,-10 26,-22 37,-38 8,-14 26,-55 28,-73 -18,0 -50,2 -65,-3 -16,-6 -27,-19 -31,-38l0 161z"></path>
   <path class="fil5" d="M233 161c4,-19 14,-32 31,-38 15,-5 47,-3 65,-3 -2,-19 -20,-59 -28,-73 -12,-18 -25,-34 -45,-43 -2,0 -3,-1 -5,-1l2 -2c0,0 -1,0 -1,0l-19 -1 0 161z"></path>
   <polygon class="fil6" points="233,216 391,216 391,184 233,184 "></polygon>
   <polygon class="fil7" points="391,216 549,216 549,184 391,184 "></polygon>
   <polygon class="fil3" points="0,248 123,249 123,216 0,217 "></polygon>
   <polygon class="fil5" points="123,249 233,249 233,216 123,216 "></polygon>
  </g>
 </g>
</svg>