<svg xmlns="http://www.w3.org/2000/svg" xmlns:xlink="http://www.w3.org/1999/xlink" xml:space="preserve" width="1.05317in" height="1.05317in" style="shape-rendering:geometricPrecision; text-rendering:geometricPrecision; image-rendering:optimizeQuality; fill-rule:evenodd; clip-rule:evenodd" viewBox="0 0 316 316">
 <defs>
  <style type="text/css">
   <![CDATA[
    .fil2 {fill:#005F37}
    .fil3 {fill:#008F53}
    .fil0 {fill:#00BF6F}
    .fil1 {fill:white}
   ]]>
  </style>
 </defs>
 <g id="Layer_x0020_1">
  <metadata id="CorelCorpID_0Corel-Layer"></metadata>
  <g id="_2407509150096">
   <path class="fil0" d="M301 270c-2,1 -79,-12 -88,-13 -4,-1 -28,-4 -29,-5 0,-2 1,-1 3,-2l67 -10c6,-1 12,-2 18,-3 2,0 2,1 3,2l7 8c1,2 3,4 5,6 1,2 3,3 4,5 2,2 4,4 5,6l4 4c0,1 0,1 1,2zm-180 0c-2,1 -77,-12 -83,-12l-20 -4c-2,0 -7,0 -7,-2 1,0 1,0 2,0l94 -15c4,-1 7,-1 10,-2 13,-2 12,-4 10,7 -1,3 -1,6 -2,9 0,3 -3,18 -4,19zm33 -62c0,-2 1,-2 3,-2 1,0 2,0 4,0 3,-1 6,-1 8,-2l67 -10c1,0 2,1 3,2 6,8 15,17 22,26 0,1 1,1 1,3 -1,0 -24,-4 -27,-4 -6,-1 -80,-12 -81,-13zm-134 -3c0,-1 1,-1 3,-1 16,-3 111,-18 113,-18 1,2 -5,33 -6,37 -2,0 -24,-4 -28,-4 -9,-2 -18,-3 -27,-5 -10,-1 -19,-3 -28,-4l-21 -3c-3,-1 -6,-1 -6,-2zm7 -49c2,-1 56,-7 59,-7 20,-3 40,-5 60,-8 20,-2 39,-4 59,-7 5,0 10,-1 15,-1 8,-1 7,-1 3,3 -2,4 -6,8 -9,11 -1,2 -2,3 -4,5 -1,1 -2,3 -4,4 1,1 12,14 13,15l6 8c1,0 1,1 0,2 -1,0 -11,-2 -11,-2l-182 -21c-4,-1 -5,0 -5,-2zm10 -46c1,-1 3,-1 4,-1l102 -16c12,-2 11,-3 10,2 0,1 0,3 -1,4 0,4 -4,28 -5,29 -1,0 -24,-4 -28,-4l-76 -12c-3,-1 -6,-1 -6,-2zm122 -4c1,-1 5,-1 7,-1l79 -13c19,-3 20,-5 13,3l-13 16c-1,1 -2,1 -2,2 -1,1 -1,1 -2,2 -5,6 -2,6 -11,4l-65 -11c-3,0 -6,0 -6,-2zm-113 -44c0,-1 0,-1 1,-1 32,-4 63,-10 94,-15 4,0 7,-1 10,-1 12,-2 12,-3 11,2 0,2 -1,3 -1,5l-3 18c-1,2 -1,9 -2,10 -1,0 -1,0 -2,0l-95 -15c-2,0 -13,-2 -13,-3zm138 0c1,-1 25,-4 29,-5 9,-1 19,-3 29,-4 6,-1 57,-10 58,-9 1,0 1,-1 0,1 0,0 -5,7 -6,7l-21 25c-2,0 -19,-3 -23,-3l-62 -10c-3,-1 -4,0 -4,-2zm-184 254l293 0 23 0 0 -316 -316 0 0 316z"></path>
   <path class="fil1" d="M27 156c0,2 1,1 5,2l182 21c0,0 10,2 11,2 1,-1 1,-2 0,-2l-6 -8c-1,-1 -12,-14 -13,-15 2,-1 3,-3 4,-4 2,-2 3,-3 4,-5 3,-3 7,-7 9,-11 4,-4 5,-4 -3,-3 -5,0 -10,1 -15,1 -20,3 -39,5 -59,7 -20,3 -40,5 -60,8 -3,0 -57,6 -59,7z"></path>
   <path class="fil1" d="M20 205c0,1 3,1 6,2l21 3c9,1 18,3 28,4 9,2 18,3 27,5 4,0 26,4 28,4 1,-4 7,-35 6,-37 -2,0 -97,15 -113,18 -2,0 -3,0 -3,1z"></path>
   <path class="fil1" d="M121 270c1,-1 4,-16 4,-19 1,-3 1,-6 2,-9 2,-11 3,-9 -10,-7 -3,1 -6,1 -10,2l-94 15c-1,0 -1,0 -2,0 0,2 5,2 7,2l20 4c6,0 81,13 83,12z"></path>
   <path class="fil1" d="M37 110c0,1 3,1 6,2l76 12c4,0 27,4 28,4 1,-1 5,-25 5,-29 1,-1 1,-3 1,-4 1,-5 2,-4 -10,-2l-102 16c-1,0 -3,0 -4,1z"></path>
   <path class="fil1" d="M46 62c0,1 11,3 13,3l95 15c1,0 1,0 2,0 1,-1 1,-8 2,-10l3 -18c0,-2 1,-3 1,-5 1,-5 1,-4 -11,-2 -3,0 -6,1 -10,1 -31,5 -62,11 -94,15 -1,0 -1,0 -1,1z"></path>
   <path class="fil1" d="M184 62c0,2 1,1 4,2l62 10c4,0 21,3 23,3l21 -25c1,0 6,-7 6,-7 1,-2 1,-1 0,-1 -1,-1 -52,8 -58,9 -10,1 -20,3 -29,4 -4,1 -28,4 -29,5z"></path>
   <path class="fil1" d="M301 270c-1,-1 -1,-1 -1,-2l-4 -4c-1,-2 -3,-4 -5,-6 -1,-2 -3,-3 -4,-5 -2,-2 -4,-4 -5,-6l-7 -8c-1,-1 -1,-2 -3,-2 -6,1 -12,2 -18,3l-67 10c-2,1 -3,0 -3,2 1,1 25,4 29,5 9,1 86,14 88,13z"></path>
   <path class="fil1" d="M154 208c1,1 75,12 81,13 3,0 26,4 27,4 0,-2 -1,-2 -1,-3 -7,-9 -16,-18 -22,-26 -1,-1 -2,-2 -3,-2l-67 10c-2,1 -5,1 -8,2 -2,0 -3,0 -4,0 -2,0 -3,0 -3,2z"></path>
   <path class="fil1" d="M159 106c0,2 3,2 6,2l65 11c9,2 6,2 11,-4 1,-1 1,-1 2,-2 0,-1 1,-1 2,-2l13 -16c7,-8 6,-6 -13,-3l-79 13c-2,0 -6,0 -7,1z"></path>
   <polygon class="fil2" points="0,316 0,316 0,316 0,0 316,0 316,0 316,0 0,0 "></polygon>
   <polygon class="fil3" points="0,316 0,316 316,316 316,0 316,0 316,316 293,316 "></polygon>
  </g>
 </g>
</svg>