<svg xmlns="http://www.w3.org/2000/svg" xmlns:xlink="http://www.w3.org/1999/xlink" xml:space="preserve" width="3.74072in" height="3.74072in" style="shape-rendering:geometricPrecision; text-rendering:geometricPrecision; image-rendering:optimizeQuality; fill-rule:evenodd; clip-rule:evenodd" viewBox="0 0 411 411">
 <defs>
  <style type="text/css">
   <![CDATA[
    .fil0 {fill:#4192CA}
    .fil5 {fill:#5CB3CF}
    .fil4 {fill:#78472E}
    .fil2 {fill:#87B335}
    .fil1 {fill:#DD4A3A}
    .fil6 {fill:#FD7A2E}
    .fil3 {fill:#FDB42E}
    .fil7 {fill:#FFB57D}
   ]]>
  </style>
 </defs>
 <g id="Layer_x0020_1">
  <metadata id="CorelCorpID_0Corel-Layer"></metadata>
  <g id="_2443763462720">
   <path class="fil0" d="M156 156l28 1 0 13 -28 0 0 -14zm-117 -156l4 0 246 0 21 0c11,1 20,4 26,14 3,6 4,8 4,16 0,14 0,28 0,41l0 2 0 61c0,11 0,23 0,34 0,6 0,12 0,18 0,6 -3,10 -4,14 -2,1 -4,-2 -6,-4l-38 -38c-7,-7 -14,-14 -22,-22 -6,-6 -12,-15 -26,-16 -26,-3 -43,26 -28,48 2,3 3,3 5,6 9,9 17,19 26,28 1,1 9,10 10,11l-123 0 -104 0c-6,1 -13,-2 -17,-4 -10,-7 -13,-14 -13,-27l0 -103 0 -47c0,-6 1,-11 1,-13 7,-18 22,-19 38,-19zm-11 156l29 0 0 14 -3 1 -23 0 -3 -1 0 -14zm128 -28c-1,-4 0,-10 0,-14l28 0 -1 14 -27 0zm-43 -14l29 0 0 14 -3 0 -23 0 -3 0 0 -14zm-42 0l28 0 0 14 -3 0 -22 0 -3 0 0 -14zm-43 0l29 0 0 14 -3 0 -1 0 -21 0 -1 0 -3 0 0 -14zm1 -76c2,-6 5,-9 13,-9 7,0 14,0 21,0 20,0 22,1 22,21l0 14c0,21 -2,21 -22,21 -8,0 -15,1 -22,0 -8,0 -11,-3 -13,-9l1 -38zm262 -9l13 0 0 21 -2 0 -9 0 -2 0 0 -21zm-29 0l14 0 0 21 -14 0 0 -21zm-28 0l14 0 0 2 0 6 0 13 -14 0 0 -4 0 -17zm-29 0l15 0 0 21 -3 0 -9 0 -3 0 0 -21z"></path>
   <path class="fil1" d="M43 249c1,2 3,5 3,8l10 24c7,20 21,28 41,21l178 -69c-1,-2 -17,-19 -18,-20l-123 0c-2,2 -83,34 -91,36z"></path>
   <polygon class="fil2" points="283,341 283,411 411,411 411,340 "></polygon>
   <path class="fil3" d="M29 38l-1 12 22 0 0 14 -22 0 0 12c2,6 5,9 13,9 7,1 14,0 22,0 20,0 22,0 22,-21l-21 0 0 -14 21 0c0,-20 -2,-21 -22,-21 -7,0 -14,0 -21,0 -8,0 -11,3 -13,9z"></path>
   <path class="fil1" d="M340 134c0,11 0,23 0,34 0,6 0,12 0,18 0,6 -3,10 -4,14 1,4 4,9 24,0 11,-4 18,-16 17,-29 -1,-5 -14,-41 -17,-46 -1,1 0,1 -1,1l-19 8z"></path>
   <path class="fil4" d="M43 249c8,-2 89,-34 91,-36l-104 0c1,5 4,13 6,18 1,3 2,5 4,8 1,4 2,7 3,10z"></path>
   <path class="fil4" d="M340 134l19 -8c1,0 0,0 1,-1l-20 -52 0 61z"></path>
   <polygon class="fil5" points="71,128 74,128 96,128 99,128 99,114 71,114 "></polygon>
   <polygon class="fil5" points="28,170 31,171 54,171 57,170 57,156 28,156 "></polygon>
   <polygon class="fil5" points="113,128 116,128 139,128 142,128 142,114 113,114 "></polygon>
   <polygon class="fil5" points="28,128 31,128 32,128 53,128 54,128 57,128 57,114 28,114 "></polygon>
   <path class="fil5" d="M156 128l27 0 1 -14 -28 0c0,4 -1,10 0,14z"></path>
   <polygon class="fil5" points="156,170 184,170 184,157 156,156 "></polygon>
   <polygon class="fil5" points="205,50 208,50 217,50 220,50 220,29 205,29 "></polygon>
   <polygon class="fil5" points="234,46 234,50 248,50 248,37 248,31 248,29 234,29 "></polygon>
   <polygon class="fil6" points="85,64 85,50 64,50 64,64 "></polygon>
   <polygon class="fil5" points="262,50 276,50 276,29 262,29 "></polygon>
   <polygon class="fil6" points="28,76 28,64 50,64 50,50 28,50 29,38 "></polygon>
   <polygon class="fil5" points="291,50 293,50 302,50 304,50 304,29 291,29 "></polygon>
   <path class="fil7" d="M340 73l20 52c3,5 16,41 17,46 1,13 -6,25 -17,29 -11,5 -21,5 -30,-4l-38 -38c-7,-7 -14,-14 -22,-22 -6,-6 -12,-15 -26,-16 -26,-3 -43,26 -28,48 2,3 3,3 5,6 9,9 17,19 26,28 1,1 9,10 10,11 1,1 17,18 18,20 0,0 0,1 0,1 0,3 -6,12 -8,24 -3,10 -4,19 -3,32 1,19 10,36 19,51l128 -1 0 -2 0 -169c-1,-11 -6,-24 -10,-31 -5,-10 -11,-17 -18,-24l-43 -43 0 2z"></path>
  </g>
 </g>
</svg>