<svg xmlns="http://www.w3.org/2000/svg" xmlns:xlink="http://www.w3.org/1999/xlink" xml:space="preserve" width="5.34705in" height="5.35206in" style="shape-rendering:geometricPrecision; text-rendering:geometricPrecision; image-rendering:optimizeQuality; fill-rule:evenodd; clip-rule:evenodd" viewBox="0 0 494 495">
 <defs>
  <style type="text/css">
   <![CDATA[
    .fil3 {fill:#445A64}
    .fil4 {fill:#455963}
    .fil2 {fill:#FAFAF9}
    .fil1 {fill:#FFA000}
    .fil0 {fill:#FFC007}
    .fil5 {fill:#FFC107}
   ]]>
  </style>
 </defs>
 <g id="Layer_x0020_1">
  <metadata id="CorelCorpID_0Corel-Layer"></metadata>
  <path class="fil0" d="M478 246c10,23 16,48 16,75 0,96 -78,174 -174,174 -42,0 -81,-15 -112,-41 -2,-2 -4,-3 -6,-5 -24,-21 -42,-50 -51,-81 -29,-82 25,-185 109,-214 7,-3 14,-5 22,-7 5,0 24,-2 26,-4 20,0 41,1 60,8 31,10 62,27 82,52 11,14 21,28 28,43z"></path>
  <path class="fil1" d="M143 308c1,0 5,-29 6,-33 14,-30 20,-47 33,-64l-22 -28 -54 0 0 40c0,4 -1,6 -3,9 -2,2 -5,3 -8,3 -3,0 -6,-1 -8,-3 -2,-2 -3,-5 -3,-9l0 -40 -4 0c-3,0 -6,-1 -8,-3 -3,-2 -4,-5 -4,-9 0,-4 1,-6 4,-9 2,-2 5,-3 8,-3l4 0 0 -13 -4 0c-3,0 -6,-1 -8,-3 -3,-2 -4,-5 -4,-8 0,-4 1,-7 4,-9 2,-2 5,-3 8,-3l4 0 0 -41c0,-3 1,-6 3,-8 2,-2 5,-4 8,-4 4,0 8,2 10,5l36 48 54 0 0 -41c0,-3 1,-6 3,-8 2,-2 5,-4 8,-4 3,0 6,2 8,4 2,2 3,5 3,8l0 41 4 0c4,0 7,1 9,3 2,2 3,5 3,9 0,3 -1,6 -3,8 -2,2 -5,3 -9,3l-4 0 0 13 4 0c4,0 7,1 9,3 1,1 2,3 2,4 9,-4 18,-9 28,-12 7,-3 14,-5 22,-7 5,0 24,-2 26,-4 1,-9 -7,-37 -10,-45 -15,-38 -45,-70 -84,-86 -16,-7 -32,-11 -48,-12l-24 0c-75,6 -136,67 -142,142l0 23c1,16 5,32 12,49 10,25 28,48 49,63 11,8 23,15 36,21 8,3 36,11 46,10zm16 -162l9 13 27 0 0 -13 -36 0zm-26 0l-27 0 0 13 36 0 -9 -13zm-27 -23l9 0 -9 -12 0 12zm80 60l9 11 0 -11 -9 0z"></path>
  <path class="fil2" d="M329 389l0 -59c17,0 40,13 41,29 0,17 -23,30 -41,30zm-21 -142l0 60c-18,-2 -41,-12 -41,-30 0,-17 23,-27 41,-30zm0 -20c-82,11 -82,90 0,101l0 62c-16,-2 -31,-10 -37,-19 -5,-7 -3,-16 -9,-20 -7,-5 -15,1 -15,9 -1,30 33,47 61,50 0,10 -1,21 10,21 12,1 11,-11 11,-21 19,-5 25,-4 41,-14 28,-20 25,-55 0,-72 -15,-11 -21,-11 -41,-15l0 -61c9,-1 20,4 26,8 8,5 13,10 15,22 2,12 16,12 19,4 8,-19 -17,-49 -53,-54 -10,-2 -7,0 -7,-10 -1,-16 -15,-14 -19,-8 -3,5 -1,11 -2,17z"></path>
  <path class="fil3" d="M328 31c0,3 2,6 4,7 2,2 4,3 8,3 39,3 71,28 84,64 1,2 2,6 3,9 -7,-2 -22,-12 -26,-12 -9,0 -19,14 -3,22 5,2 9,4 14,7 6,2 25,13 29,13 10,1 15,-15 19,-22 2,-6 13,-25 13,-30 0,-8 -13,-18 -21,-1l-7 12c-10,-44 -58,-83 -107,-83 -5,0 -10,6 -10,11z"></path>
  <path class="fil4" d="M20 402c0,7 13,16 21,1 2,-3 5,-9 6,-12 3,2 3,5 4,8 6,18 20,36 35,48 21,17 79,40 79,15 0,-13 -16,-9 -32,-14 -12,-3 -21,-8 -30,-15 -16,-11 -27,-27 -34,-45 -1,-2 -2,-6 -3,-9 6,2 15,7 20,10 15,7 25,-11 9,-20 -9,-4 -38,-19 -43,-20 -6,0 -10,4 -12,9 -2,5 -4,9 -7,14 -3,6 -13,23 -13,30z"></path>
  <path class="fil5" d="M329 389c18,0 41,-13 41,-30 -1,-16 -24,-29 -41,-29l0 59z"></path>
  <path class="fil5" d="M308 247c-18,3 -41,13 -41,30 0,18 23,28 41,30l0 -60z"></path>
 </g>
</svg>