<svg xmlns="http://www.w3.org/2000/svg" xmlns:xlink="http://www.w3.org/1999/xlink" xml:space="preserve" width="9.19418in" height="6.51334in" style="shape-rendering:geometricPrecision; text-rendering:geometricPrecision; image-rendering:optimizeQuality; fill-rule:evenodd; clip-rule:evenodd" viewBox="0 0 857 607">
 <defs>
  <style type="text/css">
   <![CDATA[
    .fil0 {fill:url(#id0)}
    .fil4 {fill:url(#id1)}
    .fil3 {fill:url(#id2)}
    .fil1 {fill:url(#id3)}
    .fil7 {fill:url(#id4)}
    .fil8 {fill:url(#id5)}
    .fil6 {fill:url(#id6)}
    .fil2 {fill:url(#id7)}
    .fil5 {fill:url(#id8)}
   ]]>
  </style>
  <linearGradient id="id0" gradientUnits="userSpaceOnUse" x1="720.154" y1="266.88" x2="794.091" y2="15.493">
   <stop offset="0" style="stop-opacity:1; stop-color:#FD4885"></stop>
   <stop offset="1" style="stop-opacity:1; stop-color:#FFA28D"></stop>
  </linearGradient>
  <linearGradient id="id1" gradientUnits="userSpaceOnUse" xlink:href="#id0" x1="569.998" y1="612.704" x2="589.668" y2="545.827">
  </linearGradient>
  <linearGradient id="id2" gradientUnits="userSpaceOnUse" xlink:href="#id0" x1="642.555" y1="518.875" x2="671.617" y2="420.063">
  </linearGradient>
  <linearGradient id="id3" gradientUnits="userSpaceOnUse" xlink:href="#id0" x1="107.354" y1="589.259" x2="215.166" y2="222.697">
  </linearGradient>
  <linearGradient id="id4" gradientUnits="userSpaceOnUse" xlink:href="#id0" x1="413.919" y1="615.128" x2="430.233" y2="559.66">
  </linearGradient>
  <linearGradient id="id5" gradientUnits="userSpaceOnUse" xlink:href="#id0" x1="275.437" y1="610.862" x2="289.242" y2="563.926">
  </linearGradient>
  <linearGradient id="id6" gradientUnits="objectBoundingBox" xlink:href="#id0" x1="43.0993%" y1="118.366%" x2="56.901%" y2="0%">
  </linearGradient>
  <linearGradient id="id7" gradientUnits="userSpaceOnUse" xlink:href="#id0" x1="391.868" y1="398.263" x2="419.049" y2="305.846">
  </linearGradient>
  <linearGradient id="id8" gradientUnits="userSpaceOnUse" xlink:href="#id0" x1="537.46" y1="415.361" x2="554.373" y2="357.856">
  </linearGradient>
 </defs>
 <g id="Layer_x0020_1">
  <metadata id="CorelCorpID_0Corel-Layer"></metadata>
  <path class="fil0" d="M657 94c0,43 17,76 36,112 3,7 8,14 12,21 3,4 4,7 7,11 3,4 5,6 7,10 7,9 24,34 35,34 13,0 16,-2 25,-14 6,-7 10,-12 15,-19 9,-14 20,-28 27,-43 29,-56 61,-123 7,-177 -12,-13 -39,-29 -64,-29 -33,0 -56,7 -78,29 -13,13 -29,40 -29,65zm95 -13c11,-3 22,4 24,14 4,11 -4,22 -13,25 -26,7 -37,-32 -11,-39z"></path>
  <path class="fil1" d="M11 305c-3,13 -6,13 -10,42 -1,2 -1,3 -1,5l0 22c1,9 2,17 3,24 7,30 20,53 34,76 14,23 30,43 47,63 7,8 57,62 68,68 2,1 3,2 5,2l9 0c7,-1 12,-7 14,-9 13,-10 50,-49 61,-63l13 -15c25,-32 69,-96 69,-151 0,-34 -7,-58 -22,-85 -69,-116 -230,-98 -284,8 -2,4 -3,8 -6,13zm231 64c-2,53 -60,95 -115,68 -20,-9 -38,-29 -44,-56 -9,-42 17,-64 22,-74 6,-3 11,-8 19,-12 49,-27 117,3 118,74z"></path>
  <path class="fil2" d="M364 320c0,26 3,37 19,58 8,11 41,35 58,20 9,-9 8,-24 -2,-32 -9,-6 -28,-6 -34,-34 -1,-8 2,-25 -16,-30 -12,-3 -25,7 -25,18z"></path>
  <path class="fil3" d="M629 429c0,18 16,25 16,57 0,9 -3,15 -3,25 0,17 43,35 43,-19 0,-23 0,-33 -10,-55 -19,-46 -46,-20 -46,-8z"></path>
  <path class="fil4" d="M539 607l32 0c20,0 67,-12 67,-36 0,-6 -2,-11 -5,-14 -16,-14 -28,1 -45,6 -33,11 -59,-7 -66,20 -3,11 6,24 17,24z"></path>
  <path class="fil5" d="M486 383c0,15 6,23 22,22l61 1c10,1 21,6 31,-4 11,-11 11,-37 -29,-37l-68 0c-8,0 -17,9 -17,18z"></path>
  <path class="fil6" d="M412 266c0,27 33,19 39,19l60 0c22,0 27,-23 16,-34 -3,-4 -8,-6 -14,-6l-73 0c-16,0 -28,5 -28,21z"></path>
  <path class="fil7" d="M380 607l84 0c24,0 24,-40 0,-40l-84 0c-24,0 -23,40 0,40z"></path>
  <path class="fil8" d="M242 585c0,13 7,22 18,22l45 0c23,0 23,-40 0,-40l-45 0c-9,0 -18,10 -18,18z"></path>
  <path class="fil6" d="M562 266c0,27 33,19 39,19l60 0c22,0 27,-23 16,-34 -4,-4 -9,-6 -15,-6l-72 0c-16,0 -28,5 -28,21z"></path>
 </g>
</svg>