<?xml version="1.0" encoding="UTF-8"?>
<!DOCTYPE svg PUBLIC "-//W3C//DTD SVG 1.1//EN" "http://www.w3.org/Graphics/SVG/1.1/DTD/svg11.dtd">
<!-- Creator: CorelDRAW X7 -->
<svg xmlns="http://www.w3.org/2000/svg" xml:space="preserve" width="1.19521in" height="0.44828in" version="1.1" style="shape-rendering:geometricPrecision; text-rendering:geometricPrecision; image-rendering:optimizeQuality; fill-rule:evenodd; clip-rule:evenodd"
viewBox="0 0 1050 394"
 xmlns:xlink="http://www.w3.org/1999/xlink">
 <defs>
  <style type="text/css">
   <![CDATA[
    .fil2 {fill:#FEFEFE;fill-rule:nonzero}
    .fil0 {fill:#ACD153;fill-rule:nonzero}
    .fil1 {fill:#69A24D;fill-rule:nonzero}
    .fil3 {fill:#333333;fill-rule:nonzero}
   ]]>
  </style>
 </defs>
 <g id="Layer_x0020_1">
  <metadata id="CorelCorpID_0Corel-Layer"/>
  <g id="_2443316407232">
   <path class="fil0" d="M160 14c2,0 4,0 6,2 -16,7 -34,27 -41,65 -11,4 -21,7 -31,10 9,-29 29,-77 66,-77zm15 14c3,8 5,19 5,34 0,1 0,2 0,2 -13,4 -26,8 -39,12 7,-29 21,-43 34,-48zm37 26c-6,2 -12,4 -19,6 0,-1 0,-2 0,-4 0,-12 -2,-23 -4,-31 11,2 18,15 23,29zm91 23c0,-2 -2,-3 -3,-4 -2,0 -32,-2 -32,-2 0,0 -21,-21 -23,-23 -2,-2 -7,-2 -9,-1 0,0 -4,1 -11,3 -7,-20 -20,-38 -42,-38 0,0 -1,0 -2,0 -6,-8 -13,-12 -20,-12 -51,0 -75,63 -83,96 -19,6 -33,10 -35,11 -11,3 -12,4 -13,14 -1,8 -30,231 -30,231l225 42 121 -26c0,0 -42,-289 -43,-291z"/>
   <path class="fil1" d="M300 73c-2,0 -32,-2 -32,-2 0,0 -21,-21 -23,-23 -1,-1 -2,-1 -3,-2l-17 348 121 -26c0,0 -42,-289 -43,-291 0,-2 -2,-3 -3,-4z"/>
   <path class="fil2" d="M183 141l-15 44c0,0 -13,-7 -29,-7 -24,0 -25,15 -25,19 0,20 53,28 53,76 0,37 -23,62 -56,62 -38,0 -58,-24 -58,-24l10 -34c0,0 21,17 38,17 11,0 16,-9 16,-15 0,-27 -44,-28 -44,-72 0,-37 26,-72 80,-72 20,0 30,6 30,6z"/>
  </g>
  <g id="_2443316422400">
   <path class="fil3" d="M442 249c-8,-4 -13,-8 -13,-13 0,-7 6,-11 15,-11 10,0 20,5 20,5l7 -23c0,0 -7,-5 -26,-5 -28,0 -47,16 -47,38 0,13 9,22 21,29 9,5 13,9 13,15 0,6 -5,11 -14,11 -13,0 -26,-7 -26,-7l-8 22c0,0 12,8 32,8 28,0 48,-14 48,-39 0,-13 -10,-23 -22,-30z"/>
   <path class="fil3" d="M554 202c-14,0 -24,6 -33,17l0 -1 12 -63 -32 0 -30 161 31 0 11 -55c4,-21 14,-34 25,-34 7,0 9,5 9,12 0,4 0,10 -1,14l-12 63 32 0 12 -65c1,-7 2,-15 2,-21 0,-17 -9,-28 -26,-28z"/>
   <path class="fil3" d="M636 294c-11,0 -15,-9 -15,-20 0,-18 9,-48 26,-48 11,0 15,10 15,19 0,19 -9,49 -26,49zm15 -92c-37,0 -63,34 -63,72 0,25 16,44 44,44 37,0 62,-33 62,-72 0,-23 -13,-44 -43,-44z"/>
   <path class="fil3" d="M745 295c-8,0 -13,-5 -13,-5l5 -29c4,-20 14,-33 25,-33 9,0 12,9 12,17 0,21 -12,50 -29,50zm30 -93c-21,0 -34,19 -34,19l0 0 2 -17 -28 0c-1,11 -4,28 -6,41l-22 116 31 0 9 -47 1 0c0,0 6,4 18,4 37,0 61,-38 61,-76 0,-21 -9,-40 -32,-40z"/>
   <path class="fil3" d="M852 157c-10,0 -18,8 -18,18 0,9 6,16 15,16l1 0c9,0 18,-7 18,-19 0,-9 -6,-15 -16,-15z"/>
   <polygon class="fil3" points="808,316 840,316 861,204 829,204 "/>
   <path class="fil3" d="M941 204l-22 0 2 -5c1,-11 8,-20 18,-20 6,0 10,1 10,1l7 -25c0,0 -6,-2 -18,-2 -11,0 -22,3 -30,10 -11,9 -16,23 -19,36l-1 5 -14 0 -5 24 15 0 -17 88 32 0 16 -88 22 0 4 -24z"/>
   <path class="fil3" d="M1017 204c0,0 -20,50 -28,77l-1 0c0,-9 -8,-77 -8,-77l-33 0 19 103c1,2 0,4 0,5 -4,7 -10,14 -18,19 -6,4 -12,7 -17,9l8 27c7,-2 20,-7 31,-17 15,-14 28,-35 41,-63l39 -83 -33 0z"/>
  </g>
 </g>
</svg>
