<svg xmlns="http://www.w3.org/2000/svg" xmlns:xlink="http://www.w3.org/1999/xlink" xml:space="preserve" width="6.10416in" height="6.55137in" style="shape-rendering:geometricPrecision; text-rendering:geometricPrecision; image-rendering:optimizeQuality; fill-rule:evenodd; clip-rule:evenodd" viewBox="0 0 5948 6384">
 <defs>
  <style type="text/css">
   <![CDATA[
    .fil9 {fill:#F2F0EF}
    .fil24 {fill:#002177}
    .fil25 {fill:#FF4C00}
    .fil5 {fill:#FEFEFE;fill-rule:nonzero}
    .fil10 {fill:#FEC52B;fill-rule:nonzero}
    .fil13 {fill:#FBB12F;fill-rule:nonzero}
    .fil23 {fill:#F69894;fill-rule:nonzero}
    .fil1 {fill:#F2F0EF;fill-rule:nonzero}
    .fil15 {fill:#E29B38;fill-rule:nonzero}
    .fil2 {fill:#DCDDDB;fill-rule:nonzero}
    .fil12 {fill:#D0D3D3;fill-rule:nonzero}
    .fil21 {fill:#B9716F;fill-rule:nonzero}
    .fil0 {fill:#BFC3C2;fill-rule:nonzero}
    .fil14 {fill:#BCBFBF;fill-rule:nonzero}
    .fil7 {fill:#969A9A;fill-rule:nonzero}
    .fil19 {fill:#838689;fill-rule:nonzero}
    .fil20 {fill:#727778;fill-rule:nonzero}
    .fil11 {fill:#282829;fill-rule:nonzero}
    .fil8 {fill:#292D2F;fill-rule:nonzero}
    .fil22 {fill:#283438;fill-rule:nonzero}
    .fil18 {fill:#27363C;fill-rule:nonzero}
    .fil16 {fill:#224A55;fill-rule:nonzero}
    .fil17 {fill:#233E47;fill-rule:nonzero}
    .fil26 {fill:black;fill-rule:nonzero}
    .fil6 {fill:#505050;fill-rule:nonzero}
    .fil3 {fill:red;fill-rule:nonzero}
    .fil4 {fill:#FF8400;fill-rule:nonzero}
    .fil27 {fill:white;fill-rule:nonzero}
   ]]>
  </style>
 </defs>
 <g id="Layer_x0020_1">
  <metadata id="CorelCorpID_0Corel-Layer"></metadata>
  <polygon class="fil0" points="659,1240 673,1240 673,0 659,0 "></polygon>
  <polygon class="fil1" points="1097,1655 1062,1731 270,1731 235,1655 573,1422 759,1422 "></polygon>
  <polygon class="fil2" points="783,1197 759,1422 573,1422 549,1197 "></polygon>
  <polygon class="fil2" points="1097,1655 1062,1731 270,1731 235,1655 "></polygon>
  <polygon class="fil0" points="1584,994 1598,994 1598,0 1584,0 "></polygon>
  <polygon class="fil1" points="2022,1409 1987,1486 1195,1486 1160,1409 1497,1176 1684,1176 "></polygon>
  <polygon class="fil2" points="1708,951 1684,1176 1497,1176 1474,951 "></polygon>
  <polygon class="fil2" points="2021,1409 1987,1486 1195,1486 1160,1409 "></polygon>
  <path class="fil2" d="M3003 2201l3 1050c0,59 -48,106 -106,107l-1666 4c-59,0 -106,-47 -107,-106l-2 -1050c0,-55 44,-99 98,-100l1681 -4c54,0 99,44 99,99z"></path>
  <path class="fil3" d="M2735 3104c0,54 -44,98 -98,98 -54,0 -98,-44 -98,-98 0,-54 44,-98 98,-98 54,0 97,44 98,98z"></path>
  <path class="fil4" d="M2855 3103c0,54 -44,98 -98,98 -54,0 -97,-43 -98,-97 0,-54 44,-98 98,-98 54,0 98,43 98,97z"></path>
  <path class="fil5" d="M2786 2416l-159 1c-37,0 -67,-30 -67,-67 0,-37 30,-67 66,-67l160 0c37,0 67,29 67,66 0,37 -30,67 -67,67z"></path>
  <path class="fil6" d="M1271 2752l-14 9 -2 1c-1,0 -3,-1 -3,-2 -1,-2 -1,-4 1,-5l20 -12c1,-1 4,0 5,1l0 3 0 94c0,2 -1,3 -3,3 -2,0 -4,-1 -4,-3l0 -89z"></path>
  <path class="fil6" d="M1303 2838l48 -43c6,-6 9,-13 9,-20 0,-6 -3,-12 -7,-17 -5,-6 -12,-9 -20,-9 -6,0 -12,2 -17,7l-5 4c-2,2 -4,2 -5,0 -2,-1 -2,-4 0,-5l5 -4c6,-6 14,-9 22,-9 9,0 18,3 25,11 6,6 9,14 9,22 0,9 -4,18 -11,25l-41 37 48 0c2,0 4,2 4,4 0,1 -2,3 -4,3l-57 0 0 0 -3 -1c-1,-1 -1,-4 0,-5z"></path>
  <path class="fil6" d="M1451 2748l-26 27c6,2 12,5 17,10 7,6 11,15 11,24 0,9 -4,18 -11,25 -6,6 -15,10 -24,10 -9,0 -18,-3 -25,-10 -1,-2 -1,-4 0,-5 2,-2 4,-2 6,0 5,5 12,8 19,8 7,-1 14,-3 19,-8 6,-6 8,-13 8,-20 0,-7 -2,-14 -8,-19 -5,-6 -12,-8 -19,-8l-3 -2 0 0c-2,-1 -2,-3 0,-5l25 -26 -39 0c-2,0 -4,-2 -4,-4 0,-2 2,-3 4,-3l48 0c2,0 3,1 3,3l0 2 -1 1z"></path>
  <path class="fil6" d="M1537 2816l0 -60 -48 60 48 0zm0 7l-55 0 -1 0 -2 -1c-1,-1 -1,-3 0,-5l59 -74 0 0c1,-1 3,-2 5,0l1 1 0 1 0 0 0 71 7 0c2,0 4,1 4,3 0,2 -2,4 -4,4l-7 0 0 17c0,2 -1,4 -3,4 -2,0 -4,-2 -4,-4l0 -17z"></path>
  <path class="fil6" d="M1665 2833c-1,-1 -1,-4 0,-5 2,-1 4,-1 6,0 5,5 12,8 19,8 7,0 14,-3 19,-8 6,-6 8,-12 8,-19 0,-8 -2,-15 -8,-20 -5,-5 -12,-8 -19,-8 -7,0 -14,3 -19,8 -2,2 -4,2 -5,0l-1 -1 0 0 -1 0 0 -2 0 0 5 -41 2 -3 2 -1 48 0c2,0 3,1 3,4 0,2 -1,3 -3,3l-45 0 -3 31c5,-3 11,-5 17,-5 9,0 18,3 24,10 7,7 11,15 11,25 0,8 -4,17 -10,24 -7,7 -16,10 -25,10 -9,0 -18,-3 -25,-10z"></path>
  <path class="fil6" d="M1760 2810l1 2 -1 1c2,13 14,23 27,23 15,0 27,-12 27,-27 0,-14 -12,-26 -27,-26 -15,0 -27,12 -27,26l0 1zm3 -47c7,-12 18,-22 35,-22 2,0 4,1 4,3 0,2 -2,4 -3,4 -15,1 -24,8 -30,19 -4,6 -6,13 -7,20 6,-7 15,-11 25,-12 19,0 34,16 34,34 0,19 -15,34 -34,34 -18,0 -33,-14 -34,-32 0,-3 0,-5 0,-7 0,-14 3,-29 10,-41z"></path>
  <path class="fil6" d="M1858 2838l38 -90 -50 0c-2,0 -3,-1 -3,-3 0,-2 1,-4 3,-4l54 0 3 0 1 2 1 2 -1 1 -39 95c-1,1 -2,2 -3,2l-2 0c-2,-1 -3,-3 -2,-5z"></path>
  <path class="fil6" d="M1959 2776c8,0 14,-7 14,-15 0,-7 -6,-14 -14,-14 -8,0 -14,7 -14,14 0,8 6,15 14,15zm0 60c15,-1 26,-12 26,-27 0,-14 -11,-26 -26,-26 -14,0 -26,12 -26,26 0,15 12,27 26,27zm0 -96c12,0 21,10 21,21 0,8 -3,14 -8,18 12,5 20,17 20,30 0,19 -14,33 -33,34 -18,0 -33,-15 -33,-34 0,-13 8,-25 20,-30 -5,-4 -8,-10 -8,-17 0,-12 9,-22 21,-22z"></path>
  <path class="fil6" d="M2167 2773c0,-14 -11,-26 -26,-26 -15,0 -27,12 -27,26 0,15 12,27 27,27 15,0 27,-12 26,-27zm-26 -33c17,0 31,13 33,30l1 0c0,3 0,6 0,9 0,14 -3,29 -10,41 -7,12 -19,21 -35,22l-1 0c-2,0 -3,-1 -3,-3 0,-2 1,-4 3,-4 14,-1 24,-8 30,-19 3,-6 6,-13 7,-20 -6,7 -15,11 -25,11 -19,0 -34,-15 -34,-34 0,-18 15,-33 34,-33z"></path>
  <path class="fil6" d="M2208 2791c0,12 3,24 8,31 6,8 13,13 20,13 7,0 14,-5 20,-13 5,-8 8,-19 8,-31 0,-13 -3,-24 -9,-32 -5,-8 -12,-12 -19,-12 -7,0 -14,4 -20,12 -5,8 -8,19 -8,32zm-7 0c0,-14 3,-27 9,-36 7,-9 15,-15 26,-15 10,0 19,6 25,15 7,9 10,22 10,36 1,13 -3,26 -9,35 -7,10 -16,16 -26,16 -10,0 -19,-6 -25,-16 -7,-9 -10,-21 -10,-35z"></path>
  <path class="fil6" d="M2319 2750l-15 8 -2 1c-1,0 -2,-1 -3,-2 -1,-2 0,-4 2,-5l19 -12c2,-1 4,0 5,2l1 2 0 94c0,2 -2,4 -4,4 -2,0 -3,-2 -3,-4l0 -88z"></path>
  <path class="fil6" d="M2351 2835l48 -43c5,-5 8,-12 8,-20 0,-6 -2,-12 -7,-17 -5,-6 -12,-9 -19,-9 -6,0 -13,3 -18,7l-5 5c-1,1 -4,1 -5,0 -1,-2 -1,-4 0,-5l5 -5c7,-6 15,-9 23,-9 9,0 18,4 25,11 6,6 8,15 8,22 0,9 -3,19 -11,25l-40 37 48 0c2,0 4,2 4,4 0,2 -2,3 -4,3l-57 1 -1 0 -2 -1c-1,-2 -1,-4 0,-6z"></path>
  <path class="fil6" d="M2586 2745l-26 27c6,2 13,5 18,10 6,6 10,15 10,24 0,9 -4,18 -10,25 -7,6 -16,10 -25,10 -9,0 -18,-3 -24,-10 -2,-1 -2,-4 0,-5 1,-2 3,-2 5,0 5,5 12,8 19,8 7,0 14,-3 19,-8 6,-6 8,-13 8,-20 0,-7 -2,-14 -8,-19 -5,-5 -12,-8 -19,-8l-3 -2 0 0c-1,-1 -1,-3 0,-5l25 -26 -39 0c-2,0 -3,-2 -3,-4 0,-2 1,-3 3,-3l48 0c2,0 4,1 4,3l-1 2 -1 1z"></path>
  <path class="fil6" d="M2672 2813l0 -60 -48 60 48 0zm0 7l-55 0 0 0 -3 -1c-1,-1 -1,-3 0,-5l59 -74 0 0c1,-1 4,-2 5,0l1 1 0 1 0 0 1 71 6 0c3,0 4,1 4,3 0,2 -1,4 -3,4l-7 0 0 17c0,2 -2,4 -4,4 -2,0 -3,-2 -3,-4l-1 -17z"></path>
  <path class="fil6" d="M2713 2831c-1,-2 -1,-4 0,-6 2,-1 4,-1 5,0 6,6 13,8 20,8 7,0 13,-2 19,-8 5,-5 8,-12 8,-19 0,-7 -3,-14 -8,-20 -5,-5 -12,-7 -19,-7 -8,0 -14,2 -20,8 -1,1 -4,1 -5,0l-1 -1 0 -1 0 0 0 -1 0 -1 5 -41 1 -3 3 -1 47 0c2,0 4,2 4,4 0,2 -2,3 -4,3l-44 1 -4 30c5,-3 11,-5 18,-5 9,0 17,3 24,10 7,7 10,16 10,25 0,9 -3,18 -10,24 -7,7 -16,11 -24,11 -9,0 -18,-4 -25,-10z"></path>
  <path class="fil6" d="M2808 2807l0 2 0 1c2,13 13,23 27,23 14,0 26,-12 26,-27 0,-14 -12,-26 -27,-26 -14,0 -26,12 -26,27l0 0zm2 -47c7,-12 19,-21 36,-22 2,0 4,2 4,3 0,3 -2,4 -4,4 -14,1 -23,8 -30,19 -3,6 -5,13 -7,20 6,-7 15,-11 25,-11 19,0 34,15 34,33 0,19 -15,34 -33,34 -19,0 -34,-14 -34,-32 -1,-2 -1,-5 -1,-7 1,-14 3,-28 10,-41z"></path>
  <polygon class="fil7" points="2177,3061 1285,3064 1285,3020 2177,3017 "></polygon>
  <polygon class="fil7" points="1916,3159 1285,3161 1285,3117 1916,3115 "></polygon>
  <polygon class="fil7" points="2498,2327 2054,2328 2053,2285 2498,2283 "></polygon>
  <polygon class="fil1" points="5059,1237 5826,1237 5826,470 5059,470 "></polygon>
  <polygon class="fil8" points="152,5708 857,5705 1563,5703 2974,5701 4385,5703 5091,5705 5797,5708 5091,5711 4385,5712 2974,5715 1563,5712 857,5711 "></polygon>
  <path class="fil9" d="M5948 6012c-2,205 -1333,372 -2974,372 -1642,0 -2974,-167 -2974,-373 0,-205 1332,-372 2974,-372 1641,0 2972,167 2974,372l0 1z"></path>
  <path class="fil8" d="M5466 1204l0 4358c0,128 -102,232 -228,232l-2254 0c-126,0 -229,-104 -229,-232l0 -4358c0,-129 103,-232 229,-232l2254 0c126,0 228,103 228,232z"></path>
  <path class="fil5" d="M5324 1423l0 3996c0,122 -92,221 -205,221l-2017 0c-113,0 -204,-99 -204,-221l0 -3996c0,-249 91,-304 204,-304l404 0c24,0 43,26 43,59l0 15c0,77 42,78 95,78l934 0c52,0 95,-1 95,-78l0 -15c0,-33 18,-59 42,-59l404 0c113,0 205,76 205,304z"></path>
  <path class="fil5" d="M4238 1174l-255 0c-8,0 -15,-7 -15,-16 0,-9 7,-16 15,-16l255 0c9,0 16,7 16,16 0,9 -7,16 -16,16z"></path>
  <path class="fil10" d="M4985 3897c-21,40 -74,75 -74,75 0,0 -52,-35 -74,-75 -25,-45 -11,-92 25,-92 39,0 49,50 49,50 0,0 11,-50 50,-50 35,0 49,47 24,92z"></path>
  <polygon class="fil2" points="3224,1493 3427,1493 3427,1460 3224,1460 "></polygon>
  <polygon class="fil2" points="3224,1560 3427,1560 3427,1527 3224,1527 "></polygon>
  <polygon class="fil2" points="3224,1627 3427,1627 3427,1593 3224,1593 "></polygon>
  <polygon class="fil2" points="4476,1610 4454,1627 4385,1537 4408,1520 "></polygon>
  <path class="fil2" d="M4432 1482c20,26 15,65 -11,85 -27,20 -65,15 -86,-11 -20,-27 -15,-65 12,-86 26,-20 65,-15 85,12z"></path>
  <path class="fil5" d="M4413 1497c12,15 9,38 -7,51 -16,12 -39,9 -51,-7 -12,-16 -9,-39 7,-51 16,-12 38,-9 51,7z"></path>
  <path class="fil2" d="M4739 1552c-21,40 -74,75 -74,75 0,0 -52,-35 -74,-75 -25,-46 -11,-92 24,-92 40,0 50,49 50,49 0,0 10,-49 50,-49 35,0 49,46 24,92z"></path>
  <path class="fil2" d="M4860 1583l107 0 24 -89 -153 0 22 89zm115 10l-123 0 -31 -124 -12 0 0 -10 20 0 6 24 170 0 -30 110z"></path>
  <polygon class="fil2" points="4955,1613 4946,1593 4877,1593 4870,1613 4860,1610 4869,1583 4953,1583 4964,1609 "></polygon>
  <polygon class="fil2" points="4837,1518 4990,1518 4990,1508 4837,1508 "></polygon>
  <polygon class="fil2" points="4984,1545 4846,1544 4846,1533 4984,1534 "></polygon>
  <polygon class="fil2" points="4851,1571 4977,1571 4977,1560 4851,1560 "></polygon>
  <polygon class="fil2" points="4907,1588 4918,1588 4918,1489 4907,1489 "></polygon>
  <polygon class="fil2" points="4937,1589 4926,1588 4934,1489 4945,1490 "></polygon>
  <polygon class="fil2" points="4956,1589 4946,1587 4964,1488 4974,1490 "></polygon>
  <polygon class="fil2" points="4889,1589 4881,1490 4891,1489 4899,1588 "></polygon>
  <polygon class="fil2" points="4869,1589 4851,1490 4861,1488 4879,1587 "></polygon>
  <path class="fil2" d="M4960 1605c-4,0 -7,3 -7,6 0,4 3,7 7,7 3,0 6,-3 6,-7 0,-3 -3,-6 -6,-6zm0 23c-10,0 -17,-7 -17,-17 0,-9 7,-16 17,-16 9,0 16,7 16,16 0,10 -7,17 -16,17z"></path>
  <path class="fil2" d="M4865 1605c-3,0 -6,3 -6,6 0,4 3,7 6,7 4,0 7,-3 7,-7 0,-3 -3,-6 -7,-6zm0 23c-9,0 -16,-7 -16,-17 0,-9 7,-16 16,-16 10,0 17,7 17,16 0,10 -7,17 -17,17z"></path>
  <path class="fil10" d="M5043 1456c0,25 -20,45 -45,45 -25,0 -45,-20 -45,-45 0,-25 20,-45 45,-45 25,0 45,20 45,45z"></path>
  <path class="fil5" d="M5004 1431l0 49c0,3 -2,5 -4,5 -3,0 -5,-2 -5,-5l0 -41 -3 2 -3 0c-1,0 -3,0 -4,-2 -1,-2 0,-5 2,-6l10 -6 0 -1 1 0 0 0 1 0 0 0 1 0 1 0 0 0 0 0 1 1 0 0 1 0 0 0 0 1 0 0 1 0 0 0 0 1 0 0 0 1 0 0 0 1z"></path>
  <polygon class="fil2" points="3224,3870 4339,3870 4339,3838 3224,3838 "></polygon>
  <polygon class="fil2" points="3224,3929 4183,3929 4183,3897 3224,3897 "></polygon>
  <polygon class="fil0" points="3112,2884 3067,2842 3112,2800 3119,2808 3082,2842 3119,2877 "></polygon>
  <path class="fil0" d="M3103 2781c-34,0 -62,27 -62,61 0,34 28,62 62,62 33,0 61,-28 61,-62 0,-34 -28,-61 -61,-61zm0 136c-42,0 -75,-33 -75,-75 0,-41 33,-75 75,-75 41,0 74,34 74,75 0,42 -33,75 -74,75z"></path>
  <polygon class="fil0" points="5110,2884 5103,2877 5140,2842 5103,2808 5110,2800 5155,2842 "></polygon>
  <path class="fil0" d="M5119 2781c-34,0 -61,27 -61,61 0,34 27,62 61,62 34,0 61,-28 61,-62 0,-34 -27,-61 -61,-61zm0 136c-41,0 -75,-33 -75,-75 0,-41 34,-75 75,-75 41,0 75,34 75,75 0,42 -34,75 -75,75z"></path>
  <path class="fil11" d="M3273 4022c9,0 18,3 25,8 1,1 1,3 0,4 0,2 -2,2 -3,1 -6,-5 -14,-8 -22,-8 -20,0 -36,15 -36,35 0,18 16,34 36,34 8,0 16,-3 21,-8 2,-1 4,-1 4,1 1,1 1,3 0,4 -7,5 -16,8 -25,8 -23,0 -41,-17 -41,-39 0,-23 18,-40 41,-40z"></path>
  <path class="fil11" d="M3343 4096c11,0 20,-10 20,-22 0,-12 -9,-22 -20,-22 -11,0 -21,10 -21,22 0,12 10,22 21,22zm0 -50c14,0 26,13 26,28 0,15 -12,27 -26,27 -15,0 -26,-12 -26,-27 0,-15 11,-28 26,-28z"></path>
  <path class="fil11" d="M3390 4025c0,-1 1,-2 3,-2 1,0 3,1 3,2l0 74c0,1 -2,2 -3,2 -2,0 -3,-1 -3,-2l0 -74z"></path>
  <path class="fil11" d="M3441 4096c11,0 20,-10 20,-22 0,-12 -9,-22 -20,-22 -11,0 -21,10 -21,22 0,12 10,22 21,22zm0 -50c14,0 26,13 26,28 0,15 -12,27 -26,27 -15,0 -26,-12 -26,-27 0,-15 11,-28 26,-28z"></path>
  <path class="fil11" d="M3485 4049c0,-1 1,-3 3,-3 1,0 2,2 2,3l0 12 1 -1c4,-7 12,-14 22,-14 2,0 3,2 3,3 0,2 -1,3 -3,3 -7,0 -12,4 -16,9 -3,5 -6,10 -6,13l-1 0 0 25c0,1 -1,2 -2,2 -2,0 -3,-1 -3,-2l0 -50z"></path>
  <polygon class="fil10" points="3366,5264 4855,5264 4855,4951 3366,4951 "></polygon>
  <path class="fil5" d="M3614 5126l-14 -36 -13 36 27 0zm7 19l-41 0 -8 22c-2,3 -5,5 -9,5l-3 0c-5,-2 -7,-7 -6,-12l37 -99c2,-4 6,-6 9,-6 4,0 8,2 9,6l37 99c2,5 0,10 -5,12l-3 0c-4,0 -8,-2 -9,-5l-8 -22z"></path>
  <path class="fil5" d="M3688 5154l11 0c22,0 40,-18 40,-41 0,-22 -18,-40 -40,-40l-11 0 0 81zm-19 9l0 -99c0,-5 4,-9 10,-9l20 0c32,0 58,26 58,58 0,33 -26,59 -58,59l-20 0c-6,0 -10,-4 -10,-9z"></path>
  <path class="fil5" d="M3804 5154l10 0c23,0 40,-18 40,-41 0,-22 -17,-40 -40,-40l-10 0 0 81zm-19 9l0 -99c0,-5 4,-9 9,-9l20 0c33,0 59,26 59,58 0,33 -26,59 -59,59l-20 0c-5,0 -9,-4 -9,-9z"></path>
  <path class="fil5" d="M4028 5073l-26 0 0 90c0,5 -4,9 -9,9 -6,0 -10,-4 -10,-9l0 -90 -26 0c-6,0 -10,-4 -10,-9 0,-5 4,-9 10,-9l71 0c6,0 10,4 10,9 0,5 -4,9 -10,9z"></path>
  <path class="fil5" d="M4147 5112c0,-12 -5,-22 -12,-30 -7,-7 -16,-11 -26,-11 -11,0 -20,4 -27,11 -7,8 -12,18 -12,30 0,11 5,22 12,29 7,8 16,12 27,12 10,0 19,-4 26,-12 7,-7 12,-18 12,-29zm2 -43c10,11 17,26 17,43 0,17 -7,31 -17,42 -10,11 -25,18 -40,18 -16,0 -31,-7 -41,-18 -11,-11 -17,-25 -17,-42 0,-17 6,-32 17,-43 10,-11 25,-18 41,-18 15,0 30,7 40,18z"></path>
  <path class="fil5" d="M4244 5112c0,-33 28,-60 62,-61 15,0 28,5 39,13 4,4 5,10 1,14 -3,4 -9,5 -13,2 -7,-6 -17,-9 -27,-9 -12,0 -22,4 -30,12 -8,7 -13,17 -13,29 0,11 5,22 13,29 8,8 18,12 30,12 10,0 19,-3 27,-9 4,-3 10,-2 13,2 4,4 3,10 -1,13 -11,9 -24,13 -39,13 -34,0 -62,-27 -62,-60z"></path>
  <path class="fil5" d="M4430 5126l-14 -36 -14 36 28 0zm7 19l-41 0 -9 22c-1,3 -5,5 -8,5l-3 0c-5,-2 -8,-7 -6,-12l37 -99c2,-4 5,-6 9,-6 4,0 7,2 9,6l37 99c2,5 -1,10 -5,12l-4 0c-3,0 -7,-2 -8,-5l-8 -22z"></path>
  <path class="fil5" d="M4539 5091c0,-10 -7,-18 -17,-18l-21 0 0 35 21 0c10,0 17,-8 17,-17zm24 67c2,5 -1,11 -6,12 -1,0 -2,1 -4,1l0 0c-1,0 -4,-1 -6,-2 -3,-1 -4,-4 -6,-6 -2,-5 -3,-11 -3,-20 0,-3 -1,-6 -2,-7 -1,-2 -3,-4 -5,-5 -4,-3 -8,-4 -10,-4l-20 0 0 36c0,5 -4,9 -9,9 -5,0 -9,-4 -9,-9l0 -99c0,-5 4,-9 9,-9l30 0c20,0 36,16 36,36 0,11 -5,21 -13,27 2,2 4,4 6,7 3,5 5,11 5,18 0,5 1,8 1,10 3,1 5,3 6,5z"></path>
  <path class="fil5" d="M4659 5073l-27 0 0 90c0,5 -4,9 -9,9 -5,0 -9,-4 -9,-9l0 -90 -27 0c-5,0 -9,-4 -9,-9 0,-5 4,-9 9,-9l72 0c5,0 9,4 9,9 0,5 -4,9 -9,9z"></path>
  <polygon class="fil1" points="3224,3729 4998,3729 4998,1955 3224,1955 "></polygon>
  <path class="fil2" d="M4841 3531c0,56 -327,101 -730,101 -403,0 -730,-45 -730,-101 0,-56 327,-102 730,-102 403,0 730,46 730,102z"></path>
  <path class="fil10" d="M4554 3524l-886 0c-240,0 -201,-191 -144,-392 58,-201 143,-506 357,-506 214,0 230,0 230,0 0,0 16,0 230,0 214,0 299,305 356,506 58,201 96,392 -143,392z"></path>
  <path class="fil12" d="M3839 2630c2,-2 5,-3 8,-3 1,0 3,0 4,1 -4,1 -8,1 -12,2z"></path>
  <path class="fil13" d="M3847 2645c-6,0 -10,-4 -10,-9 0,-2 1,-4 2,-6 4,-1 8,-1 12,-2 3,2 5,5 5,8 0,5 -4,9 -9,9z"></path>
  <path class="fil13" d="M3998 2645c-5,0 -10,-4 -10,-9 0,-5 5,-9 10,-9 5,0 9,4 9,9 0,5 -4,9 -9,9z"></path>
  <path class="fil13" d="M4149 2645c-5,0 -10,-4 -10,-9 0,-5 5,-9 10,-9 5,0 9,4 9,9 0,5 -4,9 -9,9z"></path>
  <path class="fil13" d="M4300 2645c-5,0 -10,-4 -10,-9 0,-5 5,-9 10,-9 5,0 9,4 9,9 0,5 -4,9 -9,9z"></path>
  <path class="fil13" d="M3696 2839c-6,0 -10,-4 -10,-9 0,-5 4,-9 10,-9 5,0 9,4 9,9 0,5 -4,9 -9,9z"></path>
  <path class="fil13" d="M3847 2839c-6,0 -10,-4 -10,-9 0,-5 4,-9 10,-9 5,0 9,4 9,9 0,5 -4,9 -9,9z"></path>
  <path class="fil13" d="M3998 2839c-5,0 -10,-4 -10,-9 0,-5 5,-9 10,-9 5,0 9,4 9,9 0,5 -4,9 -9,9z"></path>
  <path class="fil13" d="M4149 2839c-5,0 -10,-4 -10,-9 0,-5 5,-9 10,-9 5,0 9,4 9,9 0,5 -4,9 -9,9z"></path>
  <path class="fil13" d="M4300 2839c-5,0 -10,-4 -10,-9 0,-5 5,-9 10,-9 5,0 9,4 9,9 0,5 -4,9 -9,9z"></path>
  <path class="fil13" d="M4451 2839c-5,0 -10,-4 -10,-9 0,-5 5,-9 10,-9 5,0 9,4 9,9 0,5 -4,9 -9,9z"></path>
  <path class="fil13" d="M3771 2740c-5,0 -9,-4 -9,-10 0,-5 4,-9 9,-9 5,0 9,4 9,9 0,6 -4,10 -9,10z"></path>
  <path class="fil13" d="M4073 2740c-5,0 -9,-4 -9,-10 0,-5 4,-9 9,-9 5,0 9,4 9,9 0,6 -4,10 -9,10z"></path>
  <path class="fil13" d="M4224 2740c-5,0 -9,-4 -9,-10 0,-5 4,-9 9,-9 5,0 9,4 9,9 0,6 -4,10 -9,10z"></path>
  <path class="fil13" d="M4526 2740c-5,0 -9,-4 -9,-9 0,-5 3,-8 6,-9 4,4 7,8 11,13 -1,3 -5,5 -8,5z"></path>
  <path class="fil13" d="M3696 3033c-6,0 -10,-4 -10,-9 0,-5 4,-9 10,-9 5,0 9,4 9,9 0,5 -4,9 -9,9z"></path>
  <path class="fil13" d="M3847 3033c-6,0 -10,-4 -10,-9 0,-5 4,-9 10,-9 5,0 9,4 9,9 0,5 -4,9 -9,9z"></path>
  <path class="fil13" d="M3998 3033c-5,0 -10,-4 -10,-9 0,-5 5,-9 10,-9 5,0 9,4 9,9 0,5 -4,9 -9,9z"></path>
  <path class="fil13" d="M4149 3033c-5,0 -10,-4 -10,-9 0,-5 5,-9 10,-9 5,0 9,4 9,9 0,5 -4,9 -9,9z"></path>
  <path class="fil13" d="M4300 3033c-5,0 -10,-4 -10,-9 0,-5 5,-9 10,-9 5,0 9,4 9,9 0,5 -4,9 -9,9z"></path>
  <path class="fil13" d="M4451 3033c-5,0 -10,-4 -10,-9 0,-5 5,-9 10,-9 5,0 9,4 9,9 0,5 -4,9 -9,9z"></path>
  <path class="fil13" d="M4602 3033c-5,0 -10,-4 -10,-9 0,-5 5,-9 10,-9 5,0 9,4 9,9 0,5 -4,9 -9,9z"></path>
  <path class="fil13" d="M3620 2934c-5,0 -9,-4 -9,-9 0,-5 4,-10 9,-10 5,0 9,5 9,10 0,5 -4,9 -9,9z"></path>
  <path class="fil13" d="M3771 2934c-5,0 -9,-4 -9,-9 0,-5 4,-10 9,-10 5,0 9,5 9,10 0,5 -4,9 -9,9z"></path>
  <path class="fil13" d="M3922 2934c-5,0 -9,-4 -9,-9 0,-5 4,-10 9,-10 5,0 9,5 9,10 0,5 -4,9 -9,9z"></path>
  <path class="fil13" d="M4073 2934c-5,0 -9,-4 -9,-9 0,-5 4,-10 9,-10 5,0 9,5 9,10 0,5 -4,9 -9,9z"></path>
  <path class="fil13" d="M4224 2934c-5,0 -9,-4 -9,-9 0,-5 4,-10 9,-10 5,0 9,5 9,10 0,5 -4,9 -9,9z"></path>
  <path class="fil13" d="M4375 2934c-5,0 -9,-4 -9,-9 0,-5 4,-10 9,-10 5,0 9,5 9,10 0,5 -4,9 -9,9z"></path>
  <path class="fil13" d="M4526 2934c-5,0 -9,-4 -9,-9 0,-5 4,-10 9,-10 5,0 9,5 9,10 0,5 -4,9 -9,9z"></path>
  <path class="fil13" d="M3545 3227c-6,0 -10,-4 -10,-9 0,-5 4,-9 10,-9 5,0 9,4 9,9 0,5 -4,9 -9,9z"></path>
  <path class="fil13" d="M3696 3227c-6,0 -10,-4 -10,-9 0,-5 4,-9 10,-9 5,0 9,4 9,9 0,5 -4,9 -9,9z"></path>
  <path class="fil13" d="M3847 3227c-6,0 -10,-4 -10,-9 0,-5 4,-9 10,-9 5,0 9,4 9,9 0,5 -4,9 -9,9z"></path>
  <path class="fil13" d="M3998 3227c-5,0 -10,-4 -10,-9 0,-5 5,-9 10,-9 5,0 9,4 9,9 0,5 -4,9 -9,9z"></path>
  <path class="fil13" d="M4149 3227c-5,0 -10,-4 -10,-9 0,-5 5,-9 10,-9 5,0 9,4 9,9 0,5 -4,9 -9,9z"></path>
  <path class="fil13" d="M4300 3227c-5,0 -10,-4 -10,-9 0,-5 5,-9 10,-9 5,0 9,4 9,9 0,5 -4,9 -9,9z"></path>
  <path class="fil13" d="M4451 3227c-5,0 -10,-4 -10,-9 0,-5 5,-9 10,-9 5,0 9,4 9,9 0,5 -4,9 -9,9z"></path>
  <path class="fil13" d="M4602 3227c-5,0 -10,-4 -10,-9 0,-5 5,-9 10,-9 5,0 9,4 9,9 0,5 -4,9 -9,9z"></path>
  <path class="fil13" d="M3620 3128c-5,0 -9,-4 -9,-9 0,-5 4,-9 9,-9 5,0 9,4 9,9 0,5 -4,9 -9,9z"></path>
  <path class="fil13" d="M3771 3128c-5,0 -9,-4 -9,-9 0,-5 4,-9 9,-9 5,0 9,4 9,9 0,5 -4,9 -9,9z"></path>
  <path class="fil13" d="M3922 3128c-5,0 -9,-4 -9,-9 0,-5 4,-9 9,-9 5,0 9,4 9,9 0,5 -4,9 -9,9z"></path>
  <path class="fil13" d="M4073 3128c-5,0 -9,-4 -9,-9 0,-5 4,-9 9,-9 5,0 9,4 9,9 0,5 -4,9 -9,9z"></path>
  <path class="fil13" d="M4224 3128c-5,0 -9,-4 -9,-9 0,-5 4,-9 9,-9 5,0 9,4 9,9 0,5 -4,9 -9,9z"></path>
  <path class="fil13" d="M4375 3128c-5,0 -9,-4 -9,-9 0,-5 4,-9 9,-9 5,0 9,4 9,9 0,5 -4,9 -9,9z"></path>
  <path class="fil13" d="M4526 3128c-5,0 -9,-4 -9,-9 0,-5 4,-9 9,-9 5,0 9,4 9,9 0,5 -4,9 -9,9z"></path>
  <path class="fil13" d="M4677 3128c-5,0 -9,-4 -9,-9 0,-5 4,-9 9,-9 5,0 9,4 9,9 0,5 -4,9 -9,9z"></path>
  <path class="fil13" d="M3545 3421c-6,0 -10,-4 -10,-9 0,-5 4,-9 10,-9 5,0 9,4 9,9 0,5 -4,9 -9,9z"></path>
  <path class="fil13" d="M3696 3421c-6,0 -10,-4 -10,-9 0,-5 4,-9 10,-9 5,0 9,4 9,9 0,5 -4,9 -9,9z"></path>
  <path class="fil13" d="M3847 3421c-6,0 -10,-4 -10,-9 0,-5 4,-9 10,-9 5,0 9,4 9,9 0,5 -4,9 -9,9z"></path>
  <path class="fil13" d="M3998 3421c-5,0 -10,-4 -10,-9 0,-5 5,-9 10,-9 5,0 9,4 9,9 0,5 -4,9 -9,9z"></path>
  <path class="fil13" d="M4149 3421c-5,0 -10,-4 -10,-9 0,-5 5,-9 10,-9 5,0 9,4 9,9 0,5 -4,9 -9,9z"></path>
  <path class="fil13" d="M4300 3421c-5,0 -10,-4 -10,-9 0,-5 5,-9 10,-9 5,0 9,4 9,9 0,5 -4,9 -9,9z"></path>
  <path class="fil13" d="M4451 3421c-5,0 -10,-4 -10,-9 0,-5 5,-9 10,-9 5,0 9,4 9,9 0,5 -4,9 -9,9z"></path>
  <path class="fil13" d="M4602 3421c-5,0 -10,-4 -10,-9 0,-5 5,-9 10,-9 5,0 9,4 9,9 0,5 -4,9 -9,9z"></path>
  <path class="fil13" d="M3620 3322c-5,0 -9,-4 -9,-9 0,-5 4,-9 9,-9 5,0 9,4 9,9 0,5 -4,9 -9,9z"></path>
  <path class="fil13" d="M3771 3322c-5,0 -9,-4 -9,-9 0,-5 4,-9 9,-9 5,0 9,4 9,9 0,5 -4,9 -9,9z"></path>
  <path class="fil13" d="M3922 3322c-5,0 -9,-4 -9,-9 0,-5 4,-9 9,-9 5,0 9,4 9,9 0,5 -4,9 -9,9z"></path>
  <path class="fil13" d="M4073 3322c-5,0 -9,-4 -9,-9 0,-5 4,-9 9,-9 5,0 9,4 9,9 0,5 -4,9 -9,9z"></path>
  <path class="fil13" d="M4224 3322c-5,0 -9,-4 -9,-9 0,-5 4,-9 9,-9 5,0 9,4 9,9 0,5 -4,9 -9,9z"></path>
  <path class="fil13" d="M4375 3322c-5,0 -9,-4 -9,-9 0,-5 4,-9 9,-9 5,0 9,4 9,9 0,5 -4,9 -9,9z"></path>
  <path class="fil13" d="M4526 3322c-5,0 -9,-4 -9,-9 0,-5 4,-9 9,-9 5,0 9,4 9,9 0,5 -4,9 -9,9z"></path>
  <path class="fil13" d="M4677 3322c-5,0 -9,-4 -9,-9 0,-5 4,-9 9,-9 5,0 9,4 9,9 0,5 -4,9 -9,9z"></path>
  <path class="fil13" d="M3620 3516c-5,0 -9,-4 -9,-9 0,-5 4,-9 9,-9 5,0 9,4 9,9 0,5 -4,9 -9,9z"></path>
  <path class="fil13" d="M3771 3516c-5,0 -9,-4 -9,-9 0,-5 4,-9 9,-9 5,0 9,4 9,9 0,5 -4,9 -9,9z"></path>
  <path class="fil13" d="M3922 3516c-5,0 -9,-4 -9,-9 0,-5 4,-9 9,-9 5,0 9,4 9,9 0,5 -4,9 -9,9z"></path>
  <path class="fil13" d="M4073 3516c-5,0 -9,-4 -9,-9 0,-5 4,-9 9,-9 5,0 9,4 9,9 0,5 -4,9 -9,9z"></path>
  <path class="fil13" d="M4224 3516c-5,0 -9,-4 -9,-9 0,-5 4,-9 9,-9 5,0 9,4 9,9 0,5 -4,9 -9,9z"></path>
  <path class="fil13" d="M4375 3516c-5,0 -9,-4 -9,-9 0,-5 4,-9 9,-9 5,0 9,4 9,9 0,5 -4,9 -9,9z"></path>
  <path class="fil13" d="M4526 3516c-5,0 -9,-4 -9,-9 0,-5 4,-9 9,-9 5,0 9,4 9,9 0,5 -4,9 -9,9z"></path>
  <path class="fil14" d="M4671 3500c1,0 2,-1 3,-2 -1,1 -2,2 -3,2z"></path>
  <path class="fil13" d="M4670 3501c2,-2 3,-3 5,-3 0,0 0,0 -1,0 -1,1 -2,2 -3,2 0,0 0,1 -1,1z"></path>
  <path class="fil13" d="M3866 2805c-41,0 -73,-32 -73,-73 0,-41 32,-73 73,-73 41,0 73,32 73,73 0,41 -32,73 -73,73zm56 -84c-5,0 -9,4 -9,9 0,6 4,10 9,10 5,0 9,-4 9,-10 0,-5 -4,-9 -9,-9z"></path>
  <path class="fil15" d="M3922 2740c-5,0 -9,-4 -9,-10 0,-5 4,-9 9,-9 5,0 9,4 9,9 0,6 -4,10 -9,10z"></path>
  <path class="fil13" d="M4356 2805c-41,0 -74,-32 -74,-73 0,-41 33,-73 74,-73 40,0 73,32 73,73 0,41 -33,73 -73,73zm19 -84c-5,0 -9,4 -9,9 0,6 4,10 9,10 5,0 9,-4 9,-10 0,-5 -4,-9 -9,-9z"></path>
  <path class="fil15" d="M4375 2740c-5,0 -9,-4 -9,-10 0,-5 4,-9 9,-9 5,0 9,4 9,9 0,6 -4,10 -9,10z"></path>
  <path class="fil8" d="M3916 2732c0,27 -23,50 -50,50 -27,0 -50,-23 -50,-50 0,-28 23,-50 50,-50 27,0 50,22 50,50z"></path>
  <path class="fil8" d="M4405 2732c0,27 -22,50 -49,50 -28,0 -50,-23 -50,-50 0,-28 22,-50 50,-50 27,0 49,22 49,50z"></path>
  <path class="fil10" d="M4356 2743c-16,0 -28,-13 -28,-28 0,-13 -9,-141 -42,-264 -28,-105 -80,-230 -169,-230 -162,0 -223,410 -223,494 0,15 -13,28 -28,28 -16,0 -28,-13 -28,-28 0,-6 34,-550 279,-550 238,0 267,544 267,550 0,15 -13,28 -28,28z"></path>
  <polygon class="fil1" points="3224,4495 3540,4495 3540,4179 3224,4179 "></polygon>
  <path class="fil16" d="M3461 4458l-158 0c-43,0 -36,-34 -26,-70 10,-36 26,-90 64,-90 38,0 41,0 41,0 0,0 3,0 41,0 38,0 53,54 63,90 10,36 17,70 -25,70z"></path>
  <path class="fil12" d="M3334 4299l1 -1 0 1c0,0 -1,0 -1,0z"></path>
  <path class="fil17" d="M3335 4301l-2 -1 1 -1c0,0 1,0 1,0l1 1 -1 1z"></path>
  <polygon class="fil17" points="3362,4301 3360,4300 3362,4298 3363,4300 "></polygon>
  <polygon class="fil17" points="3388,4301 3387,4300 3388,4298 3390,4300 "></polygon>
  <polygon class="fil17" points="3415,4301 3414,4300 3415,4298 3417,4300 "></polygon>
  <polygon class="fil17" points="3308,4336 3306,4334 3308,4333 3309,4334 "></polygon>
  <polygon class="fil17" points="3335,4336 3333,4334 3335,4333 3336,4334 "></polygon>
  <polygon class="fil17" points="3362,4336 3360,4334 3362,4333 3363,4334 "></polygon>
  <polygon class="fil17" points="3388,4336 3387,4334 3388,4333 3390,4334 "></polygon>
  <polygon class="fil17" points="3415,4336 3414,4334 3415,4333 3417,4334 "></polygon>
  <polygon class="fil17" points="3442,4336 3441,4334 3442,4333 3444,4334 "></polygon>
  <polygon class="fil17" points="3321,4318 3320,4317 3321,4315 3323,4317 "></polygon>
  <polygon class="fil17" points="3375,4318 3373,4317 3375,4315 3377,4317 "></polygon>
  <polygon class="fil17" points="3402,4318 3400,4317 3402,4315 3404,4317 "></polygon>
  <polygon class="fil17" points="3456,4318 3454,4317 3455,4315 3457,4318 "></polygon>
  <polygon class="fil17" points="3308,4371 3306,4369 3308,4367 3309,4369 "></polygon>
  <polygon class="fil17" points="3335,4371 3333,4369 3335,4367 3336,4369 "></polygon>
  <polygon class="fil17" points="3362,4371 3360,4369 3362,4367 3363,4369 "></polygon>
  <polygon class="fil17" points="3388,4371 3387,4369 3388,4367 3390,4369 "></polygon>
  <polygon class="fil17" points="3415,4371 3414,4369 3415,4367 3417,4369 "></polygon>
  <polygon class="fil17" points="3442,4371 3441,4369 3442,4367 3444,4369 "></polygon>
  <polygon class="fil17" points="3469,4371 3468,4369 3469,4367 3471,4369 "></polygon>
  <polygon class="fil17" points="3294,4353 3293,4351 3294,4350 3296,4351 "></polygon>
  <polygon class="fil17" points="3321,4353 3320,4351 3321,4350 3323,4351 "></polygon>
  <polygon class="fil17" points="3348,4353 3346,4351 3348,4350 3350,4351 "></polygon>
  <polygon class="fil17" points="3375,4353 3373,4351 3375,4350 3377,4351 "></polygon>
  <polygon class="fil17" points="3402,4353 3400,4351 3402,4350 3404,4351 "></polygon>
  <polygon class="fil17" points="3429,4353 3427,4351 3429,4350 3430,4351 "></polygon>
  <polygon class="fil17" points="3456,4353 3454,4351 3456,4350 3457,4351 "></polygon>
  <polygon class="fil17" points="3281,4405 3279,4404 3281,4402 3282,4404 "></polygon>
  <polygon class="fil17" points="3308,4405 3306,4404 3308,4402 3309,4404 "></polygon>
  <polygon class="fil17" points="3335,4405 3333,4404 3335,4402 3336,4404 "></polygon>
  <polygon class="fil17" points="3362,4405 3360,4404 3362,4402 3363,4404 "></polygon>
  <polygon class="fil17" points="3388,4405 3387,4404 3388,4402 3390,4404 "></polygon>
  <polygon class="fil17" points="3415,4405 3414,4404 3415,4402 3417,4404 "></polygon>
  <polygon class="fil17" points="3442,4405 3441,4404 3442,4402 3444,4404 "></polygon>
  <polygon class="fil17" points="3469,4405 3468,4404 3469,4402 3471,4404 "></polygon>
  <polygon class="fil17" points="3294,4388 3293,4386 3294,4384 3296,4386 "></polygon>
  <polygon class="fil17" points="3321,4388 3320,4386 3321,4384 3323,4386 "></polygon>
  <polygon class="fil17" points="3348,4388 3346,4386 3348,4384 3350,4386 "></polygon>
  <polygon class="fil17" points="3375,4388 3373,4386 3375,4384 3377,4386 "></polygon>
  <polygon class="fil17" points="3402,4388 3400,4386 3402,4384 3404,4386 "></polygon>
  <polygon class="fil17" points="3429,4388 3427,4386 3429,4384 3430,4386 "></polygon>
  <polygon class="fil17" points="3456,4388 3454,4386 3456,4384 3457,4386 "></polygon>
  <polygon class="fil17" points="3483,4388 3481,4386 3483,4384 3484,4386 "></polygon>
  <polygon class="fil17" points="3281,4440 3279,4438 3281,4437 3282,4438 "></polygon>
  <polygon class="fil17" points="3308,4440 3306,4438 3308,4437 3309,4438 "></polygon>
  <polygon class="fil17" points="3335,4440 3333,4438 3335,4437 3336,4438 "></polygon>
  <polygon class="fil17" points="3362,4440 3360,4438 3362,4437 3363,4438 "></polygon>
  <polygon class="fil17" points="3388,4440 3387,4438 3388,4437 3390,4438 "></polygon>
  <polygon class="fil17" points="3415,4440 3414,4438 3415,4437 3417,4438 "></polygon>
  <polygon class="fil17" points="3442,4440 3441,4438 3442,4437 3444,4438 "></polygon>
  <polygon class="fil17" points="3469,4440 3468,4438 3469,4437 3471,4438 "></polygon>
  <polygon class="fil17" points="3294,4422 3293,4420 3294,4419 3296,4420 "></polygon>
  <polygon class="fil17" points="3321,4422 3320,4420 3321,4419 3323,4420 "></polygon>
  <polygon class="fil17" points="3348,4422 3346,4420 3348,4419 3350,4420 "></polygon>
  <polygon class="fil17" points="3375,4422 3373,4420 3375,4419 3377,4420 "></polygon>
  <polygon class="fil17" points="3402,4422 3400,4420 3402,4419 3404,4420 "></polygon>
  <polygon class="fil17" points="3429,4422 3427,4420 3429,4419 3430,4420 "></polygon>
  <polygon class="fil17" points="3456,4422 3454,4420 3456,4419 3457,4420 "></polygon>
  <polygon class="fil17" points="3483,4422 3481,4420 3483,4419 3484,4420 "></polygon>
  <polygon class="fil17" points="3294,4457 3293,4455 3294,4453 3296,4455 "></polygon>
  <polygon class="fil17" points="3321,4457 3320,4455 3321,4453 3323,4455 "></polygon>
  <polygon class="fil17" points="3348,4457 3346,4455 3348,4453 3350,4455 "></polygon>
  <polygon class="fil17" points="3375,4457 3373,4455 3375,4453 3377,4455 "></polygon>
  <polygon class="fil17" points="3402,4457 3400,4455 3402,4453 3404,4455 "></polygon>
  <polygon class="fil17" points="3429,4457 3427,4455 3429,4453 3430,4455 "></polygon>
  <polygon class="fil17" points="3456,4457 3454,4455 3456,4453 3457,4455 "></polygon>
  <polygon class="fil17" points="3481,4454 3482,4453 "></polygon>
  <path class="fil17" d="M3338 4330c-7,0 -13,-6 -13,-13 0,-7 6,-13 13,-13 7,0 13,6 13,13 0,7 -6,13 -13,13zm10 -15l-2 2 2 1 2 -1 -2 -2z"></path>
  <polygon class="fil18" points="3348,4318 3346,4317 3348,4315 3350,4317 "></polygon>
  <path class="fil17" d="M3425 4330c-7,0 -13,-6 -13,-13 0,-7 6,-13 13,-13 8,0 13,6 13,13 0,7 -5,13 -13,13zm4 -15l-2 2 2 1 1 -1 -1 -2z"></path>
  <polygon class="fil18" points="3429,4318 3427,4317 3429,4315 3430,4317 "></polygon>
  <path class="fil8" d="M3347 4317c0,5 -4,9 -9,9 -5,0 -9,-4 -9,-9 0,-5 4,-9 9,-9 5,0 9,4 9,9z"></path>
  <path class="fil8" d="M3434 4317c0,5 -4,9 -9,9 -5,0 -9,-4 -9,-9 0,-5 4,-9 9,-9 5,0 9,4 9,9z"></path>
  <path class="fil16" d="M3425 4319c-2,0 -5,-2 -5,-5 0,-2 -1,-25 -7,-47 -5,-19 -14,-41 -30,-41 -29,0 -40,73 -40,88 0,3 -2,5 -5,5 -3,0 -5,-2 -5,-5 0,-1 6,-98 50,-98 42,0 47,97 47,98 0,3 -2,5 -5,5z"></path>
  <polygon class="fil1" points="3614,4495 3931,4495 3931,4179 3614,4179 "></polygon>
  <path class="fil8" d="M3621 4488l303 0 0 -303 -303 0 0 303zm316 13l-329 0 0 -329 329 0 0 329z"></path>
  <path class="fil10" d="M3851 4458l-158 0c-42,0 -35,-34 -25,-70 10,-36 25,-90 63,-90 39,0 41,0 41,0 0,0 3,0 41,0 39,0 54,54 64,90 10,36 17,70 -26,70z"></path>
  <path class="fil12" d="M3725 4299l0 -1 1 1c-1,0 -1,0 -1,0z"></path>
  <path class="fil13" d="M3725 4301l-1 -1 1 -1c0,0 0,0 1,0l1 1 -2 1z"></path>
  <polygon class="fil13" points="3752,4301 3751,4300 3752,4298 3754,4300 "></polygon>
  <polygon class="fil13" points="3779,4301 3778,4300 3779,4298 3781,4300 "></polygon>
  <polygon class="fil13" points="3806,4301 3804,4300 3806,4298 3808,4300 "></polygon>
  <polygon class="fil13" points="3698,4336 3697,4334 3698,4333 3700,4334 "></polygon>
  <polygon class="fil13" points="3725,4336 3724,4334 3725,4333 3727,4334 "></polygon>
  <polygon class="fil13" points="3752,4336 3751,4334 3752,4333 3754,4334 "></polygon>
  <polygon class="fil13" points="3779,4336 3778,4334 3779,4333 3781,4334 "></polygon>
  <polygon class="fil13" points="3806,4336 3804,4334 3806,4333 3808,4334 "></polygon>
  <polygon class="fil13" points="3833,4336 3831,4334 3833,4333 3835,4334 "></polygon>
  <polygon class="fil13" points="3712,4318 3710,4317 3712,4315 3713,4317 "></polygon>
  <polygon class="fil13" points="3766,4318 3764,4317 3766,4315 3767,4317 "></polygon>
  <polygon class="fil13" points="3793,4318 3791,4317 3793,4315 3794,4317 "></polygon>
  <polygon class="fil13" points="3846,4318 3845,4317 3846,4315 3848,4318 "></polygon>
  <polygon class="fil13" points="3698,4371 3697,4369 3698,4367 3700,4369 "></polygon>
  <polygon class="fil13" points="3725,4371 3724,4369 3725,4367 3727,4369 "></polygon>
  <polygon class="fil13" points="3752,4371 3751,4369 3752,4367 3754,4369 "></polygon>
  <polygon class="fil13" points="3779,4371 3778,4369 3779,4367 3781,4369 "></polygon>
  <polygon class="fil13" points="3806,4371 3804,4369 3806,4367 3808,4369 "></polygon>
  <polygon class="fil13" points="3833,4371 3831,4369 3833,4367 3835,4369 "></polygon>
  <polygon class="fil13" points="3860,4371 3858,4369 3860,4367 3862,4369 "></polygon>
  <polygon class="fil13" points="3685,4353 3683,4351 3685,4350 3687,4351 "></polygon>
  <polygon class="fil13" points="3712,4353 3710,4351 3712,4350 3713,4351 "></polygon>
  <polygon class="fil13" points="3739,4353 3737,4351 3739,4350 3740,4351 "></polygon>
  <polygon class="fil13" points="3766,4353 3764,4351 3766,4350 3767,4351 "></polygon>
  <polygon class="fil13" points="3793,4353 3791,4351 3793,4350 3794,4351 "></polygon>
  <polygon class="fil13" points="3820,4353 3818,4351 3820,4350 3821,4351 "></polygon>
  <polygon class="fil13" points="3846,4353 3845,4351 3846,4350 3848,4351 "></polygon>
  <polygon class="fil13" points="3671,4405 3670,4404 3671,4402 3673,4404 "></polygon>
  <polygon class="fil13" points="3698,4405 3697,4404 3698,4402 3700,4404 "></polygon>
  <polygon class="fil13" points="3725,4405 3724,4404 3725,4402 3727,4404 "></polygon>
  <polygon class="fil13" points="3752,4405 3751,4404 3752,4402 3754,4404 "></polygon>
  <polygon class="fil13" points="3779,4405 3778,4404 3779,4402 3781,4404 "></polygon>
  <polygon class="fil13" points="3806,4405 3804,4404 3806,4402 3808,4404 "></polygon>
  <polygon class="fil13" points="3833,4405 3831,4404 3833,4402 3835,4404 "></polygon>
  <polygon class="fil13" points="3860,4405 3858,4404 3860,4402 3862,4404 "></polygon>
  <polygon class="fil13" points="3685,4388 3683,4386 3685,4384 3687,4386 "></polygon>
  <polygon class="fil13" points="3712,4388 3710,4386 3712,4384 3713,4386 "></polygon>
  <polygon class="fil13" points="3739,4388 3737,4386 3739,4384 3740,4386 "></polygon>
  <polygon class="fil13" points="3766,4388 3764,4386 3766,4384 3767,4386 "></polygon>
  <polygon class="fil13" points="3793,4388 3791,4386 3793,4384 3794,4386 "></polygon>
  <polygon class="fil13" points="3820,4388 3818,4386 3820,4384 3821,4386 "></polygon>
  <polygon class="fil13" points="3846,4388 3845,4386 3846,4384 3848,4386 "></polygon>
  <polygon class="fil13" points="3873,4388 3872,4386 3873,4384 3875,4386 "></polygon>
  <polygon class="fil13" points="3671,4440 3670,4438 3671,4437 3673,4438 "></polygon>
  <polygon class="fil13" points="3698,4440 3697,4438 3698,4437 3700,4438 "></polygon>
  <polygon class="fil13" points="3725,4440 3724,4438 3725,4437 3727,4438 "></polygon>
  <polygon class="fil13" points="3752,4440 3751,4438 3752,4437 3754,4438 "></polygon>
  <polygon class="fil13" points="3779,4440 3778,4438 3779,4437 3781,4438 "></polygon>
  <polygon class="fil13" points="3806,4440 3804,4438 3806,4437 3808,4438 "></polygon>
  <polygon class="fil13" points="3833,4440 3831,4438 3833,4437 3835,4438 "></polygon>
  <polygon class="fil13" points="3860,4440 3858,4438 3860,4437 3862,4438 "></polygon>
  <polygon class="fil13" points="3685,4422 3683,4420 3685,4419 3687,4420 "></polygon>
  <polygon class="fil13" points="3712,4422 3710,4420 3712,4419 3713,4420 "></polygon>
  <polygon class="fil13" points="3739,4422 3737,4420 3739,4419 3740,4420 "></polygon>
  <polygon class="fil13" points="3766,4422 3764,4420 3766,4419 3767,4420 "></polygon>
  <polygon class="fil13" points="3793,4422 3791,4420 3793,4419 3794,4420 "></polygon>
  <polygon class="fil13" points="3820,4422 3818,4420 3820,4419 3821,4420 "></polygon>
  <polygon class="fil13" points="3846,4422 3845,4420 3846,4419 3848,4420 "></polygon>
  <polygon class="fil13" points="3873,4422 3872,4420 3873,4419 3875,4420 "></polygon>
  <polygon class="fil13" points="3685,4457 3683,4455 3685,4453 3687,4455 "></polygon>
  <polygon class="fil13" points="3712,4457 3710,4455 3712,4453 3713,4455 "></polygon>
  <polygon class="fil13" points="3739,4457 3737,4455 3739,4453 3740,4455 "></polygon>
  <polygon class="fil13" points="3766,4457 3764,4455 3766,4453 3767,4455 "></polygon>
  <polygon class="fil13" points="3793,4457 3791,4455 3793,4453 3794,4455 "></polygon>
  <polygon class="fil13" points="3820,4457 3818,4455 3820,4453 3821,4455 "></polygon>
  <polygon class="fil13" points="3846,4457 3845,4455 3846,4453 3848,4455 "></polygon>
  <polygon class="fil13" points="3872,4454 3873,4453 "></polygon>
  <path class="fil13" d="M3729 4330c-7,0 -13,-6 -13,-13 0,-7 6,-13 13,-13 7,0 13,6 13,13 0,7 -6,13 -13,13zm10 -15l-2 2 2 1 1 -1 -1 -2z"></path>
  <polygon class="fil15" points="3739,4318 3737,4317 3739,4315 3740,4317 "></polygon>
  <path class="fil13" d="M3816 4330c-7,0 -13,-6 -13,-13 0,-7 6,-13 13,-13 7,0 13,6 13,13 0,7 -6,13 -13,13zm4 -15l-2 2 2 1 1 -1 -1 -2z"></path>
  <polygon class="fil15" points="3820,4318 3818,4317 3820,4315 3821,4317 "></polygon>
  <path class="fil8" d="M3738 4317c0,5 -4,9 -9,9 -5,0 -9,-4 -9,-9 0,-5 4,-9 9,-9 5,0 9,4 9,9z"></path>
  <path class="fil8" d="M3825 4317c0,5 -4,9 -9,9 -5,0 -9,-4 -9,-9 0,-5 4,-9 9,-9 5,0 9,4 9,9z"></path>
  <path class="fil10" d="M3816 4319c-3,0 -5,-2 -5,-5 0,-2 -2,-25 -7,-47 -5,-19 -15,-41 -30,-41 -29,0 -40,73 -40,88 0,3 -2,5 -5,5 -3,0 -5,-2 -5,-5 0,-1 6,-98 50,-98 42,0 47,97 47,98 0,3 -2,5 -5,5z"></path>
  <polygon class="fil1" points="4005,4495 4321,4495 4321,4179 4005,4179 "></polygon>
  <path class="fil7" d="M4242 4458l-158 0c-43,0 -36,-34 -25,-70 10,-36 25,-90 63,-90 38,0 41,0 41,0 0,0 3,0 41,0 38,0 53,54 64,90 10,36 17,70 -26,70z"></path>
  <path class="fil12" d="M4116 4299l0 -1 0 1c0,0 0,0 0,0z"></path>
  <path class="fil19" d="M4116 4301l-2 -1 2 -1c0,0 0,0 0,0l2 1 -2 1z"></path>
  <polygon class="fil19" points="4143,4301 4141,4300 4143,4298 4145,4300 "></polygon>
  <polygon class="fil19" points="4170,4301 4168,4300 4170,4298 4171,4300 "></polygon>
  <polygon class="fil19" points="4197,4301 4195,4300 4197,4298 4198,4300 "></polygon>
  <polygon class="fil19" points="4089,4336 4087,4334 4089,4333 4091,4334 "></polygon>
  <polygon class="fil19" points="4116,4336 4114,4334 4116,4333 4118,4334 "></polygon>
  <polygon class="fil19" points="4143,4336 4141,4334 4143,4333 4145,4334 "></polygon>
  <polygon class="fil19" points="4170,4336 4168,4334 4170,4333 4171,4334 "></polygon>
  <polygon class="fil19" points="4197,4336 4195,4334 4197,4333 4198,4334 "></polygon>
  <polygon class="fil19" points="4224,4336 4222,4334 4224,4333 4225,4334 "></polygon>
  <polygon class="fil19" points="4103,4318 4101,4317 4103,4315 4104,4317 "></polygon>
  <polygon class="fil19" points="4156,4318 4155,4317 4156,4315 4158,4317 "></polygon>
  <polygon class="fil19" points="4183,4318 4182,4317 4183,4315 4185,4317 "></polygon>
  <polygon class="fil19" points="4237,4318 4235,4317 4237,4315 4238,4318 "></polygon>
  <polygon class="fil19" points="4089,4371 4087,4369 4089,4367 4091,4369 "></polygon>
  <polygon class="fil19" points="4116,4371 4114,4369 4116,4367 4118,4369 "></polygon>
  <polygon class="fil19" points="4143,4371 4141,4369 4143,4367 4145,4369 "></polygon>
  <polygon class="fil19" points="4170,4371 4168,4369 4170,4367 4171,4369 "></polygon>
  <polygon class="fil19" points="4197,4371 4195,4369 4197,4367 4198,4369 "></polygon>
  <polygon class="fil19" points="4224,4371 4222,4369 4224,4367 4225,4369 "></polygon>
  <polygon class="fil19" points="4251,4371 4249,4369 4251,4367 4252,4369 "></polygon>
  <polygon class="fil19" points="4076,4353 4074,4351 4076,4350 4077,4351 "></polygon>
  <polygon class="fil19" points="4103,4353 4101,4351 4103,4350 4104,4351 "></polygon>
  <polygon class="fil19" points="4129,4353 4128,4351 4129,4350 4131,4351 "></polygon>
  <polygon class="fil19" points="4156,4353 4155,4351 4156,4350 4158,4351 "></polygon>
  <polygon class="fil19" points="4183,4353 4182,4351 4183,4350 4185,4351 "></polygon>
  <polygon class="fil19" points="4210,4353 4209,4351 4210,4350 4212,4351 "></polygon>
  <polygon class="fil19" points="4237,4353 4235,4351 4237,4350 4239,4351 "></polygon>
  <polygon class="fil19" points="4062,4405 4061,4404 4062,4402 4064,4404 "></polygon>
  <polygon class="fil19" points="4089,4405 4087,4404 4089,4402 4091,4404 "></polygon>
  <polygon class="fil19" points="4116,4405 4114,4404 4116,4402 4118,4404 "></polygon>
  <polygon class="fil19" points="4143,4405 4141,4404 4143,4402 4145,4404 "></polygon>
  <polygon class="fil19" points="4170,4405 4168,4404 4170,4402 4171,4404 "></polygon>
  <polygon class="fil19" points="4197,4405 4195,4404 4197,4402 4198,4404 "></polygon>
  <polygon class="fil19" points="4224,4405 4222,4404 4224,4402 4225,4404 "></polygon>
  <polygon class="fil19" points="4251,4405 4249,4404 4251,4402 4252,4404 "></polygon>
  <polygon class="fil19" points="4076,4388 4074,4386 4076,4384 4077,4386 "></polygon>
  <polygon class="fil19" points="4103,4388 4101,4386 4103,4384 4104,4386 "></polygon>
  <polygon class="fil19" points="4129,4388 4128,4386 4129,4384 4131,4386 "></polygon>
  <polygon class="fil19" points="4156,4388 4155,4386 4156,4384 4158,4386 "></polygon>
  <polygon class="fil19" points="4183,4388 4182,4386 4183,4384 4185,4386 "></polygon>
  <polygon class="fil19" points="4210,4388 4209,4386 4210,4384 4212,4386 "></polygon>
  <polygon class="fil19" points="4237,4388 4235,4386 4237,4384 4239,4386 "></polygon>
  <polygon class="fil19" points="4264,4388 4262,4386 4264,4384 4266,4386 "></polygon>
  <polygon class="fil19" points="4062,4440 4061,4438 4062,4437 4064,4438 "></polygon>
  <polygon class="fil19" points="4089,4440 4087,4438 4089,4437 4091,4438 "></polygon>
  <polygon class="fil19" points="4116,4440 4114,4438 4116,4437 4118,4438 "></polygon>
  <polygon class="fil19" points="4143,4440 4141,4438 4143,4437 4145,4438 "></polygon>
  <polygon class="fil19" points="4170,4440 4168,4438 4170,4437 4171,4438 "></polygon>
  <polygon class="fil19" points="4197,4440 4195,4438 4197,4437 4198,4438 "></polygon>
  <polygon class="fil19" points="4224,4440 4222,4438 4224,4437 4225,4438 "></polygon>
  <polygon class="fil19" points="4251,4440 4249,4438 4251,4437 4252,4438 "></polygon>
  <polygon class="fil19" points="4076,4422 4074,4420 4076,4419 4077,4420 "></polygon>
  <polygon class="fil19" points="4103,4422 4101,4420 4103,4419 4104,4420 "></polygon>
  <polygon class="fil19" points="4129,4422 4128,4420 4129,4419 4131,4420 "></polygon>
  <polygon class="fil19" points="4156,4422 4155,4420 4156,4419 4158,4420 "></polygon>
  <polygon class="fil19" points="4183,4422 4182,4420 4183,4419 4185,4420 "></polygon>
  <polygon class="fil19" points="4210,4422 4209,4420 4210,4419 4212,4420 "></polygon>
  <polygon class="fil19" points="4237,4422 4235,4420 4237,4419 4239,4420 "></polygon>
  <polygon class="fil19" points="4264,4422 4262,4420 4264,4419 4266,4420 "></polygon>
  <polygon class="fil19" points="4076,4457 4074,4455 4076,4453 4077,4455 "></polygon>
  <polygon class="fil19" points="4103,4457 4101,4455 4103,4453 4104,4455 "></polygon>
  <polygon class="fil19" points="4129,4457 4128,4455 4129,4453 4131,4455 "></polygon>
  <polygon class="fil19" points="4156,4457 4155,4455 4156,4453 4158,4455 "></polygon>
  <polygon class="fil19" points="4183,4457 4182,4455 4183,4453 4185,4455 "></polygon>
  <polygon class="fil19" points="4210,4457 4209,4455 4210,4453 4212,4455 "></polygon>
  <polygon class="fil19" points="4237,4457 4235,4455 4237,4453 4239,4455 "></polygon>
  <polygon class="fil19" points="4263,4454 4264,4453 "></polygon>
  <path class="fil19" d="M4119 4330c-7,0 -13,-6 -13,-13 0,-7 6,-13 13,-13 8,0 14,6 14,13 0,7 -6,13 -14,13zm10 -15l-1 2 1 1 2 -1 -2 -2z"></path>
  <polygon class="fil20" points="4129,4318 4128,4317 4129,4315 4131,4317 "></polygon>
  <path class="fil19" d="M4207 4330c-7,0 -13,-6 -13,-13 0,-7 6,-13 13,-13 7,0 13,6 13,13 0,7 -6,13 -13,13zm3 -15l-1 2 1 1 2 -1 -2 -2z"></path>
  <polygon class="fil20" points="4210,4318 4209,4317 4210,4315 4212,4317 "></polygon>
  <path class="fil8" d="M4128 4317c0,5 -4,9 -9,9 -4,0 -8,-4 -8,-9 0,-5 4,-9 8,-9 5,0 9,4 9,9z"></path>
  <path class="fil8" d="M4216 4317c0,5 -4,9 -9,9 -5,0 -9,-4 -9,-9 0,-5 4,-9 9,-9 5,0 9,4 9,9z"></path>
  <path class="fil7" d="M4207 4319c-3,0 -5,-2 -5,-5 0,-2 -2,-25 -8,-47 -5,-19 -14,-41 -30,-41 -29,0 -40,73 -40,88 0,3 -2,5 -5,5 -2,0 -5,-2 -5,-5 0,-1 7,-98 50,-98 43,0 48,97 48,98 0,3 -3,5 -5,5z"></path>
  <path class="fil0" d="M542 6097l1986 8c483,-379 533,-941 189,-1281 -209,-206 -474,-164 -726,-197l0 0c-88,-12 -174,-32 -256,-75 -260,-137 -406,-460 -624,-732 -28,-34 -56,-67 -86,-99 -179,-192 -537,-198 -724,71 -475,685 -257,1705 241,2305z"></path>
  <path class="fil2" d="M498 4530c52,815 993,1119 1581,875 511,-213 344,-697 -88,-778l0 0c-88,-12 -174,-32 -256,-75 -260,-137 -406,-460 -624,-732 -326,-169 -651,113 -613,710z"></path>
  <path class="fil21" d="M2363 6220c-31,-11 -725,-566 -738,-604 -5,-14 70,-120 164,-245 20,-27 42,-55 63,-83 141,-183 294,-374 294,-374l465 370 -306 363 -67 80c0,0 171,331 180,374 10,43 -24,130 -55,119z"></path>
  <path class="fil5" d="M2363 6220c-31,-11 -725,-566 -738,-604 -6,-17 106,-170 227,-328l453 359 -67 80c0,0 171,331 180,374 10,43 -24,130 -55,119z"></path>
  <path class="fil10" d="M2363 6220c-31,-11 -725,-566 -738,-604 -5,-14 70,-120 164,-245l449 356c0,0 171,331 180,374 10,43 -24,130 -55,119z"></path>
  <path class="fil8" d="M2375 6184c-114,-96 -583,-471 -703,-558l-1 1c111,98 584,470 703,559 2,2 4,0 1,-2z"></path>
  <path class="fil8" d="M2394 6041c-27,-23 -64,-32 -93,-27 -27,4 -57,16 -75,41l1 1c43,-40 117,-47 166,-14l1 -1z"></path>
  <path class="fil8" d="M2274 5775c-46,-38 -114,-65 -173,-50 -2,1 -1,4 1,4 59,12 112,28 168,52 4,2 7,-4 4,-6z"></path>
  <path class="fil8" d="M2298 5817c-46,-37 -113,-64 -172,-49 -3,0 -2,4 0,4 60,12 113,28 169,52 4,2 7,-4 3,-7z"></path>
  <path class="fil8" d="M2323 5860c-46,-38 -113,-64 -172,-49 -3,0 -2,3 0,4 60,12 112,28 168,52 4,1 7,-4 4,-7z"></path>
  <path class="fil8" d="M2348 5903c-46,-38 -113,-65 -173,-50 -2,1 -1,4 1,5 59,11 112,27 168,51 4,2 7,-3 4,-6z"></path>
  <path class="fil5" d="M1790 5540c-52,-42 -117,39 -65,81 53,42 117,-40 65,-81z"></path>
  <path class="fil8" d="M2287 5744c-25,-1 -50,-4 -76,-4 27,-16 53,-34 81,-48 14,-6 28,-13 43,-18 22,-7 99,-9 63,45 -20,30 -81,26 -111,25zm136 -53c-8,-39 -53,-43 -83,-35 -50,14 -103,47 -138,86l0 2c-1,4 1,10 6,10 51,4 106,14 157,2 30,-7 66,-29 58,-65z"></path>
  <path class="fil8" d="M2066 5617c0,-65 63,-20 77,-2 10,12 18,26 25,39 16,27 28,56 41,85 -21,-14 -43,-26 -65,-39 -26,-16 -79,-47 -78,-83zm7 49c35,39 86,61 131,87 5,2 9,-2 10,-6 1,0 2,-1 2,-2 -8,-51 -33,-108 -67,-147 -21,-25 -61,-46 -89,-18 -26,26 -8,64 13,86z"></path>
  <path class="fil22" d="M3081 4573c-32,242 -628,940 -696,1020 -11,12 -16,18 -16,18l-493 -379 6 -7 434 -569 -1295 -7 491 -382c0,0 40,23 123,10 286,-41 930,-134 1082,-128 196,8 394,202 364,424z"></path>
  <path class="fil8" d="M2472 4445c-17,17 -31,39 -45,58 -16,20 -31,40 -46,60l-1 0c3,-6 5,-11 8,-17 10,-20 18,-41 29,-60l-2 -1c-11,19 -25,37 -35,57 -5,9 -9,19 -14,28 -2,6 -4,11 -6,16 -1,3 -2,6 -3,8 -7,10 -14,19 -20,28 -15,22 -28,44 -43,65l2 1c15,-20 32,-38 47,-58 16,-20 30,-40 45,-61 14,-20 28,-40 42,-60 14,-21 31,-41 43,-63l-1 -1z"></path>
  <path class="fil8" d="M1093 3230c-103,81 -204,610 -244,668 -28,41 -63,83 -62,106 2,23 101,138 287,174 186,36 370,-53 389,-77 18,-23 -31,-103 -29,-176 2,-72 66,-468 27,-586 -45,-134 -250,-201 -368,-109z"></path>
  <path class="fil8" d="M1476 4079c-21,-48 -29,-97 -28,-150 1,-57 8,-115 15,-173 6,-60 13,-121 20,-181 6,-54 13,-108 3,-161 -9,-52 -32,-100 -66,-140l-1 1c32,41 53,88 62,140 9,57 0,115 -7,172 -6,60 -13,119 -19,178 -6,55 -13,110 -14,165 0,51 5,107 32,151 1,1 4,0 3,-2z"></path>
  <path class="fil8" d="M1109 3227c-47,26 -71,77 -90,126 -26,67 -49,134 -71,203 -23,70 -42,141 -65,212 -22,70 -56,131 -97,192 -1,1 1,3 2,1 89,-103 116,-244 157,-371 22,-70 46,-140 71,-210 20,-56 41,-120 94,-152l-1 -1z"></path>
  <path class="fil8" d="M1153 3208c-100,39 -139,150 -171,245 -39,113 -66,230 -100,344 -19,65 -36,135 -78,188 -1,2 2,4 3,2 32,-38 49,-86 64,-133 18,-57 34,-114 50,-171 31,-114 60,-231 109,-339 26,-57 64,-112 123,-135l0 -1z"></path>
  <path class="fil23" d="M1183 3923c88,126 388,453 596,500 115,27 669,104 745,35 89,-81 48,-386 -23,-389 -216,-8 -615,34 -715,12 -45,-10 -284,-164 -539,-288 -97,-46 -121,49 -64,130z"></path>
  <path class="fil10" d="M2384 4053l-37 456c0,0 -503,-8 -655,-93 -152,-85 -399,-303 -493,-454 -95,-152 -63,-234 121,-141 185,93 434,242 467,250 32,8 597,-18 597,-18z"></path>
  <path class="fil8" d="M2303 4084c0,-1 -2,-1 -2,0 -7,31 -9,63 -13,95 -3,33 -7,66 -9,99 -6,65 -13,131 -15,197 0,3 3,3 4,0 10,-64 15,-130 21,-195 3,-32 6,-65 8,-97 3,-33 6,-66 6,-99z"></path>
  <path class="fil10" d="M733 4757c27,9 811,-218 811,-218l-93 -272c0,0 46,-87 25,-171 -28,-113 -237,-298 -253,-309 -66,-43 -127,-42 -182,-13 -226,120 -308,983 -308,983z"></path>
  <path class="fil8" d="M1331 3885c20,24 41,46 62,69 -9,-17 -19,-34 -29,-51l0 0c15,20 29,41 40,63 15,18 30,36 43,55 16,24 29,49 36,76 7,27 6,56 2,84 -5,32 -16,63 -26,94 -2,4 -8,1 -7,-3 15,-53 32,-109 20,-164 -12,-55 -46,-102 -79,-145 -20,-26 -41,-53 -64,-76l2 -2z"></path>
  <path class="fil21" d="M1090 3789c4,14 70,107 135,105 21,-1 22,-116 22,-116l2 -9 28 -119 -159 -104c0,0 -29,237 -28,243z"></path>
  <path class="fil8" d="M1277 3650l-28 119c-34,-13 -106,-51 -140,-142 4,-41 9,-75 9,-80l0 -1 21 12 138 92z"></path>
  <path class="fil21" d="M1463 3504c-13,214 -143,231 -189,228 -42,-3 -185,-17 -194,-232 -8,-214 96,-276 192,-275 96,1 204,65 191,279z"></path>
  <path class="fil8" d="M1431 3484c-5,-2 -9,-4 -14,-5 -5,-2 -10,-3 -13,-8 -2,-3 -1,-7 1,-9 5,-5 12,-4 19,-2 7,2 12,6 16,12 4,6 -3,13 -9,12z"></path>
  <path class="fil8" d="M1291 3465c5,1 10,0 15,-1 5,0 10,0 15,-4 2,-2 2,-6 1,-9 -4,-6 -11,-7 -18,-7 -8,1 -13,3 -19,8 -5,4 -1,13 6,13z"></path>
  <path class="fil8" d="M1317 3501l-1 1c-2,15 -5,32 -19,35l0 1c16,-1 21,-23 20,-37z"></path>
  <path class="fil8" d="M1305 3485c-23,-5 -30,42 -8,46 21,4 28,-43 8,-46z"></path>
  <path class="fil8" d="M1296 3486c-5,2 -9,6 -14,6 -6,-1 -10,-6 -13,-11l0 0c-2,9 0,19 10,21 8,3 16,-4 19,-13 1,-1 0,-4 -2,-3z"></path>
  <path class="fil8" d="M1397 3510l1 1c-3,14 -4,31 8,38l0 1c-15,-5 -14,-27 -9,-40z"></path>
  <path class="fil8" d="M1412 3497c23,1 18,48 -4,47 -21,-2 -16,-49 4,-47z"></path>
  <path class="fil8" d="M1421 3501c4,3 7,8 11,9 5,0 10,-4 14,-9l0 1c-1,9 -5,18 -13,19 -8,0 -13,-8 -14,-17 -1,-2 1,-4 2,-3z"></path>
  <path class="fil8" d="M1297 3627c2,4 5,9 10,10 5,2 11,1 16,0l1 1c-5,4 -14,6 -20,4 -6,-3 -8,-9 -9,-15l2 0z"></path>
  <path class="fil8" d="M1364 3583c0,0 0,22 -1,32 0,1 -3,1 -6,1l-1 0c-18,0 -35,-9 -44,-25l2 -1c12,11 26,16 42,19 1,-3 -1,-38 0,-38 6,0 16,5 23,8 1,-46 -5,-91 -3,-137 0,-2 3,-2 3,0 10,47 9,100 9,147 0,6 -20,-4 -24,-6z"></path>
  <path class="fil8" d="M1079 3512c51,-12 63,-61 63,-61 64,-12 104,-50 109,-54 -3,4 -20,33 -29,48 139,3 202,-90 202,-90 34,52 37,82 40,97 0,0 19,-82 -11,-145 -38,-79 -111,-81 -111,-81 0,0 -97,-53 -196,17 -107,76 -67,269 -67,269z"></path>
  <path class="fil8" d="M1329 3444c-24,8 -50,11 -74,11l0 -1c40,-2 78,-15 110,-38 14,-10 27,-21 38,-34 11,-13 23,-30 28,-47 1,-1 3,-1 3,1 -6,18 -11,34 -22,50 -11,15 -24,28 -39,38 -14,9 -29,15 -44,20z"></path>
  <path class="fil21" d="M1113 3519c0,0 -36,-74 -68,-62 -33,12 -13,114 21,132 33,19 51,-12 51,-12l-4 -58z"></path>
  <path class="fil8" d="M1051 3486l0 1c23,14 33,39 38,64 -6,-10 -15,-17 -29,-10l1 2c10,-1 17,2 23,11 4,6 6,14 9,21 0,3 5,2 4,0l0 -1c5,-32 -12,-79 -46,-88z"></path>
  <path class="fil23" d="M923 3965c-63,358 -2,625 59,659 163,89 556,-92 667,-128 44,-15 -160,-357 -205,-336 -108,50 -259,134 -265,134 -12,-2 -26,-93 -89,-359 -50,-215 -141,-116 -167,30z"></path>
  <path class="fil21" d="M2005 3991c12,45 -101,63 -101,63 0,0 30,10 44,37 17,31 -25,70 -25,70 0,0 29,17 41,47 13,31 -23,77 -23,77 0,0 18,30 10,64 -14,57 -102,80 -154,105 -56,27 -148,36 -189,55l-181 -331c0,0 174,-185 274,-214 56,-16 287,-42 304,27z"></path>
  <path class="fil8" d="M1902 4053c-63,-3 -126,9 -187,22 -2,0 -1,2 0,2 61,-13 126,-10 188,-21 1,0 1,-3 -1,-3z"></path>
  <path class="fil8" d="M1921 4157c-15,0 -29,5 -43,8 -14,4 -29,8 -44,12 -29,9 -58,18 -87,28 -1,1 -1,3 1,2 29,-8 58,-16 88,-24 14,-3 29,-7 44,-10 14,-3 29,-5 41,-12 2,-1 2,-4 0,-4z"></path>
  <path class="fil8" d="M1940 4285c-13,0 -26,6 -38,9 -13,5 -27,9 -40,13 -26,8 -53,16 -80,23 -1,0 -1,3 1,2 27,-7 54,-14 82,-21 13,-4 26,-7 40,-11 11,-3 25,-6 35,-13l0 -2z"></path>
  <path class="fil10" d="M1432 4157l188 402c0,0 -583,170 -662,68 -79,-102 -74,-424 -37,-647 37,-223 138,-227 182,-26 43,202 69,329 77,328 8,-2 252,-125 252,-125z"></path>
  <path class="fil8" d="M1356 4211c-1,-1 -2,0 -2,1 11,30 25,59 38,89 13,30 27,60 41,90 28,59 55,120 87,178 1,2 5,0 4,-2 -25,-61 -53,-121 -81,-180 -14,-29 -27,-59 -42,-88 -14,-29 -28,-60 -45,-88z"></path>
  <path class="fil8" d="M1312 4633c-16,0 -33,5 -49,8 -17,3 -34,6 -51,8 -32,4 -66,8 -99,9 -32,0 -113,-4 -138,-27 -21,-20 -37,-51 -42,-73 -9,-37 -15,-76 -20,-114 -10,-82 -11,-164 -7,-245 1,-23 2,-46 4,-69 1,-23 4,-46 5,-69l-2 -1c-8,37 -12,75 -15,113 -2,-24 -4,-47 -5,-71 0,-1 -2,-1 -2,0 0,25 -1,50 0,75 0,14 2,28 3,41 -2,32 -3,63 -2,95 1,82 7,167 29,247 9,35 24,68 56,87 19,11 52,18 77,20 56,4 113,0 168,-11 15,-3 31,-6 46,-9 15,-4 31,-6 44,-12l0 -2z"></path>
  <polygon class="fil8" points="1440,4160 1440,4160 1440,4160 "></polygon>
  <path class="fil8" d="M1431 4150c-43,21 -86,43 -128,65 -21,10 -43,21 -64,32 -20,10 -59,31 -59,31 0,-9 -7,-37 -12,-56 -4,-19 -9,-39 -14,-59 -1,-5 -2,-10 -4,-15 -1,-9 -1,-19 -2,-28 -2,-15 -3,-31 -5,-46l-1 0c-2,15 -1,29 0,44 -7,-24 -13,-48 -20,-71l-2 0c8,40 16,80 25,119 5,19 10,38 15,57 5,19 15,62 17,61 22,-7 43,-18 64,-28 22,-11 44,-21 66,-32 42,-21 84,-43 125,-67l3 7c1,1 3,-2 2,-4 -1,-3 -5,-11 -6,-10z"></path>
  <polygon class="fil8" points="1440,4160 1440,4160 1440,4160 "></polygon>
  <polygon class="fil8" points="1801,4546 2351,4546 2592,3768 2042,3768 "></polygon>
  <polygon class="fil16" points="1828,4546 2378,4546 2619,3768 2069,3768 "></polygon>
  <path class="fil5" d="M2281 4133c-7,29 -38,53 -67,53 -30,0 -47,-24 -40,-53 8,-30 39,-54 68,-54 30,0 47,24 39,54z"></path>
  <path class="fil21" d="M2534 4041c27,49 98,110 106,151 6,37 -24,52 -24,52 0,0 42,19 43,57 0,20 -31,37 -31,37 0,0 33,17 31,51 -1,27 -32,41 -32,41 0,0 25,30 14,57 -21,56 -254,69 -295,-15 -19,-39 38,-40 38,-40 0,0 -82,-19 -86,-67 -4,-48 70,-44 70,-44 0,0 -79,-20 -78,-70 1,-53 74,-35 74,-35 0,0 -54,-33 -44,-71 16,-63 133,12 183,-3l31 -101z"></path>
  <path class="fil8" d="M2622 4433l0 1c-75,23 -166,25 -241,-1 -3,-1 -2,-5 1,-5 82,12 157,16 240,5z"></path>
  <path class="fil8" d="M2629 4339l0 1c-78,24 -180,23 -263,-17 -3,-1 -4,-5 -1,-4 57,23 189,30 264,20z"></path>
  <path class="fil8" d="M2359 4211c81,35 166,41 254,34l0 2c-42,15 -98,13 -142,8 -42,-4 -79,-17 -113,-41 -2,-1 -1,-4 1,-3z"></path>
  <path class="fil21" d="M4163 5591c-11,31 -569,723 -606,736 -15,5 -120,-70 -245,-164 -27,-21 -55,-42 -83,-64 -183,-141 -373,-294 -373,-294l372 -465 362 308 79 67c0,0 332,-170 375,-179 43,-10 130,25 119,55z"></path>
  <path class="fil5" d="M4163 5591c-11,31 -569,723 -606,736 -18,6 -170,-106 -328,-228l361 -451 79 67c0,0 332,-170 375,-179 43,-10 130,25 119,55z"></path>
  <path class="fil10" d="M4163 5591c-11,31 -569,723 -606,736 -15,5 -120,-70 -245,-164l357 -448c0,0 332,-170 375,-179 43,-10 130,25 119,55z"></path>
  <path class="fil8" d="M4127 5579c-96,114 -473,582 -560,701l1 1c98,-111 471,-582 561,-701 2,-2 0,-4 -2,-1z"></path>
  <path class="fil8" d="M3984 5560c-24,27 -32,64 -28,92 4,27 17,58 41,76l1 -1c-40,-43 -46,-117 -13,-166l-1 -1z"></path>
  <path class="fil8" d="M3717 5679c-38,46 -65,113 -50,173 1,2 4,1 4,-1 12,-59 28,-112 53,-168 1,-4 -4,-7 -7,-4z"></path>
  <path class="fil8" d="M3760 5655c-38,46 -65,113 -50,172 0,2 4,2 4,0 12,-60 28,-113 52,-168 2,-4 -3,-8 -6,-4z"></path>
  <path class="fil8" d="M3803 5630c-38,46 -65,113 -50,173 0,2 4,1 4,-1 12,-59 28,-112 52,-168 2,-4 -3,-7 -6,-4z"></path>
  <path class="fil8" d="M3846 5606c-38,45 -65,112 -50,172 0,2 3,1 4,-1 12,-59 28,-112 52,-168 2,-4 -4,-7 -6,-3z"></path>
  <path class="fil5" d="M3481 6162c-42,52 39,117 81,65 42,-52 -40,-117 -81,-65z"></path>
  <path class="fil8" d="M3687 5666c-2,25 -4,50 -4,76 -17,-27 -34,-53 -48,-82 -7,-13 -13,-28 -18,-42 -7,-22 -9,-99 45,-63 30,20 26,81 25,111zm-53 -137c-39,8 -44,53 -35,84 14,50 47,103 85,138l2 -1c4,2 10,0 11,-5 4,-51 14,-106 2,-157 -7,-30 -29,-66 -65,-59z"></path>
  <path class="fil8" d="M3559 5887c-65,-1 -20,-63 -1,-78 12,-9 25,-17 38,-25 27,-16 56,-27 85,-40 -14,21 -26,43 -39,65 -16,26 -47,78 -83,78zm49 -7c39,-35 61,-86 87,-131 3,-5 -1,-9 -6,-10 0,-1 0,-2 -2,-2 -51,7 -108,33 -147,66 -25,21 -46,61 -18,89 25,26 64,9 86,-12z"></path>
  <path class="fil22" d="M3570 5578l-386 521 -1304 -905 -125 -87c0,0 -36,24 -90,54 -74,41 -183,93 -280,107 -162,24 -432,21 -568,-161 -115,-154 -53,-354 -53,-354l178 -76c0,0 421,-351 693,-361 116,-5 284,83 440,174 156,92 1495,1088 1495,1088z"></path>
  <path class="fil8" d="M1755 5107c0,0 -36,24 -90,54 -94,-114 -295,-320 -301,-327l391 273z"></path>
  <path class="fil8" d="M1096 4559c-25,18 -49,36 -74,54 -25,18 -50,34 -73,54 -24,19 -46,40 -68,61 -11,10 -21,21 -32,31 -10,11 -22,21 -30,33l2 2c12,-8 23,-18 33,-28 12,-10 24,-20 36,-30 22,-19 45,-37 68,-57 22,-19 43,-40 65,-59 24,-21 49,-40 74,-60l-1 -1z"></path>
  <path class="fil8" d="M3480 5559c-25,27 -49,56 -72,85 -23,28 -47,57 -70,86 -46,58 -93,116 -138,174 -26,32 -50,65 -73,98 -2,2 1,3 2,2 50,-55 96,-113 142,-171 46,-58 92,-116 138,-175 25,-32 50,-64 73,-97 1,-2 -1,-3 -2,-2z"></path>
  <path class="fil8" d="M2410 5564c-65,-51 -132,-99 -200,-147 -67,-48 -133,-96 -201,-142 -20,-13 -40,-26 -59,-39 -20,-13 -40,-25 -59,-39l-1 2c17,13 34,27 51,40 17,12 33,25 50,37 32,25 65,48 98,72 67,48 134,96 202,142 38,27 76,53 116,78 2,2 5,-2 3,-4z"></path>
  <path class="fil8" d="M2827 5026c-60,-49 -125,-94 -187,-140 -64,-46 -127,-93 -191,-139 -63,-46 -127,-92 -190,-138 -61,-44 -122,-89 -187,-128 -36,-22 -72,-42 -109,-60 -37,-17 -74,-35 -113,-46l-1 2c32,18 66,33 98,50 32,17 63,35 94,54 65,39 125,83 186,127 127,91 254,183 381,273 72,50 142,103 216,149 2,2 5,-2 3,-4z"></path>
  <path class="fil10" d="M5768 4817c-165,224 -338,484 -380,765 0,4 7,5 8,1 19,-77 43,-152 73,-225 108,-30 215,-54 272,-162 59,-111 51,-256 40,-377 -1,-6 -10,-6 -13,-2z"></path>
  <path class="fil8" d="M5470 5356c75,-167 170,-334 291,-471l2 1c-80,98 -140,204 -199,312 55,-55 115,-105 167,-164l1 2c-51,62 -107,129 -175,175 -18,33 -36,66 -54,99 4,-2 9,-4 14,-7l0 1c-5,3 -10,6 -15,8 -9,16 -17,32 -26,47 -2,4 -7,1 -6,-3z"></path>
  <path class="fil8" d="M5526 5298c44,-25 87,-53 127,-85l1 2c-39,33 -81,63 -127,86 -2,1 -3,-2 -1,-3z"></path>
  <path class="fil10" d="M5369 5540c0,3 6,3 6,0 1,-93 0,-186 2,-279 23,-47 74,-74 110,-112 25,-28 47,-59 66,-92 43,-78 67,-166 76,-255 10,-99 -28,-426 -69,-414 -22,5 -92,167 -111,221 -30,88 -51,179 -65,271 -34,217 -31,441 -15,660z"></path>
  <path class="fil8" d="M5368 5141l1 0c5,-117 31,-236 56,-349 27,-122 58,-238 121,-347 1,-2 4,0 3,2 -43,84 -74,174 -97,266 4,-6 9,-13 14,-19 1,-2 5,0 4,2 -7,10 -12,20 -20,28l-1 1c-22,87 -37,176 -50,266l3 -4 1 1c-2,3 -4,6 -5,9 -7,45 -13,90 -20,135 81,-69 150,-150 189,-250l1 0c-39,104 -99,196 -191,259 -1,12 -3,24 -5,36 0,3 -4,2 -4,0 0,-11 0,-21 1,-32 -1,-1 -2,-3 -1,-4z"></path>
  <path class="fil8" d="M5406 4971c62,-92 120,-181 165,-282l2 0c-38,101 -92,204 -163,285 -2,1 -5,-1 -4,-3z"></path>
  <path class="fil8" d="M5488 4666c26,-45 53,-89 77,-135 0,-2 2,0 2,1 -21,47 -45,95 -75,136 -1,2 -5,0 -4,-2z"></path>
  <polygon class="fil8" points="5478,4685 5478,4686 "></polygon>
  <path class="fil10" d="M5307 5273c-2,61 -9,122 -22,182 1,6 2,13 3,20 19,-67 29,-135 32,-203 1,-2 2,-4 1,-7l0 0c3,-92 -5,-184 -21,-275 -28,-170 -91,-333 -210,-461 -3,-4 -11,-2 -13,3 -48,122 -31,267 10,388 22,65 54,128 94,184 41,58 92,106 126,169z"></path>
  <path class="fil8" d="M5104 4586c113,183 191,399 201,614 0,4 -7,5 -7,1 -3,-19 -6,-38 -9,-58l0 0c-47,-44 -94,-91 -128,-147l2 -1c40,46 78,94 124,135 -8,-48 -18,-95 -29,-141 -3,-3 -6,-7 -9,-10 -2,-3 1,-6 3,-4l3 3c-16,-63 -35,-125 -59,-186 -28,-34 -60,-64 -81,-105l1 -1c17,24 33,47 52,69 8,9 16,17 24,25 -25,-65 -56,-129 -92,-191 -2,-3 3,-6 4,-3z"></path>
  <path class="fil8" d="M5127 4811c36,49 78,96 112,146 1,2 -2,3 -3,2 -43,-41 -80,-96 -111,-146 -1,-2 1,-3 2,-2z"></path>
  <polygon class="fil8" points="5244,4968 5245,4970 5244,4972 5242,4970 "></polygon>
  <path class="fil10" d="M4928 4937c9,94 59,206 119,278 27,32 59,56 96,75 42,21 85,44 128,61 21,52 36,106 46,162 1,-5 3,-10 4,-15 -28,-237 -181,-440 -378,-571 -7,-4 -15,2 -15,10z"></path>
  <path class="fil8" d="M4996 5007c-1,-1 1,-4 2,-3 105,78 198,190 251,309 1,3 -3,6 -5,3 -9,-16 -18,-32 -28,-47l0 0c-45,-8 -87,-40 -121,-70l2 -1c17,15 36,29 56,40 19,9 38,15 57,22 -16,-26 -34,-51 -52,-76 -48,-17 -94,-46 -135,-76 -1,-1 0,-3 2,-2 41,25 82,47 125,67 -27,-36 -57,-70 -88,-103 -16,-8 -31,-16 -46,-25 -1,-1 0,-3 1,-2 12,4 24,10 35,17 -18,-18 -36,-36 -56,-53z"></path>
  <path class="fil8" d="M5000 5089c3,2 6,3 8,5l-1 2c-3,-2 -5,-3 -8,-5 -1,-1 0,-3 1,-2z"></path>
  <polygon class="fil16" points="5628,6027 5089,6027 5133,5536 5142,5428 5575,5428 5584,5536 "></polygon>
  <polygon class="fil8" points="5584,5536 5133,5536 5142,5428 5575,5428 "></polygon>
  <polygon class="fil16" points="5116,5460 5601,5460 5601,5353 5116,5353 "></polygon>
  <path class="fil24" d="M1515 2337c-8,0 -21,0 -21,-12 0,-17 31,-16 39,-14 0,4 0,6 -1,10 0,4 0,7 -1,10 -1,6 -11,6 -16,6zm139 -25c0,29 20,43 47,43 6,0 20,0 22,-3 2,-1 7,-17 7,-19 -8,1 -35,11 -47,-12 -5,-11 0,-26 7,-34 16,-17 41,-5 45,-5 1,0 3,-7 3,-9 1,-3 2,-6 4,-9 -16,-8 -45,-7 -61,1 -16,9 -27,28 -27,47zm-42 43c29,0 26,-1 30,-13 1,-3 3,-5 3,-9 -9,1 -6,3 -24,3 -13,0 -25,-11 -25,-24 0,-7 -1,-10 3,-17 9,-19 34,-20 51,-13l6 -18c-16,-8 -52,-8 -69,7 -18,17 -25,42 -13,64 6,11 20,20 38,20zm230 -70c0,13 3,18 15,25 6,4 33,15 15,24 -14,7 -37,-3 -39,-3 -1,5 -5,13 -6,18 9,5 26,6 38,6 35,0 54,-34 23,-53 -11,-6 -22,-9 -22,-17 0,-11 20,-9 29,-7 5,2 8,3 11,4 4,-17 11,-17 0,-20 -6,-1 -20,-4 -27,-3 -6,1 -9,0 -14,2 -11,3 -23,12 -23,24zm81 2c0,16 13,22 27,30 22,12 0,25 -25,18 -4,-1 -7,-3 -11,-4 -1,3 -5,15 -5,19 6,1 10,5 37,5 18,0 38,-10 38,-27 0,-13 -4,-19 -16,-26 -4,-2 -7,-4 -11,-6 -21,-11 -4,-24 19,-18 3,1 9,3 11,4l6 -18c-4,-2 -15,-4 -21,-5 -9,-1 -15,-1 -23,1 -13,3 -26,12 -26,27zm-157 11c2,-25 43,-32 43,-6 0,8 -4,6 -19,6 -8,0 -16,0 -24,0zm-27 13c0,14 3,26 13,35 15,12 40,12 57,6 4,-1 4,-5 6,-9 1,-3 3,-9 3,-12 -9,5 -35,10 -47,2 -8,-5 -8,-11 -8,-19l66 0c2,-13 7,-30 -8,-45 -14,-15 -44,-13 -59,-2 -1,2 -2,2 -4,4 -6,5 -10,10 -14,18 -3,5 -5,14 -5,22zm-257 -29c11,-2 36,-11 48,-2 6,5 6,10 6,15 -4,0 -4,-1 -9,-1 -17,0 -28,0 -43,8 -26,13 -19,53 19,53 17,0 31,0 45,-7 5,-3 5,-3 5,-9 2,-10 7,-39 7,-47 0,-23 -19,-34 -39,-34 -9,0 -21,2 -28,3 -3,1 -4,1 -5,3l-6 18z"></path>
  <path class="fil25" d="M1429 2312l-67 68c-4,-2 -29,-28 -35,-34 -1,-1 -2,-2 -4,-4l-13 -12c-4,-4 -14,-13 -17,-18 2,-3 20,-20 25,-25 2,-2 7,-6 8,-9 -9,0 -13,-1 -17,3l-32 31 84 84 83 -83 -94 -95c0,4 0,8 0,11 0,5 0,5 3,7l33 33c4,4 41,40 43,43zm-88 0l19 -19c4,1 8,7 11,9 3,3 7,8 10,10l-20 20 -20 -20zm-15 0l34 35 36 -35 -35 -35 -35 35zm79 0l-44 44 -44 -44c3,-4 13,-12 17,-17 3,-3 5,-5 8,-8 2,-2 7,-6 8,-9 -12,0 -13,-2 -17,3 -4,4 -7,7 -11,11l-20 20 58 59c4,-1 6,-4 8,-6 3,-3 5,-5 8,-8 6,-6 42,-41 44,-45l-70 -70c-1,17 -1,14 8,23 5,6 10,10 16,16 4,5 28,29 31,31z"></path>
  <path class="fil26" d="M3272 1897c-12,0 -21,-3 -29,-8 -8,-5 -14,-12 -17,-21l9 -5c2,8 6,14 12,18 7,5 15,7 25,7 10,0 18,-2 23,-7 5,-5 8,-11 8,-18 0,-7 -3,-12 -8,-16 -5,-3 -13,-7 -24,-10 -4,-2 -7,-3 -9,-4 -2,0 -4,-1 -8,-3 -3,-1 -6,-2 -7,-3 -2,-1 -4,-2 -6,-4 -3,-2 -4,-4 -5,-6 -1,-1 -2,-4 -3,-6 -1,-3 -1,-6 -1,-9 0,-10 3,-18 10,-24 7,-6 16,-9 27,-9 10,0 18,2 25,7 7,5 12,11 15,19l-8 5c-6,-15 -16,-22 -32,-22 -8,0 -15,2 -20,7 -5,4 -8,10 -8,17 0,7 3,12 7,15 5,3 13,7 23,10 7,3 13,5 16,6 4,2 8,4 13,7 4,2 8,6 10,10 2,3 3,8 3,13 0,10 -4,18 -12,25 -7,6 -17,9 -29,9z"></path>
  <path id="1" class="fil26" d="M3343 1783c-1,1 -3,2 -5,2 -2,0 -3,-1 -5,-2 -1,-1 -2,-3 -2,-5 0,-2 1,-4 2,-5 2,-1 3,-2 5,-2 2,0 4,1 5,2 2,1 2,3 2,5 0,2 0,4 -2,5zm-9 112l0 -89 9 0 0 89 -9 0z"></path>
  <path id="2" class="fil26" d="M3376 1829c0,5 2,8 6,10 3,3 8,5 13,6 5,2 11,3 16,4 5,2 10,4 13,8 4,4 6,9 6,15 0,7 -3,13 -9,18 -6,5 -14,7 -23,7 -9,0 -16,-2 -22,-5 -5,-4 -9,-9 -12,-15l8 -4c2,5 5,9 9,11 5,3 10,4 17,4 7,0 12,-1 16,-4 5,-3 7,-7 7,-12 0,-5 -2,-8 -6,-11 -3,-2 -8,-4 -13,-6 -5,-1 -11,-2 -16,-4 -5,-1 -10,-4 -13,-7 -4,-4 -6,-8 -6,-14 0,-7 3,-13 9,-18 5,-5 12,-7 21,-7 7,0 14,1 19,4 5,3 9,8 11,13l-7 4c-2,-4 -5,-7 -9,-10 -4,-2 -9,-3 -14,-3 -6,0 -11,1 -15,4 -4,3 -6,7 -6,12z"></path>
  <path id="3" class="fil26" d="M3460 1783c-2,1 -3,2 -5,2 -2,0 -4,-1 -5,-2 -2,-1 -2,-3 -2,-5 0,-2 0,-4 2,-5 1,-1 3,-2 5,-2 2,0 3,1 5,2 1,1 2,3 2,5 0,2 -1,4 -2,5zm-10 112l0 -89 9 0 0 89 -9 0z"></path>
  <polygon id="4" class="fil26" points="3545,1886 3607,1886 3607,1895 3535,1895 3535,1771 3606,1771 3606,1780 3545,1780 3545,1828 3602,1828 3602,1837 3545,1837 "></polygon>
  <polygon id="5" class="fil26" points="3696,1895 3684,1895 3637,1852 3637,1895 3628,1895 3628,1771 3637,1771 3637,1847 3682,1806 3694,1806 3647,1849 "></polygon>
  <path id="6" class="fil26" d="M3745 1897c-13,0 -24,-4 -33,-13 -9,-9 -13,-20 -13,-33 0,-13 4,-24 13,-33 9,-9 20,-13 33,-13 13,0 24,4 33,13 9,9 14,20 14,33 0,13 -5,24 -14,33 -9,9 -20,13 -33,13zm-26 -20c7,8 16,11 26,11 11,0 20,-3 27,-11 7,-7 11,-16 11,-26 0,-11 -4,-20 -11,-27 -7,-7 -16,-11 -27,-11 -10,0 -19,4 -26,11 -8,7 -11,16 -11,27 0,10 3,19 11,26z"></path>
  <path id="7" class="fil26" d="M3928 1831c7,2 12,6 16,12 3,5 5,11 5,18 0,10 -3,17 -9,24 -7,7 -15,10 -24,10l-54 0 0 -124 50 0c9,0 16,3 23,10 6,6 9,14 9,23 0,6 -1,11 -4,16 -3,4 -7,8 -12,11zm-16 -51l-41 0 0 47 41 0c6,0 11,-2 16,-7 4,-4 7,-10 7,-16 0,-7 -3,-12 -7,-17 -5,-5 -10,-7 -16,-7zm4 106c6,0 12,-2 17,-7 5,-5 7,-11 7,-18 0,-7 -2,-13 -7,-17 -5,-5 -11,-8 -17,-8l-45 0 0 50 45 0z"></path>
  <path id="8" class="fil26" d="M4049 1806l9 0 0 89 -9 0 0 -20c-4,7 -9,12 -16,16 -7,4 -14,6 -22,6 -13,0 -24,-4 -33,-13 -9,-9 -13,-20 -13,-33 0,-13 4,-24 13,-33 9,-9 20,-13 33,-13 8,0 15,1 22,5 7,4 12,10 16,16l0 -20zm-64 71c7,8 16,11 26,11 11,0 20,-3 27,-11 7,-7 11,-16 11,-26 0,-11 -4,-20 -11,-27 -7,-7 -16,-11 -27,-11 -10,0 -19,4 -26,11 -8,7 -11,16 -11,27 0,10 3,19 11,26z"></path>
  <path id="9" class="fil26" d="M4164 1806l8 0 0 85c0,13 -4,23 -12,30 -8,8 -19,11 -32,11 -10,0 -18,-1 -26,-5 -7,-4 -12,-9 -15,-16l7 -4c6,11 17,17 34,17 11,0 20,-3 26,-9 6,-6 10,-14 10,-24l0 -17c-4,7 -9,13 -16,17 -7,4 -14,6 -22,6 -13,0 -24,-4 -33,-13 -9,-9 -13,-20 -13,-33 0,-13 4,-24 13,-33 9,-9 20,-13 33,-13 8,0 15,2 22,6 7,4 12,9 16,16l0 -21zm-65 71c8,8 17,11 27,11 11,0 19,-3 27,-11 7,-7 11,-16 11,-26 0,-11 -4,-20 -11,-27 -8,-7 -16,-11 -27,-11 -10,0 -19,4 -27,11 -7,7 -10,16 -10,27 0,10 3,19 10,26z"></path>
  <polygon class="fil26" points="3333,4584 3343,4584 3343,4713 3334,4713 3258,4602 3258,4713 3248,4713 3248,4584 3256,4584 3333,4696 "></polygon>
  <path id="1" class="fil26" d="M3367 4713l0 -9 48 -48c14,-15 21,-27 21,-37 0,-9 -3,-15 -9,-20 -5,-5 -12,-8 -20,-8 -14,0 -25,7 -31,20l-8 -5c4,-8 9,-14 16,-18 7,-4 14,-6 23,-6 11,0 20,3 27,10 8,7 11,16 11,27 0,7 -2,15 -6,21 -4,7 -10,15 -18,23l-40 41 67 0 0 9 -81 0z"></path>
  <path id="2" class="fil26" d="M3549 4697c-9,12 -21,18 -36,18 -15,0 -27,-6 -36,-18 -8,-12 -12,-28 -12,-48 0,-21 4,-37 12,-49 9,-12 21,-18 36,-18 15,0 27,6 36,18 8,12 12,28 12,49 0,20 -4,36 -12,48zm-64 -6c6,10 16,15 28,15 12,0 21,-5 28,-15 7,-10 10,-24 10,-42 0,-18 -3,-33 -10,-43 -7,-10 -16,-15 -28,-15 -12,0 -22,5 -28,15 -7,10 -10,25 -10,43 0,18 3,32 10,42z"></path>
  <polygon id="3" class="fil26" points="3596,4701 3586,4739 3577,4739 3584,4701 "></polygon>
  <path id="4" class="fil26" d="M3695 4697c-8,12 -20,18 -36,18 -15,0 -27,-6 -35,-18 -9,-12 -13,-28 -13,-48 0,-21 4,-37 13,-49 8,-12 20,-18 35,-18 16,0 28,6 36,18 9,12 13,28 13,49 0,20 -4,36 -13,48zm-64 -6c7,10 16,15 28,15 13,0 22,-5 29,-15 7,-10 10,-24 10,-42 0,-18 -3,-33 -10,-43 -7,-10 -16,-15 -29,-15 -12,0 -21,5 -28,15 -7,10 -10,25 -10,43 0,18 3,32 10,42z"></path>
  <path id="5" class="fil26" d="M3812 4697c-9,12 -21,18 -36,18 -15,0 -27,-6 -36,-18 -8,-12 -13,-28 -13,-48 0,-21 5,-37 13,-49 9,-12 21,-18 36,-18 15,0 27,6 36,18 8,12 12,28 12,49 0,20 -4,36 -12,48zm-64 -6c6,10 16,15 28,15 12,0 21,-5 28,-15 7,-10 10,-24 10,-42 0,-18 -3,-33 -10,-43 -7,-10 -16,-15 -28,-15 -12,0 -22,5 -28,15 -7,10 -11,25 -11,43 0,18 4,32 11,42z"></path>
  <path id="6" class="fil26" d="M3928 4697c-9,12 -20,18 -36,18 -15,0 -27,-6 -35,-18 -9,-12 -13,-28 -13,-48 0,-21 4,-37 13,-49 8,-12 20,-18 35,-18 16,0 27,6 36,18 8,12 13,28 13,49 0,20 -5,36 -13,48zm-64 -6c7,10 16,15 28,15 12,0 22,-5 29,-15 6,-10 10,-24 10,-42 0,-18 -4,-33 -10,-43 -7,-10 -17,-15 -29,-15 -12,0 -21,5 -28,15 -7,10 -10,25 -10,43 0,18 3,32 10,42z"></path>
  <polygon class="fil26" points="3234,4634 3354,4634 3354,4641 3234,4641 "></polygon>
  <polygon class="fil26" points="3234,4656 3354,4656 3354,4663 3234,4663 "></polygon>
  <polygon class="fil27" points="5500,694 5557,694 5557,983 5513,983 5389,806 5389,983 5332,983 5332,694 5376,694 5500,870 "></polygon>
  <polygon class="fil27" points="5309,784 5578,784 5578,829 5309,829 "></polygon>
  <polygon class="fil27" points="5309,852 5578,852 5578,890 5309,890 "></polygon>
 </g>
</svg>