<svg xmlns="http://www.w3.org/2000/svg" xmlns:xlink="http://www.w3.org/1999/xlink" xml:space="preserve" width="7.32365in" height="5.09183in" style="shape-rendering:geometricPrecision; text-rendering:geometricPrecision; image-rendering:optimizeQuality; fill-rule:evenodd; clip-rule:evenodd" viewBox="0 0 6949 4831">
 <defs>
  <style type="text/css">
   <![CDATA[
    .fil68 {fill:none;fill-rule:nonzero}
    .fil66 {fill:#94DC67}
    .fil73 {fill:white}
    .fil44 {fill:#FEFEFE;fill-rule:nonzero}
    .fil70 {fill:#FCE2E2;fill-rule:nonzero}
    .fil15 {fill:#FFD279;fill-rule:nonzero}
    .fil69 {fill:#F9BBBC;fill-rule:nonzero}
    .fil32 {fill:#FAAD65;fill-rule:nonzero}
    .fil56 {fill:#F48872;fill-rule:nonzero}
    .fil37 {fill:#F4846F;fill-rule:nonzero}
    .fil14 {fill:#FBF392;fill-rule:nonzero}
    .fil29 {fill:#EA6D57;fill-rule:nonzero}
    .fil39 {fill:#E5654F;fill-rule:nonzero}
    .fil59 {fill:#E25D48;fill-rule:nonzero}
    .fil46 {fill:#D06F5E;fill-rule:nonzero}
    .fil54 {fill:#BC6E61;fill-rule:nonzero}
    .fil40 {fill:#BA6C5F;fill-rule:nonzero}
    .fil34 {fill:#B76558;fill-rule:nonzero}
    .fil41 {fill:#B45E4F;fill-rule:nonzero}
    .fil27 {fill:#B76A5C;fill-rule:nonzero}
    .fil28 {fill:#AB4E43;fill-rule:nonzero}
    .fil22 {fill:#BB7C71;fill-rule:nonzero}
    .fil25 {fill:#BF6EA2;fill-rule:nonzero}
    .fil35 {fill:#BD6FAC;fill-rule:nonzero}
    .fil16 {fill:#AF6A5F;fill-rule:nonzero}
    .fil33 {fill:#BB6798;fill-rule:nonzero}
    .fil53 {fill:#883231;fill-rule:nonzero}
    .fil3 {fill:#B289BD;fill-rule:nonzero}
    .fil38 {fill:#96314F;fill-rule:nonzero}
    .fil20 {fill:#B7C279;fill-rule:nonzero}
    .fil36 {fill:#AC60A5;fill-rule:nonzero}
    .fil26 {fill:#AD609E;fill-rule:nonzero}
    .fil7 {fill:#9E3466;fill-rule:nonzero}
    .fil30 {fill:#62313A;fill-rule:nonzero}
    .fil11 {fill:#9C87BE;fill-rule:nonzero}
    .fil71 {fill:#9E809A;fill-rule:nonzero}
    .fil6 {fill:#9D78B4;fill-rule:nonzero}
    .fil31 {fill:#673D4E;fill-rule:nonzero}
    .fil52 {fill:#5D2A44;fill-rule:nonzero}
    .fil43 {fill:#392D2D;fill-rule:nonzero}
    .fil24 {fill:#6B4B64;fill-rule:nonzero}
    .fil58 {fill:#402D36;fill-rule:nonzero}
    .fil2 {fill:#73628D;fill-rule:nonzero}
    .fil63 {fill:#52BEB1;fill-rule:nonzero}
    .fil72 {fill:#342D32;fill-rule:nonzero}
    .fil57 {fill:#302B2F;fill-rule:nonzero}
    .fil5 {fill:#6B5689;fill-rule:nonzero}
    .fil23 {fill:#443143;fill-rule:nonzero}
    .fil55 {fill:#46334A;fill-rule:nonzero}
    .fil51 {fill:#2C2B30;fill-rule:nonzero}
    .fil49 {fill:#407174;fill-rule:nonzero}
    .fil12 {fill:#2D2C33;fill-rule:nonzero}
    .fil1 {fill:#483E5B;fill-rule:nonzero}
    .fil48 {fill:#4B3F60;fill-rule:nonzero}
    .fil47 {fill:#353041;fill-rule:nonzero}
    .fil50 {fill:#332C3E;fill-rule:nonzero}
    .fil4 {fill:#443559;fill-rule:nonzero}
    .fil17 {fill:#336678;fill-rule:nonzero}
    .fil13 {fill:#3D3250;fill-rule:nonzero}
    .fil19 {fill:#38314C;fill-rule:nonzero}
    .fil64 {fill:#2D5460;fill-rule:nonzero}
    .fil18 {fill:#244657;fill-rule:nonzero}
    .fil21 {fill:#243A48;fill-rule:nonzero}
    .fil65 {fill:#13136C;fill-rule:nonzero}
    .fil10 {fill:#27CF3F;fill-rule:nonzero}
    .fil45 {fill:#2F2F2F;fill-rule:nonzero}
    .fil42 {fill:#4A4A4A;fill-rule:nonzero}
    .fil61 {fill:#EAEAEA;fill-rule:nonzero}
    .fil8 {fill:#FF5F57;fill-rule:nonzero}
    .fil62 {fill:#FF6400;fill-rule:nonzero}
    .fil74 {fill:#FF6600;fill-rule:nonzero}
    .fil9 {fill:#FFBF2A;fill-rule:nonzero}
    .fil60 {fill:#FFF8E7;fill-rule:nonzero}
    .fil67 {fill:white;fill-rule:nonzero}
    .fil0 {fill:black;fill-rule:nonzero;fill-opacity:0.129412}
   ]]>
  </style>
 </defs>
 <g id="Layer_x0020_1">
  <metadata id="CorelCorpID_0Corel-Layer"></metadata>
  <g id="_2443766188272">
   <path class="fil0" d="M6949 4831l-6873 0c-81,0 -105,-109 -33,-144l898 -421c145,-68 301,-108 460,-118l-743 374 5989 0 -5989 0 0 234 6161 0 0 -77c-19,-16 71,56 130,152zm-186 -341l-23 -14 23 14zm-325 -189c151,81 219,125 210,122 -8,-3 -80,-47 -210,-122z"></path>
   <path class="fil1" d="M1735 3979l4150 0 189 -2799c-1243,-148 -3465,-64 -4520,107l181 2692z"></path>
   <path class="fil2" d="M1675 1380l158 2487 3957 7 178 -2603c-1416,-116 -3047,-87 -4293,109z"></path>
   <path class="fil3" d="M1838 1538l108 2329 3684 8 144 -2437c-1416,-65 -2731,-50 -3936,100z"></path>
   <polygon class="fil4" points="2029,3867 1943,3867 1943,3867 1946,3867 1946,3867 "></polygon>
   <g>
    <path class="fil5" d="M1946 3867l-3 0c-9,-189 -17,-379 -26,-568 -9,-179 -17,-357 -25,-536 -3,-70 -8,-137 -7,-203l61 1307 0 0zm3792 -1815l22 -366c3,123 -11,244 -22,366z"></path>
   </g>
   <path class="fil6" d="M5627 3875l-90 0c-37,-166 -88,-324 -127,-474 -11,-45 -21,-89 -30,-133 0,-3 -1,-6 0,-9 2,-4 6,-6 10,-8 133,-70 209,-208 293,-327 0,5 0,9 -1,14 -18,313 -37,625 -55,937zm-3460 -7l-138 -1 -83 0 -61 -1307c2,-95 15,-186 59,-282 55,-118 138,-223 240,-304 52,-43 110,-79 171,-108 111,-53 233,-82 356,-90 11,66 22,131 34,196 12,73 23,148 38,221 -183,32 -365,71 -542,128 -64,21 -132,47 -170,102 -33,48 -38,109 -39,167 0,4 0,8 0,11 0,180 35,358 72,533 27,125 70,308 107,459 -7,16 -14,33 -21,49 -32,75 -84,225 -84,225l61 1zm3463 -1088c-1,0 -2,0 -2,-1 0,0 0,0 0,0 2,-8 4,-16 8,-24 19,-33 40,-63 63,-93 -2,22 -3,44 -4,66 -28,27 -55,52 -65,52zm23 -582c60,-180 77,-381 96,-565 3,0 6,0 8,0 1,18 2,35 3,53l-22 366c-4,36 -7,73 -9,109 -18,1 -37,8 -47,15 -10,7 -20,14 -29,22zm-2608 -47c16,-41 27,-85 27,-130 0,-4 0,-9 0,-14 -4,-69 -34,-135 -63,-198 -2,-3 -3,-6 -4,-9 50,11 99,25 147,43 3,1 6,2 8,3 63,48 142,80 215,104 15,9 30,18 45,27 3,32 6,65 7,73 2,18 5,37 7,56 -130,12 -260,27 -389,45z"></path>
   <path class="fil7" d="M1833 1493l11 220c1175,-136 2670,-151 3920,-79l16 -254c-1320,-66 -2651,-40 -3947,113z"></path>
   <path class="fil8" d="M2056 1591c0,37 -30,67 -67,67 -38,0 -68,-30 -68,-67 0,-38 30,-68 68,-68 37,0 67,30 67,68z"></path>
   <path class="fil9" d="M2300 1570c0,37 -30,67 -68,67 -37,0 -68,-30 -68,-67 0,-38 31,-68 68,-68 38,0 68,30 68,68z"></path>
   <path class="fil10" d="M2550 1536c0,37 -30,68 -67,68 -38,0 -68,-31 -68,-68 0,-37 30,-68 68,-68 37,0 67,31 67,68z"></path>
   <polygon class="fil1" points="1735,3979 658,4522 6819,4522 5885,3979 "></polygon>
   <polygon class="fil2" points="658,4756 6819,4756 6819,4522 658,4522 "></polygon>
   <polygon class="fil2" points="1050,4432 1765,4055 5863,4055 6556,4432 "></polygon>
   <polygon class="fil11" points="1687,4321 1554,4397 5890,4397 5780,4321 "></polygon>
   <polygon class="fil11" points="1426,4276 6202,4276 5863,4089 1784,4089 "></polygon>
   <path class="fil2" d="M1532 4226l4570 0c3,0 5,-2 5,-5 0,-3 -2,-5 -5,-5l-4570 0c-3,0 -6,2 -6,5 0,3 3,5 6,5z"></path>
   <path class="fil2" d="M1605 4188l4427 0c3,0 5,-2 5,-5 0,-3 -2,-6 -5,-6l-4427 0c-3,0 -5,3 -5,6 0,3 2,5 5,5z"></path>
   <path class="fil2" d="M1727 4124l4190 0c3,0 5,-2 5,-5 0,-3 -2,-5 -5,-5l-4190 0c-3,0 -6,2 -6,5 0,3 3,5 6,5z"></path>
   <path class="fil2" d="M5968 4142l-4296 0c-3,0 -5,3 -5,6 0,2 2,5 5,5l4296 0c3,0 6,-3 6,-5 0,-3 -3,-6 -6,-6z"></path>
   <path class="fil2" d="M1766 4281l306 -187c2,-2 3,-5 2,-8 -2,-2 -5,-3 -8,-1l-306 187c-3,1 -3,4 -2,7 2,2 5,3 8,2z"></path>
   <path class="fil2" d="M2147 4281l267 -188c2,-1 3,-5 1,-7 -2,-2 -5,-3 -8,-1l-266 187c-2,2 -3,5 -1,7 2,3 5,3 7,2z"></path>
   <path class="fil2" d="M2549 4280l226 -187c3,-2 3,-5 1,-7 -2,-3 -5,-3 -7,-1l-226 187c-3,2 -3,5 -1,8 2,2 5,2 7,0z"></path>
   <path class="fil2" d="M3007 4280l151 -188c2,-2 1,-5 -1,-7 -2,-2 -6,-2 -8,1l-150 187c-2,2 -2,5 1,7 2,2 5,2 7,0z"></path>
   <path class="fil2" d="M3460 4276l0 -187c0,-3 -2,-5 -5,-5 -3,0 -5,2 -5,5l0 187c0,3 2,6 5,6 3,0 5,-3 5,-6z"></path>
   <path class="fil2" d="M3737 4092l135 187c2,3 5,3 8,2 2,-2 3,-6 1,-8l-135 -187c-2,-2 -5,-3 -7,-1 -3,2 -3,5 -2,7z"></path>
   <path class="fil2" d="M4105 4093l210 187c2,2 6,2 8,0 2,-2 1,-6 -1,-8l-210 -187c-2,-2 -5,-2 -7,1 -2,2 -2,5 0,7z"></path>
   <path class="fil2" d="M4549 4093l256 187c2,2 6,2 7,-1 2,-2 2,-5 -1,-7l-256 -187c-2,-2 -6,-1 -7,1 -2,2 -1,6 1,7z"></path>
   <path class="fil2" d="M5001 4094l286 187c3,1 6,1 8,-2 1,-2 1,-6 -2,-7l-286 -187c-3,-2 -6,-1 -7,1 -2,3 -1,6 1,8z"></path>
   <path class="fil2" d="M5468 4094l309 187c3,1 6,0 7,-2 2,-3 1,-6 -1,-7l-309 -187c-3,-2 -6,-1 -8,1 -1,3 0,6 2,8z"></path>
   <path class="fil2" d="M1987 4280l245 -187c2,-1 2,-5 1,-7 -2,-2 -5,-3 -8,-1l-245 187c-2,2 -2,5 -1,7 2,3 6,3 8,1z"></path>
   <path class="fil2" d="M2360 4280l226 -187c2,-2 2,-5 1,-7 -2,-3 -6,-3 -8,-1l-226 187c-2,2 -2,5 -1,8 2,2 6,2 8,0z"></path>
   <path class="fil2" d="M2776 4280l187 -187c2,-2 2,-6 0,-8 -2,-2 -6,-2 -8,0l-187 187c-2,2 -2,6 0,8 2,2 6,2 8,0z"></path>
   <path class="fil2" d="M3239 4278l55 -187c1,-3 -1,-6 -3,-7 -3,-1 -6,1 -7,4l-55 187c-1,2 1,5 3,6 3,1 6,0 7,-3z"></path>
   <path class="fil2" d="M3665 4275l-61 -188c-1,-2 -4,-4 -6,-3 -3,1 -5,4 -4,7l60 187c1,3 4,4 7,3 3,-1 5,-4 4,-6z"></path>
   <path class="fil2" d="M4095 4273l-153 -187c-2,-3 -5,-3 -7,-1 -2,2 -3,5 -1,8l153 187c2,2 5,2 8,0 2,-2 2,-5 0,-7z"></path>
   <path class="fil2" d="M4556 4272l-199 -187c-2,-2 -5,-2 -7,0 -2,3 -2,6 0,8l198 187c3,2 6,2 8,0 2,-2 2,-6 0,-8z"></path>
   <path class="fil2" d="M5040 4272l-239 -187c-2,-2 -5,-1 -7,1 -2,2 -1,6 1,7l238 187c3,2 6,2 8,-1 2,-2 1,-5 -1,-7z"></path>
   <path class="fil2" d="M5539 4272l-289 -187c-2,-2 -5,-1 -7,1 -2,3 -1,6 2,8l288 187c3,1 6,1 8,-2 1,-2 1,-6 -2,-7z"></path>
   <path class="fil2" d="M6001 4272l-316 -187c-3,-2 -6,-1 -8,1 -1,3 0,6 2,8l316 187c3,1 6,0 8,-2 1,-3 0,-6 -2,-7z"></path>
   <path class="fil2" d="M1578 4281l340 -187c3,-2 4,-5 3,-7 -2,-3 -5,-4 -8,-3l-341 187c-2,2 -3,5 -2,8 2,2 5,3 8,2z"></path>
   <polygon class="fil1" points="723,4703 4037,4703 4037,4572 723,4572 "></polygon>
   <polygon class="fil12" points="4354,4678 4941,4678 4941,4613 4354,4613 "></polygon>
   <polygon class="fil13" points="5037,4678 5268,4678 5268,4613 5037,4613 "></polygon>
   <polygon class="fil1" points="5448,4678 6131,4678 6131,4613 5448,4613 "></polygon>
   <path class="fil12" d="M6320 4703c-32,0 -58,-26 -58,-58 0,-32 26,-58 58,-58 31,0 57,26 57,58 0,32 -26,58 -57,58z"></path>
   <path class="fil12" d="M6520 4678c-18,0 -32,-15 -32,-33 0,-18 14,-32 32,-32 18,0 33,14 33,32 0,18 -15,33 -33,33z"></path>
   <path class="fil14" d="M5394 3870c0,0 -34,-706 -112,-1053 -48,-210 -112,-421 -241,-594 -34,-45 -74,-89 -126,-113 -43,-20 -91,-25 -138,-29 -248,-21 -500,-14 -749,-9 -401,8 -801,46 -1196,112 -200,34 -398,75 -591,137 -64,21 -132,47 -170,102 -33,48 -38,109 -39,167 -1,183 34,365 72,544 54,252 173,732 173,732l3117 4z"></path>
   <path class="fil15" d="M2211 3593c-37,-151 -80,-334 -107,-459 -37,-175 -72,-353 -72,-533 0,-3 0,-7 0,-11 1,-58 6,-119 39,-167 11,-16 27,-24 44,-24 11,0 24,4 35,11 20,12 35,31 47,51 24,44 37,93 49,142 38,162 65,327 93,492 8,47 15,94 23,141 -50,119 -101,238 -151,357z"></path>
   <path class="fil16" d="M4665 3493l482 -80 -28 461c-182,0 -382,0 -454,-1l0 -380z"></path>
   <path class="fil17" d="M2330 3868c116,-371 188,-611 303,-981 30,-98 65,-203 149,-262 32,-23 71,-38 109,-52 168,-62 338,-120 509,-175 113,-35 221,-73 341,-77 124,-5 248,14 371,34 227,36 466,51 684,123 41,13 82,29 114,58 34,29 55,70 75,110 126,248 246,503 351,760 -211,70 -428,117 -649,141 15,151 16,177 44,327 -179,9 -1527,5 -2401,-6z"></path>
   <path class="fil18" d="M4117 3879c-263,0 -583,-1 -905,-3 9,-3 17,-7 22,-13 -111,-29 -187,-139 -212,-251 -25,-113 -10,-230 1,-345 20,-233 20,-468 0,-701 0,-2 0,-4 -1,-6 -3,-18 -13,-24 -27,-25 133,-48 267,-93 401,-135 -3,3 -7,7 -10,11 -26,24 -57,41 -89,56 -3,2 -6,3 -7,7 -2,4 1,9 4,13 61,69 148,113 238,130 35,7 71,10 107,10 56,0 112,-8 167,-20 121,-28 245,-86 303,-197 -1,0 -1,0 -1,0 -45,0 -98,-36 -124,-70 -1,-2 -2,-3 -3,-5 44,6 87,13 131,20 38,7 71,12 107,25 -12,96 -91,170 -173,223 -157,101 -345,154 -532,154 -103,0 -207,-16 -304,-48 75,193 258,340 464,372 -75,124 -193,215 -307,303 -45,35 -91,69 -136,104 86,25 175,37 265,37 215,0 431,-71 601,-204 60,-47 114,-101 173,-150 11,-9 24,-19 38,-20 2,-1 4,-1 6,-1 30,0 51,33 62,62 35,97 35,208 95,291 -8,-171 196,-810 321,-942 -99,305 -164,609 -67,914 51,-40 103,-80 154,-120 17,-14 36,-30 39,-52 1,-15 -5,-29 -10,-43 -38,-97 -47,-204 -26,-306 5,-25 113,-254 122,-254 0,0 0,0 0,0 7,11 14,22 20,34 -1,2 -2,4 -4,6 -28,45 -48,94 -63,145 -14,44 -25,90 -22,137 5,68 39,133 84,185 32,37 48,63 45,113 -2,55 -7,110 -13,166 -120,27 -241,48 -364,61l0 0c15,151 16,177 44,327 -68,3 -302,5 -614,5zm-1087 -5c-52,0 -104,0 -155,-1 51,1 102,1 154,1 0,0 1,0 1,0zm-251 -1c-18,-1 -36,-1 -54,-1 0,0 0,-1 0,-2 26,2 46,2 54,3z"></path>
   <path class="fil19" d="M3154 3883c-46,0 -97,-8 -124,-9 61,1 121,1 182,2 -16,5 -36,7 -58,7zm-279 -10c-32,0 -64,0 -95,0 -1,0 -1,0 -1,0 32,0 64,0 96,0z"></path>
   <path class="fil20" d="M2953 2550c1,-2 1,-4 1,-6 14,-5 28,-9 39,-9 1,0 1,0 2,0 -14,5 -28,10 -42,15z"></path>
   <path class="fil21" d="M3212 3876c-61,-1 -121,-1 -182,-2 0,0 -1,0 -1,0 -52,0 -103,0 -154,-1 -32,0 -64,0 -96,0 -8,-1 -28,-1 -54,-3 5,-33 83,-561 133,-818 27,-135 53,-270 79,-404 6,-33 12,-66 16,-98 14,-5 28,-10 42,-15 14,1 24,7 27,25 1,2 1,4 1,6 20,233 20,468 0,701 -11,115 -26,232 -1,345 25,112 101,222 212,251 -5,6 -13,10 -22,13z"></path>
   <path class="fil22" d="M5909 2385c25,-35 51,-82 13,-119 -8,-9 -22,-9 -33,-5 -11,5 -20,13 -29,21 19,-26 37,-54 45,-85 5,-20 3,-46 -15,-56 -58,-30 -132,87 -163,119 11,-15 20,-31 28,-47 3,-7 7,-14 8,-21 5,-45 -60,-31 -81,-16 -130,93 -232,204 -326,332 -27,36 -78,86 -92,130 27,-85 51,-174 20,-262 -12,-33 -36,-66 -70,-72 -22,107 -45,216 -103,308 -27,45 -63,84 -91,128 -28,45 -48,94 -63,145 -14,44 -25,90 -22,137 5,68 39,133 84,185 32,37 48,63 45,113 -9,182 -40,370 -49,553 92,5 502,5 522,2 -48,-216 -119,-419 -160,-607 0,-3 -1,-6 0,-9 2,-4 6,-6 10,-8 140,-73 216,-222 306,-345 81,-111 177,-211 252,-327 5,-8 10,-16 11,-25 2,-18 -3,-44 -27,-41 -25,3 -44,22 -61,39 -33,35 -68,68 -103,102 -10,11 -126,139 -137,125 -3,-3 -1,-9 1,-12 36,-64 80,-121 127,-176 54,-65 102,-133 151,-202 1,-1 2,-2 2,-4z"></path>
   <path class="fil23" d="M5374 3877c-15,0 -29,0 -43,0 9,0 18,0 27,0 34,0 65,0 92,0 -24,0 -50,0 -76,0zm497 -1192l1 -4c25,-33 50,-67 73,-102 5,-8 10,-16 11,-25 2,-17 -2,-41 -24,-41 0,0 -1,0 -2,0 0,-1 -1,-1 -1,-2 1,0 1,0 2,0 23,0 30,23 28,43 -1,9 -6,17 -11,25 -24,37 -50,72 -77,106z"></path>
   <path class="fil24" d="M5686 2919l1 -4c2,-3 4,-6 6,-9 56,-77 120,-149 179,-225l-1 4c-57,74 -120,145 -175,221 -3,5 -7,9 -10,13z"></path>
   <path class="fil25" d="M5683 2924c0,-2 0,-3 0,-4 2,-2 3,-3 4,-5l-1 4c-1,2 -2,3 -3,5z"></path>
   <path class="fil26" d="M5410 3401c-12,-45 -23,-90 -33,-133 0,-3 -1,-6 0,-9 2,-4 6,-6 10,-8 135,-71 211,-211 296,-331 0,1 0,2 0,4 -84,119 -160,257 -293,327 -4,2 -8,4 -10,8 -1,3 0,6 0,9 9,44 19,88 30,133zm218 -622c-3,-4 -1,-9 1,-12 2,-4 5,-8 7,-12 -4,8 -6,16 -8,24z"></path>
   <path class="fil25" d="M5264 2638c27,-85 51,-174 20,-262 -3,-7 -6,-14 -9,-21 4,7 9,13 12,21 21,59 16,121 3,181 -5,21 -12,40 -17,60 -3,7 -7,14 -9,21z"></path>
   <path class="fil23" d="M5890 2417l0 -4c6,-8 11,-16 17,-24 1,-1 2,-2 2,-4 25,-35 51,-82 13,-119 0,-1 -1,-1 -1,-2 48,20 9,95 -9,121 -1,2 -2,3 -2,4 -7,9 -14,19 -20,28z"></path>
   <path class="fil24" d="M5717 2637c13,-15 26,-31 39,-46 48,-58 91,-117 134,-178l0 4c-42,60 -85,118 -132,174 -11,13 -25,29 -41,46z"></path>
   <path class="fil25" d="M5245 2318c0,0 0,0 0,0 0,-1 -1,-2 -1,-3 0,1 1,2 1,3z"></path>
   <path class="fil24" d="M5860 2282c12,-17 24,-35 34,-54 -6,16 -14,30 -23,44 -4,4 -7,7 -11,10zm-133 -22c3,-4 6,-8 8,-12 7,-9 14,-19 20,-28 -2,2 -5,5 -8,8 3,-5 6,-10 8,-15 3,-7 7,-14 8,-21 1,-11 -2,-18 -6,-23 29,11 -10,67 -24,85 -1,1 -2,2 -3,4 -1,1 -2,2 -3,2z"></path>
   <path class="fil27" d="M5358 3877c-9,0 -18,0 -27,0 -44,0 -83,-1 -97,-3 -19,-15 -10,-106 -11,-130 -2,-43 -4,-86 -7,-129 -5,-83 -11,-166 -19,-249 -2,-27 -5,-55 -14,-80 -13,-38 -38,-69 -61,-101 -44,-64 -80,-139 -71,-215 9,-75 57,-135 92,-199 34,-63 64,-130 89,-199 30,-81 46,-174 13,-254 0,0 0,0 0,0 7,14 20,25 30,37 3,7 6,14 9,21 31,88 7,177 -20,262 2,-7 6,-14 9,-21 -7,30 -10,60 7,92 67,-123 163,-227 257,-330 50,-53 99,-107 149,-161 12,-13 41,-50 60,-50 0,0 0,0 0,0 4,0 8,0 11,1 4,5 7,12 6,23 -1,7 -5,14 -8,21 -2,5 -5,10 -8,15 -29,29 -58,59 -85,89 -31,33 -61,67 -90,102 -29,34 -58,69 -86,104 -28,35 -55,71 -81,108 22,-21 43,-42 63,-64 -23,28 -44,57 -55,86 -4,11 -4,23 3,31 4,4 10,6 16,6 4,0 9,-1 12,-2 10,-4 17,-12 24,-19 102,-106 189,-216 276,-333 20,-28 40,-56 60,-84 16,-21 39,-74 63,-86 8,-3 14,-5 19,-5 25,0 17,39 9,62 0,2 -1,3 -1,5 -10,19 -22,37 -34,54 4,-3 7,-6 11,-10 0,1 0,1 0,1 -34,32 -65,66 -95,100 -32,36 -63,73 -93,110 -29,38 -59,75 -88,113 -29,38 -58,77 -86,116 35,-34 67,-69 99,-105 1,-1 2,-2 2,-3 -26,34 -52,67 -78,101 -9,11 -14,34 1,35 0,0 0,0 0,0 6,0 11,-5 14,-10 112,-131 224,-263 335,-395 18,-21 37,-45 34,-72 2,0 3,1 5,1 0,1 1,1 1,2 38,37 12,84 -13,119 0,2 -1,3 -2,4 -6,8 -11,16 -17,24 -43,61 -86,120 -134,178 -13,15 -26,31 -39,46 -30,35 -63,77 -81,118 -2,4 -5,8 -7,12 -2,3 -4,8 -1,12 -5,16 -6,32 -3,48 1,5 2,10 6,13 2,2 5,2 8,2 6,0 14,-4 19,-8 101,-79 190,-172 264,-275 10,-15 17,-31 8,-46 1,0 2,0 2,0 22,0 26,24 24,41 -1,9 -6,17 -11,25 -23,35 -48,69 -73,102 -59,76 -123,148 -179,225 -2,3 -4,6 -6,9 -1,2 -2,3 -4,5 -85,120 -161,260 -296,331 -4,2 -8,4 -10,8 -1,3 0,6 0,9 10,43 21,88 33,133 38,158 89,319 127,474l0 0c-10,1 -45,2 -87,2 -27,0 -58,0 -92,0zm-98 -1208c-5,10 -8,21 -10,33 -1,11 -1,22 -1,34 2,22 6,45 12,66 5,22 10,43 13,65 3,21 4,43 3,64 -1,43 -10,86 -26,127 -8,20 -17,40 -28,59 -12,19 -24,37 -38,54 17,-14 32,-30 46,-48 14,-18 26,-38 35,-59 10,-20 17,-42 23,-64 5,-22 8,-45 10,-68 0,-23 -1,-46 -5,-68 -4,-23 -10,-45 -17,-66 -7,-21 -14,-42 -18,-64 -2,-10 -3,-21 -3,-32 0,-11 1,-22 4,-33zm269 -168c12,-14 24,-27 35,-41 -1,2 -2,3 -3,4 -10,12 -21,24 -32,37zm183 -221c8,-11 16,-21 23,-32 -2,4 -5,8 -8,12 1,0 2,-1 3,-2 -6,7 -12,15 -18,22z"></path>
   <path class="fil28" d="M5185 3171c14,-17 26,-35 38,-54 11,-19 20,-39 28,-59 16,-41 25,-84 26,-127 1,-21 0,-43 -3,-64 -3,-22 -8,-43 -13,-65 -6,-21 -10,-44 -12,-66 0,-12 0,-23 1,-34 2,-12 5,-23 10,-33 -3,11 -4,22 -4,33 0,11 1,22 3,32 4,22 11,43 18,64 7,21 13,43 17,66 4,22 5,45 5,68 -2,23 -5,46 -10,68 -6,22 -13,44 -23,64 -9,21 -21,41 -35,59 -14,18 -29,34 -46,48z"></path>
   <path class="fil29" d="M5468 2567c20,-23 41,-45 61,-66 -10,11 -20,22 -30,33 -10,11 -20,22 -31,33zm96 -107c49,-60 98,-120 148,-180 -13,16 -25,32 -38,48 -28,35 -57,70 -86,104 -8,10 -16,19 -24,28z"></path>
   <path class="fil30" d="M5735 2248c5,-7 8,-13 12,-20 3,-3 6,-6 8,-8 -6,9 -13,19 -20,28z"></path>
   <path class="fil28" d="M5405 2631c26,-37 53,-73 81,-108 28,-35 57,-70 86,-104 29,-35 59,-69 90,-102 27,-30 56,-60 85,-89 -4,7 -7,13 -12,20 -7,11 -15,21 -23,32 -50,60 -99,120 -148,180 -11,14 -23,27 -35,41 -20,21 -41,43 -61,66 -20,22 -41,43 -63,64z"></path>
   <path class="fil31" d="M5872 2272c1,-1 2,-2 3,-3 -1,0 -1,1 -1,1 -1,1 -1,1 -2,2z"></path>
   <path class="fil29" d="M5610 2604c61,-77 121,-155 182,-232 25,-32 56,-64 79,-99 0,-1 1,-1 1,-1 1,-1 1,-1 2,-2 -28,38 -57,76 -86,114 -29,38 -58,75 -88,113 -29,36 -59,72 -90,107z"></path>
   <path class="fil28" d="M5509 2712c28,-39 57,-78 86,-116 29,-38 59,-75 88,-113 30,-37 61,-74 93,-110 30,-34 61,-68 95,-100 -23,35 -54,67 -79,99 -61,77 -121,155 -182,232 0,1 -1,2 -2,3 -32,36 -64,71 -99,105z"></path>
   <path class="fil22" d="M3431 2338c-9,26 -23,51 -45,73 -26,24 -57,41 -89,56 -3,2 -6,3 -7,7 -2,4 1,9 4,13 61,69 148,113 238,130 91,17 185,10 274,-10 121,-28 245,-86 303,-197 -45,1 -99,-35 -125,-70 -27,-37 -40,-82 -51,-126 -30,-120 -44,-237 -31,-360 -31,35 -108,43 -152,51 -59,11 -119,16 -179,20 -54,5 -110,9 -163,-8 9,3 17,119 19,133 6,48 12,96 14,144 3,50 4,100 -10,144z"></path>
   <path class="fil32" d="M3436 2321c2,-15 4,-29 6,-43 -1,14 -3,29 -6,43z"></path>
   <path class="fil33" d="M3904 2057c-3,-26 -5,-52 -6,-78 3,26 7,54 6,78z"></path>
   <path class="fil34" d="M3417 2379c6,-13 11,-27 14,-41 2,-6 3,-12 5,-17 3,-14 5,-29 6,-43 2,-27 2,-55 0,-84 -2,-48 -8,-96 -14,-144 -1,-9 -4,-52 -8,-87 59,18 126,36 188,36 11,0 22,-1 33,-2 88,-11 174,-43 254,-88 0,17 1,33 1,41 0,9 1,18 2,29 1,26 3,52 6,78 -1,5 -1,10 -2,15 -7,30 -41,62 -62,84 -50,49 -112,87 -171,120 -40,22 -81,40 -121,59 -21,11 -44,21 -66,28 -8,3 -63,12 -65,16z"></path>
   <path class="fil22" d="M4177 1513c13,-189 18,-376 18,-566 0,-124 6,-245 -41,-362 -41,-100 -113,-188 -206,-244 -45,-27 -93,-47 -142,-66 -198,-77 -434,-42 -609,79 -81,57 -148,131 -193,216 -29,55 -49,115 -59,178 -19,133 -2,273 11,406 14,142 34,283 63,423 12,56 25,113 52,164 62,121 210,180 333,217 73,22 161,47 237,38 244,-40 514,-228 536,-483z"></path>
   <path class="fil35" d="M3418 1963c-4,-1 -9,-3 -14,-4 -9,-3 -19,-6 -29,-9 -1,-1 -2,-1 -2,-2 10,4 21,7 31,10 5,2 10,3 14,4 0,0 0,1 0,1zm-256 -117c-1,0 -1,0 -2,0 -37,-29 -68,-63 -89,-104 -2,-3 -3,-6 -4,-9 1,3 2,5 4,8 21,42 53,76 91,105z"></path>
   <path class="fil36" d="M3375 1950c-73,-24 -152,-56 -215,-104 1,0 1,0 2,0 62,47 139,79 211,102 0,1 1,1 2,2z"></path>
   <path class="fil37" d="M3420 1963c-1,0 -1,0 -2,0 0,0 0,-1 0,-1 1,0 1,1 2,1 0,0 0,0 0,0z"></path>
   <path class="fil35" d="M3898 1908c0,0 0,0 0,-1 67,-37 129,-83 184,-131 25,-21 49,-44 64,-73 18,-34 22,-73 25,-111l0 0c-3,38 -7,77 -25,112 -15,29 -39,52 -64,73 -55,48 -117,94 -184,131z"></path>
   <path class="fil38" d="M4171 1592c0,-2 0,-3 0,-4 2,-25 4,-50 6,-75 2,-29 4,-58 5,-86 0,0 0,0 0,0 -1,29 -3,57 -5,86 -2,25 -4,51 -6,76 0,1 0,2 0,3l0 0z"></path>
   <path class="fil37" d="M3895 1909c0,0 0,0 0,0 1,-1 2,-1 3,-2 0,1 0,1 0,1 -1,0 -2,1 -3,1z"></path>
   <path class="fil39" d="M3608 1999c-62,0 -129,-18 -188,-36 0,0 0,0 0,0 58,17 126,35 188,35 11,0 22,-1 33,-2 88,-10 174,-43 254,-87 0,0 0,0 0,0 -80,45 -166,77 -254,88 -11,1 -22,2 -33,2z"></path>
   <path class="fil40" d="M3608 1998c-62,0 -130,-18 -188,-35 -1,0 -1,-1 -2,-1 -4,-1 -9,-2 -14,-4 -10,-3 -21,-6 -31,-10 -72,-23 -149,-55 -211,-102 -38,-29 -70,-63 -91,-105 -2,-3 -3,-5 -4,-8 -7,-16 -11,-34 -15,-51 59,53 129,92 204,120 94,35 197,50 298,51 47,0 94,-4 139,-11l-3 -24c6,1 12,2 18,4 17,6 32,22 31,40 -1,13 -10,24 -19,33 -22,23 -48,43 -75,59 5,1 11,1 16,1 87,0 167,-50 237,-102 42,-31 82,-65 109,-109 28,-46 39,-101 47,-154 35,-218 41,-712 -46,-956 -15,-44 23,-153 1,-178 -191,-213 -529,-12 -16,-12 13,0 25,-3 36,-9 -17,42 12,96 56,105 8,1 55,180 60,186 2,3 -37,-172 -37,-169 14,74 61,281 62,356 1,34 51,-42 48,-9 -13,109 -49,128 -49,275 0,4 0,8 0,11 0,1 0,1 0,1 0,8 0,27 0,51 0,54 2,135 13,185 -1,28 -3,57 -5,86 -24,192 -73,232 -279,394 -1,1 -2,1 -3,2 -80,44 -166,77 -254,87 -11,1 -22,2 -33,2z"></path>
   <path class="fil41" d="M3454 1377c-11,-6 -19,-18 -22,-29 -4,-12 -5,-24 -5,-35 2,-89 48,-111 50,-131 2,-43 3,-85 3,-128 0,-43 -3,-86 -5,-129 11,42 17,85 21,128 1,22 3,44 3,65 0,22 0,44 -1,65 -1,13 -47,53 -52,131 -1,20 1,41 16,51 1,1 74,13 96,21l2 1 0 2c-13,7 -93,-4 -106,-12zm102 16l0 0z"></path>
   <path class="fil42" d="M4189 931c0,28 12,153 12,185 0,4 -32,71 -32,74 0,1 0,1 0,1 0,8 0,27 0,51 7,281 108,448 -253,646 -40,22 -108,44 -160,48 -77,7 121,-230 251,-343 100,-87 128,-432 121,-648 -7,-246 61,-384 61,-14z"></path>
   <path class="fil42" d="M2946 1255c-8,281 -44,454 317,652 40,22 249,127 235,77 -47,-169 -186,-201 -296,-315 -154,-159 -204,-345 -256,-536l-1 -7 0 0c0,39 1,82 1,129z"></path>
   <path class="fil42" d="M3320 1863c-58,-79 -40,-307 7,-344 75,-58 465,-131 525,-51 24,32 48,140 92,207 47,73 111,98 92,130 -12,21 -123,88 -137,106 -180,226 -500,161 -579,-48zm253 -386c-74,11 -150,31 -221,62l-13 6c0,86 28,140 72,171 105,75 298,21 399,-20 91,-37 29,-230 11,-230 0,0 -186,2 -248,11z"></path>
   <path class="fil43" d="M3591 1674c-41,0 -83,-12 -123,-33 -40,-21 -76,-49 -107,-83 69,-30 143,-42 218,-53 73,-11 150,-12 225,-12l1 0c-13,33 -34,68 -54,97 -41,58 -99,84 -160,84z"></path>
   <path class="fil44" d="M3803 1494c-34,-5 -72,-1 -107,1 -39,1 -79,4 -117,10 -71,10 -150,23 -217,53 10,16 39,19 56,20 91,8 182,-4 271,-24 41,-9 92,-22 116,-60l-2 0z"></path>
   <path class="fil16" d="M3804 1493l-1 -11c-75,1 -151,1 -226,12 -74,11 -149,23 -220,54l-13 6 10 11c31,35 68,64 109,85 41,22 85,34 128,34 64,0 126,-27 169,-88 20,-29 42,-65 55,-100l5 -14 -17 0 0 0 1 11 0 10 1 0 0 -10 -10 -4c-12,31 -33,66 -53,95 -39,55 -93,79 -151,79 -39,0 -79,-11 -118,-31 -39,-21 -74,-49 -104,-81l-8 7 5 10c67,-30 140,-41 214,-52 73,-11 149,-12 224,-13l0 0 0 -10z"></path>
   <path class="fil45" d="M3703 724c14,-14 69,-34 85,-15 6,7 7,19 1,26 44,-16 94,-9 132,16 32,20 75,54 76,94 0,3 0,6 -2,7 -1,0 -2,0 -4,0 -39,-9 -76,-29 -116,-31 -49,-2 -93,-1 -141,9 -21,4 -43,9 -63,4 -52,-13 -37,-68 -8,-96 12,-13 26,-23 41,-31 3,-2 7,-3 9,-2 -2,7 -6,14 -10,19z"></path>
   <path class="fil45" d="M3351 753c-9,-5 -18,-7 -27,-7 -5,1 -10,2 -13,5 -3,4 -4,10 0,13 -25,-18 -58,-24 -88,-16 -8,2 -16,6 -18,14 9,8 19,16 30,21 -26,-7 -54,-5 -79,6 -1,1 -3,2 -4,4 -2,5 7,7 12,5 -45,16 -83,65 -101,108 -4,8 -6,18 0,23 7,7 19,1 27,-5 66,-46 148,-69 228,-64 28,1 68,7 73,-27 5,-27 -14,-65 -40,-80z"></path>
   <path class="fil46" d="M2982 1156c0,-2 0,-3 -1,-5 2,-25 1,-50 -1,-75 3,27 4,54 2,80z"></path>
   <path class="fil47" d="M2904 1457c23,70 59,130 104,181 67,75 153,129 248,164 94,35 197,50 298,51 47,0 94,-4 139,-11l-9 -63c-42,6 -86,9 -130,9 -126,1 -254,-26 -359,-84 -53,-28 -100,-65 -139,-109 -39,-44 -70,-96 -91,-158l-61 20z"></path>
   <path class="fil1" d="M3374 1856c54,11 115,18 176,18 60,0 121,-7 176,-22 29,-8 45,-37 37,-66 -7,-28 -37,-45 -65,-37 -43,12 -95,18 -148,18 -54,0 -108,-6 -155,-16 -28,-6 -57,13 -63,42 -6,29 13,57 42,63z"></path>
   <path class="fil1" d="M2748 1032c-36,74 -39,169 -29,248 17,127 123,327 277,310 48,-6 13,-245 9,-279 -14,-124 -35,-250 -85,-365 -3,-7 -6,-14 -12,-19 -14,-13 -35,-8 -52,-1 -51,22 -86,60 -108,106z"></path>
   <path class="fil48" d="M2745 1377c-12,-31 -21,-64 -26,-97 4,30 13,63 26,97 0,0 0,0 0,0z"></path>
   <path class="fil49" d="M2715 1164c1,-11 3,-22 4,-33 -1,11 -3,22 -3,33l-1 0z"></path>
   <path class="fil50" d="M2717 1261c-3,-33 -4,-65 -2,-97l1 0c-3,32 -2,66 1,97l0 0z"></path>
   <path class="fil48" d="M2719 1280c-1,-7 -1,-13 -2,-19l0 0c1,6 1,12 2,19z"></path>
   <path class="fil49" d="M2719 1129c3,-17 10,-69 27,-98 3,-6 6,-11 10,-15 -3,5 -6,11 -8,16 -14,30 -24,63 -29,97z"></path>
   <path class="fil50" d="M2745 1377c-13,-34 -22,-67 -26,-97 0,0 0,0 0,0l0 0c0,0 0,0 0,0 -1,-7 -1,-13 -2,-19 -3,-31 -4,-65 -1,-97 0,-11 2,-22 3,-33 0,0 0,-1 0,-1 0,0 0,-1 0,-1 5,-34 15,-67 29,-97 2,-5 5,-11 8,-16 5,-4 9,-6 15,-6 0,0 1,0 1,0 12,1 21,9 28,18 27,34 39,76 49,118 1,6 3,13 4,20 -24,49 -49,98 -75,147 -11,21 -22,43 -33,64zm128 -20c1,-1 2,-1 2,-2 0,0 0,1 0,1 0,1 -1,1 -2,1z"></path>
   <path class="fil51" d="M2994 1590c0,0 0,0 0,0 0,0 0,0 0,0zm0 0c0,0 0,0 1,0 -1,0 -1,0 -1,0zm1 0c0,0 0,0 0,0 0,0 0,0 0,0zm0 0c0,0 0,0 0,0 0,0 0,0 0,0zm0 0l0 0c0,0 0,0 0,0zm1 0c0,0 0,0 0,0 0,0 0,0 0,0z"></path>
   <path class="fil50" d="M2979 1591c-2,0 -4,0 -6,-1 13,-16 26,-33 38,-50 0,0 0,1 0,1 1,7 2,14 5,20 -4,17 -10,27 -20,29l0 0c0,0 0,0 0,0 0,0 0,0 0,0 0,0 -1,0 -1,0l0 0c0,0 0,0 0,0 0,0 0,0 0,0 0,0 0,0 0,0 0,0 0,0 0,0 0,0 0,0 0,0 -1,0 -1,0 -1,0 0,0 0,0 0,0 0,0 0,0 0,0 -5,0 -10,1 -15,1zm32 -229c0,0 0,0 0,0 -2,-4 -5,-6 -9,-6 0,0 -1,0 -1,0 -2,0 -4,0 -5,1 0,-11 -5,-21 -10,-30 -2,-4 -4,-9 -8,-11 -2,0 -4,-1 -6,-1 -2,0 -4,1 -6,1 -10,1 -19,4 -29,7 -1,-27 -4,-55 -8,-83 3,-8 6,-16 9,-24 2,-4 3,-8 5,-13 13,-37 22,-76 24,-116 18,74 29,149 38,224 1,8 3,27 6,51zm0 -1c-1,0 -1,0 -2,-1 -2,-1 -5,-2 -7,-2 -3,0 -5,1 -7,3 0,-1 0,-1 0,-2 3,-1 5,-1 7,-1 0,0 1,0 1,0 3,0 6,1 8,3z"></path>
   <path class="fil49" d="M2861 924c0,-1 0,-1 0,-1 8,-3 16,-4 23,-4 3,0 6,0 9,0 -2,0 -5,0 -7,0 -8,0 -17,2 -25,5z"></path>
   <path class="fil51" d="M2822 944c0,0 -1,0 -1,0 9,-8 24,-16 40,-21 0,0 0,0 0,1 -1,0 -3,1 -5,2 -12,5 -24,11 -34,18z"></path>
   <path class="fil50" d="M2894 1078c-9,-29 -19,-58 -31,-86 -8,-18 -20,-42 -41,-48 10,-7 22,-13 34,-18 2,-1 4,-2 5,-2 8,-3 17,-5 25,-5 2,0 5,0 7,0 6,1 11,4 15,8 6,5 9,12 12,19 8,17 14,35 21,53 -10,1 -17,12 -21,22 -9,19 -17,38 -26,57z"></path>
   <path class="fil1" d="M4400 876c46,71 61,167 60,248 -2,131 -88,348 -248,348 -50,1 -43,-247 -43,-282 0,-128 6,-258 44,-381 2,-8 5,-15 10,-21 12,-14 35,-13 53,-7 56,16 96,51 124,95z"></path>
   <path class="fil48" d="M4396 1346c10,-17 18,-34 26,-52 -8,18 -16,35 -26,52l0 0z"></path>
   <path class="fil52" d="M4383 1366c5,-7 9,-13 13,-20l0 0c-4,6 -8,13 -12,19 0,0 0,1 -1,1z"></path>
   <path class="fil50" d="M4450 1204c0,0 0,0 0,0 6,-28 9,-55 10,-79 -1,26 -4,53 -10,79z"></path>
   <path class="fil48" d="M4425 1286c11,-27 19,-55 25,-82 0,0 0,0 0,0 -6,28 -14,55 -25,82 0,0 0,0 0,0z"></path>
   <path class="fil49" d="M4400 876c0,-1 0,-1 0,-1 0,0 0,0 0,1z"></path>
   <path class="fil50" d="M4365 1380c-15,0 -22,-38 -26,-56 -22,-89 -25,-182 -15,-272 5,-45 13,-89 25,-133 4,-16 15,-59 32,-59 6,0 12,5 19,15 0,0 0,0 0,1l0 0c45,69 60,160 60,240 0,3 0,5 0,8l0 0c0,0 0,0 0,1 -1,24 -4,51 -10,79 -6,27 -14,55 -25,82 -1,3 -2,5 -3,8 -8,18 -16,35 -26,52 -4,7 -8,13 -13,20 -7,10 -13,14 -18,14z"></path>
   <path class="fil52" d="M4212 1472c-14,0 -23,-18 -30,-45l0 0c7,27 16,45 30,45 0,0 0,0 0,0 35,0 67,-10 95,-29 1,1 2,1 2,1 1,0 2,0 3,-1 -24,23 -68,29 -100,29 0,0 0,0 0,0z"></path>
   <path class="fil49" d="M4323 800c-5,-2 -10,-5 -15,-7 0,-1 0,-1 0,-1 5,2 10,5 16,7 -1,1 -1,1 -1,1z"></path>
   <path class="fil51" d="M4308 793c-10,-5 -21,-9 -32,-12 -8,-3 -16,-4 -24,-4l0 0c8,0 16,1 24,4 11,3 21,6 32,11 0,0 0,0 0,1z"></path>
   <path class="fil50" d="M4212 1472c-14,0 -23,-18 -30,-45 0,0 0,0 0,0 -11,-50 -13,-131 -13,-185 0,-24 0,-43 0,-51 0,0 0,0 0,-1 0,-3 0,-7 0,-11 0,-124 7,-250 44,-370 2,-8 5,-15 10,-21 7,-8 18,-11 29,-11 8,0 16,1 24,4 11,3 22,7 32,12 5,2 10,5 15,7 -11,11 -18,22 -25,37 -11,24 -16,50 -21,76 -25,150 -33,315 -4,464 1,6 22,60 34,66 -28,19 -60,29 -95,29 0,0 0,0 0,0z"></path>
   <path class="fil22" d="M2725 3872c0,0 82,-554 133,-820 27,-135 53,-270 79,-404 23,-120 33,-234 48,-353 2,-14 4,-27 8,-40 5,-14 13,-28 21,-41 36,-63 61,-134 58,-207 -4,-69 -34,-135 -63,-198 -25,-54 -50,-110 -71,-165 -1,-3 -2,-5 -1,-8 0,-3 2,-5 4,-7 25,-29 49,-58 70,-89 2,11 4,22 10,31 20,26 42,1 45,-22 3,-23 3,-47 -1,-71 -2,-16 -8,-44 -26,-50 -4,-2 -9,-2 -14,-2 5,-18 0,-37 -7,-54 -2,-4 -5,-9 -9,-12 -4,-3 -10,-3 -14,1 2,-12 -3,-23 -9,-34 -2,-4 -4,-9 -8,-11 -4,-1 -8,-1 -12,0 -40,6 -76,31 -107,57 20,-17 30,-43 40,-66 13,-30 28,-60 39,-91 23,-61 37,-127 25,-193 -2,-11 -7,-23 -18,-25 -12,-1 -20,12 -25,23 -44,99 -91,196 -142,292 -24,46 -47,93 -76,136 -24,37 -56,80 -38,126 5,12 12,22 13,34 1,9 -2,17 -2,25 -1,21 11,41 19,61 6,17 10,36 13,55 12,74 25,148 38,222 13,78 24,157 41,234 9,42 -32,110 -48,146 -26,61 -51,121 -77,182 -53,124 -106,248 -158,372 -105,245 -209,491 -313,736 -32,75 -84,225 -84,225l619 5z"></path>
   <path class="fil53" d="M2968 1072c0,-16 -2,-33 -5,-49 -1,-4 -2,-9 -4,-14 2,4 3,9 4,14 3,16 5,33 5,49z"></path>
   <path class="fil54" d="M2785 1411c40,-68 78,-139 104,-213 12,-35 22,-70 32,-105 8,-30 14,-63 26,-91 6,0 9,3 12,7 2,5 3,10 4,14 3,16 5,33 5,49 0,45 -11,89 -25,131 -2,5 -3,9 -5,13 -3,8 -6,16 -9,24 -9,22 -20,44 -30,67l0 0c-12,26 -19,41 -41,58 -17,13 -55,28 -71,45 -1,0 -1,1 -2,1z"></path>
   <path class="fil55" d="M2460 3875c-71,0 -142,-2 -212,-7l477 4c0,0 0,0 0,0l0 0c0,0 0,0 0,0 -87,0 -176,3 -265,3z"></path>
   <path class="fil56" d="M3064 1558c1,-2 1,-4 2,-6 -1,2 -1,4 -2,6 0,0 0,0 0,0z"></path>
   <path class="fil54" d="M2725 3872l-477 -4c-11,0 -22,-1 -33,-2 146,-85 268,-187 350,-337 55,-100 88,-211 119,-321 59,-205 113,-411 164,-619 17,-69 33,-138 40,-208 4,-39 3,-83 -24,-110 52,-56 67,-141 64,-215 -5,-129 -34,-257 -83,-376 -3,-8 -6,-15 -6,-23 1,-13 11,-24 21,-33 50,-47 100,-94 151,-141 4,-4 8,-7 13,-9 3,-1 5,-1 7,-1 11,0 21,8 26,18 7,14 12,43 9,61 -1,2 -1,4 -2,6 -4,13 -14,24 -25,24 -6,0 -12,-4 -18,-11 -6,-8 -8,-19 -10,-30 0,0 0,-1 0,-1 -12,17 -25,34 -38,50 0,1 0,1 0,1 0,0 -1,1 -1,1 -10,12 -20,25 -31,37 -2,2 -4,4 -4,7 0,1 0,1 0,1 0,3 0,5 1,7 21,55 46,111 71,165 29,63 59,129 63,198 0,5 0,10 0,14 0,68 -24,134 -58,193 -8,13 -16,27 -21,41 -4,13 -6,26 -8,40 -11,86 -19,170 -32,255 -4,32 -10,65 -16,98 -26,134 -52,269 -79,404 -50,257 -128,785 -133,818 0,1 0,2 0,2l0 0c0,0 0,0 0,0z"></path>
   <path class="fil57" d="M3011 1362c0,0 0,-1 0,-1 -2,-2 -5,-3 -8,-3 0,0 -1,0 -1,0 -2,0 -4,0 -7,1 1,-1 1,-1 1,-2 1,-1 3,-1 5,-1 0,0 1,0 1,0 4,0 7,2 9,6z"></path>
   <path class="fil41" d="M2711 1558c11,-10 22,-21 33,-31 12,-10 23,-20 35,-30 24,-20 48,-38 73,-56 25,-17 51,-34 78,-50 13,-8 26,-15 40,-22 7,-4 13,-8 20,-11 2,0 4,-1 6,-1 0,1 0,1 -1,2 -1,1 -2,1 -4,2 -6,3 -12,8 -19,12 -13,8 -25,17 -38,25 -25,17 -51,34 -76,52 -25,17 -49,35 -74,53 -12,9 -24,19 -36,28l-37 27zm300 -195c0,-1 0,-1 0,-2 0,0 0,1 0,1 0,0 0,0 0,1z"></path>
   <path class="fil29" d="M3049 1434c-1,0 -2,-1 -3,-2 -2,-2 -4,-3 -7,-4 -3,-1 -7,-2 -10,-2 -1,0 -3,0 -4,0 0,-1 1,-1 1,-2 1,0 1,0 2,0 8,0 16,4 21,10z"></path>
   <path class="fil41" d="M2746 1637c11,-11 23,-22 34,-33l35 -32c24,-21 48,-41 73,-60 25,-20 50,-39 76,-57l20 -13c6,-5 13,-9 20,-13 7,-3 14,-5 21,-5 0,0 1,0 1,0 0,1 -1,1 -1,2 1,0 3,0 4,0 3,0 7,1 10,2 3,1 5,2 7,4 -5,-4 -11,-5 -17,-5 0,0 -1,0 -1,0 -8,0 -15,3 -21,7 -13,8 -25,18 -38,28l-74 58 -75 59 -37 29 -37 29z"></path>
   <path class="fil58" d="M2875 1360c0,-1 0,-3 0,-4 6,-3 13,-6 19,-10 -6,5 -13,9 -19,14z"></path>
   <path class="fil57" d="M2859 1373c6,-5 10,-10 14,-16 1,0 2,0 2,-1 0,1 0,3 0,4 -5,4 -11,8 -16,13z"></path>
   <path class="fil41" d="M2693 1493c1,-11 9,-21 17,-28 9,-7 18,-13 26,-19 16,-12 33,-24 49,-35 -1,2 -2,4 -3,5 1,-2 3,-4 5,-6 1,-1 2,-1 2,-2 28,-18 56,-35 84,-51 -4,6 -8,11 -14,16 5,-5 11,-9 16,-13 6,-5 13,-9 19,-14 2,-1 5,-2 7,-3 -34,26 -70,50 -106,74 -18,12 -36,24 -54,35 -9,6 -19,12 -27,17 -9,6 -17,13 -21,24z"></path>
   <path class="fil59" d="M2782 1416c1,-1 2,-3 3,-5 1,0 1,-1 2,-1 -2,2 -4,4 -5,6z"></path>
   <path class="fil60" d="M5642 1500c0,282 -229,511 -511,511 -282,0 -510,-229 -510,-511 0,-282 228,-510 510,-510 282,0 511,228 511,510z"></path>
   <path class="fil61" d="M5158 2014c0,161 -131,292 -292,292 -162,0 -293,-131 -293,-292 0,-162 131,-293 293,-293 161,0 292,131 292,293z"></path>
   <path class="fil62" d="M5158 2014l-21 0c0,75 -31,142 -80,191 -49,50 -117,80 -191,80 -75,0 -143,-30 -192,-80 -49,-49 -80,-116 -80,-191 0,-75 31,-143 80,-192 49,-49 117,-79 192,-79 74,0 142,30 191,79 49,49 80,117 80,192l42 0c0,-174 -140,-314 -313,-314 -174,0 -314,140 -314,314 0,173 140,314 314,314 173,0 313,-141 313,-314l-21 0z"></path>
   <path class="fil63" d="M4869 1802l-14 215 90 113c3,5 10,5 15,2 4,-4 5,-11 1,-15l-85 -107 14 -206c0,-6 -4,-11 -10,-12 -6,0 -11,4 -11,10z"></path>
   <path class="fil7" d="M4863 2018l184 103c3,2 6,1 8,-2 1,-2 0,-6 -2,-7l-185 -103c-2,-1 -6,0 -7,2 -2,3 -1,6 2,7z"></path>
   <path class="fil64" d="M4899 2014c0,19 -15,34 -33,34 -19,0 -34,-15 -34,-34 0,-19 15,-34 34,-34 18,0 33,15 33,34z"></path>
   <path class="fil65" d="M4940 1583l-96 0c6,-14 13,-22 46,-51 39,-35 51,-55 51,-92 0,-53 -30,-87 -78,-87 -46,0 -74,34 -74,91 0,3 0,6 1,10l42 0 0 -9c0,-30 12,-48 32,-48 20,0 32,17 32,44 0,30 -8,42 -57,84 -39,32 -50,56 -53,106l154 0 0 -48zm194 -57l-24 0 0 -167 -52 0 -83 167 0 45 91 0 0 60 44 0 0 -60 24 0 0 -45zm-68 0l-59 0 59 -116 0 116zm159 -169l-66 280 22 0 65 -280 -21 0zm232 2l-159 0 0 48 112 0c-14,18 -41,67 -49,91 -16,40 -24,75 -30,133l45 0c4,-86 27,-152 81,-230l0 -42z"></path>
   <polygon class="fil2" points="6562,4522 6741,4645 6741,4756 6819,4756 6819,4522 "></polygon>
   <path class="fil42" d="M4258 683c-1,-34 -16,-64 -39,-85 0,-3 0,-5 0,-8 0,-13 -3,-24 -8,-35 13,-16 20,-37 19,-59 -1,-52 -44,-93 -96,-92 -1,0 -2,0 -3,0 1,-6 2,-12 2,-19 -1,-46 -40,-83 -86,-82 -3,0 -6,1 -9,1 6,-15 8,-31 8,-47 -2,-73 -61,-130 -133,-128 -28,1 -54,10 -74,25 -6,-68 -64,-121 -134,-119 -21,0 -41,6 -59,15 -13,-30 -44,-51 -79,-50 -38,1 -69,27 -79,62 -10,-5 -21,-7 -33,-7 -17,1 -33,6 -46,15 -24,-20 -56,-32 -90,-31 -75,1 -134,63 -133,138 1,2 1,5 1,7 -21,-9 -43,-13 -67,-12 -93,2 -167,79 -166,172 -5,0 -11,-1 -16,0 -72,1 -130,61 -128,133 0,9 1,17 3,25 -14,16 -23,37 -22,59 0,37 25,68 58,78 -21,16 -34,41 -34,69 1,29 16,54 39,69 -9,14 -15,30 -14,48 0,31 17,58 42,72 -7,9 -12,22 -12,35 1,31 26,55 57,55 15,-1 29,-7 39,-17 1,-23 4,-46 7,-69 -2,-2 -4,-4 -5,-6 2,-2 4,-3 6,-5 11,-72 31,-141 68,-204 -1,-4 -3,-7 -4,-11 2,0 5,0 7,0 1,0 2,0 3,0 6,-10 13,-20 21,-30l0 -163c82,1 166,1 250,1 1,-3 3,-5 4,-7 3,2 6,4 9,7 32,-1 64,-1 96,-1 13,-9 22,-21 28,-35 3,12 8,23 14,34 177,-3 354,-12 522,-31 0,59 7,112 2,164 3,2 6,5 8,8 7,1 13,1 19,1 8,0 15,-1 22,-3 -7,11 -13,23 -17,37 40,72 72,201 77,286 10,10 25,17 41,16 30,-1 55,-26 54,-57 0,-4 -1,-9 -2,-13 19,-16 31,-40 31,-66 -1,-17 -6,-32 -14,-44 28,-22 46,-57 45,-96z"></path>
   <path class="fil47" d="M2877 1025c-13,-61 -20,-124 -20,-186 0,-87 14,-174 46,-254 25,-62 61,-115 105,-159 66,-67 151,-116 245,-150 93,-33 194,-51 291,-57 14,-1 29,-2 43,-2 112,0 226,27 328,74 67,30 125,75 172,130 48,54 84,119 108,189 30,90 41,188 46,286l74 -3c-5,-102 -16,-206 -50,-307 -26,-79 -67,-152 -121,-214 -54,-63 -121,-114 -198,-149 -111,-51 -235,-80 -359,-80 -16,0 -32,0 -48,1 -137,9 -283,40 -410,105 -64,32 -124,73 -174,124 -51,51 -93,113 -121,185 -36,90 -51,186 -51,281 0,68 7,136 20,201l74 -15z"></path>
   <path class="fil66" d="M4009 2921l29 -1c29,-1 53,22 54,51l1 33c1,29 -22,53 -51,54l-32 1c-29,1 -53,-22 -54,-51l0 -21 -1 -12 -2 -71 0 0 0 0 0 0c0,-3 1,-6 3,-8l0 0c2,-3 5,-4 8,-5l0 0 0 0 0 0 0 0 0 0 0 0 1 0 0 0 0 0 0 0 0 0 0 0 1 0 0 0 0 0 0 0 0 0 0 0 0 0 0 0 0 0c1,0 1,0 1,0l0 0c2,0 4,1 6,3l36 27 0 0zm29 24c15,0 28,12 29,28l1 31c0,15 -12,28 -28,29l-30 0c-15,1 -28,-11 -29,-27 0,-25 -1,-51 -2,-77l24 18 35 -2 0 0z"></path>
   <path class="fil67" d="M4183 2946c-16,0 -27,10 -27,24 0,13 10,18 22,23l5 1c9,3 12,6 12,11 1,8 -7,10 -12,10 -3,0 -8,-1 -13,-5 -2,-3 -4,-5 -8,-5 -5,0 -7,4 -7,8 0,4 2,7 4,8 6,7 16,10 25,10 14,0 30,-9 30,-26 0,-11 -8,-18 -28,-25l-3 -1c-7,-3 -9,-6 -9,-9 0,-5 3,-8 10,-8 4,-1 7,1 10,4 2,1 4,3 7,3 4,0 7,-4 7,-8 0,-2 -1,-5 -4,-7 -5,-5 -11,-9 -21,-8l0 0z"></path>
   <path id="_1" class="fil67" d="M4244 3029c13,0 19,-10 20,-14l0 5c0,4 4,8 9,8 4,0 8,-4 8,-9l-1 -46c0,-4 -4,-8 -9,-8 -5,0 -9,4 -9,9l1 27c0,3 -3,13 -13,13 -6,0 -11,-4 -12,-14l0 -25c-1,-5 -5,-9 -9,-9 -5,0 -9,4 -9,9l1 26c0,21 11,29 23,28l0 0z"></path>
   <path id="_2" class="fil67" d="M4323 2963c-8,1 -14,5 -16,10l0 0c0,-5 -4,-9 -9,-9 -5,1 -9,5 -9,9l2 69c0,5 4,9 9,8 5,0 9,-4 9,-9l-1 -22c2,3 8,8 17,8 13,0 28,-11 28,-33 -1,-21 -17,-31 -30,-31l0 0zm-2 49c-6,0 -14,-4 -14,-16 -1,-13 7,-17 13,-18 8,0 15,6 15,17 1,11 -6,17 -14,17z"></path>
   <path id="_3" class="fil67" d="M4393 2961c-8,1 -14,5 -16,10l0 0c0,-5 -4,-9 -9,-9 -5,1 -9,5 -9,9l2 69c0,5 5,9 9,8 5,0 9,-4 9,-9l-1 -22c2,3 8,8 17,8 13,0 29,-11 28,-33 -1,-21 -17,-31 -30,-31l0 0zm-2 49c-6,0 -14,-4 -14,-16 -1,-13 7,-18 13,-18 8,0 15,6 15,17 1,11 -6,17 -14,17z"></path>
   <path id="_4" class="fil67" d="M4458 2959c-14,1 -32,12 -31,33 0,22 19,31 33,31 13,0 32,-11 31,-33 -1,-21 -19,-31 -33,-31zm0 16c8,-1 15,6 16,16 0,10 -7,17 -15,17 -8,0 -15,-6 -15,-16 0,-11 6,-17 14,-17z"></path>
   <path id="_5" class="fil67" d="M4532 2957c-10,1 -17,10 -17,15l0 -5c0,-5 -4,-9 -9,-9 -5,1 -9,5 -9,9l2 46c0,5 4,9 9,8 5,0 8,-4 8,-8l-1 -28c1,-4 6,-11 15,-11 7,-1 11,-4 11,-9 0,-4 -3,-8 -9,-8z"></path>
   <path id="_6" class="fil67" d="M4580 3004c-2,0 -4,0 -5,0 -2,0 -3,-1 -4,-5l0 -28 7 -1c4,0 7,-3 7,-7 0,-4 -3,-6 -7,-6l-8 0 0 -8c0,-4 -4,-8 -9,-8 -5,0 -9,4 -8,9l0 7 -3 0c-4,1 -7,4 -7,7 0,4 3,7 7,7l3 0 1 28c1,18 10,21 18,21 9,-1 14,-4 14,-10 0,-4 -2,-6 -6,-6l0 0z"></path>
   <line class="fil68" x1="4122" y1="2954" x2="4125" y2="3056"></line>
   <path class="fil67" d="M4119 2945c-1,-2 1,-4 3,-4 2,0 3,2 3,4l3 101c0,2 -1,3 -3,3 -2,0 -3,-1 -4,-3l-2 -101z"></path>
   <path class="fil69" d="M3782 880c-76,-2 -82,193 -29,236 42,32 107,27 139,-10 54,-63 25,-221 -110,-226z"></path>
   <path class="fil70" d="M3781 904c-71,-4 -83,154 -39,203 34,36 93,23 120,7 80,-50 26,-207 -81,-210z"></path>
   <path class="fil71" d="M3745 958c43,-35 122,-21 142,41 25,79 -66,144 -116,116 -41,-23 -62,-127 -26,-157z"></path>
   <path class="fil72" d="M3812 975c89,23 42,145 -36,134 -49,-6 -89,-166 36,-134z"></path>
   <path class="fil70" d="M3836 1054c17,-6 85,30 52,45 -33,15 -83,-36 -52,-45z"></path>
   <path class="fil40" d="M3738 910c38,-76 167,-16 178,94 -36,-102 -134,-131 -178,-94z"></path>
   <path class="fil70" d="M3763 1021c-16,-6 -30,6 -11,14 18,9 22,-9 11,-14z"></path>
   <path class="fil69" d="M3293 938c-69,-34 -163,21 -153,100 8,67 64,136 149,128 86,-9 107,-179 4,-228z"></path>
   <path class="fil70" d="M3295 953c-57,-27 -137,22 -134,92 2,61 54,122 131,114 77,-8 96,-161 3,-206z"></path>
   <path class="fil71" d="M3314 997c-44,-35 -123,-17 -129,57 -5,64 50,100 85,98 78,-4 88,-120 44,-155z"></path>
   <path class="fil72" d="M3271 1009c-106,1 -64,138 7,135 60,-2 77,-135 -7,-135z"></path>
   <path class="fil70" d="M3306 1080c16,-4 54,11 40,33 -14,22 -69,-24 -40,-33z"></path>
   <path class="fil40" d="M3328 963c-71,-89 -242,-22 -179,112 -30,-107 102,-184 179,-112z"></path>
   <path class="fil70" d="M3239 1068c-17,-3 -23,13 -3,18 20,4 16,-16 3,-18z"></path>
   <polygon class="fil73" points="724,124 2315,138 2309,764 2576,922 2308,919 2012,916 717,905 "></polygon>
   <path class="fil74" d="M724 114l1591 15 10 0 0 9 -6 621 262 154 -5 18 -268 -2 -296 -3 -1295 -11 -10 -1 0 -9 7 -781 0 -10 10 0zm1581 34l-1571 -14 -7 761 1285 12 296 2 231 2 -235 -138 -5 -3 1 -6 5 -616z"></path>
   <path class="fil74" d="M1094 289c7,0 12,2 16,6 3,4 5,9 5,16l-1 125c0,7 -2,12 -6,16 -4,4 -9,6 -16,6 -6,0 -11,-2 -15,-6 -4,-4 -6,-9 -6,-16l1 -47 -68 -1 0 47c0,7 -2,12 -6,16 -4,4 -9,6 -16,5 -6,0 -11,-2 -15,-5 -4,-4 -6,-10 -6,-16l2 -126c0,-6 2,-12 6,-15 4,-4 9,-6 15,-6 7,0 12,2 15,6 4,4 6,9 6,15l0 45 67 1 1 -45c0,-6 2,-11 6,-15 4,-4 9,-6 15,-6z"></path>
   <path id="1" class="fil74" d="M1162 459c-6,0 -11,-2 -15,-5 -4,-3 -6,-8 -6,-14l1 -81c0,-7 2,-12 6,-15 4,-3 9,-5 15,-4 6,0 11,1 15,5 4,3 6,8 6,14l-1 81c0,6 -2,11 -6,14 -4,4 -9,5 -15,5zm1 -136c-7,0 -12,-2 -16,-6 -5,-3 -7,-8 -7,-14 1,-7 3,-11 7,-15 4,-3 10,-5 17,-5 7,0 12,2 16,5 5,4 7,9 7,15 -1,6 -3,11 -7,15 -4,3 -10,5 -17,5z"></path>
   <path id="2" class="fil74" d="M1227 414c6,0 12,3 16,8 5,5 7,12 7,21 -1,19 -7,34 -20,48 -3,2 -6,3 -9,3 -3,0 -6,-1 -8,-3 -2,-2 -3,-5 -3,-7 0,-3 1,-5 3,-7 5,-6 9,-12 11,-19 -6,0 -11,-3 -14,-6 -4,-4 -6,-9 -6,-15 0,-7 2,-12 7,-16 4,-5 9,-7 16,-7z"></path>
   <path id="3" class="fil74" d="M979 689c-6,0 -11,-2 -15,-6 -4,-4 -6,-9 -6,-16l1 -126c1,-6 3,-11 6,-15 4,-4 10,-6 16,-5 7,0 12,2 16,5 4,4 6,10 6,16l-2 126c0,6 -2,12 -6,15 -4,4 -9,6 -16,6z"></path>
   <path id="4" class="fil74" d="M1049 522c7,0 13,2 17,7 4,5 6,12 6,22 0,9 -2,18 -5,25 -3,8 -8,15 -15,22 -2,2 -5,3 -8,3 -3,0 -6,-1 -8,-3 -2,-2 -4,-4 -4,-7 0,-3 1,-5 4,-7 5,-6 9,-12 11,-18 -6,-1 -11,-3 -15,-7 -3,-4 -5,-9 -5,-15 0,-6 2,-12 7,-16 4,-4 9,-7 15,-6z"></path>
   <path id="5" class="fil74" d="M1241 572c13,0 23,4 30,12 7,8 10,20 10,38l-1 51c0,7 -2,11 -6,15 -4,3 -9,4 -15,4 -6,0 -11,-1 -15,-5 -4,-3 -6,-8 -6,-14l1 -52c0,-6 -1,-11 -3,-13 -2,-3 -6,-4 -10,-4 -5,0 -10,2 -13,6 -3,4 -5,9 -5,16l-1 46c0,7 -2,12 -6,15 -4,3 -9,5 -15,5 -6,0 -11,-2 -15,-5 -4,-4 -6,-9 -6,-15l1 -52c0,-6 -1,-10 -3,-13 -2,-2 -6,-4 -10,-4 -5,0 -10,2 -13,6 -3,4 -5,9 -5,16l0 47c0,6 -3,11 -7,14 -4,3 -9,5 -15,5 -5,0 -10,-2 -14,-5 -4,-3 -6,-8 -6,-15l1 -81c0,-6 2,-11 6,-14 4,-3 9,-5 15,-5 5,0 10,2 14,5 3,3 5,7 5,12 8,-11 20,-17 36,-17 17,1 28,8 33,21 4,-6 9,-11 16,-14 7,-4 14,-6 22,-6z"></path>
   <path id="6" class="fil74" d="M1478 534c5,-5 9,-7 15,-7 5,0 10,2 14,6 4,4 6,9 6,14 0,5 -2,9 -5,13l-50 57 -1 57c0,7 -2,12 -6,16 -4,3 -9,5 -16,5 -6,0 -11,-2 -15,-6 -4,-3 -6,-9 -6,-15l0 -58 -48 -58c-4,-4 -5,-8 -5,-13 0,-5 2,-9 6,-13 4,-4 9,-6 14,-6 5,0 10,2 14,7l41 50 42 -49z"></path>
   <path id="7" class="fil74" d="M1601 578c7,0 12,2 16,5 3,4 5,8 5,14l-1 82c0,5 -2,10 -6,13 -4,4 -9,5 -15,5 -6,0 -10,-1 -14,-4 -3,-3 -5,-8 -5,-13 -4,6 -9,10 -14,13 -6,3 -12,4 -19,4 -15,0 -26,-4 -34,-12 -7,-9 -10,-21 -10,-38l1 -51c0,-6 2,-11 5,-14 4,-3 9,-5 16,-5 6,0 11,2 15,5 4,4 6,9 5,15l0 51c0,12 5,17 14,17 6,0 11,-2 14,-6 4,-4 6,-9 6,-15l0 -47c0,-6 2,-11 6,-14 4,-4 9,-5 15,-5z"></path>
   <path id="8" class="fil74" d="M1691 699c-10,0 -19,-1 -26,-2 -7,-2 -14,-5 -19,-8 -2,-1 -4,-3 -5,-6 -2,-2 -2,-5 -2,-9 0,-4 1,-7 3,-10 3,-3 6,-4 9,-4 2,0 5,0 7,1 2,0 4,1 7,2 5,2 9,4 13,5 4,1 9,1 15,1 4,0 8,0 10,-1 2,-2 4,-3 4,-5 0,-2 -1,-4 -2,-5 -1,-1 -3,-1 -7,-2 -3,-1 -9,-2 -16,-4 -14,-3 -24,-7 -30,-13 -7,-5 -10,-13 -9,-23 0,-7 2,-13 6,-19 5,-6 11,-10 19,-13 8,-4 17,-5 26,-5 7,0 14,1 21,3 7,1 12,4 18,7 4,3 7,8 7,14 0,4 -1,8 -4,11 -2,3 -5,4 -9,4 -4,0 -8,-1 -14,-4 -4,-2 -7,-3 -10,-4 -3,-1 -6,-1 -10,-1 -4,0 -7,0 -9,1 -3,2 -4,3 -4,5 0,3 2,5 5,6 3,2 9,3 18,5 15,3 26,7 32,13 6,5 9,13 9,23 0,12 -5,21 -14,27 -10,7 -23,10 -39,10z"></path>
   <path id="9" class="fil74" d="M1858 581c6,1 11,2 15,6 4,3 6,8 6,14l-1 81c0,6 -2,10 -6,14 -4,3 -9,5 -16,5 -5,0 -10,-2 -13,-5 -4,-3 -6,-7 -6,-12 -4,5 -8,10 -14,13 -5,3 -12,4 -19,4 -15,0 -26,-5 -33,-13 -7,-8 -11,-21 -10,-37l0 -51c0,-6 2,-11 6,-14 4,-4 9,-5 15,-5 7,0 12,1 15,5 4,3 6,8 6,14l-1 52c0,11 5,17 15,17 5,0 10,-2 14,-6 3,-4 5,-9 5,-16l1 -47c0,-5 2,-10 6,-14 3,-3 8,-5 15,-5z"></path>
   <path id="10" class="fil74" d="M1971 565c-6,1 -10,2 -12,5 -2,3 -4,7 -4,12l0 3 13 0c13,1 19,6 19,16 0,10 -7,15 -19,15l-13 0 -1 67c0,6 -2,11 -6,14 -4,3 -9,5 -15,5 -6,0 -11,-2 -15,-5 -4,-3 -6,-8 -6,-15l1 -66 -7 0c-12,-1 -18,-6 -18,-16 0,-10 6,-15 19,-15l6 0c1,-15 6,-27 14,-35 9,-9 21,-14 36,-14l6 -1c1,0 3,0 5,0 7,0 12,1 14,4 3,2 5,6 5,11 0,4 -2,8 -4,11 -3,2 -7,4 -12,4l-6 0z"></path>
   <path id="11" class="fil74" d="M2007 703c-7,0 -12,-2 -16,-6 -5,-5 -7,-10 -7,-17 1,-6 3,-12 7,-16 4,-4 10,-6 17,-6 6,0 11,2 16,6 4,5 6,10 6,17 0,6 -2,12 -7,16 -4,4 -10,6 -16,6z"></path>
   <path id="12" class="fil74" d="M2071 704c-7,0 -12,-2 -16,-7 -5,-4 -7,-9 -7,-16 1,-6 3,-12 7,-16 4,-4 10,-7 16,-6 7,0 12,2 17,6 4,5 6,10 6,17 0,6 -2,11 -7,16 -4,4 -10,6 -16,6z"></path>
  </g>
 </g>
</svg>