<svg xmlns="http://www.w3.org/2000/svg" xmlns:xlink="http://www.w3.org/1999/xlink" xml:space="preserve" width="5.51051in" height="5.51051in" style="shape-rendering:geometricPrecision; text-rendering:geometricPrecision; image-rendering:optimizeQuality; fill-rule:evenodd; clip-rule:evenodd" viewBox="0 0 732 732">
 <defs>
  <style type="text/css">
   <![CDATA[
    .fil1 {fill:#549B45}
    .fil0 {fill:#6DBB60}
    .fil2 {fill:#7FD371}
   ]]>
  </style>
 </defs>
 <g id="Layer_x0020_1">
  <metadata id="CorelCorpID_0Corel-Layer"></metadata>
  <g id="_2443762514080">
   <path class="fil0" d="M0 365c0,25 1,46 5,66 20,101 61,139 64,152 4,1 36,16 45,20 85,34 197,39 284,10 22,-8 76,-28 91,-42 -44,0 -123,-33 -157,-56 -11,-7 -37,-25 -46,-34 -11,-11 -22,-20 -34,-32 -3,-3 -3,-5 -6,-8l-59 -76c-32,-52 -48,-106 -13,-163 9,-15 26,-32 46,-33 34,-2 32,-1 42,13 8,4 51,50 61,60 10,10 177,176 179,180l0 2c3,2 18,9 23,11l48 23c11,6 13,7 13,22 21,-22 44,-82 49,-117 14,-104 -31,-200 -89,-278 -26,-35 -51,-53 -61,-65 -9,-6 -46,-13 -55,-15 -23,-4 -38,-5 -65,-5 -3,6 -37,39 -45,47l-137 136c-6,7 -175,178 -183,182z"></path>
   <path class="fil1" d="M586 480c0,29 -12,54 -35,69 -17,11 -40,21 -62,22 -15,14 -69,34 -91,42 -87,29 -199,24 -284,-10 -9,-4 -41,-19 -45,-20l-45 133c8,0 93,-28 105,-32 7,-2 13,-4 21,-7 11,-3 13,-6 19,-2 34,20 54,32 95,43 30,9 59,13 89,14l26 0c27,-1 54,-5 81,-11 42,-11 79,-30 114,-53l46 -37c5,-5 9,-9 14,-14 25,-26 51,-67 66,-100 16,-33 32,-90 32,-130l0 -6c0,-72 -6,-115 -39,-180 -6,-13 -12,-24 -20,-36 -16,-23 -31,-41 -50,-61 -17,-16 -43,-37 -62,-48 -12,-8 -23,-14 -36,-20 -7,-4 -32,-15 -40,-16 10,12 35,30 61,65 58,78 103,174 89,278 -5,35 -28,95 -49,117z"></path>
   <path class="fil2" d="M0 365c8,-4 177,-175 183,-182l137 -136c8,-8 42,-41 45,-47 -47,0 -92,9 -134,25 -6,3 -10,5 -16,7 -13,6 -32,16 -44,24 -28,19 -28,19 -52,40 -12,11 -9,7 -22,22l-21 25c-49,61 -76,144 -76,222z"></path>
   <path class="fil1" d="M502 424l0 -2c-2,-4 -169,-170 -179,-180 -10,-10 -53,-56 -61,-60l11 28c4,10 8,19 12,29 20,47 19,39 -6,70 -14,18 -23,17 -9,40 9,16 33,46 45,58 4,5 7,6 12,10l22 19c16,12 34,22 53,30 23,9 28,9 42,-8l27 -36c11,-9 20,-2 31,2z"></path>
  </g>
 </g>
</svg>