<?xml version="1.0" encoding="UTF-8"?>
<!DOCTYPE svg PUBLIC "-//W3C//DTD SVG 1.1//EN" "http://www.w3.org/Graphics/SVG/1.1/DTD/svg11.dtd">
<!-- Creator: CorelDRAW X7 -->
<svg xmlns="http://www.w3.org/2000/svg" xml:space="preserve" width="1.31566in" height="0.269866in" version="1.1" style="shape-rendering:geometricPrecision; text-rendering:geometricPrecision; image-rendering:optimizeQuality; fill-rule:evenodd; clip-rule:evenodd"
viewBox="0 0 386 79"
 xmlns:xlink="http://www.w3.org/1999/xlink">
 <defs>
  <style type="text/css">
   <![CDATA[
    .fil2 {fill:#333333}
    .fil0 {fill:#AE5E9F}
    .fil1 {fill:white}
   ]]>
  </style>
 </defs>
 <g id="Layer_x0020_1">
  <metadata id="CorelCorpID_0Corel-Layer"/>
  <path class="fil0" d="M1 8c2,-5 6,-8 11,-8 36,0 72,0 108,0 3,0 6,1 9,3 2,3 4,6 4,10 0,13 0,27 0,41 0,6 -6,12 -12,12 -13,0 -26,0 -39,0 1,4 3,9 5,13 -8,-4 -16,-9 -23,-13 -18,0 -35,0 -52,0 -7,0 -12,-6 -12,-12 0,-13 0,-27 0,-40 0,-3 0,-5 1,-6z"/>
  <path class="fil1" d="M54 9c2,-3 6,-2 7,0 1,2 1,3 0,5 -2,5 -4,11 -5,17 -1,8 -2,16 -2,24 0,2 0,4 -3,5 -2,0 -4,-1 -5,-3 -6,-6 -9,-14 -11,-22 -3,5 -5,9 -8,14 -1,3 -3,7 -6,9 -1,1 -3,2 -4,1 -2,-2 -3,-5 -4,-7 -3,-12 -5,-24 -7,-37 -1,-2 0,-4 2,-5 2,-1 4,-1 5,0 1,1 2,3 2,4 1,9 3,19 5,28 4,-7 8,-15 12,-22 1,-1 1,-2 2,-3 2,-1 4,-1 5,0 1,1 1,3 2,4 1,7 3,13 5,18 1,-8 2,-17 5,-26 1,-1 2,-3 3,-4zm22 4c4,0 9,1 12,4 2,3 3,6 4,10 0,6 -1,12 -4,17 -1,3 -3,6 -6,8 -5,3 -11,2 -15,0 -3,-3 -5,-7 -6,-11 -1,-8 1,-18 8,-25 2,-1 4,-2 7,-3zm1 9c-2,1 -4,3 -5,5 -2,4 -3,10 -1,15 1,1 2,2 3,3 2,0 3,-1 4,-2 3,-2 4,-5 5,-9 0,-3 0,-7 -2,-10 -1,-2 -3,-2 -4,-2zm33 -9c4,0 9,1 11,4 3,3 4,7 5,10 0,6 -1,12 -3,17 -2,3 -4,6 -7,8 -5,3 -10,2 -14,0 -3,-2 -5,-5 -6,-8 -3,-9 -1,-20 6,-27 2,-2 5,-3 8,-4zm1 9c-2,1 -4,3 -5,5 -2,5 -3,10 -1,15 1,1 2,3 3,3 2,0 4,-1 5,-2 2,-3 3,-6 4,-10 0,-3 0,-7 -2,-9 -1,-2 -3,-2 -4,-2z"/>
  <path class="fil2" d="M157 16c4,0 7,0 11,1 0,2 0,5 0,8 -3,-1 -6,-1 -9,0 -3,2 -5,5 -5,9 0,4 1,8 4,10 3,1 7,1 10,0 0,3 0,6 0,9 -5,1 -9,1 -13,-1 -5,-2 -9,-6 -11,-11 -1,-4 -1,-8 0,-12 2,-6 7,-11 13,-13zm26 0c4,0 9,0 12,3 3,3 5,7 6,11 0,4 0,9 -1,13 -1,4 -4,7 -7,9 -4,2 -8,2 -12,1 -4,-1 -7,-3 -9,-6 -2,-5 -2,-10 -2,-15 0,-4 1,-8 4,-11 2,-3 5,-5 9,-5zm1 8c-2,1 -3,2 -3,4 -1,4 -1,7 -1,11 0,1 1,4 2,5 2,2 5,2 7,0 1,-2 1,-3 1,-5 1,-3 1,-6 0,-9 0,-2 0,-3 -2,-5 -1,-1 -3,-1 -4,-1zm168 -7c4,-1 8,-1 11,0 0,2 0,5 0,8 -2,-1 -6,-1 -8,0 -3,1 -5,5 -6,8 0,4 1,8 4,10 3,2 7,2 10,1 0,3 0,6 0,9 -4,1 -9,1 -13,-1 -5,-2 -9,-6 -10,-11 -1,-4 -1,-8 0,-12 1,-6 6,-11 12,-12l0 0zm-146 0c4,0 8,0 12,0 2,6 3,13 5,20 1,-7 2,-14 4,-20 4,0 8,0 12,0 2,12 4,24 5,36 -3,0 -6,0 -9,0 -1,-9 -2,-17 -3,-25 -2,8 -4,16 -6,25 -2,0 -4,0 -6,0 -3,-9 -5,-17 -7,-25 0,8 -1,16 -2,25 -3,0 -6,0 -9,0 1,-12 3,-24 4,-36zm44 0c4,0 8,0 12,0 2,6 3,13 4,20 1,-7 3,-14 4,-20 5,0 9,0 13,0 2,12 3,24 5,36 -3,0 -7,0 -10,0 -1,-9 -2,-17 -2,-25 -2,8 -4,16 -6,25 -2,0 -5,0 -7,0 -2,-9 -4,-17 -6,-25 -1,8 -2,16 -2,25 -4,0 -7,0 -10,0 2,-12 3,-24 5,-36zm40 0c7,0 13,0 20,0 0,2 0,5 0,8 -3,0 -7,0 -10,0 0,2 0,4 0,6 3,0 6,0 9,0 0,3 0,5 0,8 -3,0 -6,0 -9,0 0,2 0,4 0,6 3,0 7,0 10,0 0,3 0,5 0,8 -6,0 -13,0 -20,0 0,-12 1,-24 0,-36l0 0zm23 0c4,0 8,0 12,0 4,0 8,1 11,4 2,2 3,6 2,9 -1,3 -3,5 -5,7 2,5 5,10 8,16 -4,0 -7,0 -11,0 -2,-6 -5,-11 -8,-17 0,6 0,11 0,17 -3,0 -6,0 -9,0 0,-12 0,-24 0,-36zm9 7c0,3 0,5 0,8 2,0 4,0 6,-1 1,-1 1,-4 0,-5 -1,-2 -4,-2 -6,-2l0 0zm44 -7c6,0 13,0 19,0 1,2 0,5 0,8 -3,0 -6,0 -9,0 0,2 0,4 0,6 2,0 5,0 8,0 0,3 0,5 0,7 -3,0 -6,0 -8,0 0,3 0,5 0,7 3,0 6,0 10,0 0,3 0,5 0,8 -7,0 -13,0 -20,0 0,-12 0,-24 0,-36z"/>
 </g>
</svg>
